<svg id="Capa_1" enable-background="new 0 0 512 512" height="512" viewBox="0 0 512 512" width="512" xmlns="http://www.w3.org/2000/svg"><g><g><path clip-rule="evenodd" d="m18.5 54.565v443.212c0 3.688 3.01 6.724 6.702 6.724h106.944 228.881 45.436c3.692 0 6.73-3.035 6.73-6.724 0-230.33 0-155.917 0-406.843l-.028-4.17c0-.596-.085-1.05-.284-1.475h-54.409c-14.823 0-26.977-12.142-26.977-26.979l.057-50.469c-.54-.255-1.051-.34-1.761-.34h-5.026-299.563c-3.692 0-6.702 3.007-6.702 6.695z" fill="#f9f7f7" fill-rule="evenodd"/></g><g><path clip-rule="evenodd" d="m257.32 7.5c51.569 53.079 85.135 139.633 85.135 237.393 0 21.192-1.59 41.845-4.572 61.731-.965 6.383-2.073 12.709-3.322 18.922-1.505 7.518-3.209 14.894-5.111 22.128-17.833 67.831-52.79 123.718-97.346 156.825h128.923 45.436c3.692 0 6.73-3.035 6.73-6.724v-75.15-99.519-232.172l-.028-4.17c0-.596-.085-1.05-.284-1.475l-81.33-77.449c-.54-.255-1.051-.34-1.761-.34h-5.026z" fill="#e2e2e2" fill-rule="evenodd"/></g><g><path clip-rule="evenodd" d="m331.551 7.84-.057 50.469c0 14.837 12.154 26.979 26.977 26.979h54.409c-.454-.908-1.477-1.702-3.521-3.66l-73.492-70.015c-2.272-2.184-3.294-3.262-4.316-3.773z" fill="#cecece" fill-rule="evenodd"/></g><g><path clip-rule="evenodd" d="m423.16 64.948 38.876 11.603 9.939-33.22c3.18-10.695-2.953-22.043-13.631-25.22-10.706-3.206-22.065 2.922-25.245 13.617z" fill="#cecece" fill-rule="evenodd"/></g><g><path clip-rule="evenodd" d="m325.644 410.882 3.89 34.355c.398 2.241.369 2.355 1.988.596l22.093-26.61 23.797-28.653-22.349-27.121-33.565 10.44z" fill="#838383" fill-rule="evenodd"/></g><g><path clip-rule="evenodd" d="m412.085 70.905-90.587 302.983 27.943 8.341 27.971 8.341 83.942-280.742 6.645-22.213c1.42-4.681-1.278-9.674-5.963-11.064l-38.876-11.603c-4.685-1.39-9.683 1.276-11.075 5.957z" fill="#fe9737" fill-rule="evenodd"/></g><g><path clip-rule="evenodd" d="m452.523 37.515-9.939 33.22 19.452 5.816 9.939-33.22c3.18-10.695-2.953-22.043-13.631-25.22-3.55-1.05-7.156-1.106-10.507-.284 4.799 5.106 6.816 12.539 4.686 19.688z" fill="#b5adb6" fill-rule="evenodd"/></g><g><path clip-rule="evenodd" d="m441.931 104.04-80.052 267.692-3.89 13.05 19.424 5.787 83.942-280.742 6.645-22.213c1.42-4.681-1.278-9.674-5.963-11.064l-19.452-5.816c4.686 1.418 7.383 6.383 5.992 11.064z" fill="#f36b37" fill-rule="evenodd"/></g><g><path clip-rule="evenodd" d="m357.988 384.782-23.797 28.653-7.27 8.738 2.613 23.064c.398 2.241.369 2.355 1.988.596l22.093-26.61 23.797-28.653z" fill="#595959" fill-rule="evenodd"/></g><g><path clip-rule="evenodd" d="m293.214 104.352h-165.044c-2.811 0-5.111 2.298-5.111 5.106v30.242c0 2.809 2.3 5.106 5.111 5.106h165.045c2.811 0 5.112-2.298 5.112-5.106v-30.242c-.001-2.808-2.301-5.106-5.113-5.106z" fill="#97da7b" fill-rule="evenodd"/></g><g><path clip-rule="evenodd" d="m293.214 104.352h-46.855c2.811 0 5.111 2.298 5.111 5.106v30.242c0 2.809-2.3 5.106-5.111 5.106h46.855c2.811 0 5.112-2.298 5.112-5.106v-30.242c0-2.808-2.3-5.106-5.112-5.106z" fill="#68ca44" fill-rule="evenodd"/></g><g><path d="m500.099 115.853c-.946-1.751-2.548-3.055-4.456-3.624l-24.951-7.442 4.484-14.996c1.27-4.187.821-8.624-1.264-12.494-.82-1.522-1.858-2.874-3.063-4.039l8.314-27.79c4.366-14.685-4.014-30.183-18.668-34.542-7.103-2.126-14.624-1.35-21.174 2.188-6.54 3.534-11.303 9.385-13.408 16.464l-8.315 27.791c-5.417 1.017-10.136 4.722-12.237 10.079l-64.33-61.272-1.126-1.077c-1.346-1.294-2.611-2.494-4.073-3.41-.065-.045-.131-.089-.198-.132-.027-.016-.053-.033-.079-.048-.577-.366-1.205-.657-1.875-.855-1.127-.403-2.385-.654-3.89-.654h-304.588c-7.831 0-14.202 6.368-14.202 14.195v214.613c0 4.143 3.358 7.5 7.5 7.5s7.5-3.357 7.5-7.5v-213.808h298.043l-.049 43.31c0 19.012 15.466 34.479 34.477 34.479h39.242l-30.837 103.119c-1.187 3.968 1.068 8.147 5.037 9.334 3.97 1.191 8.147-1.068 9.334-5.037l33.634-112.47c.063-.184.118-.37.168-.56l4.226-14.132c.207-.697 1.027-1.118 1.74-.908l38.888 11.607c.436.129.678.435.803.668.125.232.246.599.107 1.057l-6.629 22.169c-.005.017-.013.033-.018.05s-.007.034-.012.05l-81.782 273.504-13.571-4.048-27.969-8.344 40.502-135.422c1.187-3.969-1.068-8.148-5.037-9.335-3.967-1.188-8.147 1.068-9.334 5.036l-42.653 142.612c-.013.044-.02.089-.033.134-.025.089-.044.179-.066.269-.045.189-.084.379-.114.569-.015.095-.029.189-.041.285-.025.208-.04.416-.047.625-.003.075-.009.148-.01.223-.002.285.011.569.042.853.001.009 0 .018.001.027l4.147 37.002 2.966 26.194c-2.842-1.863-4.977-5.107-7.54-9.289-3.148-5.136-7.461-12.168-15.719-10.617-6.937 1.338-10.199 7.135-13.354 12.74-1.637 2.908-3.33 5.916-5.689 8.91-1.744 2.218-2.921 2.848-3.299 2.87-.302.025-2.046-.142-6.962-5.033-12.863-12.763-22.868-4.056-27.676.126-1.795 1.563-3.83 3.332-5.167 3.573-1.265.214-3.569-1.074-6.189-3.478-3.054-2.8-7.797-2.595-10.597.46-2.799 3.053-2.594 7.797.459 10.597 15.351 14.077 26.15 4.681 31.34.164 1.268-1.103 3.39-2.949 4.117-3.085.01.001 1.027.186 3.141 2.283 4.698 4.676 10.422 9.395 17.48 9.395.319 0 .641-.01.965-.029 5.185-.314 9.956-3.198 14.176-8.563 3.075-3.902 5.238-7.745 6.976-10.833.623-1.105 1.366-2.428 2.048-3.515.401.631.807 1.293 1.165 1.876 4.212 6.867 11.992 19.535 29.287 18.09.03 0 .062.007.092.007 1.114 0 2.104-.258 2.973-.645.128-.054.25-.116.374-.177.025-.013.051-.025.076-.038.365-.185.712-.396 1.037-.635 1.063-.745 1.857-1.604 2.373-2.164.086-.093.169-.188.25-.286l45.889-55.262c.068-.082.123-.173.188-.257.082-.108.162-.215.239-.327.158-.233.3-.473.43-.72.039-.075.085-.144.122-.22.162-.334.293-.679.403-1.031.01-.031.025-.057.034-.088l21.095-70.549v174.83h-379.692v-233.524c0-4.143-3.358-7.5-7.5-7.5s-7.5 3.357-7.5 7.5v234.301c0 7.842 6.371 14.223 14.202 14.223h381.261c7.847 0 14.23-6.381 14.23-14.224v-225.773l45.703-152.845 17.769 5.3-30.478 101.918c-1.187 3.968 1.068 8.147 5.037 9.334.717.214 1.44.316 2.152.316 3.229 0 6.21-2.102 7.183-5.354l32.628-109.108c.569-1.906.358-3.96-.588-5.711zm-59.811-81.988c.965-3.245 3.154-5.928 6.165-7.554 3.02-1.633 6.479-1.992 9.753-1.013 6.741 2.006 10.59 9.136 8.584 15.882l-7.79 26.04-24.502-7.313zm-101.294 24.453.037-33.338 55.439 52.808h-36c-10.739 0-19.476-8.738-19.476-19.47zm-3.689 371.218-5.091-45.22 34.174 10.195z"/><path d="m105.932 202.453c0 4.143 3.358 7.5 7.5 7.5h203.637c4.142 0 7.5-3.357 7.5-7.5s-3.358-7.5-7.5-7.5h-203.637c-4.142 0-7.5 3.358-7.5 7.5z"/><path d="m113.432 268.252h191.227c4.142 0 7.5-3.357 7.5-7.5s-3.358-7.5-7.5-7.5h-191.227c-4.142 0-7.5 3.357-7.5 7.5s3.358 7.5 7.5 7.5z"/><path d="m113.432 326.551h176.432c4.142 0 7.5-3.357 7.5-7.5s-3.358-7.5-7.5-7.5h-176.432c-4.142 0-7.5 3.357-7.5 7.5s3.358 7.5 7.5 7.5z"/><path d="m113.432 384.85h120.83c4.142 0 7.5-3.357 7.5-7.5s-3.358-7.5-7.5-7.5h-120.83c-4.142 0-7.5 3.357-7.5 7.5s3.358 7.5 7.5 7.5z"/><path d="m293.214 152.307c6.954 0 12.612-5.655 12.612-12.606v-30.241c0-6.951-5.658-12.606-12.612-12.606h-165.044c-6.954 0-12.611 5.655-12.611 12.606v30.24c0 6.951 5.657 12.606 12.611 12.606h165.044zm-162.655-40.454h160.268v25.454h-160.268z"/></g></g></svg>