<svg id="Capa_1" enable-background="new 0 0 511.992 511.992" height="512" viewBox="0 0 511.992 511.992" width="512" xmlns="http://www.w3.org/2000/svg"><g><g><path d="m476.315 157.128c-12.806-82.317-78.874-122.259-153.429-137.873.009.005 1.869 4.486-.136-.334-5.378-1.137-12.335-3.087-19.442-4.092-34.851-4.781-74.987-9.22-111.518.605-5.855 1.575-11.701 3.412-17.527 5.535.029-.005.058-.009.086-.014-9.074 3.44-16.979 6.689-27.292 12.476-41.465 23.296-70.511 62.149-74.026 116.037-1.193 18.292-9.078 27.131-10.859 34.78-2.164 9.292 7.716 18.834 11.661 28.014 1.652 3.845 1.382 8.277-.668 11.926-8.13 14.473-18.333 24.317-30.538 33.713-7.111 5.474-12.537 10.367-12.518 18.891.022 9.942 6.247 16.437 19.606 20.546 20.622 6.342 4.537 20.6-2.489 25.899-4.467 3.369-4.667 10.058-.353 13.621.069.057.14.114.211.172 5.401 4.306 8.871 7.882 10.626 9.842.759.848.641 2.14-.23 2.873-5.049 4.244-6.183 8.584-6.01 11.931.166 3.223 2.354 5.986 5.412 7.019 2.322.784 5.406 2.05 8.086 3.905 2.55 1.765 4.12 5.953 2.352 9.113-3.281 5.864-7.754 12.888-4.703 25.281 4.703 19.107 20.735 26.176 36.818 28.808 11.284 1.847 34.65-2.069 58.426-5.291 41.988-5.69 61.283 28.971 73.655 58.799l2.997 6.124c4.719 6.435 18.73 7.266 26.994 4.844l138.213-36.766c11.58-2.98 18.01-15.34 13.85-26.56-11.991-32.302-24.879-77.415-9.084-95.653.757-.835.148-.192 1.757-1.811 46.739-42.298 64.574-70.522 69.732-113.934v.001c2.039-21.064 3.905-44.306.34-68.427z" fill="#fed2a4"/><path d="m433.61 318.072c10.06-10.581 21.301-23.376 29.811-38.638 15.271-26.059 18.312-58.717 18.524-90.674-.147-17.384-1.317-34.67-6.899-53.015-9.079-30.415-28.482-58.159-55.911-78.665.003.003.005.007.008.01-28.092-21.364-62.846-35.249-98.288-42.67.01 0 .02.01.02.02-5.37-1.14-13.7-2.66-20.81-3.66-37.44-5.14-77.24-5.2-116.4 7.02 31.29-5.99 62.59-5.11 92.4-1.02 7.11 1 15.44 2.52 20.81 3.66 0-.01-.01-.02-.02-.02 74.55 15.61 146.08 59.79 158.89 142.11 1.59 10.78 2.2 21.64 2.2 32.23 0 13.12-.93 25.84-2.06 37.49-3.077 25.846-10.275 46.127-25.461 67.231-7.954 8.972-17.591 18.462-29.299 29.059-.603.572-1.183 1.072-3.02 3.1-16.35 18.87-14.04 55.65 7.04 112.45.71 1.89.14 3.46-.26 4.23-.4.75-1.34 2.09-3.26 2.58l-167.11 44.53c3.82 5.21 10.32 9.1 17.04 9.1 1.58 0 3.17-.21 4.74-.67l149.07-38.43c11.58-2.98 18.01-15.34 13.85-26.56-11.99-32.3-25.57-79.16-9.78-97.4.1-.12.21-.23.31-.35 4.505-4.703 4.034-2.952 23.865-23.048z" fill="#ffbd86"/><path d="m319.376 265.76c-.12.68-.26 1.36-.43 2.02.16-.71.27-1.43.33-2.15z" fill="#df646e"/><g><path d="m334.726 254.293c-9.28 0-17.642 3.911-23.544 10.168-2.028-.546-4.157-.841-6.357-.841-13.484 0-24.415 10.931-24.415 24.415s10.931 24.415 24.415 24.415c2.986 0 5.845-.538 8.49-1.519 5.707 5.039 13.199 8.103 21.411 8.103 14.747 0 27.191-9.862 31.097-23.351.829-2.863-3.976-5.889-3.976-9.019 0-17.878-9.244-32.371-27.121-32.371z" fill="#dc4955"/><path d="m367.096 286.66c0 3.13-.44 6.16-1.28 9.02-7.15 2.86-14.96 4.43-23.13 4.43-8.86 0-17.47-1.83-25.41-5.37-7.82 6.62-17.39 10.97-27.56 12.47-5.67-4.47-9.31-11.4-9.31-19.18 0-13.48 10.94-24.41 24.42-24.41 2.2 0 4.33.3 6.36.84 5.9-6.26 14.26-10.17 23.54-10.17 17.88 0 32.37 14.5 32.37 32.37z" fill="#d82f3c"/><path d="m301.643 350.372-17.924-.138c-4.714 0-6.79-.733-9.231-4.766l-5.853-4.968-29.922-49.448 34.472-15.95 33.853 66.621c1.954 3.991-.951 8.649-5.395 8.649z" fill="#df646e"/><path d="m304.246 352.5h-20.76c-4.71 0-9.08-2.46-11.52-6.5l-3.33-5.5h21.43c2.22 0 3.67-2.33 2.7-4.32l-27.99-57.19 10.7-4.95 34.17 69.81c1.95 3.99-.95 8.65-5.4 8.65z" fill="#dc4955"/><path d="m377.678 206.873c-.912-1.076-.936-2.639-.083-3.763 5.2-6.855 7.997-14.927 7.997-24.196.089-20.899-14.27-40.359-35.361-41.92-.561-.042-1.126-.071-1.693-.089-1.078-.033-2.057-.675-2.528-1.645-6.619-13.652-20.605-23.067-36.795-23.067-11.539 0-21.961 4.783-29.393 12.473-1.178 1.219-3.125 1.166-4.308-.049-8.772-9.015-21.034-14.617-34.606-14.617-17.479 0-32.786 9.29-41.26 23.201-.473.777-1.398 1.177-2.268.91-3.412-1.048-7.033-1.616-10.788-1.616-19.558 0-35.537 15.277-36.682 34.548-.048.802-.551 1.494-1.301 1.782-16.286 6.235-27.854 22.002-27.854 40.481 0 9.495 3.06 18.271 8.239 25.411.434.598.507 1.372.196 2.042-2.578 5.562-3.854 11.851-3.41 18.482 1.259 18.792 16.527 34.006 35.324 35.187 10.453.657 20.057-2.935 27.266-9.212 1.265-1.101 2.595-4.288 3.704-5.546.959-1.088 2.721-.804 3.305.522 4.759 10.802 15.478 18.455 28.04 18.455 3.577 0 7.009-.613 10.201-1.738.98-.345 2.068-.149 2.865.517 4.188 3.5 9.689 5.106 15.574 5.106 7.375 0 13.504-2.969 17.931-8.182.836-.985 2.183-1.347 3.388-.882 3.795 1.465 8.199 2.936 12.511 2.936 12.324 0 23.112-5.169 29.077-14.982 2.452 1.708 5.065 3.202 7.818 4.441 6.641 2.987 12.834 1.64 20.717 1.463 24.169-.542 44.335-19.431 45.577-43.574.665-12.917-3.721-23.818-11.4-32.879z" fill="#df646e"/><path d="m391.126 240.81c-1.61 24.79-22.16 44.56-46.99 45.28-7.62.22-14.87-1.31-21.35-4.23 2.08.22 4.2.29 6.35.23 24.83-.72 45.38-20.49 46.99-45.28.87-13.23-3.57-25.4-11.39-34.63-.91-1.07-.95-2.62-.09-3.74 5.2-6.86 8.3-15.41 8.3-24.68.07-15.77-9.43-30.06-23.16-36.79 21.3 1.33 38.25 19.74 38.16 40.79 0 9.27-3.1 17.82-8.3 24.68-.86 1.12-.82 2.67.09 3.74 7.82 9.23 12.26 21.4 11.39 34.63z" fill="#dc4955"/><g><path d="m271.243 229.875c-4.143 0-7.5-3.358-7.5-7.5 0-16.236 13.21-29.446 29.446-29.446 10.132 0 19.427 5.11 24.865 13.67 2.222 3.496 1.188 8.131-2.308 10.352-3.495 2.221-8.131 1.188-10.353-2.308-2.671-4.204-7.234-6.714-12.205-6.714-7.966 0-14.446 6.48-14.446 14.446.001 4.142-3.356 7.5-7.499 7.5z" fill="#dc4955"/></g><path d="m319.098 254.215c-4.053-2.094-8.891-.165-10.475 3.966-1.319 3.864-3.862 7.826-6.919 11.497-6.717 8.746-21.668 11.311-30.654 7.965-2.341-.872-4.985-.388-6.872 1.248-4.551 3.948-10.808 7.219-16.642 7.219-4.616 0-10.314-1.309-14.098-4.047-1.968-1.423-4.539-1.663-6.781-.729-2.164.902-3.859 1.214-7.852.794-8.913-.937-14.766-13.238-21.609-19.346-.894-1.126-2.226-1.916-3.837-2.045l-.082-.007c-5.78-.42-10.41-4.91-11.03-10.68-.33-3.18.59-6.3 2.6-8.79s4.87-4.04 8.05-4.38c.61-.07 1.22-.08 1.82-.06 4.03.18 7.5-2.87 7.81-6.9.74-9.43 8.11-16.99 17.53-17.98 3.48-.37 6.99.19 10.16 1.64 2.24 1.01 4.84.86 6.95-.4 4.44-2.65 9.53-4.06 14.72-4.06 6.7 0 13.23 2.37 18.38 6.66 3.18 2.66 7.9 2.23 10.56-.95 2.65-3.18 2.23-7.91-.95-10.56-7.84-6.54-17.78-10.15-27.99-10.15-6.513 0-12.919 1.453-18.749 4.226-.22.105-.47.122-.703.049-4.494-1.401-9.245-1.872-13.959-1.375-14.219 1.509-25.794 11.506-29.642 24.786-.101.347-.378.608-.731.689-5.867 1.344-11.082 4.579-14.918 9.335-4.53 5.6-6.61 12.63-5.85 19.8 1.13 10.722 8.441 19.483 18.289 22.753.323.107.566.368.648.698.52 2.104 1.226 4.155 2.093 6.129 1.265-1.096 2.453-2.277 3.559-3.532.962-1.091 2.726-.818 3.312.513 4.761 10.806 15.55 18.349 28.119 18.349 3.57 0 7-.62 10.2-1.74.98-.34 2.07-.15 2.86.52 4.19 3.5 9.58 5.61 15.47 5.61 7.37 0 13.97-3.31 18.4-8.53.83-.98 2.18-1.34 3.38-.88 3.8 1.47 7.92 2.28 12.23 2.28 10.746.307 20.919-5.604 26.88-13.18 1.022-1.29 1.928-2.649 2.719-4.04 2.858-3.899 5.227-8.154 6.996-12.671 1.425-3.637.077-7.902-3.392-9.694z" fill="#dc4955"/></g></g><g><path d="m489.381 184.465c0-60.32-27.335-109.683-79.049-142.753-41.453-26.509-98.439-41.712-156.345-41.712-56.193 0-106.139 17.165-140.637 48.333-3.074 2.777-3.314 7.52-.537 10.593 2.776 3.074 7.52 3.315 10.593.537 31.736-28.672 78.11-44.463 130.581-44.463 55.12 0 109.16 14.342 148.264 39.349 47.188 30.176 72.13 75.169 72.13 130.116 0 68.099-8.952 96-68.215 149.634-17.039 15.42-15.072 50.546 6.014 107.383 1.27 3.421 1.039 7.082-.647 10.308-1.678 3.21-4.534 5.477-8.043 6.381l-69.672 17.959c-4.011 1.034-6.425 5.124-5.391 9.135.849 2.823 4.52 6.625 9.135 5.391l69.672-17.959c7.563-1.949 13.975-7.037 17.593-13.957 3.626-6.937 4.143-15.127 1.417-22.474-17.669-47.627-21.318-80.812-10.013-91.043 62.576-56.635 73.15-89.813 73.15-160.758z"/><path d="m300.124 484.814-45.705 11.781c-6.109 1.577-12.503-1.64-14.873-7.477-8.894-21.91-29.723-73.213-82.691-66.04-3.721.504-7.431 1.025-11.087 1.539-18.053 2.535-36.723 5.157-45.119 3.783-17.798-2.913-27.568-10.285-30.747-23.199-2.192-8.904.431-13.556 3.468-18.941 3.965-5.808 1.834-15.891-4.13-19.826-3.53-2.444-7.464-4.032-10.333-4.975-.075-1.622.691-4.083 4.57-6.879 1.645-1.186 2.74-2.988 3.035-4.994s-.236-4.046-1.47-5.655c-.44-.574-4.553-5.807-13.279-12.764-.618-.493-.934-.849-1.079-1.121 6.214-4.416 18.073-14.413 16.533-25.468-.645-4.625-3.821-10.879-15.294-14.408-12.56-3.863-14.3-8.72-14.311-13.393-.01-4.768 2.82-7.717 9.593-12.932 10.706-8.242 22.94-18.962 32.501-35.983 3.191-5.681 3.572-12.62 1.02-18.562-1.513-3.52-3.614-6.849-5.647-10.068-3.122-4.945-6.351-10.059-5.6-13.282.409-1.756 1.514-4.093 2.794-6.798 3.104-6.56 7.354-15.542 8.245-29.195 1.59-24.378 8.716-46.347 21.181-65.294 2.276-3.46 1.317-8.111-2.144-10.388-3.459-2.276-8.11-1.317-10.388 2.144-13.911 21.145-21.857 45.559-23.618 72.562-.705 10.798-3.962 17.683-6.835 23.756-1.58 3.339-3.072 6.493-3.845 9.812-2.173 9.332 2.979 17.492 7.525 24.692 1.802 2.854 3.503 5.548 4.549 7.982.721 1.678.603 3.657-.316 5.293-6.641 11.822-14.919 20.932-28.574 31.443-6.161 4.743-15.471 11.911-15.443 24.851.03 13.306 8.408 22.625 24.902 27.697 3.201.985 4.432 1.944 4.812 2.31-.46 2.51-6.239 8.38-12.037 12.163-.817.53-1.524 1.215-2.08 2.015-3.333 4.799-4.964 14.592 4.203 21.9 2.499 1.992 4.542 3.81 6.15 5.339-6.771 8.718-5.025 18.41-1.438 23.668 1.078 1.579 2.741 2.692 4.608 3.103 1.405.309 5.643 1.547 8.733 3.602-3.256 5.709-8.654 15.284-5.129 30.181 4.663 18.942 19.093 30.522 42.89 34.417 10.646 1.744 28.712-.794 49.628-3.731 3.633-.51 7.319-1.028 11.016-1.529 36.416-4.935 53.614 24.392 66.778 56.818 4.298 10.586 14.642 17.23 25.662 17.23 2.271 0 4.572-.283 6.854-.871l45.704-11.781c4.011-1.034 6.425-5.124 5.391-9.135-1.033-4.011-5.118-6.425-9.133-5.392z"/><path d="m421.627 110.566c-1.521-2.66-4.121-4.506-7.137-5.065l-19.278-3.57-4.007-12.022c-1.296-3.881-4.764-6.652-8.834-7.059l-12.118-1.211-1.402-12.144c-.358-3.1-2.067-5.849-4.688-7.542s-5.827-2.122-8.802-1.176l-9.49 3.02-4.396-11.868c-1.137-3.073-3.694-5.456-6.84-6.375-3.142-.919-6.582-.287-9.192 1.69l-18.669 14.126-9.956-17.424c-1.581-2.768-4.295-4.634-7.445-5.121-3.148-.486-6.302.475-8.645 2.637l-18.283 16.878-13.994-12.661c-3.932-3.556-9.891-3.592-13.864-.084l-10.334 9.122-15.831-5.993c-2.902-1.099-6.117-.851-8.817.681s-4.562 4.164-5.107 7.219l-3.176 17.783-12.978-1.179c-4.571-.423-8.943 2.276-10.624 6.549l-3.441 8.741-21.932.442c-4.292.087-8.146 2.863-9.589 6.909l-7.981 22.396c-1.39 3.901.646 8.192 4.547 9.583 3.9 1.391 8.192-.645 9.583-4.547l6.916-19.407 21.82-.439c4.211-.084 7.929-2.671 9.472-6.591l3.301-8.385 13.749 1.25c5.421.495 10.225-3.175 11.183-8.532l2.943-16.483 13.247 5.015c3.619 1.369 7.667.627 10.565-1.932l9.332-8.237 14.062 12.722c4.02 3.638 10.055 3.608 14.036-.069l17.127-15.809 9.687 16.952c1.484 2.597 4.017 4.43 6.946 5.03 2.933.601 5.979-.092 8.363-1.896l17.903-13.547 3.769 10.178c1.933 5.223 7.6 7.991 12.911 6.302l8.353-2.658 1.187 10.277c.559 4.82 4.469 8.671 9.3 9.155l12.84 1.284 3.924 11.773c1.199 3.588 4.254 6.246 7.974 6.934l16.606 3.075-6.678 18.367c-1.76 4.842.343 10.318 4.892 12.739l13.576 7.221-1.909 11.458c-.463 2.788.243 5.683 1.939 7.947l9.054 12.071-4.756 17.417c-1.018 3.733.106 7.694 2.933 10.336l8.877 8.3-12.037 14.866c-1.493 1.846-2.315 4.17-2.315 6.544v20.971c0 4.142 3.357 7.5 7.5 7.5s7.5-3.358 7.5-7.5v-19.345l13.702-16.923c3.422-4.223 2.991-10.438-.979-14.148l-9.979-9.33 4.615-16.907c.854-3.122.229-6.398-1.713-8.984l-9.222-12.296 2.128-12.775c.736-4.416-1.425-8.795-5.375-10.895l-12.971-6.897 7.168-19.714c1.047-2.881.775-6.059-.746-8.72z"/><path d="m306.275 319.91c1.833-.082 3.645-.314 5.425-.706 6.706 4.75 14.738 7.328 23.026 7.328 21.984 0 39.87-17.885 39.87-39.87 0-.992-.05-1.983-.123-2.972 14.644-10.123 24.263-27.022 24.263-46.132 0-12.169-3.901-23.843-11.093-33.479 4.902-7.558 7.634-16.397 7.794-25.46.072-4.141-3.226-7.558-7.367-7.631-4.111-.073-7.559 3.225-7.631 7.367-.136 7.731-2.989 15.228-8.033 21.109-2.493 2.906-2.396 7.222.223 10.014 7.163 7.636 11.107 17.608 11.107 28.08 0 22.638-18.417 41.055-41.055 41.055-6.292 0-12.4-1.413-17.959-4.125.893-2.37 1.584-4.849 2.041-7.422.724-4.078-1.996-7.971-6.074-8.695-4.077-.724-7.972 1.996-8.695 6.075-2.246 12.659-13.222 21.848-26.097 21.848-3.872 0-7.612-.822-11.115-2.443-3.29-1.523-7.197-.474-9.282 2.49-3.123 4.437-8.214 7.085-13.619 7.085-4.315 0-8.409-1.651-11.527-4.649-2.152-2.069-5.327-2.666-8.083-1.517-2.83 1.179-5.831 1.777-8.919 1.777-12.051 0-22.217-9.402-23.145-21.405-.286-3.7-3.234-6.635-6.935-6.903-5.776-.419-10.412-4.911-11.022-10.68-.57-5.833 4.182-13.637 12.469-13.227 4.023.176 7.494-2.875 7.81-6.906.74-9.423 8.109-16.985 17.523-17.981 3.479-.368 6.993.198 10.167 1.639 2.242 1.017 4.839.87 6.951-.395 4.435-2.654 9.522-4.057 14.712-4.057 4.754 0 9.407 1.209 13.552 3.43-1.091 3.073-1.69 6.378-1.69 9.821 0 4.142 3.357 7.5 7.5 7.5s7.5-3.358 7.5-7.5c.021-1.816.566-4.934 2.588-8.228 2.612-3.752 6.95-6.218 11.858-6.218 4.971 0 9.534 2.51 12.205 6.714 2.222 3.497 6.857 4.529 10.353 2.308s4.529-6.856 2.308-10.352c-5.438-8.56-14.733-13.67-24.865-13.67-7.351 0-14.077 2.714-19.242 7.185-6.657-3.892-14.281-5.99-22.066-5.99-6.635 0-13.164 1.508-19.09 4.388-4.598-1.489-9.479-2.003-14.318-1.492-14.415 1.526-26.112 11.789-29.794 25.353-6.099 1.254-11.529 4.55-15.495 9.455-4.531 5.603-6.608 12.635-5.85 19.801 1.11 10.483 8.131 19.078 17.637 22.514-5.653 5.673-13.239 8.861-21.42 8.861-1.047 0-2.101-.053-3.132-.159-4.114-.424-7.802 2.578-8.224 6.698s2.578 7.803 6.698 8.224c1.536.157 3.104.237 4.658.237 10.485 0 20.589-3.701 28.601-10.201 6.972 9.829 18.443 16.236 31.201 16.236 3.509 0 6.952-.471 10.285-1.402 1.604 1.136 3.31 2.093 5.079 2.906l26.833 44.344c3.775 6.239 10.65 10.114 17.942 10.114h20.758c4.691 0 8.976-2.376 11.459-6.357 2.484-3.981 2.735-8.874.673-13.089zm10.668-32.551c7.917 4.104 16.688 6.256 25.738 6.256 5.742 0 11.285-.871 16.505-2.483-2.112 11.587-12.272 20.401-24.46 20.401-6.06 0-11.901-2.21-16.447-6.225-2.072-1.829-4.979-2.372-7.572-1.41-3.969 1.472-8.49 1.351-12.399-.264l-1.815-3.708c7.987-2.098 15.078-6.519 20.45-12.567zm-33.452 57.641c-2.076 0-4.034-1.104-5.108-2.88l-20.716-34.234c6.097-1.139 11.743-4.049 16.207-8.363 2.092.635 4.228 1.086 6.396 1.38l21.586 44.097z"/><path d="m121.152 236.519c-1.965 5.137-2.959 10.543-2.959 16.128 0 8.212 2.22 16.26 6.419 23.273 1.405 2.347 3.892 3.648 6.442 3.648 1.311 0 2.639-.344 3.846-1.066 3.554-2.128 4.709-6.734 2.582-10.288-2.806-4.686-4.289-10.068-4.289-15.567 0-4.774 1.083-9.35 3.22-13.602 1.292-2.571 1-5.655-.753-7.937-4.844-6.306-7.404-13.846-7.404-21.804 0-15.241 9.671-28.845 24.064-33.853 2.954-1.027 4.959-3.78 5.034-6.906.373-15.744 13.49-28.552 29.239-28.552 3.332 0 6.61.561 9.743 1.668 3.432 1.212 7.241-.215 9.03-3.386 7.231-12.815 20.85-20.776 35.543-20.776 11.982 0 23.313 5.244 31.086 14.388 1.425 1.677 3.515 2.642 5.714 2.642h.05c2.218-.015 4.315-1.01 5.729-2.719 6.371-7.7 15.749-12.117 25.729-12.117 13.335 0 25.367 7.917 30.655 20.169 1.187 2.75 3.895 4.528 6.886 4.528.123 0 .25-.003.395-.008 8.066.02 15.841 2.951 21.901 8.26 3.116 2.729 7.854 2.417 10.584-.699 2.729-3.116 2.416-7.854-.699-10.583-7.698-6.744-17.302-10.843-27.425-11.774-8.471-15.264-24.592-24.893-42.297-24.893-11.688 0-22.803 4.177-31.51 11.666-10.115-8.886-23.146-13.86-36.797-13.86-18.104 0-35.014 8.834-45.417 23.395-2.918-.599-5.895-.901-8.898-.901-11.636 0-22.623 4.481-30.938 12.617-7.085 6.933-11.563 15.862-12.893 25.543-17.833 8.244-29.505 26.21-29.505 46.15-.003 9.765 2.713 19.086 7.893 27.216z"/></g></g></svg>