<svg id="Capa_1" enable-background="new 0 0 512 512" height="512" viewBox="0 0 512 512" width="512" xmlns="http://www.w3.org/2000/svg"><g id="XMLID_2340_"><g id="XMLID_2941_"><path id="XMLID_2950_" d="m376 10h-240c-17.673 0-32 14.327-32 32v428c0 17.673 14.327 32 32 32h240c17.673 0 32-14.327 32-32v-428c0-17.673-14.327-32-32-32z" fill="#d0ace4"/><path id="XMLID_2947_" d="m104 74h304v348h-304z" fill="#fff"/></g><path id="XMLID_2344_" d="m350 272v-26l-64 64 64 64v-26h128v-76z" fill="#ff7d95"/><path id="XMLID_2343_" d="m162 148v-26l64 64-64 64v-26h-128v-76z" fill="#9de2d0"/><g id="XMLID_346_"><path id="XMLID_347_" d="m255.73 452c-2.64 0-5.21 1.069-7.069 2.93-1.86 1.86-2.931 4.44-2.931 7.07s1.07 5.21 2.931 7.069c1.859 1.86 4.439 2.931 7.069 2.931s5.21-1.07 7.07-2.931c1.86-1.859 2.93-4.439 2.93-7.069s-1.069-5.21-2.93-7.07c-1.86-1.861-4.441-2.93-7.07-2.93z"/><path id="XMLID_369_" d="m256 64c-2.63 0-5.21 1.069-7.07 2.93-1.86 1.86-2.93 4.44-2.93 7.07s1.069 5.21 2.93 7.069c1.86 1.861 4.44 2.931 7.07 2.931s5.21-1.07 7.069-2.931c1.861-1.859 2.931-4.439 2.931-7.069s-1.07-5.21-2.931-7.07c-1.859-1.861-4.439-2.93-7.069-2.93z"/><path id="XMLID_372_" d="m478 262h-60v-220c0-23.159-18.841-42-42-42h-240c-23.159 0-42 18.841-42 42v96h-60c-5.522 0-10 4.477-10 10v76c0 5.523 4.478 10 10 10h60v236c0 23.159 18.841 42 42 42h240c23.159 0 42-18.841 42-42v-112h60c5.522 0 10-4.478 10-10v-76c0-5.522-4.478-10-10-10zm-434-104h118c5.523 0 10-4.477 10-10v-1.857l39.857 39.857-39.857 39.857v-1.857c0-5.523-4.477-10-10-10h-118zm332 334h-240c-12.131 0-22-9.869-22-22v-38h284v38c0 12.131-9.869 22-22 22zm22-80h-284v-178h38v16c0 4.045 2.436 7.691 6.173 9.239 1.237.512 2.537.761 3.825.761 2.603 0 5.16-1.016 7.073-2.929l64-64c3.905-3.905 3.905-10.237 0-14.143l-64-64c-2.859-2.86-7.161-3.713-10.898-2.168-3.737 1.549-6.173 5.195-6.173 9.24v16h-38v-54h97c5.523 0 10-4.478 10-10s-4.477-10-10-10h-97v-22c0-12.131 9.869-22 22-22h240c12.131 0 22 9.869 22 22v22h-97c-5.522 0-10 4.478-10 10s4.478 10 10 10h97v178h-38v-16c0-4.045-2.436-7.691-6.173-9.239-3.738-1.545-8.039-.692-10.898 2.168l-64 64c-3.905 3.905-3.905 10.237 0 14.143l64 64c1.913 1.913 4.471 2.929 7.073 2.929 1.288 0 2.588-.249 3.825-.761 3.736-1.548 6.173-5.194 6.173-9.239v-16h38zm70-74h-118c-5.522 0-10 4.478-10 10v1.857l-39.857-39.857 39.857-39.857v1.857c0 5.522 4.478 10 10 10h118z"/></g></g></svg>