<svg id="Layer_5" enable-background="new 0 0 64 64" height="512" viewBox="0 0 64 64" width="512" xmlns="http://www.w3.org/2000/svg"><g><g><g><path d="m21 56h12c0 3.31-2.69 6-6 6-1.66 0-3.16-.67-4.24-1.76-1.09-1.08-1.76-2.58-1.76-4.24z" fill="#aab2bd"/></g><g><path d="m33 52c1.1 0 2 .9 2 2 0 .55-.22 1.05-.59 1.41-.36.37-.86.59-1.41.59h-12c-1.1 0-2-.9-2-2 0-.55.22-1.05.59-1.41.36-.37.86-.59 1.41-.59z" fill="#ccd1d9"/></g><g><path d="m36.41 51.41c-.36.37-.86.59-1.41.59h-2-12-2c-1.1 0-2-.9-2-2 0-.55.22-1.05.59-1.41.36-.37.86-.59 1.41-.59h9 7c1.1 0 2 .9 2 2 0 .55-.22 1.05-.59 1.41z" fill="#ccd1d9"/></g><g><path d="m46 26v.32c0 5.49-2.47 10.7-6.72 14.18l-4.28 3.5v4h-7v-10h-1c-.83 0-1.58-.34-2.12-.88s-.88-1.29-.88-2.12c0-1.66 1.34-3 3-3h1v-6h6v-1c0-.83.34-1.58.88-2.12s1.29-.88 2.12-.88c1.66 0 3 1.34 3 3v1z" fill="#fcd770"/></g><g><path d="m8.02 26h7.98v-1c0-1.66 1.34-3 3-3 .83 0 1.58.34 2.12.88s.88 1.29.88 2.12v1h6v6h-1c-1.66 0-3 1.34-3 3 0 .83.34 1.58.88 2.12s1.29.88 2.12.88h1v10h-9v-4l-4.28-3.5c-2.12-1.74-3.8-3.91-4.95-6.34-1.15-2.42-1.77-5.1-1.77-7.84 0-.11 0-.22.01-.32z" fill="#fcd770"/></g><g><path d="m28 21v5h-6v-1c0-.83-.34-1.58-.88-2.12s-1.29-.88-2.12-.88c-1.66 0-3 1.34-3 3v1h-7.98-.01c.16-9.97 8.3-18 18.31-18h1.68v7h-1c-.83 0-1.58.34-2.12.88s-.88 1.29-.88 2.12c0 1.66 1.34 3 3 3z" fill="#fcd770"/></g><g><path d="m56 4v12c0 1.1-.9 2-2 2h-4v-1c0-.83-.34-1.58-.88-2.12s-1.29-.88-2.12-.88c-1.66 0-3 1.34-3 3v1h-6v-5h-1c-.83 0-1.58-.34-2.12-.88s-.88-1.29-.88-2.12c0-1.66 1.34-3 3-3h1v-3c0-1.1.9-2 2-2h14c1.1 0 2 .9 2 2z" fill="#fcd770"/></g></g><g><path d="m54 1h-14c-1.654 0-3 1.346-3 3v2c-2.206 0-4 1.794-4 4s1.794 4 4 4v5h8v-2c0-1.103.897-2 2-2s2 .897 2 2v2h5c1.654 0 3-1.346 3-3v-12c0-1.654-1.346-3-3-3zm1 15c0 .551-.448 1-1 1h-3c0-2.206-1.794-4-4-4s-4 1.794-4 4h-4v-5h-2c-1.103 0-2-.897-2-2s.897-2 2-2h2v-4c0-.551.448-1 1-1h14c.552 0 1 .449 1 1z"/><path d="m37 21c-2.206 0-4 1.794-4 4h-4v-5h-2c-1.103 0-2-.897-2-2s.897-2 2-2h2v-9h-2.681c-10.652 0-19.319 8.667-19.319 19.319 0 5.818 2.583 11.268 7.086 14.952l3.914 3.203v2.711c-1.161.414-2 1.514-2 2.816 0 1.383.945 2.539 2.22 2.884-.139.345-.22.72-.22 1.115 0 1.322.865 2.434 2.054 2.833.414 3.468 3.369 6.167 6.946 6.167s6.532-2.699 6.946-6.167c1.189-.399 2.054-1.511 2.054-2.833 0-.395-.081-.77-.22-1.116 1.275-.346 2.22-1.501 2.22-2.884 0-1.302-.839-2.402-2-2.816v-2.711l3.914-3.203c4.503-3.683 7.086-9.133 7.086-14.951v-1.319h-6c0-2.206-1.794-4-4-4zm-10.681-12h.681v5c-2.206 0-4 1.794-4 4s1.794 4 4 4v3h-4c0-2.206-1.794-4-4-4s-4 1.794-4 4h-5.95c.676-8.936 8.163-16 17.269-16zm-10.967 30.723c-3.861-3.159-6.147-7.765-6.338-12.723h7.986v-2c0-1.103.897-2 2-2s2 .897 2 2v2h6v4c-2.206 0-4 1.794-4 4s1.794 4 4 4v8h-7v-3.474zm11.648 21.277c-2.414 0-4.434-1.721-4.899-4h9.798c-.465 2.279-2.485 4-4.899 4zm6-6h-12c-.552 0-1-.449-1-1s.448-1 1-1h12c.552 0 1 .449 1 1s-.448 1-1 1zm2-4h-2-12-2c-.552 0-1-.449-1-1s.448-1 1-1h16c.552 0 1 .449 1 1s-.448 1-1 1zm3.648-11.277-4.648 3.803v3.474h-5v-10h-2c-1.103 0-2-.897-2-2s.897-2 2-2h2v-6h6v-2c0-1.103.897-2 2-2s2 .897 2 2v2h5.986c-.191 4.958-2.477 9.564-6.338 12.723z"/></g></g></svg>