<svg xmlns="http://www.w3.org/2000/svg" xmlns:xlink="http://www.w3.org/1999/xlink" viewBox="0 0 6023.489 3710"><defs><style>.cls-1,.cls-4{fill:#fff;}.cls-2{fill:#ebf3fa;}.cls-3{fill:#bdd0fb;}.cls-4{opacity:0.43;}.cls-5{fill:#91b3fa;}.cls-6{fill:#2b478b;}.cls-7{fill:url(#linear-gradient);}.cls-8{fill:url(#linear-gradient-2);}.cls-9{fill:#f78248;}.cls-10{fill:#8c9df4;}.cls-11{fill:url(#linear-gradient-3);}.cls-12{fill:url(#linear-gradient-4);}.cls-13{fill:#f79e6d;}.cls-14{fill:url(#linear-gradient-5);}.cls-15{fill:url(#linear-gradient-6);}.cls-16{fill:url(#linear-gradient-7);}.cls-17{fill:url(#linear-gradient-8);}.cls-18{fill:url(#linear-gradient-9);}.cls-19{fill:url(#linear-gradient-10);}.cls-20{fill:url(#linear-gradient-11);}.cls-21{fill:url(#linear-gradient-12);}.cls-22{fill:url(#linear-gradient-13);}.cls-23{fill:url(#linear-gradient-14);}.cls-24{fill:url(#linear-gradient-15);}.cls-25{fill:url(#linear-gradient-16);}.cls-26{fill:url(#linear-gradient-17);}</style><linearGradient id="linear-gradient" x1="-52.444" y1="5383.605" x2="-235.119" y2="6125.719" gradientTransform="matrix(1, 0, 0, 1, 4185.639, -5245.154)" gradientUnits="userSpaceOnUse"><stop offset="0" stop-color="#09005d"/><stop offset="1" stop-color="#1a0f91"/></linearGradient><linearGradient id="linear-gradient-2" x1="-208.206" y1="5539.596" x2="-264.026" y2="6138.391" gradientTransform="translate(-479.147 4953.062) rotate(-135)" xlink:href="#linear-gradient"/><linearGradient id="linear-gradient-3" x1="2751.46" y1="1832.697" x2="2230.988" y2="2084.829" gradientUnits="userSpaceOnUse"><stop offset="0" stop-color="#febbba"/><stop offset="1" stop-color="#ff928e"/></linearGradient><linearGradient id="linear-gradient-4" x1="2753.942" y1="1837.822" x2="2233.471" y2="2089.954" xlink:href="#linear-gradient-3"/><linearGradient id="linear-gradient-5" x1="1687.573" y1="2656.862" x2="1769.055" y2="2656.862" gradientTransform="matrix(1, 0, 0, 1, 0, 0)" xlink:href="#linear-gradient"/><linearGradient id="linear-gradient-6" x1="1695.709" y1="2651.739" x2="1782.417" y2="2651.739" gradientTransform="matrix(1, 0, 0, 1, 0, 0)" xlink:href="#linear-gradient"/><linearGradient id="linear-gradient-7" x1="1738.997" y1="2564.062" x2="1802.758" y2="2564.062" xlink:href="#linear-gradient-3"/><linearGradient id="linear-gradient-8" x1="2670.307" y1="2364.305" x2="2792.455" y2="2364.305" gradientTransform="matrix(1, 0, 0, 1, 0, 0)" xlink:href="#linear-gradient"/><linearGradient id="linear-gradient-9" x1="2639.863" y1="2363.163" x2="2787.149" y2="2363.163" gradientTransform="matrix(1, 0, 0, 1, 0, 0)" xlink:href="#linear-gradient"/><linearGradient id="linear-gradient-10" x1="2600.817" y1="2358.897" x2="2670.87" y2="2358.897" xlink:href="#linear-gradient-3"/><linearGradient id="linear-gradient-11" x1="1759.651" y1="2330.816" x2="2231.619" y2="2330.816" gradientTransform="matrix(1, 0, 0, 1, 0, 0)" xlink:href="#linear-gradient"/><linearGradient id="linear-gradient-12" x1="2059.5" y1="2218.445" x2="2639.863" y2="2218.445" gradientTransform="matrix(1, 0, 0, 1, 0, 0)" xlink:href="#linear-gradient"/><linearGradient id="linear-gradient-13" x1="2105.542" y1="2002.893" x2="1795.78" y2="1455.406" xlink:href="#linear-gradient-3"/><linearGradient id="linear-gradient-14" x1="2301.359" y1="1768.591" x2="2333.776" y2="1676.142" xlink:href="#linear-gradient-3"/><linearGradient id="linear-gradient-15" x1="2393.683" y1="1577.999" x2="2251.437" y2="1686.839" xlink:href="#linear-gradient-3"/><linearGradient id="linear-gradient-16" x1="2293.548" y1="1491.822" x2="2426.028" y2="1662.389" gradientTransform="matrix(1, 0, 0, 1, 0, 0)" xlink:href="#linear-gradient"/><linearGradient id="linear-gradient-17" x1="2376.04" y1="1554.939" x2="2233.793" y2="1663.78" xlink:href="#linear-gradient-3"/></defs><g id="Background"><rect class="cls-1" width="6023.489" height="3710"/></g><g id="Illustration"><path class="cls-2" d="M969.6,3227.874s-914.972-1224.3-196.581-1974.73c1069.272-1116.964,1797,470.429,2208.9-186.512,681.35-1086.691,2910.373-807.809,2228.384,543.5-357.8,708.957,839.308,603.02,351.286,1619.149Z"/><path class="cls-2" d="M1653.943,1315.462S2239.233,265.227,2994.431,116.013c1124.054-222.094,223.056,962.326,816.92,747.816,982.35-354.836,1475.231,665.53,304.893,1170.662-614.014,265.015-167.837,667.531-1040.2,1056.96Z"/><path class="cls-3" d="M2453.566,876.211c.145-12.069,16.41-15.93,21.917-5.19,53.244,103.836,201.387,371.738,370.779,495.474,275.809,201.47,507.46,572.512,405.162,809.814C3251.424,2176.309,2437.779,2191.22,2453.566,876.211Z"/><path class="cls-4" d="M2507.189,1028.91c1.01,3.542,2.124,6.385,3.189,9.494l3.337,9.1,6.87,18.106c4.661,12.035,9.505,24,14.35,35.955q14.662,35.825,30.135,71.31c20.665,47.3,42.608,94.026,65.25,140.417q33.867,69.641,71.292,137.492c24.875,45.246,50.4,90.158,77.39,134.206,53.8,88.185,112.439,173.529,176.878,254.386,32.637,40.081,66.34,79.33,102.248,116.54,36.161,36.938,73.913,72.357,114.076,104.865a2.035,2.035,0,0,0,2.624-3.109l-.021-.019a1499.145,1499.145,0,0,1-110.564-107.526c-35.105-37.577-67.994-77.161-99.8-117.541-31.8-40.41-61.959-82.093-91.161-124.427-29.192-42.356-56.616-85.9-83.787-129.585-53.985-87.627-103.268-178.1-150.021-269.841q-34.921-68.886-67.167-139.108-16.2-35.062-31.686-70.456l-15.163-35.523-7.4-17.831-3.6-8.946c-1.131-2.949-2.4-6.1-3.278-8.722l-.146-.433a2.017,2.017,0,0,0-3.851,1.2Z"/><path class="cls-5" d="M2857.236,505.647c3.425-11.028,19.394-10.133,21.514,1.219,20.5,109.748,83.272,395.842,204.857,555.524,197.969,260,309.183,663.459,150.635,853.17C3234.242,1915.56,2484.02,1707.27,2857.236,505.647Z"/><path class="cls-4" d="M2864.718,660.305c-.041,3.531.2,6.439.331,9.582l.577,9.256,1.355,18.48c.988,12.309,2.165,24.6,3.343,36.888q3.666,36.855,8.166,73.619c6.041,49.013,13.411,97.855,21.512,146.577,8.033,48.737,17.433,97.249,27.859,145.541,10.467,48.28,21.621,96.433,34.354,144.193,25.275,95.55,55.782,189.814,92.824,281.545,19,45.659,39.212,90.846,62,134.764,23.1,43.737,48.063,86.513,76.043,127.273a1.982,1.982,0,0,0,3.314-2.175l-.015-.022a1436.212,1436.212,0,0,1-72.022-128.784c-21.935-44.038-41.289-89.311-59.437-135.019-18.128-45.732-34.416-92.184-49.644-138.972-15.213-46.8-28.478-94.218-41.481-141.689-25.608-95.08-46.116-191.494-63.979-288.371q-13.243-72.694-23.667-145.886-5.3-36.572-9.852-73.253l-4.222-36.71-1.924-18.369-.859-9.185c-.233-3.011-.534-6.25-.629-8.886l-.016-.445a1.965,1.965,0,0,0-3.929.048Z"/><circle class="cls-1" cx="3536.693" cy="1234.419" r="599.087" transform="translate(163.007 2862.372) rotate(-45)"/><circle class="cls-6" cx="3536.693" cy="1234.419" r="511.298"/><path class="cls-6" d="M3536.692,1771.327c-296.05,0-536.906-240.854-536.906-536.909S3240.642,697.51,3536.692,697.51,4073.6,938.364,4073.6,1234.418,3832.742,1771.327,3536.692,1771.327Zm0-1048.206c-281.93,0-511.3,229.365-511.3,511.3s229.366,511.3,511.3,511.3,511.3-229.364,511.3-511.3S3818.622,723.121,3536.692,723.121Z"/><circle class="cls-6" cx="3536.693" cy="1234.419" r="311.712" transform="translate(163.007 2862.372) rotate(-45)"/><path class="cls-1" d="M3536.692,1571.742c-186,0-337.321-151.324-337.321-337.324S3350.693,897.1,3536.692,897.1s337.32,151.319,337.32,337.318S3722.691,1571.742,3536.692,1571.742Zm0-623.425c-157.758,0-286.1,128.344-286.1,286.1s128.345,286.106,286.1,286.106,286.1-128.348,286.1-286.106S3694.45,948.317,3536.692,948.317Z"/><circle class="cls-6" cx="3536.693" cy="1234.419" r="120.766" transform="translate(1403.002 4313.274) rotate(-74.518)"/><path class="cls-1" d="M3536.692,1380.8c-80.711,0-146.375-65.663-146.375-146.377s65.664-146.376,146.375-146.376,146.376,65.663,146.376,146.376S3617.4,1380.8,3536.692,1380.8Zm0-241.536a95.16,95.16,0,1,0,95.159,95.159A95.265,95.265,0,0,0,3536.692,1139.259Z"/><rect class="cls-7" x="3953.912" y="387.712" width="22.834" height="864.668" transform="translate(6189.422 4203.789) rotate(-135.001)"/><path class="cls-8" d="M3662.985,1078.721c9.263-9.264,52.932,34.406,43.669,43.669l-161.966,127.33c-5.984,4.7-13.738-3.049-9.033-9.033Z"/><path class="cls-5" d="M4278.759,522.762l82.254,8.175L4248.1,643.856a174.567,174.567,0,0,1-140.7,50.273h0Z"/><path class="cls-5" d="M4262.613,506.616l-8.175-82.254L4141.519,537.28a174.571,174.571,0,0,0-50.274,140.7h0Z"/><path class="cls-9" d="M3291.011,1543.062H4377.9a48.659,48.659,0,0,1,48.659,48.659V3201.966a17.688,17.688,0,0,1-17.688,17.688H3242.352a0,0,0,0,1,0,0V1591.721A48.659,48.659,0,0,1,3291.011,1543.062Z"/><path class="cls-5" d="M2774.548,1882.333h934.763a48.659,48.659,0,0,1,48.659,48.659V3224.362a0,0,0,0,1,0,0H2725.889a0,0,0,0,1,0,0V1930.993A48.659,48.659,0,0,1,2774.548,1882.333Z"/><path class="cls-9" d="M2197.249,2402.9h792a48.659,48.659,0,0,1,48.659,48.659v768.1a0,0,0,0,1,0,0H2166.278a17.688,17.688,0,0,1-17.688-17.688V2451.554A48.659,48.659,0,0,1,2197.249,2402.9Z"/><path class="cls-5" d="M1685.126,2721.628h792a48.659,48.659,0,0,1,48.659,48.659v449.367a0,0,0,0,1,0,0H1654.155a17.688,17.688,0,0,1-17.688-17.688V2770.287A48.659,48.659,0,0,1,1685.126,2721.628Z"/><path class="cls-10" d="M2461.592,1741.485l-69.277,106.577c32.227,62.784,68.023,97.444,103.834,113.921,6.395-39.116,29.239-71.584,46.012-90.87C2478.277,1834.775,2461.592,1741.485,2461.592,1741.485Z"/><path class="cls-11" d="M2699.609,1851.98c-70.925,41.979-121.614,39.517-157.448,19.133-16.773,19.286-39.617,51.754-46.012,90.87,113.843,52.379,227.842-79.458,227.842-79.458Z"/><path class="cls-12" d="M2703.469,1870.237s-19.146-33.381,8.389-59.013c0,0,8.878-10.128,18.628,4.752,0,0,29.622-26.892,37.723-16.06s29.573,37.655,8.6,68.249C2755.6,1899.1,2712.822,1885.314,2703.469,1870.237Z"/><path class="cls-13" d="M2732.582,1851.656a16.633,16.633,0,0,1-8.537-2.112c-2.614-1.548-5.907-4.779-6.749-11.386a3.466,3.466,0,1,1,6.876-.876c.4,3.111,1.505,5.168,3.392,6.292,2.628,1.567,6.534,1.247,9.434.622l-6.71-21.28a3.465,3.465,0,1,1,6.608-2.085l7.773,24.651a3.464,3.464,0,0,1-2.037,4.267A29.806,29.806,0,0,1,2732.582,1851.656Z"/><path class="cls-14" d="M1695.776,2567.726c-6.165,3.71-9.315,11.525-7.846,19.182,5.782,30.134,24.789,109.733,70.959,156.855a6.93,6.93,0,0,0,10.166.03c-11.691-12.18-26.187-33-43.132-68.357C1699.878,2621.094,1695.055,2587.578,1695.776,2567.726Z"/><path class="cls-15" d="M1755.393,2566.6s-29.768-16.193-59.41.98c-.074.043-.135.1-.207.146-.721,19.852,4.1,53.368,30.147,107.71,16.945,35.358,31.441,56.177,43.132,68.357a8.1,8.1,0,0,0,1.926-3.387C1779.654,2710.277,1797.966,2626.566,1755.393,2566.6Z"/><path class="cls-16" d="M1798.389,2568.474l-26.976,25.883a14.148,14.148,0,0,1-17.6,1.658,37.065,37.065,0,0,1-13.716-16.9,14.226,14.226,0,0,1,2.6-15.057l26.932-29.625a14.2,14.2,0,0,1,22.728,2.324l8.421,14.243A14.2,14.2,0,0,1,1798.389,2568.474Z"/><path class="cls-17" d="M2670.307,2438.644c6.272,3.525,14.623,2.4,20.553-2.66,23.339-19.92,83.142-75.785,101.287-139.211a6.929,6.929,0,0,0-5-8.852c-4.81,16.183-15.744,39.075-38.106,71.28C2714.674,2408.7,2687.921,2429.458,2670.307,2438.644Z"/><path class="cls-18" d="M2639.863,2387.373s.636,33.882,30.215,51.162c.074.043.155.067.229.109,17.614-9.186,44.367-29.944,78.736-79.443,22.362-32.2,33.3-55.1,38.106-71.28a8.1,8.1,0,0,0-3.895,0C2752.775,2295.272,2670.952,2320.726,2639.863,2387.373Z"/><path class="cls-19" d="M2637.776,2331.269l28.189,24.556a14.148,14.148,0,0,1,3.224,17.379,37.08,37.08,0,0,1-15.606,15.172,14.227,14.227,0,0,1-15.229-1.246l-31.913-24.178a14.2,14.2,0,0,1,.285-22.845l13.434-9.66A14.2,14.2,0,0,1,2637.776,2331.269Z"/><path class="cls-20" d="M2072.206,2082.726s-55,187.385-90.565,269.745c0,0-62.164,9.483-100.64,31.964s-121.35,147.081-121.35,147.081,21.643,41.087,47.757,47.39l235.923-163.467,188.288-218.965-8.937-101.561Z"/><path class="cls-21" d="M2075.6,2067.44l-16.1,51.314s14.722,134.529,184.323,111.844,190.917-50.374,190.917-50.374-14.723,85.92,170.729,189.226c0,0,28.19-21.28,34.394-45.444L2509.9,2109.8c-18.077-28.1-34.841-35.5-67.85-30.335-72.986,11.414-209.65,26.292-230.334,22.76Z"/><path class="cls-10" d="M2208.057,1685.867c-49.426,2.514-127.552,26.008-178.019,72.469,15.512,17.123,39.38,44.964,57.171,72.466,15.9-14.926,38.727-27.357,70.87-35.318-27.783,103.837-60.622,202.766-100.64,294.724a10.744,10.744,0,0,0,6.275,14.478c30.966,10.791,122.285,36.491,195.529-4.9l162.383-232.516a198.926,198.926,0,0,0,33.554-83.842l6.412-41.945S2315.753,1680.391,2208.057,1685.867Z"/><path class="cls-22" d="M2119.5,2037.724c-7.058-15.583-31.219-30.144-42.751-36.4-10.032-20.68-50.077-113.686,10.464-170.523-17.791-27.5-41.659-55.343-57.171-72.466-58.228,53.606-79.544,137.815,22.565,255.721-5.574,29.041,12.611,62.856,22.445,67.6C2079.578,2083.836,2128.875,2058.435,2119.5,2037.724Z"/><path class="cls-23" d="M2317.742,1624.108l-42.424,83.038a13.714,13.714,0,0,0,1.983,15.421c10.272,11.442,34.534,30.026,76.737,16.707a12.788,12.788,0,0,0,8.709-10.386l11.048-75.414Z"/><path class="cls-24" d="M2388.467,1527.686s24.883,57.16,26.554,87.161,8.136,49.468-26.554,55.51-63.912-11.239-79.743-41.124c0,0-24.805-46.049-19.241-64.908S2388.467,1527.686,2388.467,1527.686Z"/><path class="cls-25" d="M2320.578,1607.746l1.974-.871a4.761,4.761,0,0,0,2.327-6.54c-4.892-9.452-14.428-31.11-2.109-36.163,15.877-6.511,78.765-19.335,92.334-41.65,13.041-21.447,1.486-49.131-15.879-57a2.391,2.391,0,0,0-3.128,1.019l-1.447,2.738a2.357,2.357,0,0,1-4.348-.446h0a2.346,2.346,0,0,0-4.245-.608c-4.171,6.676-15.431,17.5-45.543,23.057-42.8,7.9-71.089,25.216-71.794,54.789a2.361,2.361,0,0,1-3.648,1.945c-3.16-1.926-8.216-2.83-14.974,2.853-11.753,9.882-6.944,35.518,18.821,56.605a2.341,2.341,0,0,1-.111,3.775c-4.671,3.041-11.634,10.275,6.407,19.92,18.662,9.976,32.6,9.157,37.963,8.271a2.346,2.346,0,0,0,1.9-2.833l-5.727-25.992a2.357,2.357,0,0,1,2.3-2.864Z"/><path class="cls-26" d="M2321.655,1613.231s-9.492-36.513-25.863-26.276,8.495,40.911,21.656,42.278Z"/></g></svg>