<svg id="_лой_1" data-name="‘лой_1" xmlns="http://www.w3.org/2000/svg" viewBox="0 0 2465.498 1717.29"><defs><style>.cls-1{fill:#ebf3fa;}.cls-2{fill:#afcdfb;}.cls-14,.cls-2{opacity:0.3;}.cls-3{fill:#f78248;}.cls-4{fill:#ea7147;}.cls-5{fill:#ffb27d;}.cls-6{fill:#6980e0;}.cls-7{fill:#20497a;}.cls-8{fill:#f99746;}.cls-9{fill:#ed7d2b;}.cls-10{fill:#8c9df4;}.cls-11{fill:#fca56b;}.cls-12{fill:#163560;}.cls-13{fill:#1f4d84;}.cls-15{fill:#b3cff9;}.cls-16{fill:#ed985f;}.cls-17{fill:#233862;}.cls-18{fill:#2b478b;}.cls-19{fill:#2b4570;}.cls-20{fill:#f3aaa0;}.cls-21{fill:#c7d8ff;}.cls-22{fill:#d14842;}.cls-23,.cls-30{fill:#94b0ed;}.cls-24{fill:#abc1ef;}.cls-25{fill:#f4a36c;}.cls-26{fill:#0f2549;}.cls-27{fill:#cde3fd;}.cls-28{fill:#94b7ea;}.cls-29{fill:#77a4e5;}.cls-30{opacity:0.5;}.cls-31{fill:#abddda;}.cls-32{fill:#304f7f;}.cls-33{fill:#ed975d;}.cls-34{fill:#314387;}.cls-35{fill:#2557a0;}.cls-36{fill:#aec3ff;}.cls-36,.cls-38{opacity:0.8;}.cls-37{fill:#9db0f4;}.cls-38{fill:#496bad;}.cls-39{fill:#fff;}</style></defs><path class="cls-1" d="M2542.933,1850.1c-156.58,0-2131.55,1.065-2131.55.813-.872-2.042-360.794-405.2,67.521-743.613,207.4-163.871-122.5-414.581,139.761-669.867,200.006-194.69,407.556,21.23,624.257-69.381,38.289-15.994,76.709-41.739,115.171-81.244a427.618,427.618,0,0,1,70.776-58.418q5.841-3.871,11.8-7.553a472.188,472.188,0,0,1,47.223-25.481q16.365-7.673,33.35-14.192h.01a547.982,547.982,0,0,1,55.273-17.892,628.69,628.69,0,0,1,82.438-16.079q18.39-2.377,37.072-3.758c242.132-18.1,514.624,83.694,655.245,232.47,28.311,29.96,157.05,184.973,55.57,398.038-64.075,134.523,191.175,309.559,250.73,482.214C2807.489,1690.752,2545.134,1845.01,2542.933,1850.1Z" transform="translate(-267.251 -141.355)"/><path class="cls-2" d="M1759.845,644.634s19.523-160.263,111.967-255.925,183.207-118.98,186.668-82.606S1913.6,399.977,1854.82,481.9,1759.845,644.634,1759.845,644.634Z" transform="translate(-267.251 -141.355)"/><path class="cls-2" d="M1780.308,688.555s24.33-115.239,97.568-178.913,140.678-74.878,140.892-48.224S1907.53,520.475,1859.629,576.3A768.165,768.165,0,0,0,1780.308,688.555Z" transform="translate(-267.251 -141.355)"/><path class="cls-2" d="M2323.562,595.4c-19.354-71.638-140.235-49.33-140.235-49.33S2101.178,671.366,2077.3,674.336,2126.618,553.5,2126.618,553.5c-46.255-4.5-164.173,52.125-164.173,52.125s7.37,146.241-16.5,143.241.081-129.821.081-129.821c-44.774,13.4-86.588,65.6-86.588,65.6-52.279,85.023,59.6,147.764,59.6,147.764s1.461,50.736-29.911,108.912l0,0s-7.078,10.74-14.278,29l12.2.007q1.5-4.908,3.318-9.471a.073.073,0,0,1,.023-.055c.018-.044.037-.087.054-.131.837-1.886,2.041-4.568,3.54-7.837l.006-.012c0-.007.008-.007.008-.015,3.732-7.3,6.255-12.688,7.851-16.579a.379.379,0,0,0,.012-.036c11.187-22.907,27.3-52.749,38.038-59a23.68,23.68,0,0,1-2.609-5.6q1.248,2.677,2.609,5.6c20.864,44.779,125.312,52.3,183.516,40.4s32.845-28.331,1.525-54.991-96.98-19.678-116.372-30.135,8.966-20.885,47.761-17.877,58.17,41.818,120.839,47.825,110.491-111.846,110.491-111.846c-43.282,13.4-120.861-10.52-123.836-25.444s111.923-13.36,129.832-17.826S2342.917,667.04,2323.562,595.4Z" transform="translate(-267.251 -141.355)"/><path class="cls-2" d="M1122.621,1104.077s-126.927-116.721-268.349-130.4-231.347,30.262-208.953,62.222,182.8-24.11,287.344,1.742S1122.621,1104.077,1122.621,1104.077Z" transform="translate(-267.251 -141.355)"/><path class="cls-2" d="M1136.427,1153.951s-99.632-76.8-203.28-77.792-166.22,36.633-147.922,58.443,131.33-29.09,208.942-16.917A820.44,820.44,0,0,1,1136.427,1153.951Z" transform="translate(-267.251 -141.355)"/><path class="cls-2" d="M803.446,1281.505c-17.764-41.4,48.192-76.3,48.192-76.3s86.3,28.718,98.785,21.14-68.988-38.961-68.988-38.961c20.326-19.564,97.8-37.009,97.8-37.009s51.564,72.4,61.8,61.986-48.929-61.781-48.929-61.781c26.365-10.481,65.933-1.373,65.933-1.373,56.91,20.792,27.272,92.8,27.272,92.8s18.411,24.706,55.257,40.591h0a104.816,104.816,0,0,1,17.72,8.43l-5.808,4.6q-2.562-1.773-5.146-3.26a.043.043,0,0,0-.032-.017c-.026-.015-.051-.028-.075-.043-1.109-.582-2.692-1.406-4.637-2.4l-.007,0-.01,0c-4.525-2.068-7.757-3.685-9.982-4.937a.076.076,0,0,1-.019-.012c-13.953-6.694-32.863-14.834-40.332-13.769a14.345,14.345,0,0,0-.866-3.648c.276,1.164.564,2.377.866,3.648,6.93,29.178-39.967,72.1-72.16,88.349s-26.309-1.12-21.436-25.609,38.764-45.891,44.059-58.173-12.135-6.568-29.473,9.475-11.948,41.818-39.523,68.278-94.729-11.641-94.729-11.641c25.655-9.919,53.583-50.526,49.379-58.751s-58.32,35.788-68.529,40.406S821.209,1322.9,803.446,1281.505Z" transform="translate(-267.251 -141.355)"/><path class="cls-3" d="M1558.264,581.334s92.089-67.94,258.431,24.649c0,0,86.069,32.723,105.793,116.508a151.63,151.63,0,0,0,29.421,60.761,189.746,189.746,0,0,1,41.945,103.992,177.56,177.56,0,0,0,21.859,71.78c14.4,25.874,29.382,68.308,23.883,128.3,0,0,53.229,57.411,23.288,185.354,0,0,24.37,80.211-30.629,152.548,0,0,13.7,92.3-65.851,123.242,0,0-41.984,95.986-167,101.819a161.784,161.784,0,0,0-52.69,11.7c-23.8,9.556-66.549,18.873-127.966,2.722-99.806-26.244-89.789-86.81-89.789-86.81V596.054Z" transform="translate(-267.251 -141.355)"/><path class="cls-3" d="M1504.578,581.334s-92.088-67.94-258.432,24.649c0,0-90.166,34.281-107.073,122.507a109.283,109.283,0,0,1-24.542,50.441,189.944,189.944,0,0,0-46.077,117.33,113.163,113.163,0,0,1-17.162,55.691c-13.123,21.1-28.515,56.474-29.188,106.924a112.721,112.721,0,0,1-12.05,49.059c-13.465,26.829-29.812,80.494-10.1,164.743,0,0-18.931,62.309,14.233,126.618a148.639,148.639,0,0,1,16.091,55.014c2.2,24.919,11.533,60.238,44.21,82.664a156.806,156.806,0,0,1,36.912,35.862c20.848,28.03,65.341,70.987,144.913,77.015a238.556,238.556,0,0,1,63.9,13.7c24.458,8.936,65.83,16.421,123.88,1.156,99.805-26.244,89.789-86.81,89.789-86.81V596.054Z" transform="translate(-267.251 -141.355)"/><path class="cls-4" d="M1448,1233.371c-44.446-5.412-80.127-30.782-106.051-75.408l-.309-.534c-12.215-21.169-5.235-47.985,15.5-61.214a39.254,39.254,0,0,0,10.141-8.746s-44.819,6.486-98.97-15.773c-31.758-13.055-53.271-40.251-53.271-40.251.6.868,2.933,29.724,29.419,53.848,7.692,7.007,25.676,16.013,38.612,18.857,13.391,2.943,19.069,16.225,24.011,28.845a256.339,256.339,0,0,0,16.557,34.578c11.662,20.2,25.467,37.092,41.111,50.469-30.016,13.393-46.889,34.159-56.015,50.287-11.453,20.241-13.5,37.69-13.58,38.423,0,0,11.137-21.526,34.721-42.5,20.838-18.538,48.345-27.835,76.382-26.622C1425.874,1238.472,1448,1233.371,1448,1233.371Z" transform="translate(-267.251 -141.355)"/><path class="cls-4" d="M1258.726,1365.242q-3.449,0-6.913-.2c-31.175-1.822-57.849-16.344-77.137-42-30.024-39.93-23.186-76.256-12.163-99.7.128-.271.257-.543.386-.812,4.573-9.515,7.129,8.287,6.58,18.8-1.176,22.542,16.59,57.352,38.7,76.208,25.592,21.825,67.043,21.334,98.636,22.39,11.832.4,21.812,1.179,11.255,8.249C1302.961,1358.3,1279.747,1365.242,1258.726,1365.242Z" transform="translate(-267.251 -141.355)"/><path class="cls-4" d="M1194.673,1484.584a23.328,23.328,0,0,1-30.649-8.148c-37.787-60.653-88.426-104.655-89.072-104.951h0c3.167,1.447,78.026,36.336,119.721,113.1Z" transform="translate(-267.251 -141.355)"/><path class="cls-4" d="M1091.553,1176.278c8.982-17.106,32.573-23.473,50.863-25.793,21.769-2.764,52.257,1.063,52.257,1.063-2.866-.331-47.922-41.952-99.013-9.545-3.207-30.726-41.013-44.147-41.013-44.147a114.228,114.228,0,0,1,11.516,20.526c4.778,10.977,9.773,27.377,6.425,43.167-3.132,14.789-13.3,27.121-30.2,36.653C1042.383,1198.2,1078.22,1205.216,1091.553,1176.278Z" transform="translate(-267.251 -141.355)"/><path class="cls-4" d="M1355.05,1006.048c18.526-5.485,39.537,6.989,53.951,18.482,17.159,13.68,35.67,38.207,35.67,38.207-1.76-2.286-3.333-63.6-62.186-77.638,19.793-23.722,3.058-60.182,3.058-60.182a114.4,114.4,0,0,1-6.688,22.566c-4.537,11.079-12.813,26.093-26.467,34.7-12.786,8.064-28.712,9.376-47.334,3.9C1305.054,986.083,1325.009,1016.666,1355.05,1006.048Z" transform="translate(-267.251 -141.355)"/><path class="cls-4" d="M1629.02,1191.977c48.147-5.861,86.8-33.345,114.884-81.688.113-.194.224-.386.335-.579,13.233-22.932,5.671-51.983-16.8-66.313a42.532,42.532,0,0,1-10.985-9.475s48.552,7.026,107.214-17.088c34.4-14.141,57.708-43.6,57.708-43.6-.651.94-3.176,32.2-31.869,58.335-8.333,7.59-27.815,17.346-41.828,20.427-14.506,3.188-20.658,17.575-26.011,31.248a277.887,277.887,0,0,1-17.937,37.458c-12.633,21.885-27.589,40.181-44.536,54.673,32.517,14.508,50.795,37,60.682,54.476,12.407,21.927,14.623,40.83,14.711,41.624,0,0-12.066-23.319-37.613-46.047-22.574-20.081-52.373-30.154-82.745-28.84C1652.989,1197.5,1629.02,1191.977,1629.02,1191.977Z" transform="translate(-267.251 -141.355)"/><path class="cls-4" d="M1803.288,1365.242q3.448,0,6.912-.2c31.176-1.822,57.85-16.344,77.138-42,30.023-39.93,23.186-76.256,12.163-99.7-.128-.271-.257-.543-.387-.812-4.572-9.515-7.129,8.287-6.58,18.8,1.176,22.542-16.589,57.352-38.7,76.208-25.592,21.825-67.043,21.334-98.636,22.39-11.832.4-21.812,1.179-11.256,8.249C1759.053,1358.3,1782.268,1365.242,1803.288,1365.242Z" transform="translate(-267.251 -141.355)"/><path class="cls-4" d="M1662.5,988.991q2.519-.882,5-1.914c22.286-9.306,37.944-26.735,45.28-50.4,11.419-36.84-3.131-61.618-17.348-75.917q-.248-.249-.5-.5c-5.842-5.778-3.026,7.876.141,15.414,6.79,16.16,2.975,46.125-8.21,65.551-12.945,22.484-43.344,32.731-66.137,41.584-8.537,3.315-15.619,6.44-6.049,8.9C1628.373,995.239,1647.151,994.369,1662.5,988.991Z" transform="translate(-267.251 -141.355)"/><path class="cls-4" d="M1819.758,1479.527a23.378,23.378,0,0,0,31.681,1.941c55.47-45.556,117.718-71.284,118.425-71.361h0c-3.469.373-85.711,9.83-150.106,69.42Z" transform="translate(-267.251 -141.355)"/><path class="cls-4" d="M1842.6,856.983c-8.982-17.106-32.573-23.472-50.863-25.794-21.769-2.763-52.258,1.065-52.258,1.065,2.868-.332,47.922-41.953,99.014-9.545,3.207-30.727,41.012-44.148,41.012-44.148a114.407,114.407,0,0,0-11.515,20.526c-4.778,10.977-9.772,27.377-6.426,43.167,3.133,14.789,13.3,27.121,30.206,36.653C1891.774,878.907,1855.937,885.922,1842.6,856.983Z" transform="translate(-267.251 -141.355)"/><path class="cls-4" d="M1970.461,1176.278c-8.982-17.106-32.573-23.473-50.862-25.793-21.77-2.764-52.258,1.063-52.258,1.063,2.866-.331,47.922-41.952,99.013-9.545,3.208-30.726,41.012-44.147,41.012-44.147a114.37,114.37,0,0,0-11.514,20.526c-4.78,10.977-9.774,27.377-6.427,43.167,3.134,14.789,13.3,27.121,30.206,36.653C2019.631,1198.2,1983.794,1205.216,1970.461,1176.278Z" transform="translate(-267.251 -141.355)"/><rect class="cls-4" x="1030.85" y="1086.627" width="1003.605" height="22.457" transform="translate(163.945 2486.567) rotate(-89.865)"/><path class="cls-5" d="M2132.982,1221.91s-2.827-6.357-4.657-9.367-9.65-11.829-10.981-9.832-6.656,15.437-3.827,19.2-.183,10.31,13.885,14.274Z" transform="translate(-267.251 -141.355)"/><path class="cls-6" d="M2289.316,1181.773s-72.014,60.113-100.093,54.549c-21.957-4.352-55.657-15.907-55.657-15.907l-6.738,17.238s30.221,40.994,61.73,41.263c49.25.42,85.635-21.323,85.635-21.323Z" transform="translate(-267.251 -141.355)"/><path class="cls-7" d="M2415.612,1815.833s-2.09,33.723-8.614,34.207c-.868.064-33.092.064-33.092.064l-41.135-.239s.27-9.911,12.294-12.006,32.149-10.546,39.433-26.439C2392.16,1794.7,2415.612,1815.833,2415.612,1815.833Z" transform="translate(-267.251 -141.355)"/><path class="cls-8" d="M2417.983,1818.174s-12.5,4.183-22.267,4.183a81.774,81.774,0,0,1-20.788-2.966s-2.355-22.767-15.309-72.931c-6.793-26.293-16.493-60.1-30.292-102.107-38.155-116.1-49.759-184.017-50.817-190.449-.057-.338-.079-.507-.079-.507l.124-.057,117.3-51.5s-14.5,160.011,4,221.428a258.853,258.853,0,0,1,6.714,29.425C2418.254,1719.4,2417.983,1818.174,2417.983,1818.174Z" transform="translate(-267.251 -141.355)"/><path class="cls-9" d="M2359.619,1746.46c-6.793-26.293-16.493-60.1-30.292-102.107-38.155-116.1-49.759-184.017-50.817-190.449.011-.192.022-.372.045-.564l117.3-51.5s-14.5,160.011,4,221.428C2402.449,1631.848,2359.619,1746.46,2359.619,1746.46Z" transform="translate(-267.251 -141.355)"/><path class="cls-7" d="M2323.992,1815.833s-2.091,33.723-8.615,34.207c-.868.064-33.091.064-33.091.064l-41.135-.239s.27-9.911,12.293-12.006,32.15-10.546,39.433-26.439C2300.54,1794.7,2323.992,1815.833,2323.992,1815.833Z" transform="translate(-267.251 -141.355)"/><path class="cls-8" d="M2257.485,1405.607s-1.523,103.688,16.416,231,11.86,181.353,11.86,181.353,12.324,3.993,17.3,4.4c12.673,1.033,25.668-2.97,25.668-2.97s25.677-127.358,18.315-191.081,35.163-218.658,35.163-218.658Z" transform="translate(-267.251 -141.355)"/><path class="cls-5" d="M2341.465,1155.185l-16.009,20.645-33.605,1.827c-.187-2.7-.68-13.976-1.117-24.189-.023-.6-.046-1.206-.073-1.794-.36-8.692-.506-18.223-.506-18.223l26.648-18.489,9.994-7.661c.013.181,1.567,9.4,1.573,10.757C2328.486,1144.582,2341.465,1155.185,2341.465,1155.185Z" transform="translate(-267.251 -141.355)"/><path class="cls-10" d="M2250.647,1410.094c.471,54.728,4.119,182.761,6.805,185.365,28.5,27.516,153.888-7.543,160.536-37.858s-25.263-388.689-73.952-403c-10.1-2.964-64.118,14.5-64.118,14.5a342.538,342.538,0,0,0-14.026,50.4c-2.059,10.461-8.782,85.106-12.7,134.986-1.035,13.3-1.884,24.829-2.383,32.918C2250.6,1390.74,2250.555,1398.884,2250.647,1410.094Z" transform="translate(-267.251 -141.355)"/><path class="cls-11" d="M2326.217,1119.019c-3.877,12.773-26.1,28.406-35.483,34.449-.023-.6-.046-1.206-.073-1.794-.36-8.692-.663-26.254-.663-26.254l26.8-10.458C2323.418,1113.258,2327.819,1113.76,2326.217,1119.019Z" transform="translate(-267.251 -141.355)"/><path class="cls-5" d="M2281.2,1128.54s49.776,15.527,58.969-15.621,21.809-50.119-9.584-61.35-41.1-1.176-46.7,8.473S2268.485,1123.7,2281.2,1128.54Z" transform="translate(-267.251 -141.355)"/><path class="cls-12" d="M2285.836,1057.042s3.175,36.245,10.67,34.671,17.385-1.831,16.287,9.1,9.232,29.465,16.12,29.422c23.18-.145,48.707-62.5,42.361-73.777C2352.964,1023.907,2259.371,1017.339,2285.836,1057.042Z" transform="translate(-267.251 -141.355)"/><path class="cls-6" d="M2293.159,1155.389c.642-.27,37.055-16.6,41.313-15.2s9.566,14.412,9.566,14.412l-64.117,14.5S2284.968,1158.838,2293.159,1155.389Z" transform="translate(-267.251 -141.355)"/><path class="cls-13" d="M2057.265,1338.733l187.21,198.815a9.827,9.827,0,0,0,13.851.143l12.736-11.982a9.828,9.828,0,0,0,.7-13.834l-187.577-199.182c-3.617-3.844-6.761-.819-10.764,2.945l-12.734,11.982C2056.686,1331.385,2053.648,1334.889,2057.265,1338.733Z" transform="translate(-267.251 -141.355)"/><path class="cls-9" d="M2159.9,1447.658l84.3,89.6a10.021,10.021,0,0,0,14.123.431l12.736-11.982a10.021,10.021,0,0,0,.429-14.123l-84.3-89.6Z" transform="translate(-267.251 -141.355)"/><path class="cls-12" d="M1843.808,1322.168a159.985,159.985,0,1,0,6.9-226.14c-.841.8-1.689,1.6-2.5,2.423A159.959,159.959,0,0,0,1843.808,1322.168Zm13.724-218.891a150.058,150.058,0,1,1-6.461,212.062A149.35,149.35,0,0,1,1857.532,1103.277Z" transform="translate(-267.251 -141.355)"/><g class="cls-14"><path class="cls-15" d="M1851.071,1315.337a150.093,150.093,0,1,0,6.463-212.061A149.279,149.279,0,0,0,1851.071,1315.337Z" transform="translate(-267.251 -141.355)"/></g><path class="cls-6" d="M2250.647,1410.094c118.966-80.563,109.271-191.367,109.271-191.367-46.417,26.187-92.429,88.172-106.731,135.753-1.035,13.3-1.884,24.829-2.383,32.918C2250.6,1390.74,2250.555,1398.884,2250.647,1410.094Z" transform="translate(-267.251 -141.355)"/><path class="cls-5" d="M2145.8,1369.319c-7.931-1.83-13.258-7.827-14.364-8.874,0,0-3.383.23.554,7.445.329.6,1.06,2.154,1.613,3.251a.7.7,0,0,1-.589,1.007c-4.577.349-9.177-1.463-18,.376-1.217.254-1.571,3.167-1.524,4.409.079,2.1-.072,4.459,2.369,7.682,1.421,1.874,5.385,3.89,14.212,7.443,3.364,1.354,12.979.333,21.991-2.764l7.2-3.333-2.233-13.382-1.808.38C2152.349,1373.56,2148.791,1370.053,2145.8,1369.319Z" transform="translate(-267.251 -141.355)"/><path class="cls-10" d="M2325.015,1169.1s101.057,19.241-29.733,165.585c-20.917,23.4-133.929,53.88-133.929,53.88s-11.461-9.752-5.684-17.649c0,0,77.812-56.5,94.933-65.489,7.7-4.041,29.891-90.186,42.447-110.932S2325.015,1169.1,2325.015,1169.1Z" transform="translate(-267.251 -141.355)"/><path class="cls-5" d="M2130.242,1223.685s-3.305-6.317-3.951-9.649-4.807-13.051-6.521-14.762c-.688-.685-2.95.2-3.217,3.146-.116,1.283.512,3.613,1.623,6.392,1.807,4.522,1.511,10.656,2.138,12.7C2121.88,1226.605,2130.242,1223.685,2130.242,1223.685Z" transform="translate(-267.251 -141.355)"/><path class="cls-16" d="M1528.263,1368.55c-6.8-21.851-36.4-25.948-48.3-6.4a24.253,24.253,0,0,0-3.615,12.181c-.656,25.62,49.873,124.79,56.58,133.561,12.21,15.97,85.911,54.375,85.911,54.375l15.662-2.282a116.076,116.076,0,0,1-18.023-14.717c-18.937-18.9-46.541-49.64-51.6-53.9C1556.2,1484.064,1541.184,1410.039,1528.263,1368.55Z" transform="translate(-267.251 -141.355)"/><path class="cls-17" d="M1549.654,1243.2c.409-1.645-35.751,16.342-37.585,18.377-16.959,18.811-12.123,43.36-2.419,43.6,6.224.152,5.017,10.5,5.017,10.5l69.333-29.33S1575.652,1237.665,1549.654,1243.2Z" transform="translate(-267.251 -141.355)"/><path class="cls-17" d="M1558.191,1247s-23.169-23.888-48.358-5.182c-21.843,16.221-2.884,41.791-30.261,50.715-13.648,4.449-35.911,14.219-27.582,53.314,5.607,26.315,88.462,53.7,83.6,75.817,0,0,28.2-44.114,7.448-65.7-9.871-10.268-22.331-36.108-21.228-40.29S1558.191,1247,1558.191,1247Z" transform="translate(-267.251 -141.355)"/><path class="cls-18" d="M1473.426,1831.007l-15-2.205s-50.446-40.09-57.959-114.894a133.682,133.682,0,0,1-.359-23.128,4.053,4.053,0,0,0-.523-2.553c0-.005-.006-.011-.017-.021-1.615-2.476-5.633-8.677-11.074-17.5-5.363-8.686-14.541-25.112-24.639-43.544-18.19-33.195-39.367-72.893-46.632-85.538-23.145-40.3-11.989-67.4-11.989-67.4s64.569-6.383,82.263-21.861l6.372,9.823s13.989,61.933,13.328,62.221q1.034,3.158,2.1,6.432c11.041,34.075,23.741,76.667,30.664,111.356,3.891,19.517,5.953,36.522,4.845,48.109-.38,3.974.083,10.081,1.141,17.622C1452.193,1752.382,1473.426,1831.007,1473.426,1831.007Z" transform="translate(-267.251 -141.355)"/><path class="cls-19" d="M1504.9,1849.99H1442.3s-1.5-9.54,1.769-16.778c3.133-6.945,7.6-7.166.57-18.052,3.978,4.1,16.764,5.789,25.813,4.572,1.109,1.8,7.149,13.857,10.853,16.518C1485.4,1839.19,1503.638,1838.142,1504.9,1849.99Z" transform="translate(-267.251 -141.355)"/><path class="cls-17" d="M1409.293,1530.846c-5.468,30.156-18.383,80.344-45.442,96.319-18.19-33.195-39.367-72.893-46.632-85.538-23.145-40.3-11.989-67.4-11.989-67.4s64.569-6.383,82.263-21.861l6.372,9.823s13.989,61.933,13.328,62.221Q1408.227,1527.572,1409.293,1530.846Z" transform="translate(-267.251 -141.355)"/><path class="cls-18" d="M1365.393,1478.888l.211-11.708c-23.325,2.943-80.426-27.873-80.426-27.873s-24.4,16.231-27.743,62.581c-1.63,22.624-11.946,118.3-13.086,146.872-.416,10.355-.555,17.744-.6,20.7a.053.053,0,0,1,0,.029,4.071,4.071,0,0,1-.991,2.409,133.647,133.647,0,0,0-12.639,19.373c-35.593,66.223-16.98,156.2-16.98,156.2l8.265-2.1s30.1-93.282,49.765-133.63c3.339-6.844,6.371-12.166,8.908-15.249,7.4-8.983,15.194-24.238,22.881-42.6,14.53-34.709,28.637-80.509,38.7-115.972C1342.366,1538.057,1365.393,1478.888,1365.393,1478.888Z" transform="translate(-267.251 -141.355)"/><path class="cls-20" d="M1542.417,1332.634v.012h-.011a.184.184,0,0,1-.023.057c-.012.011-.023.023-.023.034-.023.023-.046.069-.08.115-.011.011-.011.023-.023.034-.32.528-1.168,1.844-2.416,3.665q-.172.24-.344.515c-1.981,2.852-4.833,6.768-8.143,10.663-4.49,5.291-9.837,10.582-15.026,13.217v.011c-1.569-1.283-30.155-25.441-28.071-24.559,5.28-1.076,21.525-9.116,31.935-22.237C1525.031,1308.062,1542.417,1332.634,1542.417,1332.634Z" transform="translate(-267.251 -141.355)"/><path class="cls-6" d="M1525.968,1360.95s6.7,13.23,10.281,24.691,12.526,47.91,12.526,47.91-18.458,21.063-44.134,19.833c0,0-13.807-21.611-8.941-41.128S1525.968,1360.95,1525.968,1360.95Z" transform="translate(-267.251 -141.355)"/><path class="cls-16" d="M1542.417,1332.646a.626.626,0,0,1-.034.057c-.012.011-.023.023-.023.034-.023.035-.046.069-.08.115-.011.011-.011.023-.023.034-.344.5-1.236,1.832-2.416,3.665q-.172.24-.344.515c-1.981,2.852-4.833,6.768-8.143,10.663-13.468-9.186-13.446-26.524-12.357-35.618l23.409,20.535Z" transform="translate(-267.251 -141.355)"/><path class="cls-20" d="M1543.068,1342.929s-35.355-19.673-22.764-41.5,16.507-39.069,39.612-27.431,22.648,22.474,20.218,30.783S1552.59,1347.484,1543.068,1342.929Z" transform="translate(-267.251 -141.355)"/><path class="cls-17" d="M1586.106,1292.047c-1.619-9.692-6.543-10.618-9.975-9.97-13.057-21.593-34.388-13.165-34.388-13.165a48.139,48.139,0,0,1-27.866,16.737s4.1,7.634,21.007,12.359c5.163,1.444,11.024.57,16.676-1.333a94.386,94.386,0,0,1-23.993,9.044c22.277,2.038,43.472-18.327,45.669-20.506,1.029,3.157,2.831,9.764,1.752,14.594-1.467,6.566-7.294,18.455-3.736,19.993C1571.252,1319.8,1588.535,1306.583,1586.106,1292.047Z" transform="translate(-267.251 -141.355)"/><path class="cls-19" d="M1262.917,1849.99h-62.6s-1.5-9.54,1.769-16.778c3.133-6.945,8.039-10.1,6.865-18.5,3.977,4.1,10.46,8.681,19.509,7.463,1.109,1.8,7.158,11.418,10.861,14.079C1243.417,1839.19,1261.657,1838.142,1262.917,1849.99Z" transform="translate(-267.251 -141.355)"/><path class="cls-10" d="M1506.38,1443.232c-8.056,2.808-19.357,4.352-30.92,5.606-16.46,1.8-33.455,3.022-42.356,6.579a56.447,56.447,0,0,0-11.874,6.481v.01a3.521,3.521,0,0,0-.35.261,38.19,38.19,0,0,0-4.907,4.238,26.834,26.834,0,0,0-5.743,8.521c-3.264,8.066,1.06,30.424,3.829,42.648a11.1,11.1,0,0,1-5.684,12.321q-9.387,4.853-18.453,8.959c-.32.145-.631.281-.952.428.058-1.244.078-2.479.078-3.683a113.679,113.679,0,0,0-1.06-15.45c-1.486,8.512-7.092,17.7-12.321,24.778-84,33.708-142.692,19.055-141.73,2.264,3.313-58.3,42.627-107.887,42.627-107.887,73.325-85.266,221.644-107.713,221.644-107.713s7.1-.854,15.673,9.446c12.331,14.837,12.943,18.7,12.943,18.7S1530.079,1434.962,1506.38,1443.232Z" transform="translate(-267.251 -141.355)"/><path class="cls-6" d="M1475.455,1448.836c-16.459,1.8-33.453,3.027-42.355,6.577-3.638-54.361,22.015-95.249,22.015-95.249S1471.85,1428.265,1475.455,1448.836Z" transform="translate(-267.251 -141.355)"/><path class="cls-6" d="M1414.059,1517.576a11.1,11.1,0,0,1-5.684,12.321q-9.387,4.853-18.453,8.959c-.32-1.03-.612-2.108-.874-3.255a56.744,56.744,0,0,1-1.06-15.45c1.4-25.809,18.978-45.349,27.985-53.744a26.834,26.834,0,0,0-5.743,8.521C1406.966,1482.994,1411.29,1505.352,1414.059,1517.576Z" transform="translate(-267.251 -141.355)"/><path class="cls-6" d="M1498.208,1331.593s6.458-8.163,10.822-7.9c0,0,17.652,24.711,17.794,36.051C1526.824,1359.744,1504.808,1330.447,1498.208,1331.593Z" transform="translate(-267.251 -141.355)"/><path class="cls-16" d="M1667.552,1570.718s-9.386.167-11.412-.124c-1.988-.286-4.647-1.151-7.32-1.246-2.628-.1-5.043.756-7.511,1.263a5.6,5.6,0,0,1-1.118.107h-15.567a9.313,9.313,0,0,1-3.27-3.494c-.737-1.19-.837-4.023-2.519-4.959-9.425-5.26,15.662-2.282,15.662-2.282s15.75-.286,17.2.8C1654.288,1562.728,1668.137,1569.972,1667.552,1570.718Z" transform="translate(-267.251 -141.355)"/><path class="cls-16" d="M1624.626,1570.722s9.556,2.758,12.153,4.529l2.742,1.732s1.586-1.772-.913-3.738c-1.317-1.038-4.958-4.074-5.076-7.556S1622.625,1565.249,1624.626,1570.722Z" transform="translate(-267.251 -141.355)"/><path class="cls-21" d="M1773.153,1835.857h0a40.747,40.747,0,0,1-40.746-40.746v-257.33H1813.9v257.33A40.747,40.747,0,0,1,1773.153,1835.857Z" transform="translate(-267.251 -141.355)"/><path class="cls-22" d="M1773.153,1824.039h0a30.274,30.274,0,0,1-30.273-30.274v-91.527h60.547v91.527A30.274,30.274,0,0,1,1773.153,1824.039Z" transform="translate(-267.251 -141.355)"/><path class="cls-21" d="M1586.814,1396.426h81.491a0,0,0,0,1,0,0v257.331a40.745,40.745,0,0,1-40.745,40.745h0a40.745,40.745,0,0,1-40.745-40.745V1396.426A0,0,0,0,1,1586.814,1396.426Z"/><path class="cls-22" d="M1894.812,1824.039h0a30.274,30.274,0,0,1-30.275-30.274V1676.838h60.548v116.927A30.274,30.274,0,0,1,1894.812,1824.039Z" transform="translate(-267.251 -141.355)"/><path class="cls-21" d="M1590.624,1646.254h0a40.746,40.746,0,0,1-21.7-53.381l100.057-237.082,75.079,31.686-100.057,237.081A40.745,40.745,0,0,1,1590.624,1646.254Z" transform="translate(-267.251 -141.355)"/><path class="cls-22" d="M1598.09,1636.578l-5.742-2.423a27.158,27.158,0,0,1-14.461-35.58l72.186-171.042,65.056,1.568-81.459,193.016A27.158,27.158,0,0,1,1598.09,1636.578Z" transform="translate(-267.251 -141.355)"/><path class="cls-5" d="M1582.965,1598.731s6.829,6.067,12.023,7.35,11.1,16.155,12.042,18.28-4.959-.944-7.319-4.565-3.974-5.037-4.663-4.25.413,10.7,4.348,16.213,6.3,10.389,3.462,10.074-19.674-4.408-23.137-14.638-.923-10.591-8.883-21.114S1582.965,1598.731,1582.965,1598.731Z" transform="translate(-267.251 -141.355)"/><path class="cls-5" d="M1492.741,1349.646s-41.251,4.076-44.558,30.88,39.548,135.979,45.686,145.865c11.174,18,76.969,79.69,76.969,79.69l12.127-7.35s-46.669-79.007-53.9-86.4C1517.725,1500.722,1506.709,1358.931,1492.741,1349.646Z" transform="translate(-267.251 -141.355)"/><path class="cls-10" d="M1513.877,1400.853s4.237-69.11-48.661-52.4,8.21,135.581,8.21,135.581,31.047-1.534,42.056-28.622Z" transform="translate(-267.251 -141.355)"/><rect class="cls-23" x="1332.307" y="1659.352" width="369.813" height="13.315"/><rect class="cls-23" x="1332.307" y="1669.391" width="17.314" height="42.791"/><rect class="cls-23" x="1682.392" y="1659.352" width="19.728" height="52.83"/><path class="cls-24" d="M1812.957,1540.353h-81.725a3.623,3.623,0,0,1-3.612-3.613h0a3.623,3.623,0,0,1,3.612-3.613h81.725a3.624,3.624,0,0,1,3.612,3.613h0A3.624,3.624,0,0,1,1812.957,1540.353Z" transform="translate(-267.251 -141.355)"/><path class="cls-24" d="M1935.673,1540.353h-81.724a3.624,3.624,0,0,1-3.613-3.613h0a3.624,3.624,0,0,1,3.613-3.613h81.724a3.624,3.624,0,0,1,3.613,3.613h0A3.624,3.624,0,0,1,1935.673,1540.353Z" transform="translate(-267.251 -141.355)"/><path class="cls-24" d="M1742.483,1389.046l-76.788-27.971a3.623,3.623,0,0,1-2.157-4.631h0a3.622,3.622,0,0,1,4.631-2.158l76.788,27.971a3.624,3.624,0,0,1,2.157,4.632h0A3.622,3.622,0,0,1,1742.483,1389.046Z" transform="translate(-267.251 -141.355)"/><path class="cls-25" d="M926.738,1845.1c-.905,2.434-73.458,5.17-73.8-2.514-.01-.121-.01-.251-.01-.392,0-.195.006-.414.015-.651a20.853,20.853,0,0,1,.166-2.376.085.085,0,0,1,.011-.051c.2-1.508.532-3.007.864-4.486a50.617,50.617,0,0,1,2.273-6.516c1.318-3.4,2.636-7.03,2.464-10.309-.523-10.56-4.325-32.776-4.325-32.776l20.879-2.323s3.3,30.654,7.262,37.533c5.37,9.323,14.754,14.452,24.66,17.278,1.116.321,2.223.634,3.329.936C919.316,1840.865,927.543,1842.947,926.738,1845.1Z" transform="translate(-267.251 -141.355)"/><path class="cls-26" d="M927.442,1845.19c-.9,2.434-7.7,7.854-24.881,7.11s-13.829-3.761-26.149-2.695-23.132.664-23.474-7.02c-.01-.121-.01-.251-.01-.392,0-.744.071-1.8.181-3.027a.085.085,0,0,1,.011-.051c.2-1.508.532-3.007.864-4.486a50.617,50.617,0,0,1,2.273-6.516c7.785,2.061,18.114,11.3,28.9,12.7a58.937,58.937,0,0,0,25.264-2.213l.11-.15C921,1840.342,928.257,1843.028,927.442,1845.19Z" transform="translate(-267.251 -141.355)"/><path class="cls-27" d="M937.308,1528.379h0a11.842,11.842,0,0,1-11.842-11.842v-74.791H949.15v74.791A11.841,11.841,0,0,1,937.308,1528.379Z" transform="translate(-267.251 -141.355)"/><path class="cls-28" d="M937.308,1524.945h0a8.8,8.8,0,0,1-8.8-8.8v-26.6h17.6v26.6A8.8,8.8,0,0,1,937.308,1524.945Z" transform="translate(-267.251 -141.355)"/><path class="cls-27" d="M972.667,1528.379h0a11.841,11.841,0,0,1-11.842-11.842v-74.791h23.684v74.791A11.841,11.841,0,0,1,972.667,1528.379Z" transform="translate(-267.251 -141.355)"/><path class="cls-28" d="M972.667,1524.945h0a8.8,8.8,0,0,1-8.8-8.8v-33.984h17.6v33.984A8.8,8.8,0,0,1,972.667,1524.945Z" transform="translate(-267.251 -141.355)"/><path class="cls-27" d="M905.315,1528.379h0a11.841,11.841,0,0,1-11.842-11.842v-74.791h23.684v74.791A11.842,11.842,0,0,1,905.315,1528.379Z" transform="translate(-267.251 -141.355)"/><path class="cls-28" d="M905.315,1524.945h0a8.8,8.8,0,0,1-8.8-8.8v-33.984h17.6v33.984A8.8,8.8,0,0,1,905.315,1524.945Z" transform="translate(-267.251 -141.355)"/><rect class="cls-29" x="611.462" y="1374.553" width="6.66" height="19.777"/><rect class="cls-29" x="725.358" y="1374.553" width="6.659" height="19.777"/><rect class="cls-29" x="611.462" y="1374.553" width="120.556" height="5.776"/><path class="cls-17" d="M766.608,1291.989s-14.3-31.927-43.91-26.3-33.683,61.152-14.169,68.306C722.1,1338.975,766.608,1291.989,766.608,1291.989Z" transform="translate(-267.251 -141.355)"/><path class="cls-30" d="M845.341,1630.253h-81.35l-49.4-170.772a51.435,51.435,0,0,0-48.236-37.13l-85.539-1.487c-24.288-.555-42.994,20.087-38.66,42.661l22.965,384.318a4.733,4.733,0,0,0,4.784,5.064l.349.007a3.092,3.092,0,0,0,3.173-2.569l3.378-189.682h146.3l27.126,189.682a3.092,3.092,0,0,0,3.173,2.569l.349-.007a4.735,4.735,0,0,0,4.785-5.064L739.8,1660.663H845.341a7.037,7.037,0,0,0,7.017-7.017v-16.375A7.038,7.038,0,0,0,845.341,1630.253Z" transform="translate(-267.251 -141.355)"/><path class="cls-31" d="M671.251,1458.953l27.365,69.242s26.366,31.072,47.558,21.056l-67.057-130.213Z" transform="translate(-267.251 -141.355)"/><path class="cls-17" d="M873.281,1598.809c-19.874-19.757-143.31-71.96-184.989-76.431l-47.637-17.411s-19.414,46.5-19.724,90.932c-.145,20.717,25.421,34.354,6.079,34.354,0,0,168.609-.667,175.083,0,10.6,1.093,4.631,26.062,8.124,50.1s47.6,125.016,47.6,125.016,12.843,4.115,18.782,3.766c6.387-.375,9.343-2.514,9.343-2.514S897.409,1622.8,873.281,1598.809Z" transform="translate(-267.251 -141.355)"/><path class="cls-5" d="M817.792,1844.948c.338,7.684,72.9,4.95,73.8,2.517.806-2.157-7.42-4.235-16.214-6.652-1.107-.3-2.216-.615-3.326-.93-9.912-2.833-19.288-7.959-24.659-17.279-3.963-6.876-7.27-37.535-7.27-37.535l-20.879,2.32s3.811,22.224,4.333,32.782c.274,5.532-3.648,12.055-4.739,16.824A30.052,30.052,0,0,0,817.792,1844.948Z" transform="translate(-267.251 -141.355)"/><path class="cls-32" d="M841.266,1851.968c12.319-1.063,8.964,1.949,26.148,2.693s23.982-4.675,24.886-7.107c.806-2.158-6.449-4.845-16.92-6.741l-.11.159a48.208,48.208,0,0,1-25.358,3.777c-11.5-1.5-23.137-6.658-31.072-7.754a30.052,30.052,0,0,0-1.048,7.953C818.13,1852.632,828.947,1853.033,841.266,1851.968Z" transform="translate(-267.251 -141.355)"/><path class="cls-18" d="M844.2,1599.082c-11.675-12.2-89.035-37.219-128.265-50-9.448-3.078-101.294-48.6-101.294-48.6s-14.518,129.756,3,129.932c32.817.328,159.884,6.113,164.857,6.468,15.042,1.077,7.138,35.9,13.093,63.5,6.089,28.238,23.7,104.986,23.7,104.986s12.842,4.115,18.781,3.766c6.387-.375,9.344-2.514,9.344-2.514S867.715,1623.665,844.2,1599.082Z" transform="translate(-267.251 -141.355)"/><path class="cls-5" d="M737.089,1339.929s-.745,5.246-1.936,11.739c-.71,3.894-1.58,8.247-2.542,12.175a64.847,64.847,0,0,1-2.52,8.383c-3.126,7.742-5.589,15.29-4.146,16.824.115.115-16.4,1.752-25.562-5.165-8.624-6.5-12.208-23.989-12.06-24.016,4.671-.854,10.124-1.878,19.7-26.113l1.707,1.1Z" transform="translate(-267.251 -141.355)"/><path class="cls-33" d="M735.153,1351.668c-.71,3.894-1.58,8.247-2.542,12.175-15.633-10.261-21.22-19.4-24.393-27.871Z" transform="translate(-267.251 -141.355)"/><path class="cls-5" d="M742.6,1355.6s-40.709-6.844-36.057-32.129,2.531-43.2,28.719-39.9,29.448,13.876,29.948,22.693S753.312,1356.732,742.6,1355.6Z" transform="translate(-267.251 -141.355)"/><path class="cls-17" d="M764.185,1292.291s-26.924,21.689-44.789,22.918-19.59-7.029-19.59-7.029,5.958-6.048,12.739-19.9a12.526,12.526,0,0,1,10.565-7.038C735.86,1280.566,759.978,1280.864,764.185,1292.291Z" transform="translate(-267.251 -141.355)"/><path class="cls-17" d="M747.889,1289.728s8.476,8.757,11.026,15.128c2.46,6.148,2.778,20.669.468,26.355,0,0,14.523-26.077,7.225-39.222C758.871,1278.05,747.889,1289.728,747.889,1289.728Z" transform="translate(-267.251 -141.355)"/><path class="cls-10" d="M755.755,1404.829c.039-17.092-25.43-33.2-25.43-33.2s-6.183,16.976-36.209-14.2c-1.063-1.1-70.857,45.009-70.857,45.009s-11.7,59.78-14.271,87.11c-7.746,82.305,2.025,147.34,2.025,147.34s100.748,17.939,167.275-86.4c0,0-23.518-53.839-23.518-68.835C754.77,1471.967,755.738,1412.488,755.755,1404.829Z" transform="translate(-267.251 -141.355)"/><path class="cls-6" d="M620.931,1508.3s28.462,38.012,110.43,31.357L693.18,1503.5Z" transform="translate(-267.251 -141.355)"/><path class="cls-6" d="M723.9,1497.842l-9.274,11.97c-3.2.541-33.513-12.678-48.063-18.418-20.021-7.9-10.591-57.838-4.25-40.93C670.755,1472.981,698.876,1485.139,723.9,1497.842Z" transform="translate(-267.251 -141.355)"/><rect class="cls-34" x="785.649" y="1358.869" width="28.395" height="103.148" transform="translate(1849.208 2215.469) rotate(155.266)"/><rect class="cls-34" x="776.34" y="1346.989" width="13.567" height="49.285" transform="translate(1801.051 2148.412) rotate(155.266)"/><path class="cls-34" d="M717.907,1520.757l22.534-3.477c-.063-.413-6.311-42.534,4.618-75.421,10.974-33.016,48.324-39.093,48.7-39.15l-3.448-22.538c-2.1.321-51.565,8.391-66.888,54.5C710.728,1472.863,717.608,1518.82,717.907,1520.757Z" transform="translate(-267.251 -141.355)"/><path class="cls-34" d="M682.623,1511.33H780.1a0,0,0,0,1,0,0v1.381a24.55,24.55,0,0,1-24.55,24.55H703.038a20.415,20.415,0,0,1-20.415-20.415v-5.516A0,0,0,0,1,682.623,1511.33Z" transform="translate(1195.471 2907.235) rotate(180)"/><rect class="cls-34" x="731.361" y="1481.652" width="105.484" height="7.6" transform="translate(1300.955 2829.548) rotate(180)"/><rect class="cls-34" x="763.692" y="1524.294" width="73.152" height="12.966" transform="translate(1333.286 2920.2) rotate(180)"/><rect class="cls-34" x="792.193" y="1519.019" width="23.118" height="5.275" transform="translate(1340.253 2901.958) rotate(180)"/><path class="cls-5" d="M764.5,1514.392s5.649,7.287,7.5,8.157a5.53,5.53,0,0,0,3.049.653l-3.807-6.852Z" transform="translate(-267.251 -141.355)"/><path class="cls-5" d="M763.2,1506.888l16.425,7.976a2.929,2.929,0,0,1-2.722,1.051c-2.022-.092-7.123-1.958-7.123-1.958Z" transform="translate(-267.251 -141.355)"/><path class="cls-5" d="M731.887,1510.5s26.962-6,31.312-3.611,14.982,11.106,16.314,14.139-9.686-2.3-13.269-3.264c-2.32-.622-8.429,1.5-11.452,2.509-12.725,4.241-20.522,2.06-20.522,2.06Z" transform="translate(-267.251 -141.355)"/><rect class="cls-35" x="375.498" y="1394.176" width="381.822" height="10.778"/><path class="cls-35" d="M1022.918,1858.645c-.789-1.12-2.432-3.454-12.743-159.919-5.079-77.063-9.807-154.537-9.854-155.311l4.035-.246c5.149,84.452,19.142,305.387,22.024,313.432a1.258,1.258,0,0,0-.157-.282Z" transform="translate(-267.251 -141.355)"/><path class="cls-35" d="M639.469,1856.944l-3.305-2.326a1.361,1.361,0,0,0-.155.277c2.891-8.011,17.39-227.742,22.733-311.731l4.034.256c-.049.77-4.955,77.818-10.209,154.46C641.9,1853.493,640.258,1855.824,639.469,1856.944Z" transform="translate(-267.251 -141.355)"/><path class="cls-10" d="M694.116,1357.424s-41.146,0-54.795,13.66c-21.4,21.416-37.735,115.078-22.107,133.883,17.6,21.178,117.629,22.283,117.629,22.283s2.4-4.358-2.956-16.751c-1.124-2.6-65.327-28.416-67.274-31.841s-3.7-51.665-1.478-59.722S694.116,1357.424,694.116,1357.424Z" transform="translate(-267.251 -141.355)"/><rect class="cls-36" x="507.597" y="352.097" width="634.119" height="424.61" rx="50.372"/><path class="cls-37" d="M943.1,539.553s18.421-13.782,51.7,5c0,0,17.217,6.638,21.163,23.635a30.945,30.945,0,0,0,5.885,12.327,38.775,38.775,0,0,1,8.391,21.1,36.383,36.383,0,0,0,4.372,14.562c2.882,5.248,5.878,13.857,4.778,26.027,0,0,10.648,11.646,4.659,37.6,0,0,4.875,16.272-6.128,30.947,0,0,2.741,18.723-13.172,25,0,0-8.4,19.472-33.408,20.655a32,32,0,0,0-10.54,2.373c-4.761,1.939-13.312,3.829-25.6.553-19.966-5.325-17.962-17.611-17.962-17.611V542.539Z" transform="translate(-267.251 -141.355)"/><path class="cls-37" d="M932.357,539.553s-18.421-13.782-51.7,5c0,0-18.037,6.954-21.419,24.852a22.305,22.305,0,0,1-4.91,10.233,38.823,38.823,0,0,0-9.217,23.8,23.188,23.188,0,0,1-3.433,11.3,42.112,42.112,0,0,0-5.839,21.691,23.138,23.138,0,0,1-2.41,9.952c-2.694,5.443-5.964,16.329-2.02,33.42a37.671,37.671,0,0,0,2.847,25.686,30.475,30.475,0,0,1,3.219,11.16c.44,5.056,2.307,12.221,8.844,16.77a31.575,31.575,0,0,1,7.384,7.275c4.17,5.686,13.07,14.4,28.988,15.623a47.173,47.173,0,0,1,12.783,2.78c4.892,1.813,13.168,3.331,24.78.235,19.966-5.325,17.962-17.611,17.962-17.611V542.539Z" transform="translate(-267.251 -141.355)"/><path class="cls-38" d="M918.038,663.429c-9.632-1.189-17.364-6.764-22.982-16.572l-.067-.117a10.1,10.1,0,0,1,3.36-13.452,8.549,8.549,0,0,0,2.2-1.922A44.318,44.318,0,0,1,879.1,627.9a32.29,32.29,0,0,1-11.543-8.845,20.771,20.771,0,0,0,6.375,11.834,22.143,22.143,0,0,0,8.367,4.144c2.9.647,4.132,3.565,5.2,6.339a56.884,56.884,0,0,0,3.588,7.6A42.117,42.117,0,0,0,900,660.061a25.937,25.937,0,0,0-12.139,11.051,24.469,24.469,0,0,0-2.942,8.444,36.405,36.405,0,0,1,7.524-9.342,23.14,23.14,0,0,1,16.552-5.85A39.121,39.121,0,0,0,918.038,663.429Z" transform="translate(-267.251 -141.355)"/><path class="cls-38" d="M883.177,698.578q-.69,0-1.383-.04a20.255,20.255,0,0,1-15.431-8.52c-6.006-8.1-4.637-15.47-2.432-20.226.025-.055.051-.11.077-.165.914-1.93,1.426,1.682,1.316,3.815-.235,4.573,3.319,11.634,7.741,15.459,5.12,4.428,13.412,4.329,19.732,4.543,2.367.08,4.363.239,2.251,1.673A22.546,22.546,0,0,1,883.177,698.578Z" transform="translate(-267.251 -141.355)"/><path class="cls-38" d="M911.34,622.251q-.5-.178-1-.388a15.7,15.7,0,0,1-9.058-10.225c-2.284-7.473.626-12.5,3.47-15.4l.1-.1c1.168-1.172.605,1.6-.029,3.127-1.358,3.278-.595,9.357,1.642,13.3,2.59,4.561,8.671,6.639,13.231,8.435,1.707.673,3.124,1.307,1.21,1.806A17.465,17.465,0,0,1,911.34,622.251Z" transform="translate(-267.251 -141.355)"/><path class="cls-38" d="M870.364,722.788a4.63,4.63,0,0,1-6.131-1.653,102.064,102.064,0,0,0-17.818-21.29h0c.633.293,15.608,7.371,23.949,22.943Z" transform="translate(-267.251 -141.355)"/><path class="cls-38" d="M921.433,713.023c-3.219-2.216-3.91-7.06-3.92-10.749a50.684,50.684,0,0,1,1.522-10.344c-.139.56-9.643,8.446-4.4,19.409-6.265-.143-9.911,7.02-9.911,7.02a23.29,23.29,0,0,1,4.419-1.765,15.193,15.193,0,0,1,8.849-.18c2.9,1,5.126,3.326,6.621,6.924C924.615,723.338,926.924,716.4,921.433,713.023Z" transform="translate(-267.251 -141.355)"/><path class="cls-38" d="M875.312,595.472c1.8-3.471,6.516-4.762,10.175-5.233a50.777,50.777,0,0,1,10.453.216c-.573-.067-9.586-8.511-19.806-1.936-.642-6.234-8.2-8.956-8.2-8.956a23.237,23.237,0,0,1,2.3,4.164,15.2,15.2,0,0,1,1.286,8.757c-.627,3-2.66,5.5-6.043,7.435C865.476,599.919,872.645,601.342,875.312,595.472Z" transform="translate(-267.251 -141.355)"/><path class="cls-38" d="M849.735,660.245c1.8-3.471,6.516-4.762,10.175-5.233a50.711,50.711,0,0,1,10.454.216c-.573-.067-9.587-8.511-19.807-1.936-.641-6.234-8.2-8.957-8.2-8.957a23.315,23.315,0,0,1,2.3,4.165,15.194,15.194,0,0,1,1.286,8.756c-.627,3-2.66,5.5-6.043,7.436C839.9,664.692,847.068,666.115,849.735,660.245Z" transform="translate(-267.251 -141.355)"/><path class="cls-38" d="M906.768,568.878c4.019-2.767,4.882-8.815,4.894-13.421a63.356,63.356,0,0,0-1.9-12.918c.173.7,12.04,10.548,5.49,24.236,7.823-.178,12.377,8.766,12.377,8.766a29.02,29.02,0,0,0-5.518-2.2c-2.908-.837-7.186-1.555-11.05-.225-3.619,1.245-6.4,4.154-8.268,8.647C902.794,581.759,899.911,573.1,906.768,568.878Z" transform="translate(-267.251 -141.355)"/><path class="cls-38" d="M881.564,734.626c3.752-2.584,4.558-8.23,4.57-12.53a59.189,59.189,0,0,0-1.774-12.06c.161.653,11.241,9.847,5.127,22.627,7.3-.166,11.555,8.184,11.555,8.184a27.1,27.1,0,0,0-5.152-2.057c-2.716-.782-6.709-1.453-10.317-.211-3.378,1.162-5.975,3.878-7.719,8.072C877.854,746.651,875.163,738.567,881.564,734.626Z" transform="translate(-267.251 -141.355)"/><path class="cls-38" d="M957.251,663.429c9.631-1.189,17.364-6.764,22.981-16.572.023-.039.045-.078.067-.117a10.094,10.094,0,0,0-3.36-13.452,8.543,8.543,0,0,1-2.2-1.922,44.314,44.314,0,0,0,21.447-3.467,32.3,32.3,0,0,0,11.544-8.845,20.771,20.771,0,0,1-6.375,11.834,22.143,22.143,0,0,1-8.367,4.144c-2.9.647-4.133,3.565-5.2,6.339a56.884,56.884,0,0,1-3.588,7.6,42.137,42.137,0,0,1-8.909,11.091,25.929,25.929,0,0,1,12.138,11.051,24.51,24.51,0,0,1,2.943,8.444,36.405,36.405,0,0,0-7.524-9.342,23.14,23.14,0,0,0-16.552-5.85A39.121,39.121,0,0,1,957.251,663.429Z" transform="translate(-267.251 -141.355)"/><path class="cls-38" d="M992.112,698.578q.69,0,1.383-.04a20.251,20.251,0,0,0,15.43-8.52c6.006-8.1,4.638-15.47,2.433-20.226-.025-.055-.051-.11-.077-.165-.915-1.93-1.426,1.682-1.316,3.815.235,4.573-3.319,11.634-7.742,15.459-5.119,4.428-13.411,4.329-19.731,4.543-2.367.08-4.363.239-2.251,1.673A22.546,22.546,0,0,0,992.112,698.578Z" transform="translate(-267.251 -141.355)"/><path class="cls-38" d="M963.949,622.251q.5-.178,1-.388a15.7,15.7,0,0,0,9.058-10.225c2.284-7.473-.627-12.5-3.471-15.4l-.1-.1c-1.168-1.172-.605,1.6.028,3.127,1.359,3.278.6,9.357-1.642,13.3-2.59,4.561-8.671,6.639-13.23,8.435-1.708.673-3.124,1.307-1.21,1.806A17.465,17.465,0,0,0,963.949,622.251Z" transform="translate(-267.251 -141.355)"/><path class="cls-38" d="M1002.224,715.311a4.63,4.63,0,0,0,6.338.393,102.032,102.032,0,0,1,23.689-14.476h0c-.693.075-17.145,1.994-30.027,14.083Z" transform="translate(-267.251 -141.355)"/><path class="cls-38" d="M953.856,713.023c3.218-2.216,3.91-7.06,3.919-10.749a50.714,50.714,0,0,0-1.521-10.344c.139.56,9.642,8.446,4.4,19.409,6.265-.143,9.911,7.02,9.911,7.02a23.325,23.325,0,0,0-4.419-1.765,15.193,15.193,0,0,0-8.849-.18c-2.9,1-5.126,3.326-6.622,6.924C950.673,723.338,948.365,716.4,953.856,713.023Z" transform="translate(-267.251 -141.355)"/><path class="cls-38" d="M999.977,595.472c-1.8-3.471-6.517-4.762-10.175-5.233a50.789,50.789,0,0,0-10.454.216c.574-.067,9.587-8.511,19.807-1.936.641-6.234,8.2-8.956,8.2-8.956a23.237,23.237,0,0,0-2.3,4.164,15.2,15.2,0,0,0-1.286,8.757c.627,3,2.66,5.5,6.043,7.435C1009.813,599.919,1002.644,601.342,999.977,595.472Z" transform="translate(-267.251 -141.355)"/><path class="cls-38" d="M1025.553,660.245c-1.8-3.471-6.516-4.762-10.175-5.233a50.7,50.7,0,0,0-10.453.216c.573-.067,9.586-8.511,19.806-1.936.642-6.234,8.2-8.957,8.2-8.957a23.279,23.279,0,0,0-2.3,4.165,15.186,15.186,0,0,0-1.285,8.756c.627,3,2.659,5.5,6.042,7.436C1035.389,664.692,1028.22,666.115,1025.553,660.245Z" transform="translate(-267.251 -141.355)"/><path class="cls-38" d="M968.521,568.878c-4.019-2.767-4.882-8.815-4.894-13.421a63.356,63.356,0,0,1,1.9-12.918c-.172.7-12.04,10.548-5.491,24.236-7.823-.178-12.376,8.766-12.376,8.766a28.985,28.985,0,0,1,5.518-2.2c2.908-.837,7.186-1.555,11.05-.225,3.619,1.245,6.4,4.154,8.268,8.647C972.5,581.759,975.377,573.1,968.521,568.878Z" transform="translate(-267.251 -141.355)"/><path class="cls-38" d="M993.724,734.626c-3.751-2.584-4.557-8.23-4.569-12.53a59.219,59.219,0,0,1,1.773-12.06c-.161.653-11.24,9.847-5.126,22.627-7.3-.166-11.555,8.184-11.555,8.184a27.068,27.068,0,0,1,5.152-2.057c2.715-.782,6.709-1.453,10.316-.211,3.379,1.162,5.976,3.878,7.72,8.072C997.435,746.651,1000.125,738.567,993.724,734.626Z" transform="translate(-267.251 -141.355)"/><rect class="cls-38" x="836.177" y="642.089" width="203.593" height="4.492" transform="matrix(0.002, -1, 1, 0.002, 24.134, 1439.402)"/><rect class="cls-18" x="797.668" y="384.053" width="168.18" height="17.126"/><rect class="cls-37" x="797.668" y="425.395" width="134.617" height="8.563"/><rect class="cls-18" x="797.668" y="448.462" width="87.887" height="8.563"/><rect class="cls-37" x="898.711" y="448.462" width="87.886" height="8.563"/><rect class="cls-18" x="946.003" y="425.395" width="81.19" height="8.563"/><rect class="cls-3" x="975.913" y="384.053" width="78.051" height="17.126"/><rect class="cls-18" x="558.666" y="661.583" width="134.325" height="13.678"/><rect class="cls-37" x="558.666" y="694.603" width="107.518" height="6.839"/><rect class="cls-37" x="558.666" y="713.026" width="70.195" height="6.839"/><rect class="cls-18" x="639.369" y="713.026" width="70.195" height="6.839"/><rect class="cls-37" x="677.141" y="694.603" width="64.847" height="6.839"/><rect class="cls-3" x="701.029" y="661.583" width="62.339" height="13.678"/><path class="cls-39" d="M1233.986,646.519a10.143,10.143,0,1,1-14.344.086A10.143,10.143,0,0,1,1233.986,646.519Z" transform="translate(-267.251 -141.355)"/><path class="cls-39" d="M1193.385,689.235a11.286,11.286,0,1,1-15.96.1A11.286,11.286,0,0,1,1193.385,689.235Z" transform="translate(-267.251 -141.355)"/><path class="cls-39" d="M1143.25,666.783a9.632,9.632,0,1,1-13.622.082A9.632,9.632,0,0,1,1143.25,666.783Z" transform="translate(-267.251 -141.355)"/><path class="cls-39" d="M1097.678,692.9a9.632,9.632,0,1,1-13.622.082A9.633,9.633,0,0,1,1097.678,692.9Z" transform="translate(-267.251 -141.355)"/><polygon class="cls-39" points="823.231 557.658 869.194 531.313 918.011 554.866 958.985 511.789 960.226 512.969 918.392 556.95 869.263 533.248 824.083 559.144 823.231 557.658"/><path class="cls-39" d="M1258.143,713.765a8.408,8.408,0,1,1,11.716-2.032A8.409,8.409,0,0,1,1258.143,713.765Z" transform="translate(-267.251 -141.355)"/><path class="cls-39" d="M1285.5,673.291a9.355,9.355,0,1,1,13.034-2.261A9.355,9.355,0,0,1,1285.5,673.291Z" transform="translate(-267.251 -141.355)"/><path class="cls-39" d="M1329.553,684.791a7.985,7.985,0,1,1,11.125-1.93A7.985,7.985,0,0,1,1329.553,684.791Z" transform="translate(-267.251 -141.355)"/><path class="cls-39" d="M1363.238,657.2a7.984,7.984,0,1,1,11.125-1.93A7.984,7.984,0,0,1,1363.238,657.2Z" transform="translate(-267.251 -141.355)"/><polygon class="cls-39" points="1101.035 509.871 1067.06 537.694 1023.93 525.114 996.322 565.934 995.146 565.139 1023.333 523.462 1066.739 536.122 1100.135 508.772 1101.035 509.871"/><polygon class="cls-39" points="902.228 710.509 892.429 659.052 888.152 681.033 830.398 681.033 830.398 677.558 885.287 677.558 892.465 640.663 902.712 694.472 907.322 676.307 917.294 676.307 924.097 644.63 932.807 692.931 937.385 674.436 957.982 674.436 965.563 649.58 972.195 693.103 977.526 674.436 994.571 674.436 999.575 647.144 1010.334 690.082 1014.23 674.436 1036.271 674.436 1037.425 687.471 1049.563 640.012 1057.541 674.561 1093.389 674.561 1093.389 678.037 1054.776 678.037 1049.391 654.714 1035.755 708.031 1033.09 677.912 1016.946 677.912 1010.343 704.423 1000.102 663.547 997.468 677.912 980.148 677.912 971.161 709.384 964.429 665.211 960.555 677.912 940.104 677.912 932.273 709.556 923.8 662.568 920.103 679.783 910.026 679.783 902.228 710.509"/><path class="cls-39" d="M1376.779,885.705H1080.317V760.15h296.462Zm-294.545-1.917h292.628V762.067H1082.234Z" transform="translate(-267.251 -141.355)"/><rect class="cls-17" y="1708.236" width="2465.498" height="7.891" rx="3.068"/></svg>