<svg xmlns="http://www.w3.org/2000/svg" viewBox="0 0 1019.331 689"><defs><style>.cls-1{fill:#fff;}.cls-2{opacity:0.31;}.cls-3{fill:#293163;}.cls-4{fill:#efdfcd;}.cls-5{fill:#1a3151;}.cls-6{fill:#b77858;}.cls-7{fill:#ebb044;}.cls-8{fill:#b5d6ca;}.cls-9{fill:#eac5b0;}.cls-10{fill:#3ababa;}.cls-11{fill:#d8d6c4;}.cls-12{fill:#3cafac;}.cls-13{fill:#c23f3e;}.cls-14{fill:#f30;opacity:0.15;}</style></defs><g id="background"><path class="cls-1" d="M951.972,688.657c-65.553,0-892.4.429-892.4.327-.365-.823-151.05-163.3,28.269-299.689,86.832-66.044-51.285-167.084,58.512-269.97,83.735-78.463,170.628,8.556,261.352-27.961,16.03-6.446,32.115-16.822,48.217-32.743a177.806,177.806,0,0,1,29.632-23.544q2.445-1.56,4.941-3.044a200.523,200.523,0,0,1,19.77-10.269q6.852-3.093,13.963-5.72h0a235.845,235.845,0,0,1,23.141-7.211,272.355,272.355,0,0,1,34.513-6.48q7.7-.957,15.521-1.514c101.371-7.293,215.453,33.73,274.325,93.69C883.589,106.6,937.487,169.076,895,254.945,868.176,309.161,975.039,379.7,999.972,449.287,1062.732,624.436,952.894,686.605,951.972,688.657Z" transform="translate(0)"/></g><g id="shadow"><g class="cls-2"><path class="cls-3" d="M541.574,560.992c-23.633.044-47.266.4-70.857,2.056-8.895.623-17.6,2-26.518,2.548-17.808,1.105-35.3,3.167-53.168,4.117-14.391.766-28.843,1.218-43.193,2.19a240.367,240.367,0,0,1-41.7-.805c-9.883-1.114-19.811-1.741-29.528-3.53a186.719,186.719,0,0,0-34-3.381c-16.15.073-31.877.082-47.333,3.616-5.425,1.241-12.067,3.28-16.187,5.884-9.431,5.96-10.708,20.833-1.291,27.015,15.861,10.4,49.714,14.486,71.946,14.679,24.362.211,48.03-.929,72.428-1.6,22.671-.623,45.285-1.509,67.994-1.478,46.38.064,92.766,0,139.062-1.952,43.5-1.835,87.1-1.2,130.694-1.2,44.7,0,89.1.222,133.479,3.966,19.337,1.631,39.036,2.2,58.47,3.345,17.4,1.024,34.129-.02,51.464-.966a182.32,182.32,0,0,0,42.241-7.134c10.468-3.152,29.129-12.947,32.339-20.473,9-21.1-126.83-20.591-147.685-20.544-23.33.053-46.845.537-70.157-.024a256.572,256.572,0,0,1-29.039-2.767c-9.532-1.318-19.137-.983-28.8-1.537-40.314-2.311-80.718-1.973-121.16-1.973C567.909,561.04,554.741,560.967,541.574,560.992Z" transform="translate(0)"/></g></g><g id="object"><polygon class="cls-4" points="791.473 226.919 784.408 222.786 782.576 215.572 780.916 215.202 780.398 217.319 777.237 211.787 772.523 210.04 767.066 214.025 765.04 220.896 769.399 226.143 776.872 228.832 786.308 234.926 791.473 226.919"/><polygon class="cls-4" points="792.141 222.223 781.551 235.338 820.765 275.122 831.338 278.689 876.371 241.135 864.327 215.422 830.74 245.271 792.141 222.223"/><polygon class="cls-5" points="945.852 571.142 947.425 578.686 934.963 589.428 926.374 583.484 931.818 574.341 944.28 563.599 945.852 571.142"/><polygon class="cls-5" points="902.271 339.195 916.176 372.726 917.488 467.067 946.08 568.544 932.785 574.709 874.438 456.88 867.798 419.56 865.158 340.96 902.271 339.195"/><polygon class="cls-5" points="834.945 346.709 833.851 445.579 851.668 573.056 865.368 573.056 874.021 455.431 892.769 337.806 834.945 346.709"/><polygon class="cls-5" points="865.29 571.351 865.29 579.097 850.474 586.843 843.067 579.097 850.474 571.351 865.29 571.351"/><path class="cls-4" d="M861.924,212.832l36.391-1.41S920.086,231.4,931.337,283.3c11.457,52.853-2.116,128.94-2.116,128.94s-97.634-13.607-113.643-15.709L840,292.18Z" transform="translate(0)"/><path class="cls-6" d="M874.965,216.72l12.749-1.3a69.943,69.943,0,0,0-.677-10.648c3.543-1.3,7.638-3.244,8.261-7.116a11.549,11.549,0,0,0-.2-3.684l-2.478-15.115a13.938,13.938,0,0,0-1.493-5.03c-1.587-2.622-4.671-3.772-7.593-4.307-7.458-1.364-15.588.314-21.378,5.414a12.064,12.064,0,0,0-3.617,4.973c-1.05,3.058-.272,6.433.513,9.576q1.088,4.351,2.174,8.7c.833,3.337,2.038,7.13,5.11,8.386,1.631.666,3.558.475,5.034,1.46C873.97,209.765,873.613,213.816,874.965,216.72Z" transform="translate(0)"/><path class="cls-5" d="M833.446,166.365a44.723,44.723,0,0,1,1.041-10.1c1.134-5.413,7.24-7.845,12.526-8.229,11.416-.828,22.432-6.24,33.581-2.063,6.372,2.388,14.931,2.961,20.7,6.328a17.409,17.409,0,0,1,5.824,6.023,27.868,27.868,0,0,1,.034,28.367,38.157,38.157,0,0,1-4,5.256c-3.013,3.407-6.616,7.615-10.755,8.873-.094-3.871,3.294-16.071.455-19.247-4.5-5.041-14.707-3.3-20.3-2.068-6.106,1.344-11.553,5.857-17.606,6.814-4.355.689-9.91-1.552-13.611-3.911C835.531,178.713,833.6,172.605,833.446,166.365Z" transform="translate(0)"/><path class="cls-7" d="M871.961,217.537,833.7,377.56l-3.136,20.987,47.666,6.558s-1.882-76.629-1.255-86.846,7.7-32.316,8.781-56.126c.627-13.772,4.81-38.51,1.881-46.564Z" transform="translate(0)"/><path class="cls-8" d="M810.877,318.641c1.458-38.822-5.754-70.922-22.738-97.17C753.294,167.624,704.511,143.1,647.8,138.537c-29.085-2.338-57.311,5.64-84.148,19.4-5.869,3.009-11.641,6.3-17.359,9.684-40.134,23.766-62.461,60.256-60.568,113.721,1.063,30.006-11.713,51.846-30.586,70.2-4.123,4.01-8.227,7.977-11.268,13.172-5.192,8.872-4.122,15.468,3.625,21.051,4.964,3.578,10.2,6.651,14.546,11.289,6.634,7.083,7.064,11.262,2,20.022-5.7,9.861-5.67,10.264,3.09,17.27,2.351,1.88,4.84,3.294,1.537,6.853-4.86,5.235-3.121,10.344,1.064,14.159,5.874,5.354,6.756,12.224,5.653,19.9-.962,6.7-2.381,13.318-3.58,19.976-3.235,17.963,1.27,26.3,16.791,31.021,16.2,4.926,32.322.659,48.478-.971,10.829-1.093,21.49-5.032,32.569-2.166,7.192,1.861,11.164,6.461,12.088,14.883,1.347,12.283,4.843,24.023,6.841,36.109,1.629,9.857,5.734,12.935,14.224,12.538,34.64-1.624,135.408-.258,151.122-1.15,10.137-.576,10.114-.906,6.888-11.771-5.8-19.523-12.4-38.711-17.251-58.627-6.329-26-3.1-54.55,10.5-76.844,6.369-10.442,14-19.573,21.4-28.974C797.187,381.657,809.023,349.213,810.877,318.641Z" transform="translate(0)"/><path class="cls-9" d="M367.746,197.885l4.838-3.406,5.532,2.573,2.762,5.386-1.951,4.1-4.953,2.285,1.715.7-.482,1.47-7.679,2.641c-1.556-2.118-7.328-4.273-8.162-5.407l5.354-3.831Z" transform="translate(0)"/><polygon class="cls-5" points="265.516 395.597 211.89 374.975 222.943 473.21 216.539 557.962 216.366 558.526 216.495 558.541 216.037 564.605 226.509 563.643 226.509 563.643 226.509 563.643 251.074 484.306 263.577 403.874 263.577 403.874 265.516 395.597"/><polygon class="cls-5" points="226.509 563.643 215.538 563.353 212.736 573.033 213.013 573.119 212.943 573.127 231.081 584.366 239.705 585.368 240.801 575.062 238.471 573.277 226.509 563.643"/><polygon class="cls-5" points="302.044 397.284 285.398 571.258 276.01 571.733 264.671 475.166 246.185 384.717 302.044 397.284"/><polygon class="cls-5" points="285.923 569.386 299.982 577.723 298.665 584.66 273.543 580.7 275.021 570.705 285.923 569.386"/><path class="cls-4" d="M327.186,439.525c3.393-2.464,3.466-6.754,3.46-11.05a112.009,112.009,0,0,0-3.167-24.156c-3.368-14.708-7.185-32.423-8.864-51.483-4.339-49.258-19.214-82.313-19.214-82.313l-4.8-13.385q-1.431-2.61-2.978-5.157c-6-9.838-16.4-26.555-27.537-29.292-.232-.057-.466-.113-.7-.166-11.7-2.686-26.7-1.44-37.281,4.51a37.018,37.018,0,0,0-5.564,4.128c-5.172,4.363-9.391,6.726-11.621,13.374-1.936,5.773-2.386,12.072-3.453,18.054-2.169,12.154-3.463,24.453-5.194,36.678-3.248,22.924-6,45.923-9.479,68.812-1.788,11.78-3.589,23.582-4.434,35.485-.746,10.525-9.826,21.212-14.929,30.644-1.775,3.282,23.725,11.786,26.01,12.343,10.577,2.575,21.829,1.917,32.733,1.969q35.844.169,71.638-2.31c7.924-.549,17.687-2.131,24.718-6.256Q326.877,439.75,327.186,439.525Z" transform="translate(0)"/><path class="cls-10" d="M250.26,221.176s-13.461-3.8-15.32,27.959-4.959,112.127-9.3,134.164-10.847,65.26-10.847,65.26l41.218,1.5,47.106-3.889s-16.116-31.111-18.6-53.147,1.86-105-8.677-136.108S263.1,221.735,250.26,221.176Z" transform="translate(0)"/><polygon class="cls-11" points="278.421 258.299 308.458 275.374 326.561 268.893 372.886 215.635 360.58 204.002 311.415 244.19 272.715 226.534 278.421 258.299"/><path class="cls-5" d="M269.033,196.015c2.037,6.394-.911,13.212-3.5,19.04-2.3,5.168-3.093,8.569,2.732,9.963,3.282.786,9.106,2.252,11.985-.376,2.179-1.991.954-8.138-.106-10.58-.81-1.865-2.953-2.812-3.715-4.7a6.864,6.864,0,0,1-.371-2.486,35.806,35.806,0,0,1,1.348-10.208,36.1,36.1,0,0,0,1.691-6.782c.278-3.382-2.009-7.324-3.211-10.432-2.236-5.782-10.019-13.538-16.537-9a9.957,9.957,0,0,0-3.07,4.485,8.544,8.544,0,0,0-.854,3.194c-.051,4.439,3.826,5.188,6.5,7.3A22.243,22.243,0,0,1,269.033,196.015Z" transform="translate(0)"/><path class="cls-9" d="M256.637,220.967c5.653-1.393,10.073-6.356,12.2-12.009s2.235-11.92,1.648-17.962c-1.955-20.106-25.873-18.815-33.972-3.405C229.451,201.02,240.2,225.015,256.637,220.967Z" transform="translate(0)"/><path class="cls-9" d="M256.631,218.8q-.142,3.435-.284,6.871a1.445,1.445,0,0,1-.265.943,1.3,1.3,0,0,1-1.033.266l-5.354-.194a5.622,5.622,0,0,1-2.585-.511c-1.707-.958-2.06-3.378-1.787-5.384s.96-4.028.553-6.009c3.686,1.9,7.187-2.392,10.872-.493Z" transform="translate(0)"/><path class="cls-5" d="M248.918,156.139c-6.28,2.231-10.308,8.873-16.436,11.526-3.515,1.521-7.674,1.715-10.542,4.329-6.427,5.856-1.261,18.146-6.541,25.145-1.1,1.456-2.578,2.556-3.68,4.007-2.378,3.131-2.688,7.4-2.9,11.4a13.149,13.149,0,0,0,.093,2.78c.825,9.218,13.623,8.631,18.706,8.041,5.578-.648,3.719-3.889,3.719-3.889l-.2-.259a11.426,11.426,0,0,1,3.749-10.118,13.291,13.291,0,0,0,3.013-2.765c1.652-2.638.075-6.133.318-9.276.977-12.657,21.293-9.945,27.026-18.956C272.269,167.049,260.779,151.925,248.918,156.139Z" transform="translate(0)"/><path class="cls-12" d="M663.936,402.234c.858-23.677,4.024-44.943-17.2-59.719-14.809-10.312-35.611-7.522-52.513-10.528-35.311-6.279-86.5,2.134-84.34-53.858.892-23.137,11.859-29.99,23.909-47.006,11.5-16.237,14.82-30.069,34.239-38.52,8.393-3.653,16.43-4.575,24.8-8.443,12.1-5.59,14.455-11.369,30-10.227,8.119.6,14.074,3.481,22.052,2.622,10.444-1.124,14.938-8.307,27.023-6.487,8.1,1.22,13.295,7.5,20.458,9.864,7.538,2.486,15.674,1.8,22.941,4.193,19.894,6.548,22.527,15.711,35.952,30.687,15.856,17.688,22.494,22.756,26.286,48.664,3.268,22.329,11.2,44.486,2.814,66.048-6.417,16.494-15.35,38.512-26.727,51.7-11.95,13.856-28.58,18.787-37.24,36.281-8.453,17.076-5.668,31.625-27.909,20.986C675.186,432.129,663.4,416.938,663.936,402.234Z" transform="translate(0)"/><path class="cls-13" d="M432.859,147.836c-17.5-1.809-39.712,7.575-45.232,23.127-5-15.742-31.732-25.855-49.282-24.678-46.312,3.106-62.855,56.753-43.845,93.373,10.232,19.71,25.116,37.05,41.41,52.672,13.644,13.083,48.933,40.944,49.044,40.854.107.094,36.294-26.479,50.36-39.062,16.8-15.027,32.246-31.82,43.12-51.15C498.64,207.059,479.041,152.608,432.859,147.836Z" transform="translate(0)"/><polygon class="cls-14" points="425.068 224.887 396.373 224.887 396.373 194.882 376.747 194.882 376.747 224.887 348.053 224.887 348.053 245.41 376.747 245.41 376.747 275.416 396.373 275.416 396.373 245.41 425.068 245.41 425.068 224.887"/><polygon class="cls-4" points="904.054 241.887 857.489 287.864 788.413 266.331 783.47 282.579 859.39 318.899 879.368 318.899 921.583 281.345 904.054 241.887"/><polygon class="cls-4" points="783.916 281.114 771.892 281.345 764.551 270.51 783.214 259.661 788.413 266.331 783.916 281.114"/><polygon class="cls-4" points="334.254 290.294 334.805 297.603 347.595 300.853 354.083 294.417 353.187 285.938 346.304 286.334 345.892 284.494 343.492 283.248 334.254 290.294"/><path class="cls-4" d="M225.867,247.734l55.49,39.248,53.961-5.164s.386,24.445.193,22.432-58.989,12.962-58.989,12.962l-57.08-32.963Z" transform="translate(0)"/></g></svg>