<svg id="Слой_1" data-name="Слой 1" xmlns="http://www.w3.org/2000/svg" viewBox="0 0 3233.674 2000.001"><defs><style>.cls-1{fill:#e4e9f0;}.cls-2{fill:#ebf3fa;}.cls-3{fill:#dfedfb;}.cls-4{fill:#d6e8fc;}.cls-5{fill:#233862;}.cls-6{fill:#213f7a;}.cls-7{fill:#f99746;}.cls-8{fill:#ffb27d;}.cls-9{fill:#e2915a;}.cls-10{fill:#ed7d2b;}.cls-11{fill:#c8dbf4;}.cls-12{fill:#d4e4f8;}.cls-13{fill:#9fc1f4;}.cls-14{fill:#163560;}.cls-15{fill:#f9ddbf;}.cls-16{fill:#f2ccaa;}.cls-17{fill:#e8945b;}.cls-18{fill:#fff;}.cls-19{fill:#b5453c;}.cls-20{fill:#cde0fb;}.cls-21{fill:#bed7fb;}.cls-22{fill:#dfebfd;}.cls-23{fill:#b0d4ff;}.cls-24{fill:#95c0f4;}.cls-25{fill:#2b478b;}.cls-26{fill:#ed975d;}.cls-27{fill:#ebf3ff;}.cls-28{fill:#1c468a;}.cls-29{fill:#2c3a64;}.cls-30{fill:#91b8ef;}.cls-31{fill:#739af0;}.cls-32{fill:#2e3552;}</style></defs><rect class="cls-1" width="3200" height="2000.001"/><path class="cls-2" d="M442.992,1792.52S-87.671,1132.265,328.979,727.562C949.132,125.191,1371.2,981.261,1610.088,626.977,2005.256,40.932,3298.037,191.331,2902.5,920.081c-207.518,382.335,486.779,325.2,203.738,873.2Z" transform="translate(-0.007 -0.009)"/><path class="cls-3" d="M2218.91,971.2l19.159-44.881.451-1.072a11.638,11.638,0,0,0-5-14.673L2198,890.6a11.815,11.815,0,0,1-1.637-1.106,11.439,11.439,0,0,1-3.762-12,203.314,203.314,0,0,0,6.215-80.143,12.64,12.64,0,0,1,.082-3.271,11.826,11.826,0,0,1,7.356-8.989l31.83-11.974a11.835,11.835,0,0,0,7.455-9.759,12.864,12.864,0,0,0-.307-4.079l-12.454-48.25a11.889,11.889,0,0,0-13.514-8.722l-44.605,7.569a11.487,11.487,0,0,1-11.354-4.79c-3.742-5.238-7.659-10.327-11.913-15.277a202.866,202.866,0,0,0-25.755-25.088l-.037-.043a11.714,11.714,0,0,1-3.785-12.82l14.356-43.646.7-2.2a11.456,11.456,0,0,0-6.385-14.162l-45.872-19.6a11.986,11.986,0,0,0-15.092,5.128l-22.237,39.528a11.588,11.588,0,0,1-12.353,5.744,204.009,204.009,0,0,0-62.864-1.8,11.662,11.662,0,0,1-12.3-7.482l-14.275-37.7a11.87,11.87,0,0,0-14.114-7.292l-48.457,12.48a11.358,11.358,0,0,0-8.346,12.887l8.82,52.442a11.9,11.9,0,0,1-4.726,11.6q-6.761,4.9-13.2,10.432a206.438,206.438,0,0,0-22.2,22.2,11.293,11.293,0,0,1-12.307,3.5l-52.434-17.312a11.681,11.681,0,0,0-14.376,6.492l-19.7,46.027a11.742,11.742,0,0,0,3.591,13.748,8.379,8.379,0,0,0,1.4.925l43.848,24.693a11.546,11.546,0,0,1,5.944,11.345,6.158,6.158,0,0,1-.174,1.216,35.587,35.587,0,0,0-.641,3.6,203.072,203.072,0,0,0-3.472,43.28,11.267,11.267,0,0,1-7.466,10.987l-39.807,15.1a11.847,11.847,0,0,0-7.248,14.076l2.753,10.735,9.707,37.435a11.7,11.7,0,0,0,13.276,8.621l43.941-7.456a11.282,11.282,0,0,1,11.705,5.554,205.4,205.4,0,0,0,22.105,31.121,202.288,202.288,0,0,0,20.135,20.321l-3.026,9.152L1848.7,1021.15a11.294,11.294,0,0,0,3.8,12.576,10.3,10.3,0,0,0,2.59,1.506l46.142,19.827a11.766,11.766,0,0,0,14.716-5.033l15.148-27.038a11.651,11.651,0,0,1,13.074-5.525,204.56,204.56,0,0,0,64.118,6.89,11.284,11.284,0,0,1,11.364,7.371l18.029,47.648a11.238,11.238,0,0,0,13.286,6.86l48.965-12.687a11.367,11.367,0,0,0,8.434-12.962l-9.194-54.559a11.577,11.577,0,0,1,5.4-11.881,196.975,196.975,0,0,0,25.156-18.5q6.5-5.593,12.426-11.6a11.733,11.733,0,0,1,11.894-2.911l50.278,16.577A11.844,11.844,0,0,0,2218.91,971.2Zm-130.7-210.54c22.648,33.212,25.417,70.781,12.959,99.614-43.835,100.978-179.8,91.94-210.609-12.135-7.554-26.746-4.347-56.554,14.942-85.587C1950.678,695.3,2044.868,697.211,2088.207,760.656Z" transform="translate(-0.007 -0.009)"/><path class="cls-4" d="M1594.909,1584.828,1638.9,1509.4l1.037-1.8a20.818,20.818,0,0,0-5.609-27.16l-58.632-43.346a20.958,20.958,0,0,1-2.659-2.328,20.466,20.466,0,0,1-4.016-22.14,363.742,363.742,0,0,0,28.84-140.912,22.612,22.612,0,0,1,.874-5.79,21.158,21.158,0,0,1,15.057-14.325l59.175-14.187a21.182,21.182,0,0,0,15.4-15.671,22.955,22.955,0,0,0,.361-7.309l-11.392-88.437a21.271,21.271,0,0,0-22.056-18.487l-80.878,3.528a20.558,20.558,0,0,1-19.094-11.026c-5.479-10.133-11.3-20.039-17.757-29.771a363.085,363.085,0,0,0-40.153-50.266l-.056-.085a20.957,20.957,0,0,1-3.871-23.6l35.185-74.3,1.729-3.752a20.5,20.5,0,0,0-8.189-26.564l-77.089-45a21.45,21.45,0,0,0-27.936,5.751l-48.263,65.241a20.735,20.735,0,0,1-23.21,7.454,365.057,365.057,0,0,0-111.213-17.159,20.862,20.862,0,0,1-20.171-16.017l-16.97-70.1a21.241,21.241,0,0,0-23.438-16.084L1085.1,817.142a20.322,20.322,0,0,0-17.682,21.026l4.009,95.07a21.3,21.3,0,0,1-10.97,19.552q-13.09,7.191-25.753,15.588a369.291,369.291,0,0,0-44.346,34.492,20.206,20.206,0,0,1-22.627,3.47l-89.25-42.388a20.9,20.9,0,0,0-26.966,8.332l-45.2,77.347a21.008,21.008,0,0,0,3.32,25.206,15.265,15.265,0,0,0,2.289,1.956l72.366,53.583a20.658,20.658,0,0,1,8.031,21.463,11.092,11.092,0,0,1-.578,2.119,63.5,63.5,0,0,0-1.937,6.244,363.25,363.25,0,0,0-15.781,76.072,20.162,20.162,0,0,1-15.7,17.85L784.3,1272.088a21.2,21.2,0,0,0-16,23.382l2.5,19.671,8.919,68.621a20.922,20.922,0,0,0,21.654,18.255l79.674-3.473a20.188,20.188,0,0,1,19.549,12.461,367.43,367.43,0,0,0,32.331,60.166,362.168,362.168,0,0,0,31.233,40.553l-7.406,15.577L926.5,1591.268a20.2,20.2,0,0,0,3.956,23.172,18.425,18.425,0,0,0,4.264,3.25l77.517,45.455a21.054,21.054,0,0,0,27.248-5.665l32.9-44.64a20.848,20.848,0,0,1,24.442-6.906,366.026,366.026,0,0,0,112.308,26.479,20.19,20.19,0,0,1,18.538,15.611l21.425,88.6a20.109,20.109,0,0,0,22.065,15.134l89.756-11.648a20.337,20.337,0,0,0,17.853-21.142l-4.2-98.91a20.711,20.711,0,0,1,12.233-19.893,352.543,352.543,0,0,0,48.771-27.256q12.793-8.483,24.64-17.827a20.992,20.992,0,0,1,21.764-2.527l85.586,40.6A21.192,21.192,0,0,0,1594.909,1584.828Zm-185.285-402.85c11.013,21.471,18.749,45.855,22.41,73.07a129.085,129.085,0,0,1,1.041,19.151c-.617,29.555-9.505,65.337-22.574,87.522-100.264,169.547-339.659,123.291-371.237-68.338-.48-3.154-.959-6.308-1.353-9.52-3.854-29.938,5.634-76.039,20.69-102.146a243.285,243.285,0,0,1,26.207-36.973C1179.963,1035.386,1346.773,1059.7,1409.624,1181.978Z" transform="translate(-0.007 -0.009)"/><path class="cls-5" d="M563.481,1786.84s-2.339-18.213-7.753-29.043-39.873-3.938-39.873-3.938-6.891,5.907-8.368,33.473Z" transform="translate(-0.007 -0.009)"/><path class="cls-5" d="M680.879,1786.593c-8.1-4.942-3.489-41.809-3.489-41.809s37.727-30.182,42.915-7.074,35.841,33.484,53.291,36.313c12.045,1.953,15.774,8.625,16.929,12.57Z" transform="translate(-0.007 -0.009)"/><path class="cls-6" d="M602.733,1518.449a174.132,174.132,0,0,1,2.769,20.38c3.507,68.41,57.586,224.828,67.259,228.476,14.967,5.648,38.536-6.358,50.866-10.286,5.11-1.632,8.558-6.786,7.421-12.014-26.781-123.117-36.624-300.4-40.2-405.362-1.81-52.867-10.884-89.387-10.884-89.387s-131.9-35.192-132.679,9.325C546.587,1298.974,590.97,1453.465,602.733,1518.449Z" transform="translate(-0.007 -0.009)"/><path class="cls-5" d="M602.733,1518.449l88.111-178.806c-1.81-52.867-10.884-89.387-10.884-89.387s-131.9-35.192-132.679,9.325C546.587,1298.974,590.97,1453.465,602.733,1518.449Z" transform="translate(-0.007 -0.009)"/><path class="cls-6" d="M632.079,1259.737l-69.726,505.352s-30.62,7.384-54.435,1.477c0,0-20.414-268.77-18.713-333.747s-14.65-173.867,3.732-185.876S632.079,1259.737,632.079,1259.737Z" transform="translate(-0.007 -0.009)"/><path class="cls-7" d="M479.348,1251.316a9.679,9.679,0,0,0,6.982,10c9.726,2.821,20.94,4.787,42.568,9.268a412.851,412.851,0,0,0,81.223,8.16c53.41.341,73.631-18.069,73.631-18.069,2.3.044-1.215-11.136-4.382-64.283-1.073-18-2.11-40.825-2.856-69.667-.674-25.952-1.129-56.784-1.171-93.361-.058-44-68.162-91.337-69.419-91.337l-.015.021c0,6.336-9.985,18.026-25.362,19.035-18.253,1.193-40.647-7.891-40.647-18.4,0-.106-33,52.785-44.716,109.143-1.492,7.144-2.643,14.68-3.559,22.614C488.843,1098.34,491.527,1081.284,479.348,1251.316Z" transform="translate(-0.007 -0.009)"/><path class="cls-7" d="M605.923,942.027s63.33-.537,78.571,20.838,48.659,136.365,31.22,174.628-50.069-15.828-68.179-39.265S605.923,942.027,605.923,942.027Z" transform="translate(-0.007 -0.009)"/><path class="cls-8" d="M606.57,932.361l-.036,6.547s1.783,20.474-23.428,23.463-43.98-3.763-43.3-19.562c2.271-12.233,4.433-24.855,4.6-34.976a71.242,71.242,0,0,0-.9-12.26l48.853-.976,14.388,2.351Z" transform="translate(-0.007 -0.009)"/><path class="cls-9" d="M606.756,896.948l-.186,35.413a41.316,41.316,0,0,1-17.609,3.885c-22.452,0-36.965-16.464-44.55-28.413a71.242,71.242,0,0,0-.9-12.26l48.853-.976Z" transform="translate(-0.007 -0.009)"/><path class="cls-8" d="M539.772,887.712c5.668,30.5,45.029,29.5,62.039,27.585,4.788-.532,7.8-1.143,7.8-1.143,5.4-1.442,8.409-9.944,9.808-21.08,2.778-22.038-.731-54.39-4.453-62.664-5.6-12.451-16.158-25.917-55.8-16.2S532.5,848.627,539.772,887.712Z" transform="translate(-0.007 -0.009)"/><path class="cls-10" d="M670.684,1027.724s24.493,54.092,23.78,70.306a84.471,84.471,0,0,0-23.78,3.057C651.535,1106.8,670.684,1027.724,670.684,1027.724Z" transform="translate(-0.007 -0.009)"/><path class="cls-5" d="M627.129,801.373A131.142,131.142,0,0,1,589.1,791.084c-16.7-7.262-37.776.736-44.616,4.339a10.179,10.179,0,0,1,1.668-4.115s-3.072,2.178-3.524,5.222c-.316.233-.458.394-.376.448,0,0-3.482-.638-5.719.369,0,0,1.566-.224,2.126.783a.948.948,0,0,0,.25.277C512.857,811,510.451,852.174,518.836,861.7c10.087,11.464,25.03,36.97,25.03,36.97s1.564-5.79-.27-15.877,6.878-10.088,17.882-14.673,1.835-17.424,11.463-25.219,44.936-3.21,44.477-9.171C630.524,828.957,627.129,802.716,627.129,801.373Z" transform="translate(-0.007 -0.009)"/><path class="cls-10" d="M531.789,1129.051c10.341,41.521,122.161,62.977,147.581,67.338-1.073-18-2.11-40.825-2.856-69.667Z" transform="translate(-0.007 -0.009)"/><path class="cls-8" d="M556.335,1142.546c-1.066,0-24.858-3.551-29.12-5.682s-23.752-29.831-10.988-36.933,47.029,21.307,47.029,21.307Z" transform="translate(-0.007 -0.009)"/><path class="cls-7" d="M701.049,1150.776s-92.021,4.993-153.777-8.23c0,0-1.557-17.842,17.851-25.765,0,0,96.249-20.4,119.371-14.719S701.049,1150.776,701.049,1150.776Z" transform="translate(-0.007 -0.009)"/><path class="cls-7" d="M489.722,1078.56c19.1,23.026,44.063,41.827,71.585,46.23l.006-.007c.228-.348,8.332-12.65,6.812-30.733-.7-8.366-3.466-17.976-10.021-28.21a62.516,62.516,0,0,1-5.413-10.909C537.662,1016.585,539.9,942.677,539.9,942.677s-63.822,6.684-83.709,35.093C444.011,995.171,459.543,1042.153,489.722,1078.56Z" transform="translate(-0.007 -0.009)"/><path class="cls-9" d="M601.811,915.3c4.788-.532,7.8-1.143,7.8-1.143,5.4-1.442,8.409-9.944,9.808-21.08-10.12,2.493-14.758,10.313-16.69,13.644C601.854,908.217,601.676,911.576,601.811,915.3Z" transform="translate(-0.007 -0.009)"/><path class="cls-8" d="M627.525,932.552s22.042-36.373,4.9-37.955-24.028,10.019-26.5,14.28.647,23.484.647,23.484Z" transform="translate(-0.007 -0.009)"/><path class="cls-7" d="M543.515,1092.829a47.492,47.492,0,0,0,3.757,12.628,60.484,60.484,0,0,0,14.035,19.333l.006-.007c57.246-25.838,68.83-114.569,70.769-163.32.781-19.6,0-32.735,0-32.735C606.258,920.177,599,935.035,599,935.035s-30.491,72.508-46.308,119.9C546.64,1073.063,542.741,1087.524,543.515,1092.829Z" transform="translate(-0.007 -0.009)"/><path class="cls-10" d="M489.722,1078.56c19.1,23.026,44.063,41.827,71.585,46.23l.006-.007c57.246-25.838,68.83-114.569,70.769-163.32,0,0-27.089,98.248-63.957,132.587-6.662,6.215-13.651,10.335-20.853,11.407,0,0-46.492-13.14-56.243-25.511A5.323,5.323,0,0,0,489.722,1078.56Z" transform="translate(-0.007 -0.009)"/><path class="cls-11" d="M2875.762,1610.654s-28-32.663-1.726-53.41c0,0,19.189-11.618,34.836-10.675,0,0-22.172,37.178-15,40.877s21.719-43.208,21.719-43.208,43.668-4.235,57.716,2.518c0,0-37.331,30.55-29.469,32.369s48.186-28.167,48.186-28.167,40.643,6.917,38.475,31.711-16.171,32.449-22.326,31.789-42.161-14.4-42.945-9.359,20.889,21.524,36.066,22.3c0,0-28.654,31.6-47.7,22.482s-20.67-23.577-32.541-29-22-5.408-17.1.121,26.386,10.9,33.175,22.914,12.88,20.107-6.824,17.143-51.729-17.383-53.136-33.891Z" transform="translate(-0.007 -0.009)"/><path class="cls-11" d="M3010.53,1583.337s-110.39-4.253-134.768,27.317c0,0-5.392,16.147-21.982,30.851l-2.586,7.047s19.129-20.169,25.973-21.389C2877.167,1627.163,2866.463,1588.051,3010.53,1583.337Z" transform="translate(-0.007 -0.009)"/><path class="cls-11" d="M2853.78,1641.505s-23.7,17.523-25.34,48.833l4.3.384s7.568-32.374,21.246-45.034S2853.78,1641.505,2853.78,1641.505Z" transform="translate(-0.007 -0.009)"/><path class="cls-11" d="M2777.873,1569.577s44.537-24.941,23.753-58.789c0,0-16.627-20.784-34.443-26.129,0,0,9.5,50.476,0,51.663s-6.531-57.007-6.531-57.007-46.912-22.565-65.32-20.783c0,0,29.1,49.287,19.6,48.1s-42.163-51.069-42.163-51.069-48.1-8.908-55.818,19.6,4.749,42.755,11.876,44.536,52.851,1.188,51.662,7.126-32.066,15.44-49.287,10.1c0,0,19,46.912,43.943,44.537s32.66-17.814,48.1-19,26.722,2.969,19,7.127-33.847,1.362-46.318,11.963-22.565,17.134.593,21.884,64.727,1.782,73.041-16.033Z" transform="translate(-0.007 -0.009)"/><path class="cls-11" d="M2638.918,1484.066s124.7,40.38,138.955,85.511c0,0-.594,20.189,11.877,43.349v8.907s-13.065-30.285-20.191-34.442C2769.559,1587.391,2797.469,1548.2,2638.918,1484.066Z" transform="translate(-0.007 -0.009)"/><path class="cls-11" d="M2789.75,1612.926s19.23,29.2,8.267,64.752l-4.948-1.328s4.8-39.156-5.259-58.848S2789.75,1612.926,2789.75,1612.926Z" transform="translate(-0.007 -0.009)"/><path class="cls-12" d="M2848.728,1535.179s-58.708-32.876-31.312-77.494c0,0,21.919-27.4,45.4-34.442,0,0-12.524,66.536,0,68.1s8.611-75.147,8.611-75.147,61.839-29.745,86.105-27.4c0,0-38.356,64.969-25.833,63.4s55.577-67.318,55.577-67.318,63.406-11.741,73.582,25.831-6.263,56.36-15.656,58.708-69.667,1.566-68.1,9.393,42.27,20.352,64.97,13.308c0,0-25.049,61.839-57.925,58.707s-43.053-23.483-63.4-25.049-35.225,3.914-25.049,9.393,44.618,1.8,61.056,15.771,29.745,22.586-.783,28.848-85.322,2.348-96.282-21.134Z" transform="translate(-0.007 -0.009)"/><path class="cls-12" d="M3031.9,1422.461s-164.382,53.228-183.168,112.718c0,0,.782,26.615-15.656,57.143v11.742s17.221-39.921,26.613-45.4C2859.685,1558.664,2822.9,1507,3031.9,1422.461Z" transform="translate(-0.007 -0.009)"/><path class="cls-12" d="M2833.072,1592.322s-25.35,38.5-10.9,85.356l6.522-1.752s-6.331-51.613,6.933-77.572S2833.072,1592.322,2833.072,1592.322Z" transform="translate(-0.007 -0.009)"/><path class="cls-12" d="M2846.749,1779.3a115,115,0,0,0,115-115h-230A115,115,0,0,0,2846.749,1779.3Z" transform="translate(-0.007 -0.009)"/><path class="cls-12" d="M2963.336,1785.148H2730.162a14.187,14.187,0,0,1,14.187-14.187h204.8a14.187,14.187,0,0,1,14.187,14.187Z" transform="translate(-0.007 -0.009)"/><rect class="cls-13" x="2727.961" y="1664.287" width="236.396" height="3.528"/><path class="cls-14" d="M2446.793,897.426c-16.928-8.782-30.491-3.263-30.491-3.263-51.794-6.082-66.9,54.321-66.2,75.106s3.074,43.105-20.057,70.106c-66.813,77.994,73.117,81.434,73.117,81.434,1.183-62.315,75.882-39.577,72.607-33.263C2571.523,1110.526,2485.289,917.4,2446.793,897.426Z" transform="translate(-0.007 -0.009)"/><path class="cls-8" d="M2247,1157.212s-9.108-13.867-16.448-14.139-20.935-4.078-19.848-1.359,9.516,2.991,10.332,4.622-12.507,4.077-16.313,4.35-12.779,0-12.507,1.9,16.171,9.788,27.39,8.7,25.083,3.263,25.083,3.263Z" transform="translate(-0.007 -0.009)"/><path class="cls-15" d="M2378.727,1161.7a136.59,136.59,0,0,1-13.931,21.069c-10.823,13.555-27.511,29.216-48.466,32.307-10.008,1.476-19.8-.677-28.793-4.674a.141.141,0,0,0-.033-.007c-25.447-11.3-44.583-37.276-44.583-37.276-4.486-12.235,2.855-20.53,2.855-20.53s51.386,11.558,56.28,9.111,33.442-84.69,40.237-95.023,29.967-15.7,29.967-15.7Z" transform="translate(-0.007 -0.009)"/><path class="cls-16" d="M2364.8,1182.766c-10.823,13.555-27.511,29.216-48.466,32.307-10.008,1.476-19.8-.677-28.793-4.674,1,.131,26.411,3.271,36.542-14.853,10.334-18.49,21.508-47.854,36.859-38.066C2367.56,1161.705,2367.267,1172.2,2364.8,1182.766Z" transform="translate(-0.007 -0.009)"/><path class="cls-5" d="M2570.439,1716.383s15.681,14.309,12.621,24.476-17.209,16.946-19.122,29.373-9.561,19.2-16.444,19.2h-32.82s-5.067-8.744,7.171-11.38,16.853-17.238,16.088-30.8,1.147-31.632,1.147-31.632l26.006-6.025Z" transform="translate(-0.007 -0.009)"/><path class="cls-5" d="M2437.726,1722.457s5.641,60.62-1.243,64.009l-88.1-.181s0-10.167,14.15-12.426,39.008-10.543,43.215-29S2437.726,1722.457,2437.726,1722.457Z" transform="translate(-0.007 -0.009)"/><path class="cls-8" d="M2500.506,1287.559c-18.129-40.657-29.222-52.327-27.105-64.946,1.576-9.392-4.8-175.112-4.8-175.112-2.151-.666-6.462-1.262-8.82-1.786a22.122,22.122,0,0,1-16.153-14.049c-3.085-8.641-5.539-21.4-5.482-37.39l-2.322.457-39.047,7.732s.889,12.289.915,23.865c0,.1,0,.192,0,.288a22.458,22.458,0,0,1-16.208,21.715c-4.931,1.424-9.223,2.641-9.223,2.641s-14.338,40.935-17.077,82.988,26.073,60.321-.217,144.357C2328.128,1364.146,2510.521,1310.024,2500.506,1287.559Z" transform="translate(-0.007 -0.009)"/><path class="cls-17" d="M2396.778,1002.465s.889,12.289.915,23.865c21.85-.616,33.4-20.548,38.132-31.6Z" transform="translate(-0.007 -0.009)"/><path class="cls-8" d="M2389.481,1013.427s51.7.853,51.734-31.35,6.731-53.78-26.275-55.686-39.432,10.375-42.058,21.12S2376.035,1012.375,2389.481,1013.427Z" transform="translate(-0.007 -0.009)"/><path class="cls-14" d="M2391.4,925.6s14.154,37.78,35.877,43.366,31.145-.235,31.145-.235-16.662-13.236-20.12-36.342C2438.3,932.391,2402.072,907.62,2391.4,925.6Z" transform="translate(-0.007 -0.009)"/><path class="cls-14" d="M2394.9,928.669s-10.5,3.924-14.817,11.579a52.055,52.055,0,0,0-6.988,29.563s-10.663-25.678,1.321-40.205C2387.127,914.2,2394.9,928.669,2394.9,928.669Z" transform="translate(-0.007 -0.009)"/><path class="cls-2" d="M2400.729,993.449a12.988,12.988,0,0,1-10.7,4.356,9.5,9.5,0,0,1-7.966-5.259S2392.62,990.006,2400.729,993.449Z" transform="translate(-0.007 -0.009)"/><path class="cls-15" d="M2505.5,1120.809a350.81,350.81,0,0,1,0,40.718c-.873,14.723-15.766,34.444-17.879,39.321-5.3,12.235-11.28,14.225-11.28,14.225l-46.256,11.338-16.263,3.98-51.288-15.318s-23.361-65.2-13.981-101.907,23.712-62.193,23.712-62.193,41.85,40.978,96.344-3.476Z" transform="translate(-0.007 -0.009)"/><path class="cls-16" d="M2491.956,1167.537c-.872,14.722-2.227,28.434-4.34,33.311-5.3,12.235-11.28,14.225-11.28,14.225l-46.256,11.338-20.089-5.906s67.064-10.163,59.632-67.861Z" transform="translate(-0.007 -0.009)"/><path class="cls-10" d="M2365.79,1224.971s-25.4,79.057-27.03,105.974,48.552,382.372,50.571,394.775c1.9,11.691,16.42,19.143,16.42,19.143s6.677,3.939,16.206,1.248c13.221-3.733,17.4-8.2,17.4-8.2s19.769-253.509,7.535-344.067a1434.278,1434.278,0,0,1-12.378-168.87Z" transform="translate(-0.007 -0.009)"/><path class="cls-7" d="M2473.4,1222.613s38.743,51.984,42.356,87.124,5.666,158.576,13.361,192.834,35.968,100.183,35.968,207.033c0,0-2.939,6.124-12.013,9.387a98.881,98.881,0,0,1-10.565,2.92,16.607,16.607,0,0,1-18.575-8.817c-19.115-38.485-80-162.608-83.123-188.373-2.208-18.234-21.433-138.911-63.368-209.723-10.066-17,6.179-84.607,6.179-84.607Z" transform="translate(-0.007 -0.009)"/><path class="cls-18" d="M2399.581,994.311s-.894,3.795-10.335,3.209c0,0-7.926-.49-7.683-4.66C2381.563,992.86,2389.249,989.892,2399.581,994.311Z" transform="translate(-0.007 -0.009)"/><path class="cls-5" d="M2361.733,1212.766s10.2,8.066,30.453,8.474c24.195.487,84.147-6.169,84.147-6.169a49.562,49.562,0,0,1,2.556,15.3s-73.223,18.469-115.648,2.7C2363.241,1233.07,2357.77,1222.775,2361.733,1212.766Z" transform="translate(-0.007 -0.009)"/><path class="cls-18" d="M2386.381,1242.09c-6.088,0-11.041-5.606-11.041-12.5s4.953-12.5,11.041-12.5,11.04,5.605,11.04,12.5S2392.469,1242.09,2386.381,1242.09Zm0-21.332c-4.07,0-7.381,3.964-7.381,8.836s3.311,8.836,7.381,8.836,7.381-3.963,7.381-8.836S2390.45,1220.758,2386.381,1220.758Z" transform="translate(-0.007 -0.009)"/><rect class="cls-19" x="2423.205" y="1140.304" width="99.473" height="136.163" transform="translate(-185.6 1920.995) rotate(-41.047)"/><path class="cls-8" d="M2459.414,1227.306s-27.487,3.214-27.4,9.739,6.849,19.93,10.243,20.525,22.37-18.127,22.37-18.127Z" transform="translate(-0.007 -0.009)"/><path class="cls-15" d="M2468.6,1047.5s36.7,2.574,50.764,36.769,40.757,91.612,40.757,101.27-14.908,39.435-94.977,56.554c0,0-8.282-8.712-7.781-15.6,0,0,49.982-42.931,49.848-47.949-.254-9.49-8.193-22.02-52.076-65.916C2443.209,1100.69,2468.6,1047.5,2468.6,1047.5Z" transform="translate(-0.007 -0.009)"/><path class="cls-20" d="M2761.526,842.758l21.887,76.489a9.853,9.853,0,0,1-6.756,12.173l-132.839,38.011a9.847,9.847,0,0,1-12.161-6.76l-21.877-76.457a9.834,9.834,0,0,1,6.745-12.169l132.838-38.011A9.845,9.845,0,0,1,2761.526,842.758Z" transform="translate(-0.007 -0.009)"/><path class="cls-21" d="M2783.768,922.62a9.838,9.838,0,0,1-7.111,8.8l-132.839,38.011a9.837,9.837,0,0,1-10.714-3.757l67.656-61.638Z" transform="translate(-0.007 -0.009)"/><path class="cls-22" d="M2761.526,842.758l-59.47,73.849-91.157-26.48-1.119-3.913a9.834,9.834,0,0,1,6.745-12.169l132.838-38.011A9.845,9.845,0,0,1,2761.526,842.758Z" transform="translate(-0.007 -0.009)"/><path class="cls-23" d="M1708.145,1787.332h-.378a3.976,3.976,0,0,1-3.975-4.067l6.027-261.214,17.753-2.071-15.138,263.3A4.3,4.3,0,0,1,1708.145,1787.332Z" transform="translate(-0.007 -0.009)"/><path class="cls-24" d="M1604.693,1787.332h-.378a3.976,3.976,0,0,1-3.975-4.067l6.027-261.214,17.753-2.071-15.139,263.3A4.294,4.294,0,0,1,1604.693,1787.332Z" transform="translate(-0.007 -0.009)"/><path class="cls-23" d="M1890.162,1787.332h.378a3.975,3.975,0,0,0,3.975-4.067l-6.027-261.214-17.753-2.071,15.138,263.3A4.3,4.3,0,0,0,1890.162,1787.332Z" transform="translate(-0.007 -0.009)"/><path class="cls-23" d="M1592.931,1505.851v-179a57.028,57.028,0,0,1,57.028-57.029h128.962a57.028,57.028,0,0,1,57.027,57.029v185.836Z" transform="translate(-0.007 -0.009)"/><path class="cls-24" d="M1592.924,1505.842h266.124a0,0,0,0,1,0,0V1534.1a0,0,0,0,1,0,0H1609.1a16.181,16.181,0,0,1-16.181-16.181v-12.078A0,0,0,0,1,1592.924,1505.842Z"/><path class="cls-23" d="M1699.81,1505.842h189.773a11.965,11.965,0,0,1,11.965,11.965v4.329a11.965,11.965,0,0,1-11.965,11.965H1699.811a11.965,11.965,0,0,1-11.965-11.965v-4.33A11.964,11.964,0,0,1,1699.81,1505.842Z"/><path class="cls-5" d="M1881.579,1461.251c-18.474,32.154-41.711,44.566-41.711,44.566H1743.2S1895.674,1436.721,1881.579,1461.251Z" transform="translate(-0.007 -0.009)"/><path class="cls-8" d="M1807.333,1710.037a8.937,8.937,0,0,0-1.593,9.559.076.076,0,0,0,.024.047c2.306,6.371,9.924,13.487,18.772,20.592,1.13.913,2.136,1.742,3.012,2.511.23.2.461.4.676.607.178.156.351.32.521.47,8.251,7.606,5.146,9.348,19.97,24.782,16.9,17.586,28.539,17.9,31.85,16.3,2.8-1.366-2.89-10.693-9.2-21.177-.306-.5-.606-1.017-.919-1.528-.84-1.394-1.674-2.808-2.508-4.21-7.389-12.617-5.491-18.537-3.739-37.313,1.423-15.259,23.737-85.246,23.737-85.246l-32.39-5.579s-9.755,55.73-20.5,64.312c-5.747,4.574-12.18,4.632-17.7,8.023q-.585.354-1.149.727A42.5,42.5,0,0,0,1807.333,1710.037Z" transform="translate(-0.007 -0.009)"/><path class="cls-5" d="M1807.333,1710.037a8.937,8.937,0,0,0-1.593,9.559.076.076,0,0,0,.024.047c2.824,6.365,10.249,13.444,18.8,20.527,1.117.928,2.1,1.78,2.982,2.576.23.2.461.4.676.607.178.156.351.32.521.47,8.251,7.606,5.146,9.348,19.97,24.782,16.9,17.586,28.539,17.9,31.85,16.3,2.8-1.366-2.89-10.693-9.2-21.177a72.019,72.019,0,0,1-30.129-22.2c-10.178-12.987-16.965-29.674-23.9-39.34q-.585.354-1.149.727A42.5,42.5,0,0,0,1807.333,1710.037Z" transform="translate(-0.007 -0.009)"/><path class="cls-8" d="M2068.516,1689.806c2,10,16.252,8.331,32.175,4.44s12.139.735,34.8-1.774,29.527-10.958,30.218-14.328c.619-2.99-10.578-4.044-22.589-5.428-1.51-.169-3.027-.356-4.545-.543-13.56-1.7-23.491-10.452-35.808-17.638-11.667-6.807-29.078-34.54-29.078-34.54l-31.078,2.461s16.309,24.771,22.617,35.541c3.71,6.334,3.512,14.71,3.05,21.178A39.91,39.91,0,0,0,2068.516,1689.806Z" transform="translate(-0.007 -0.009)"/><path class="cls-5" d="M2100.691,1694.246c15.923-3.891,12.139.735,34.8-1.774s29.527-10.958,30.218-14.328c.619-2.99-10.578-4.044-22.589-5.428l-.113.231a63.873,63.873,0,0,1-32.453,10.088c-15.375.373-31.659-4.031-42.276-3.86a39.91,39.91,0,0,0,.239,10.631C2070.516,1699.805,2084.768,1698.137,2100.691,1694.246Z" transform="translate(-0.007 -0.009)"/><path class="cls-5" d="M1949.416,1491.085l-29.052,78.177-37.93,102.076a61.442,61.442,0,0,1-20.15-1.841c-9.075-2.624-19.488-9.486-19.488-9.486s10.532-109.6,30.179-172.516c5.035-16.15,10.679-29.213,16.905-36.564C1920.337,1414.935,1949.416,1491.085,1949.416,1491.085Z" transform="translate(-0.007 -0.009)"/><path class="cls-25" d="M1919.878,1366.931c-19.033-6.14-73.319,1.743-127.851,12.418l-11.418-18.833-117.786-9.2s-38.868,86.194-17.589,141.115c3.128,8.072,9.342,13.25,19.935,13.419,0,0,1.716-.005,1.72,0s70.105-.04,92.868-.04c58.577,0,123.969-40.267,132.429-41.958,13.846-2.77,19.384,24.922,33.23,54s130.153,128.769,130.153,128.769,17.876.176,25.261-2.592c7.941-2.979,10.846-6.847,10.846-6.847S1962.8,1380.777,1919.878,1366.931Z" transform="translate(-0.007 -0.009)"/><path class="cls-5" d="M1775.975,1017.542c-15.088-7.923-38.046-8.994-41.777-9.5-44.634-6-71.5,58.859-73.077,78.511-2.912,36.223-22.074,41.746-49.046,64.431-54.082,45.486-38.222,98.342-8.65,117.982,17.743,11.783,49.017,0,49.017,0,.443.309,85.532-47.567,127.475-70.661C1842.8,1189.368,1814.426,1037.733,1775.975,1017.542Z" transform="translate(-0.007 -0.009)"/><path class="cls-8" d="M1744.762,1178.649c.184.119-20.637,7.228-34.56,1.062-13.1-5.789-23.02-27.337-22.825-27.348,5.958-.275,12.5-5.485,17.536-39.665l2.538.91,42.658,15.35s-3.091,13.688-5.09,26.72C1743.336,1166.62,1742.432,1177.1,1744.762,1178.649Z" transform="translate(-0.007 -0.009)"/><path class="cls-26" d="M1750.109,1128.958s-3.091,13.688-5.09,26.72c-24.5-4.411-34.118-28.823-37.568-42.07Z" transform="translate(-0.007 -0.009)"/><path class="cls-8" d="M1756.463,1142.544s-58.365-7.834-52.927-44.106,1.566-61.71,39.061-58.243,42.643,18.392,43.773,30.94S1771.785,1143.646,1756.463,1142.544Z" transform="translate(-0.007 -0.009)"/><path class="cls-5" d="M1784.242,1051.254s-37.361,32.2-62.776,34.793-35.035-5.562-35.035-5.562a99.253,99.253,0,0,0,23.995-32.509,17.866,17.866,0,0,1,14.731-10.534C1743.3,1035.876,1777.7,1035.161,1784.242,1051.254Z" transform="translate(-0.007 -0.009)"/><path class="cls-5" d="M1760.887,1048.37s12.5,12.085,16.435,21.049c3.8,8.65,4.938,29.339,1.913,37.555,0,0,19.474-37.866,8.449-56.265C1775.993,1031.2,1760.887,1048.37,1760.887,1048.37Z" transform="translate(-0.007 -0.009)"/><path class="cls-18" d="M1793.908,1264.626c-1.764,118.144-.485,93.457-13.407,104.667-3.115,2.7-11.869,4.309-23.391,5.069-36.227,2.4-99.91-3.563-102.332-10.259-8.356-23.165-2.457-30.362-9.429-65.828-.726-3.772-1.626-7.854-2.682-12.3-5.812-24.358-11.469-32.645,9.153-71.779,18.7-35.448,38.13-64.219,39.877-63.181,49.34,29.29,53.32,4.671,53.32,4.671S1794.773,1207,1793.908,1264.626Z" transform="translate(-0.007 -0.009)"/><path class="cls-25" d="M1920.364,1569.262l-37.93,102.076a61.442,61.442,0,0,1-20.15-1.841c-9.075-2.624-19.488-9.486-19.488-9.486s10.532-109.6,30.179-172.516Z" transform="translate(-0.007 -0.009)"/><path class="cls-18" d="M1745.019,1155.678s50.771,8.608,56.732,30.467S1842.8,1336.51,1842.8,1336.51s-25.809,4.637-37.733-7.287-41.488-110.62-41.488-110.62Z" transform="translate(-0.007 -0.009)"/><path class="cls-27" d="M1757.11,1374.362c-36.227,2.4-99.91-3.563-102.332-10.259-8.356-23.165-2.457-30.362-9.429-65.828l17.474-49.2s-2.889,54.79,13.269,69.2c16.142,14.41,66.157,27.818,74.011,39.86C1753.892,1363.913,1756.383,1369.709,1757.11,1374.362Z" transform="translate(-0.007 -0.009)"/><path class="cls-8" d="M1715.6,1351.317s35.741-7.957,41.508-4.786,19.861,14.723,21.626,18.743-12.84-3.052-17.59-4.325c-3.075-.826-11.172,1.988-15.181,3.325-16.868,5.623-27.2,2.73-27.2,2.73Z" transform="translate(-0.007 -0.009)"/><path class="cls-18" d="M1691.667,1150.988s-47.99,2.956-64.6,26.127c-23.385,32.616-69.777,171.623-43.19,190.162,29.943,20.878,136.271,5.462,136.271,5.462s3.539-16.54-1.385-24.54-84.926-20.924-88.618-24.616,46.155-72,46.155-83.081S1691.667,1150.988,1691.667,1150.988Z" transform="translate(-0.007 -0.009)"/><path class="cls-8" d="M1758.84,1356.479s7.489,9.66,9.943,10.813a7.316,7.316,0,0,0,4.041.865l-5.045-9.083Z" transform="translate(-0.007 -0.009)"/><path class="cls-8" d="M1757.11,1346.531l21.772,10.574s-.926,1.516-3.606,1.393-9.444-2.6-9.444-2.6Z" transform="translate(-0.007 -0.009)"/><polygon class="cls-7" points="1768.777 1382.081 1941.004 1382.081 1992.813 1253.246 1820.851 1253.246 1768.777 1382.081"/><polygon class="cls-10" points="1943.023 1377.061 1715.595 1377.061 1715.595 1382.081 1941.004 1382.081 1943.023 1377.061"/><path class="cls-18" d="M1897.535,1317.672c1.3-4.528-1.32-8.2-5.848-8.2s-9.254,3.672-10.553,8.2,1.321,8.2,5.849,8.2S1896.236,1322.2,1897.535,1317.672Z" transform="translate(-0.007 -0.009)"/><path class="cls-23" d="M971.075,1260.127H972.9a10.952,10.952,0,0,1,10.952,10.952v245.942a10.952,10.952,0,0,1-10.952,10.952h-1.826a10.952,10.952,0,0,1-10.952-10.952V1271.08a10.953,10.953,0,0,1,10.953-10.953Z"/><path class="cls-24" d="M971.892,1787.332h-.379a3.976,3.976,0,0,1-3.974-4.067l6.027-261.214,17.753-2.071-15.139,263.3A4.294,4.294,0,0,1,971.892,1787.332Z" transform="translate(-0.007 -0.009)"/><path class="cls-23" d="M1257.36,1787.332h.379a3.975,3.975,0,0,0,3.974-4.067l-6.027-261.214-17.752-2.071,15.138,263.3A4.3,4.3,0,0,0,1257.36,1787.332Z" transform="translate(-0.007 -0.009)"/><path class="cls-23" d="M1256.092,1505.851H960.129v11.136a17.123,17.123,0,0,0,17.123,17.123h278.84a12.662,12.662,0,0,0,12.662-12.661v-2.936A12.662,12.662,0,0,0,1256.092,1505.851Z" transform="translate(-0.007 -0.009)"/><path class="cls-14" d="M1404.258,1731.491s-4.359,54.161,5.338,54.88c1.29.095,49.19.095,49.19.095l61.146-.355s-.4-14.732-18.274-17.847-53.248-18.155-64.075-41.777C1426.193,1701.635,1404.258,1731.491,1404.258,1731.491Z" transform="translate(-0.007 -0.009)"/><path class="cls-28" d="M1036.405,1434.777s2.035,53.226,11.418,71.074h216.258s51.96,5.378,56.7,8.882c5.977,4.421-20.813,48.279,79.611,219.679l49.192-1.253s-51.437-277.976-60.577-285.012c-13.672-10.523-173.656-47.151-201.044-47.951S1036.405,1434.777,1036.405,1434.777Z" transform="translate(-0.007 -0.009)"/><path class="cls-8" d="M1157.645,1119.387c16.689,10.336,17.629,30.926,17.629,30.926-40.7,10.529-99.926-34.66-99.926-34.66s26.2-17.6,35.906-56.287q.736-2.927,1.333-6a122.041,122.041,0,0,0,2.2-21.18l18.7,16.75,31.092,27.855s-.7,11.559-4.594,31.44Q1158.971,1113.435,1157.645,1119.387Z" transform="translate(-0.007 -0.009)"/><path class="cls-23" d="M1180.641,1333.064c-1.388,9.082,1.426,16.389,2.778,23.145a26.057,26.057,0,0,1,.612,7.569c-2.226,25.122,6.731,28.312,3.929,36.418,0,0-9.571,5.593-27.086,12.236-7.619,2.878-16.752,5.968-27.261,8.871-.55.149-1.1.3-1.664.45-40.685,11-83.459,13.347-95.544,13.024-23.086-.618-27.743-59.13-19.18-132.828,13.341-114.812,31.377-170.476,78.918-210.7,2.995-2.534.976,6.084,16.952,13.791,14.763,7.106,32.578,8.77,46.39,5.705l10.872,11.146c21.594,34.105,23.858,74.59,22.019,108.332C1190.049,1272.888,1184.657,1306.93,1180.641,1333.064Z" transform="translate(-0.007 -0.009)"/><path class="cls-26" d="M1164.581,1076.791s1.654-1.741-2.235,18.141c-34.439-9.964-45.657-27.509-50.256-39.14-1.308-3.287,12.8-5.038,21.4-6.856Z" transform="translate(-0.007 -0.009)"/><path class="cls-8" d="M1180.587,1076.89s-66.448,9.515-71.736-31.958-17.427-68.173,24.774-76,52.479,6.943,57.612,20.356S1197.736,1073.345,1180.587,1076.89Z" transform="translate(-0.007 -0.009)"/><rect class="cls-28" x="1451.36" y="1248.807" width="5.324" height="139.427" transform="translate(2448.108 3010.982) rotate(-162.63)"/><rect class="cls-28" x="1289.487" y="1376.337" width="146.311" height="8.753" transform="translate(2710.87 2775.491) rotate(-179.405)"/><path class="cls-29" d="M1087.662,969.766c-.534-.621-1.77-1.128-4.53-1.3a11.2,11.2,0,0,1,5.17-1.413c.608-3.835,2.7-10.615,9.325-12.215a8.282,8.282,0,0,0-4.062,5.944c7.716-7.8,24.161-13.393,69.548-9.451,59.814,5.2,39.787,43.362,32,47.869s-27.19-8.17-41.635-7.139-17.356,21.872-22.276,24.7-2.955-2.223-9.557-5.27-7.32,7.928-5.462,15.082-7.322,16.5-7.322,16.5l-9.122-9.981c-9.123-9.981-17.464-52.02-13.21-60.934C1086.907,971.366,1087.278,970.568,1087.662,969.766Z" transform="translate(-0.007 -0.009)"/><path class="cls-30" d="M1187.96,1400.2s-9.571,5.593-27.086,12.236c-75.815-55.31-75.4-186.247-75.815-188.487l95.219,83.847,3.141,48.417a26.057,26.057,0,0,1,.612,7.569C1181.805,1388.9,1190.762,1392.09,1187.96,1400.2Z" transform="translate(-0.007 -0.009)"/><path class="cls-8" d="M1325.217,1338.6a23.523,23.523,0,0,0,12.529-2.031c6.434-3.021,28.627-12.552,32.795-11.249s17.777,8.988,20.98,10.447,8.868,8.949,8.868,8.949c-2.351,2.372-10.617-3.071-14.309-2.966s-30.969,15-39.076,15.326-20.74-1.338-20.74-1.338Z" transform="translate(-0.007 -0.009)"/><path class="cls-8" d="M1374.653,1339.791c.072.443,9.973,11.477,17.517,7.977l-8.268-8.167Z" transform="translate(-0.007 -0.009)"/><path class="cls-8" d="M1337.746,1336.572s8.879-8.22,11.823-12.173c0,0,1.772.81,1.844,2.308.121,2.5-2.323,7.093-2.323,7.093Z" transform="translate(-0.007 -0.009)"/><path class="cls-23" d="M1163.092,1141.206c-48.8-29.721-106.4,22.206-82.185,73.96,28.081,60.011,74.829,133.205,111.976,137.529,26.477,3.082,102.141,12.783,134.188,6.808,0,0,15.525.764,7.106-24.238,0,0-103.545-28.858-120.745-51.243-9.217-11.995-24.924-36.281-49.207-142.116C1164.125,1141.474,1163.471,1141.438,1163.092,1141.206Z" transform="translate(-0.007 -0.009)"/><path class="cls-31" d="M2475.265,1787.332h.524a5.491,5.491,0,0,0,5.489-5.619l-8.325-360.856-24.525-2.86,20.914,363.742A5.933,5.933,0,0,0,2475.265,1787.332Z" transform="translate(-0.007 -0.009)"/><path class="cls-31" d="M1269.479,1787.332h-.524a5.491,5.491,0,0,1-5.489-5.619l8.326-360.856,24.524-2.86L1275.4,1781.739A5.933,5.933,0,0,1,1269.479,1787.332Z" transform="translate(-0.007 -0.009)"/><path class="cls-31" d="M1244.075,1383.941H2497.533a15.585,15.585,0,0,1,15.585,15.585V1411.9a15.585,15.585,0,0,1-15.585,15.585H1244.075a15.584,15.584,0,0,1-15.584-15.584v-12.376A15.584,15.584,0,0,1,1244.075,1383.941Z"/><path class="cls-15" d="M2290.431,504.883a124.731,124.731,0,0,0,28.526,79.575,104.414,104.414,0,0,1,23.977,66.365v34.952a40.526,40.526,0,0,0,40.4,40.4H2448a40.523,40.523,0,0,0,40.4-40.4V650.762a104.838,104.838,0,0,1,24.1-66.456,125.276,125.276,0,0,0-119.312-202.644q-2.424.436-4.815.972A125.273,125.273,0,0,0,2290.431,504.883Z" transform="translate(-0.007 -0.009)"/><path class="cls-24" d="M2447.767,726.179l-.14,1.077-1.774,13.618-.47,3.587v.03l-.473,3.612-1.769,13.612-.468,3.587-.006.03-.469,3.617-.261,1.994c-.9,6.907-8.8,12.184-18.239,12.184H2402.42a24.271,24.271,0,0,1-6.4-.845h-.007a20.663,20.663,0,0,1-4.954-2.061l-.116-.067a16.42,16.42,0,0,1-3.222-2.456,11.66,11.66,0,0,1-3.526-6.627l-.755-5.277-.479-3.325v-.007l-.006-.072v-.007l-.468-3.252-1.806-12.621-.474-3.314-.013-.073-.468-3.27-1.957-13.674Z" transform="translate(-0.007 -0.009)"/><path class="cls-31" d="M2439.323,726.179H2427.3c-19.406,5.612-38.654,11.157-47.573,13.674l.468,3.27.013.073.474,3.314c7.223-2,24.561-6.967,66.948-19.254l.14-1.077Z" transform="translate(-0.007 -0.009)"/><path class="cls-31" d="M2382.953,762.383v.007l.006.072v.007l.479,3.325c8.355-2.347,25.585-7.29,61.472-17.691l.473-3.612v-.03l.47-3.587c-22.678,6.566-50.127,14.494-63.368,18.257Z" transform="translate(-0.007 -0.009)"/><path class="cls-31" d="M2390.941,780.154l.116.067a20.663,20.663,0,0,0,4.954,2.061h.007c9.842-2.821,24.452-7.041,46.18-13.333l.469-3.617.006-.03.468-3.587c-19.406,5.617-41.67,12.05-55.422,15.983A16.42,16.42,0,0,0,2390.941,780.154Z" transform="translate(-0.007 -0.009)"/><rect class="cls-18" x="2376.812" y="564.815" width="5.664" height="162.506" transform="translate(-74.489 406.526) rotate(-9.615)"/><rect class="cls-18" x="2369.876" y="644.499" width="160.317" height="5.664" transform="translate(1372.325 2940.848) rotate(-79.632)"/><path class="cls-18" d="M2430.615,595.02a11.109,11.109,0,0,1-2.446-.3,3.512,3.512,0,0,1-2.775-3.037c-.646-3.539,2.131-10.033,6.03-15.535-2.037-3.558-4.752-6.494-7.6-7.355-4.2-1.276-10.657,2.607-15.151,7.567a33.573,33.573,0,0,1,2.211,3.6c2.3,4.346,3.955,9.906,1.692,12.475-.839.953-2.552,1.817-5.95.535-4.243-1.6-5.769-5.2-4.185-9.863a22.678,22.678,0,0,1,4.023-6.874c-3.481-4.539-8.131-7.989-12.714-7.411a14.022,14.022,0,0,0-6.294,2.375c2.93,5.454,3.606,12.375,1.571,16.089-1.384,2.531-3.8,3.33-6.815,2.261-2.161-.769-3.291-3.744-2.874-7.579a17.507,17.507,0,0,1,5.877-11.211,14.542,14.542,0,0,0-3.257-3.653c-7.9-6.13-14.426.447-14.7.732l-1.232-1.193c.078-.08,7.891-7.952,16.982-.893a16.126,16.126,0,0,1,3.569,3.965,15.742,15.742,0,0,1,6.958-2.594c5.138-.646,10.265,2.979,14.07,7.8,4.891-5.313,11.853-9.239,16.714-7.772,3.07.929,5.966,3.892,8.18,7.541a29.372,29.372,0,0,1,6.591-6.482c3.578-2.37,5.909-1.826,7.23-.954a12.905,12.905,0,0,1,3.475,3.474,19.262,19.262,0,0,1,3.327-2.143c4.145-2.065,7.95-1.912,10.718.426l-1.109,1.309c-2.982-2.524-6.823-1.207-8.845-.2a17.908,17.908,0,0,0-3.188,2.062c2.759,4.976,3.294,11.461,1.714,14.6a3.628,3.628,0,0,1-4.85,1.9c-3.745-1.372-4.659-3.952-4.766-5.875-.2-3.676,2.344-7.862,5.673-10.946a11.223,11.223,0,0,0-3.09-3.18c-1.619-1.064-3.8-.069-5.344.952a28.955,28.955,0,0,0-6.627,6.661c2.571,4.892,3.9,10.593,2.929,14.27A5.545,5.545,0,0,1,2430.615,595.02Zm1.7-17.191c-3.393,4.948-5.782,10.546-5.234,13.547a1.84,1.84,0,0,0,1.468,1.672c3.358.762,5.422-.217,6.134-2.914C2435.508,587.02,2434.427,582.154,2432.314,577.829Zm-24.788-.124a20.319,20.319,0,0,0-3.46,5.955c-1.3,3.832-.234,6.425,3.167,7.708,1.369.517,3.186.925,4.058-.064,1.347-1.528.556-5.862-1.922-10.54A32.612,32.612,0,0,0,2407.526,577.705Zm-21.434-5.432a15.779,15.779,0,0,0-5.049,9.882c-.318,2.924.4,5.3,1.747,5.779,2.177.774,3.776.282,4.735-1.469C2389.268,583.281,2388.634,577.163,2386.092,572.273Zm63.264,1.094c-2.978,2.861-5,6.529-4.845,9.352.114,2.05,1.339,3.516,3.642,4.36a1.937,1.937,0,0,0,2.729-1.063C2452.206,583.385,2451.642,577.751,2449.356,573.367Z" transform="translate(-0.007 -0.009)"/><rect class="cls-4" x="927.774" y="827.28" width="20.901" height="76.896"/><path class="cls-4" d="M946.07,819.673H931.345a2.621,2.621,0,0,1-2.613-2.613h0a2.62,2.62,0,0,1,2.613-2.612H946.07a2.619,2.619,0,0,1,2.612,2.612h0A2.62,2.62,0,0,1,946.07,819.673Z" transform="translate(-0.007 -0.009)"/><rect class="cls-4" x="891.74" y="766.896" width="20.901" height="137.28"/><path class="cls-4" d="M909.559,761.209H894.835a2.62,2.62,0,0,1-2.613-2.612h0a2.621,2.621,0,0,1,2.613-2.613h14.724a2.621,2.621,0,0,1,2.613,2.613h0A2.62,2.62,0,0,1,909.559,761.209Z" transform="translate(-0.007 -0.009)"/><rect class="cls-4" x="857.207" y="671.303" width="20.901" height="232.873"/><path class="cls-4" d="M875.027,664.959H860.3a2.622,2.622,0,0,1-2.614-2.613h0a2.621,2.621,0,0,1,2.614-2.612h14.724a2.62,2.62,0,0,1,2.613,2.612h0A2.621,2.621,0,0,1,875.027,664.959Z" transform="translate(-0.007 -0.009)"/><rect class="cls-4" x="821.767" y="713.555" width="20.901" height="190.621"/><path class="cls-4" d="M839.586,708.465H824.861a2.619,2.619,0,0,1-2.612-2.612h0a2.62,2.62,0,0,1,2.612-2.613h14.725a2.621,2.621,0,0,1,2.613,2.613h0A2.62,2.62,0,0,1,839.586,708.465Z" transform="translate(-0.007 -0.009)"/><rect class="cls-4" x="787.234" y="607.773" width="20.901" height="296.403"/><path class="cls-4" d="M805.054,602.1H790.329a2.619,2.619,0,0,1-2.612-2.612h0a2.62,2.62,0,0,1,2.612-2.613h14.725a2.621,2.621,0,0,1,2.613,2.613h0A2.62,2.62,0,0,1,805.054,602.1Z" transform="translate(-0.007 -0.009)"/><rect class="cls-4" x="753.611" y="654.062" width="20.901" height="250.114"/><path class="cls-4" d="M771.43,648.753H756.706a2.62,2.62,0,0,1-2.613-2.613h0a2.62,2.62,0,0,1,2.613-2.612H771.43a2.62,2.62,0,0,1,2.613,2.612h0A2.62,2.62,0,0,1,771.43,648.753Z" transform="translate(-0.007 -0.009)"/><polygon class="cls-25" points="2310.722 1383.941 2138.495 1383.941 2086.686 1255.107 2258.648 1255.107 2310.722 1383.941"/><polygon class="cls-25" points="2136.476 1378.923 2363.904 1378.923 2363.904 1383.941 2138.495 1383.941 2136.476 1378.923"/><path class="cls-18" d="M2181.978,1319.533c-1.3-4.528,1.32-8.2,5.849-8.2s9.253,3.672,10.552,8.2-1.321,8.2-5.85,8.2S2183.277,1324.062,2181.978,1319.533Z" transform="translate(-0.007 -0.009)"/><path class="cls-32" d="M3233.681,1787.413v1.246a3.525,3.525,0,0,1-3.372,3.63H261.574a3.525,3.525,0,0,1-3.372-3.63v-1.246a3.525,3.525,0,0,1,3.372-3.63H3230.309A3.525,3.525,0,0,1,3233.681,1787.413Z" transform="translate(-0.007 -0.009)"/></svg>