<svg id="Layer_1" data-name="Layer 1" xmlns="http://www.w3.org/2000/svg" viewBox="0 0 1001 570"><defs><style>.cls-1{fill:#e4e9f0;stroke-linecap:round;stroke-linejoin:round;stroke-width:9px;}.cls-1,.cls-2{stroke:#3d4d6a;}.cls-2{fill:none;stroke-miterlimit:10;stroke-width:8px;}.cls-3{font-size:27px;}.cls-14,.cls-3{font-family:Jost-Medium, "Jost*";font-weight:500;}.cls-4{fill:#edebed;}.cls-5{fill:#a5cdff;}.cls-6{fill:#8cb4eb;}.cls-7{fill:#f7d291;}.cls-8{fill:#f0c382;}.cls-9{fill:#ffe1a0;}.cls-10{fill:#a06e50;}.cls-11{fill:#dbd9dc;}.cls-12{fill:#cd916e;}.cls-13{fill:#b67f5f;}.cls-14{font-size:26px;}.cls-15{letter-spacing:-0.03em;}.cls-16{font-size:22px;font-family:Jost-Light, "Jost*";font-weight:300;}.cls-17{letter-spacing:-0.005em;}.cls-18{letter-spacing:-0.05em;}.cls-19{letter-spacing:-0.015em;}</style></defs><rect class="cls-1" x="4.5" y="4.5" width="992" height="561" rx="30"/><line class="cls-2" x1="7.5" y1="278.5" x2="425.5" y2="278.5"/><line class="cls-2" x1="495.5" y1="567" x2="495.5" y2="4.962"/><rect class="cls-1" x="423" y="214.5" width="155" height="141" rx="33.372"/><text class="cls-3" transform="translate(450.207 328.404)">MÉDICO</text><line class="cls-2" x1="577.5" y1="278.5" x2="995.5" y2="278.5"/><path class="cls-4" d="M548.848,269.894l-19.7-5.8H494.93l-19.7,5.8a11.214,11.214,0,0,0-8.051,10.759v21.982H556.9V280.653A11.213,11.213,0,0,0,548.848,269.894Z" transform="translate(-10.5 -8)"/><polygon class="cls-5" points="510.885 294.635 492.194 294.635 488.455 257.252 514.623 257.252 510.885 294.635"/><path class="cls-6" d="M499.806,273.755a18.625,18.625,0,0,0,24.467,0l.85-8.5H498.955Z" transform="translate(-10.5 -8)"/><path class="cls-7" d="M512.039,272.729h0a13.084,13.084,0,0,1-13.084-13.084V246.561h26.168v13.084A13.083,13.083,0,0,1,512.039,272.729Z" transform="translate(-10.5 -8)"/><path class="cls-8" d="M498.955,256.338a27.537,27.537,0,0,0,26.168,0v-9.777H498.955Z" transform="translate(-10.5 -8)"/><path class="cls-9" d="M539.142,222.262h-2.8V203.571h-48.6v18.691h-2.8a4.673,4.673,0,0,0,0,9.346h2.9a24.275,24.275,0,0,0,48.409,0h2.9a4.673,4.673,0,0,0,0-9.346Z" transform="translate(-10.5 -8)"/><path class="cls-7" d="M487.741,203.571v18.691h-2.616a4.779,4.779,0,0,0-4.666,3.4,4.688,4.688,0,0,0,4.5,5.942h2.873a24.126,24.126,0,0,0,27.955,22.115,24.284,24.284,0,0,1-20.572-23.984V217.993a5.6,5.6,0,0,1,6.333-5.51,47.464,47.464,0,0,0,5.606.322,73.7,73.7,0,0,0,18.461-2.632,14.421,14.421,0,0,0,8.694-6.6Z" transform="translate(-10.5 -8)"/><path class="cls-10" d="M496.853,196.1l.233,7.476s-5.607,5.607-5.607,13.084v2.307a3.739,3.739,0,0,1-3.275,3.71l-4.2.525V207.309C484,201.115,489.843,195.783,496.853,196.1Z" transform="translate(-10.5 -8)"/><path class="cls-11" d="M534.433,274.562l-3.7-3.7,3.962-5.283a2.289,2.289,0,0,0-.808-3.42l-8.762-4.381-13.084,44.859h11.215l11.879-23.758A3.737,3.737,0,0,0,534.433,274.562Z" transform="translate(-10.5 -8)"/><path class="cls-12" d="M527.226,190.487l-.234,13.084s5.608,5.607,5.608,13.084v2.307a3.738,3.738,0,0,0,3.274,3.709l4.2.526V201.7C540.076,195.508,534.235,190.175,527.226,190.487Z" transform="translate(-10.5 -8)"/><path class="cls-11" d="M489.646,274.562l3.7-3.7-3.962-5.283a2.288,2.288,0,0,1,.807-3.42l8.763-4.381,13.083,44.859H500.824l-11.878-23.758A3.737,3.737,0,0,1,489.646,274.562Z" transform="translate(-10.5 -8)"/><path class="cls-13" d="M515.661,186.749c-15.595,0-18.583,4.74-30.591,8.565a1.309,1.309,0,0,0-.731,1.948c2.606,4.076,12.305,14.7,39.858,7.486a8.731,8.731,0,0,0,6.362-6.717h0c.758-3.789-1.545-7.542-5.007-9.257A23.015,23.015,0,0,0,515.661,186.749Z" transform="translate(-10.5 -8)"/><rect class="cls-5" x="466.025" y="283.419" width="18.691" height="11.216"/><path d="M500.825,222.383a1.748,1.748,0,0,0-1.749,1.748V226a1.749,1.749,0,0,0,3.5,0v-1.87A1.748,1.748,0,0,0,500.825,222.383Z" transform="translate(-10.5 -8)"/><path d="M523.254,222.383a1.748,1.748,0,0,0-1.749,1.748V226a1.749,1.749,0,0,0,3.5,0v-1.87A1.748,1.748,0,0,0,523.254,222.383Z" transform="translate(-10.5 -8)"/><path d="M518.875,238.46a1.748,1.748,0,1,0-2.456-2.489,7.708,7.708,0,0,1-8.759,0,1.748,1.748,0,1,0-2.456,2.489,11.031,11.031,0,0,0,13.671,0Z" transform="translate(-10.5 -8)"/><path d="M502.694,216.775h-3.738a1.749,1.749,0,0,0,0,3.5h3.738a1.749,1.749,0,0,0,0-3.5Z" transform="translate(-10.5 -8)"/><path d="M521.385,220.273h3.738a1.749,1.749,0,0,0,0-3.5h-3.738a1.749,1.749,0,0,0,0,3.5Z" transform="translate(-10.5 -8)"/><path d="M549.493,268.3l-12.605-3.875a4.007,4.007,0,0,0-2.221-3.83l-7.8-3.9v-5.558a26.091,26.091,0,0,0,10.964-17.78h1.039a6.626,6.626,0,0,0,6.655-5.766,6.414,6.414,0,0,0-3.7-6.487V201.7a12.979,12.979,0,0,0-12.964-12.964h-.295A22.05,22.05,0,0,0,515.661,185c-10.924,0-15.943,2.276-21.753,4.911a75.9,75.9,0,0,1-10.864,4.193,1.751,1.751,0,0,0-1.123,2.353,15.9,15.9,0,0,0,2.851,4.145c-.871,1.071-2.518,3.811-2.518,9.2v11.381a6.378,6.378,0,0,0,2.683,12.174h1.305a26.079,26.079,0,0,0,10.965,17.783V256.7l-7.8,3.9a4.009,4.009,0,0,0-2.221,3.83L474.585,268.3a12.9,12.9,0,0,0-9.154,12.391v21.946a1.749,1.749,0,1,0,3.5,0V280.689a9.418,9.418,0,0,1,6.684-9.048l13.112-4.031,2.314,3.086-2.63,2.629a5.483,5.483,0,0,0-1.028,6.334l5.007,10.012H487.62v-1.989a1.749,1.749,0,1,0-3.5,0v1.989h-7.6a1.749,1.749,0,0,0-1.749,1.749v11.215a1.749,1.749,0,0,0,1.749,1.749h18.691a1.749,1.749,0,0,0,1.749-1.749v-3.807l2.3,4.589a1.749,1.749,0,1,0,3.128-1.564L490.51,278.1a1.986,1.986,0,0,1,.373-2.3l3.7-3.7a1.75,1.75,0,0,0,.162-2.286l-3.962-5.282a.534.534,0,0,1-.093-.448.529.529,0,0,1,.284-.359l6.888-3.444,4.862,16.671a1.749,1.749,0,1,0,3.358-.979l-.767-2.628a20.467,20.467,0,0,0,13.445,0l-6.722,23.047-3.775-12.94a1.749,1.749,0,1,0-3.357.98l5.453,18.7a1.748,1.748,0,0,0,3.357,0l12.5-42.847,6.887,3.444a.539.539,0,0,1,.191.807l-3.962,5.282a1.75,1.75,0,0,0,.162,2.286l3.7,3.7a1.988,1.988,0,0,1,.372,2.3L521.69,301.853a1.749,1.749,0,0,0,3.129,1.565L536.7,279.659a5.48,5.48,0,0,0-1.027-6.333l-2.63-2.63,2.314-3.086,13.112,4.032a9.418,9.418,0,0,1,6.684,9.048v21.945a1.749,1.749,0,1,0,3.5,0V280.689A12.9,12.9,0,0,0,549.493,268.3Zm-56.025,32.588H478.274v-7.717h5.849v.12a1.749,1.749,0,1,0,3.5,0v-.12h5.848v7.717Zm1.884-107.79c5.666-2.569,10.141-4.6,20.309-4.6,6.452,0,12.217,2.7,13.411,6.281a1.749,1.749,0,0,0,3.318-1.107,8.44,8.44,0,0,0-.357-.888,9.482,9.482,0,0,1,6.295,8.918v18.812h-1.99a1.992,1.992,0,0,1-1.989-1.99v-1.869c0-8.108-5.87-14.071-6.12-14.321a1.752,1.752,0,0,0-1.763-.431c-9.708,3.066-23.4,5.65-33.473.551a18.8,18.8,0,0,1-6.817-5.66A85.98,85.98,0,0,0,495.352,193.1Zm28.023,64.43-3.34,11.452a16.969,16.969,0,0,1-15.99,0L500.7,257.526v-4.339a26.006,26.006,0,0,0,22.671,0Zm-11.335-5.237a22.575,22.575,0,0,1-22.55-22.55,1.749,1.749,0,0,0-3.5,0v.12h-1.055a2.924,2.924,0,0,1-2.908-3.232,3.1,3.1,0,0,1,3.176-2.616h2.536a5.493,5.493,0,0,0,5.487-5.487v-6.6a1.749,1.749,0,0,0-3.5,0v6.6a1.991,1.991,0,0,1-1.989,1.989h-1.989V209.8c0-4.069,1.093-6.092,1.6-6.81a24.049,24.049,0,0,0,3.788,2.442,32.643,32.643,0,0,0,14.02,3.4,66.2,66.2,0,0,0,21.275-3.258c1.388,1.681,4.419,5.94,4.419,11.08v1.869a5.493,5.493,0,0,0,5.487,5.487h2.8a2.926,2.926,0,0,1,2.909,3.232,3.1,3.1,0,0,1-3.176,2.616h-.789v-.1a1.749,1.749,0,0,0-1.748-1.749h0a1.749,1.749,0,0,0-1.749,1.748A22.58,22.58,0,0,1,512.04,252.289Z" transform="translate(-10.5 -8)"/><path d="M547.553,290.606h-2.924v-2.924a1.749,1.749,0,0,0-3.5,0v2.924h-2.924a1.749,1.749,0,1,0,0,3.5h2.924v2.924a1.749,1.749,0,0,0,3.5,0V294.1h2.924a1.749,1.749,0,1,0,0-3.5Z" transform="translate(-10.5 -8)"/><text class="cls-14" transform="translate(153.374 64.52)">¿QUÉ DESEA?</text><text class="cls-14" transform="translate(686.381 64.52)">¿QUÉ PIENSA?</text><text class="cls-14" transform="translate(168.172 338.333)">¿QUÉ H<tspan class="cls-15" x="95.523" y="0">A</tspan><tspan x="112.683" y="0">CE?</tspan></text><text class="cls-14" transform="translate(695.902 336.333)">¿QUÉ SIENTE?</text><text class="cls-16" transform="translate(62.5 105.16)">- Desea que el tratamiento seleccionado <tspan x="0" y="26.4">para el paciente le pueda </tspan><tspan class="cls-17" x="237.813" y="26.4">a</tspan><tspan x="247.867" y="26.4">yudar con su </tspan><tspan x="0" y="52.8">estilo de vida diari</tspan><tspan class="cls-18" x="166.756" y="52.8">o</tspan><tspan x="177.756" y="52.8">.</tspan><tspan x="0" y="79.2">- En el caso de un ataqu</tspan><tspan class="cls-18" x="218.872" y="79.2">e</tspan><tspan x="228.97" y="79.2">, que el paciente </tspan><tspan x="0" y="105.6">tenga a alguien que lo acompañ</tspan><tspan class="cls-18" x="292.416" y="105.6">e</tspan><tspan x="302.514" y="105.6">.</tspan></text><text class="cls-16" transform="translate(589 110.454)">- Piensa si el fármaco administrado es el <tspan x="0" y="26.4">mejor o si el estado del paciente podría </tspan><tspan x="0" y="52.8">mejorar con ot</tspan><tspan class="cls-19" x="132.789" y="52.8">r</tspan><tspan class="cls-18" x="139.521" y="52.8">o</tspan><tspan x="150.521" y="52.8">.</tspan><tspan x="0" y="79.2">- “¿Estará sufriendo un ataque?”</tspan></text><text class="cls-16" transform="translate(80 385.602)">- Monito<tspan class="cls-19" x="74.468" y="0">r</tspan><tspan x="81.2" y="0">ea el estado del paciente </tspan><tspan x="0" y="26.4">continuament</tspan><tspan class="cls-18" x="119.656" y="26.4">e</tspan><tspan x="129.754" y="26.4">.</tspan><tspan x="0" y="52.8">- Está a la </tspan><tspan class="cls-19" x="91.649" y="52.8">e</tspan><tspan x="102.517" y="52.8">xpectativa por cualquier </tspan><tspan x="0" y="79.2">complicación.</tspan><tspan x="0" y="105.6">- Administra medicación.</tspan></text><text class="cls-16" transform="translate(582.088 387.176)">- Siente melancolía por el estado anímico <tspan x="0" y="26.4">del pacient</tspan><tspan class="cls-18" x="99.988" y="26.4">e</tspan><tspan x="110.086" y="26.4">.</tspan><tspan x="0" y="52.8">- Impotencia po</tspan><tspan class="cls-19" x="140.774" y="52.8">r</tspan><tspan x="147.506" y="52.8">que no h</tspan><tspan class="cls-17" x="229.608" y="52.8">a</tspan><tspan x="239.662" y="52.8">y una herra</tspan><tspan x="341.388" y="52.8">-</tspan><tspan x="0" y="79.2">mienta que le permita saber si un paciente </tspan><tspan x="0" y="105.6">está sufriendo algún ataqu</tspan><tspan class="cls-18" x="237.793" y="105.6">e</tspan><tspan x="247.892" y="105.6">.</tspan></text></svg>