<svg id="Layer_1" data-name="Layer 1" xmlns="http://www.w3.org/2000/svg" viewBox="0 0 1001 570"><defs><style>.cls-1{fill:#e4e9f0;stroke-linecap:round;stroke-linejoin:round;stroke-width:9px;}.cls-1,.cls-2{stroke:#3d4d6a;}.cls-2{fill:none;stroke-miterlimit:10;stroke-width:8px;}.cls-3{fill:#945b44;}.cls-4{fill:#ffbd86;}.cls-5{fill:#ffa664;}.cls-6{fill:#fed2a4;}.cls-7{fill:#8bcaff;}.cls-8{fill:#60b8ff;}.cls-9{font-size:27px;}.cls-12,.cls-9{font-family:Jost-Medium, "Jost*";font-weight:500;}.cls-10{letter-spacing:-0.07em;}.cls-11{letter-spacing:-0.03em;}.cls-12{font-size:26px;}.cls-13{letter-spacing:-0.03em;}.cls-14{font-size:22px;font-family:Jost-Light, "Jost*";font-weight:300;}.cls-15{letter-spacing:-0.015em;}.cls-16{letter-spacing:-0.05em;}.cls-17{letter-spacing:-0.005em;}.cls-18{letter-spacing:-0.015em;}</style></defs><rect class="cls-1" x="4.5" y="4.5" width="992" height="561" rx="30"/><line class="cls-2" x1="7.5" y1="278.5" x2="425.5" y2="278.5"/><line class="cls-2" x1="495.5" y1="567" x2="495.5" y2="4.962"/><rect class="cls-1" x="423" y="214.5" width="155" height="141" rx="33.372"/><path class="cls-3" d="M489.813,225.8c-.029-1.909.041-3.08.041-3.08a47.116,47.116,0,0,0,13.769-18.712s8.5,12.918,28.408,18.573c0,0,.081,1.246.059,3.268,1.7-.853,3.889-1.272,5.809.5,9.684-31.221-18.314-39.116-25.547-39.561-7.566-.466-12.171,5.586-12.171,5.586-6.816-5.237-14.364,1.048-17.041,10.823-1.639,5.983-.487,16.328.654,23.454C485.749,224.566,488.035,224.932,489.813,225.8Z" transform="translate(-10.5 -8)"/><path class="cls-4" d="M538.806,227.377c-2.107-2.93-4.741-2.522-6.717-1.531a55.725,55.725,0,0,1-2.785,17.316C539.249,246.5,542.282,232.209,538.806,227.377Z" transform="translate(-10.5 -8)"/><path class="cls-4" d="M489.813,225.8c-1.963-.954-4.547-1.3-6.62,1.58-3.472,4.828-.447,19.1,9.482,15.792A56.092,56.092,0,0,1,489.813,225.8Z" transform="translate(-10.5 -8)"/><path class="cls-5" d="M530.471,239.267a40.6,40.6,0,0,1-1.167,3.9c8.2,2.75,11.7-6.479,10.728-12.513C539.316,235.577,536.159,240.454,530.471,239.267Z" transform="translate(-10.5 -8)"/><path class="cls-5" d="M481.968,230.649c-.971,6.029,2.522,15.249,10.707,12.52-.464-1.285-.854-2.593-1.182-3.9C485.827,240.434,482.683,235.567,481.968,230.649Z" transform="translate(-10.5 -8)"/><path class="cls-4" d="M511.058,257.557a17.365,17.365,0,0,1-11.516-3.893V263.7a11.458,11.458,0,1,0,22.916,0V253.662A17.385,17.385,0,0,1,511.058,257.557Z" transform="translate(-10.5 -8)"/><path class="cls-6" d="M532.03,222.578s2.307,34.9-20.972,34.979-21.2-34.84-21.2-34.84a47.116,47.116,0,0,0,13.769-18.712S512.119,216.923,532.03,222.578Z" transform="translate(-10.5 -8)"/><path class="cls-4" d="M511.058,253.346c-18.134.06-20.883-21.113-21.212-30.475-.113,2.455-1.184,34.761,21.212,34.686,21.618-.071,21.171-30.169,21-34.466C531.732,232.628,528.963,253.287,511.058,253.346Z" transform="translate(-10.5 -8)"/><path class="cls-5" d="M499.542,253.664v4.206a18.785,18.785,0,0,0,22.916,0v-4.208a18.8,18.8,0,0,1-22.916,0Z" transform="translate(-10.5 -8)"/><path class="cls-7" d="M558.785,284.529c-6.3-5.095-36.327-20.828-36.327-20.828a11.458,11.458,0,1,1-22.916,0s-30.026,15.733-36.327,20.828-7.106,17.563-7.106,17.563H565.89S565.086,289.624,558.785,284.529Z" transform="translate(-10.5 -8)"/><path class="cls-8" d="M456.7,297.881a37.664,37.664,0,0,0-.587,4.211H565.89a37.492,37.492,0,0,0-.586-4.211Z" transform="translate(-10.5 -8)"/><path d="M503.063,225.853c0-2-1.266-3.565-2.882-3.565s-2.881,1.565-2.881,3.565,1.265,3.565,2.881,3.565S503.063,227.852,503.063,225.853Z" transform="translate(-10.5 -8)"/><path d="M521.818,229.418c1.616,0,2.882-1.566,2.882-3.565s-1.266-3.565-2.882-3.565-2.88,1.565-2.88,3.565S520.2,229.418,521.818,229.418Z" transform="translate(-10.5 -8)"/><path d="M512.853,237.848c.179,0,.361,0,.547-.011a1.755,1.755,0,0,0-.146-3.507c-.857.036-2.366-.015-2.832-.756-.6-.956.09-3.228.748-4.464a1.755,1.755,0,0,0-3.091-1.661c-.267.494-2.549,4.923-.634,7.984C508.449,237.037,510.267,237.848,512.853,237.848Z" transform="translate(-10.5 -8)"/><path d="M501.974,239.7a1.756,1.756,0,0,0-.5,2.43c.141.215,3.516,5.254,9.531,5.254s9.39-5.039,9.531-5.254A1.755,1.755,0,0,0,517.6,240.2c-.024.036-2.509,3.676-6.6,3.676s-6.576-3.639-6.6-3.67A1.755,1.755,0,0,0,501.974,239.7Z" transform="translate(-10.5 -8)"/><path d="M477.6,300.337H458.068a40.421,40.421,0,0,1,.928-4.669c.836-3.172,2.437-7.441,5.322-9.774,5.1-4.121,26.661-15.671,33.76-19.435a13.213,13.213,0,0,0,25.844,0c2.656,1.408,7.331,3.9,12.382,6.675a1.755,1.755,0,1,0,1.689-3.077c-6.089-3.342-11.635-6.282-13.78-7.415v-8.183c.416-.376.822-.77,1.215-1.189a26.115,26.115,0,0,0,4.966-8.02,9.9,9.9,0,0,0,1.729.156,8.609,8.609,0,0,0,7.084-3.714c3.2-4.332,3.683-11.643,1.024-15.339-.118-.164-.239-.32-.363-.47,3.138-10.808,2.188-19.964-2.828-27.228-7.164-10.377-20.172-13.354-24.58-13.625a16.539,16.539,0,0,0-12.564,5.038,9.349,9.349,0,0,0-7.885-.842c-4.665,1.568-8.712,6.742-10.564,13.5a25.724,25.724,0,0,0-.77,4.932,1.755,1.755,0,1,0,3.5.245,22.405,22.405,0,0,1,.654-4.251c1.523-5.563,4.78-9.92,8.3-11.1a6.182,6.182,0,0,1,5.983,1.207,1.759,1.759,0,0,0,2.462-.324c.041-.052,4.168-5.3,10.669-4.9,3.671.226,15.571,2.937,21.909,12.116,4.2,6.085,5.1,13.828,2.682,23.036a6.2,6.2,0,0,0-3.01-.243c-.018-.583-.04-.928-.043-.979a1.756,1.756,0,0,0-1.272-1.573c-18.983-5.39-27.34-17.727-27.42-17.849a1.755,1.755,0,0,0-3.1.33A45.742,45.742,0,0,1,488.8,221.317a1.755,1.755,0,0,0-.693,1.3c0,.046-.019.331-.032.812a6.17,6.17,0,0,0-2.944.275c-.479-3.38-.8-6.5-.949-9.306a1.755,1.755,0,0,0-3.5.188c.184,3.432.611,7.315,1.266,11.544-.058.074-.114.148-.169.225-2.656,3.693-2.172,11,1.017,15.331a8.61,8.61,0,0,0,7.091,3.724,9.87,9.87,0,0,0,1.709-.154,26.2,26.2,0,0,0,5.073,8.112c.365.385.743.746,1.127,1.094v8.183c-5.227,2.756-29.871,15.832-35.674,20.523-6.821,5.516-7.719,18.275-7.753,18.815a1.772,1.772,0,0,0,1.75,1.868H477.6a1.755,1.755,0,1,0,0-3.51Zm55.674-66.471a66.586,66.586,0,0,0,.551-6.833,2.968,2.968,0,0,1,3.559,1.369c1.616,2.245,1.472,7.856-1,11.206a5.085,5.085,0,0,1-4.8,2.264A51.361,51.361,0,0,0,533.271,233.866ZM520.7,263.7a9.7,9.7,0,0,1-19.406,0v-6.728a19.823,19.823,0,0,0,9.684,2.339h.083a19.893,19.893,0,0,0,9.639-2.344Zm-35.09-24.1c-2.466-3.349-2.608-8.959-1-11.2a2.956,2.956,0,0,1,3.468-1.4,66.653,66.653,0,0,0,.6,7.009,51.529,51.529,0,0,0,1.7,7.863A5.09,5.09,0,0,1,485.613,239.6Zm5.966-16.019a49.414,49.414,0,0,0,12.482-16.16c3.471,4.045,11.81,12.072,26.261,16.481.09,4.327-.172,19.165-7.466,26.976a16.749,16.749,0,0,1-23.641.078C491.589,242.9,491.493,227.215,491.579,223.583Z" transform="translate(-10.5 -8)"/><path d="M567.642,301.979c-.036-.54-.933-13.3-7.754-18.815-2.249-1.818-7.547-5.079-15.747-9.693a1.755,1.755,0,1,0-1.721,3.058c10,5.628,13.819,8.2,15.261,9.365,4.252,3.437,5.762,10.941,6.248,14.443H484.617a1.755,1.755,0,1,0,0,3.51H565.89A1.773,1.773,0,0,0,567.642,301.979Z" transform="translate(-10.5 -8)"/><text class="cls-9" transform="translate(437.207 326.404)"><tspan class="cls-10">P</tspan><tspan class="cls-11" x="13.716" y="0">A</tspan><tspan x="31.535" y="0">CIENTE</tspan></text><line class="cls-2" x1="577.5" y1="278.5" x2="995.5" y2="278.5"/><text class="cls-12" transform="translate(153.374 64.52)">¿QUÉ DESEA?</text><text class="cls-12" transform="translate(686.381 64.52)">¿QUÉ PIENSA?</text><text class="cls-12" transform="translate(168.172 337.333)">¿QUÉ H<tspan class="cls-13" x="95.523" y="0">A</tspan><tspan x="112.683" y="0">CE?</tspan></text><text class="cls-12" transform="translate(695.902 337.333)">¿QUÉ SIENTE?</text><text class="cls-14" transform="translate(89.138 116.16)">- Quie<tspan class="cls-15" x="55.835" y="0">r</tspan><tspan x="62.567" y="0">e ll</tspan><tspan class="cls-15" x="89.604" y="0">e</tspan><tspan x="100.471" y="0">var un estilo de vida </tspan><tspan class="cls-16" x="0" y="26.4">“</tspan><tspan x="8.558" y="26.4">normal” y saludabl</tspan><tspan class="cls-16" x="176.479" y="26.4">e</tspan><tspan x="186.578" y="26.4">.</tspan><tspan x="0" y="52.8">- Quie</tspan><tspan class="cls-15" x="55.835" y="52.8">r</tspan><tspan x="62.567" y="52.8">e ser auxiliado lo más </tspan><tspan x="0" y="79.2">p</tspan><tspan class="cls-15" x="12.276" y="79.2">r</tspan><tspan x="19.008" y="79.2">onto posibl</tspan><tspan class="cls-16" x="120.998" y="79.2">e</tspan><tspan x="131.096" y="79.2">.</tspan></text><text class="cls-14" transform="translate(600 110.454)">- Piensa que en cualquier momento <tspan x="0" y="26.4">puede sufrir una crisis epilética, incluso </tspan><tspan x="0" y="52.8">en ci</tspan><tspan class="cls-15" x="44.615" y="52.8">r</tspan><tspan x="51.347" y="52.8">cunstancias desf</tspan><tspan class="cls-17" x="199.032" y="52.8">a</tspan><tspan class="cls-18" x="209.085" y="52.8">v</tspan><tspan x="218.26" y="52.8">orables como </tspan><tspan x="0" y="79.2">comiend</tspan><tspan class="cls-16" x="78.759" y="79.2">o</tspan><tspan x="89.759" y="79.2">.</tspan><tspan x="0" y="105.6">- “La epilepsia es una maldición.”</tspan></text><text class="cls-14" transform="translate(77 384.602)">- Recibe tratamientos continuamente <tspan x="0" y="26.4">y es monito</tspan><tspan class="cls-15" x="104.432" y="26.4">r</tspan><tspan x="111.164" y="26.4">eado por médicos.</tspan><tspan x="0" y="52.8">- En la m</tspan><tspan class="cls-17" x="78.427" y="52.8">a</tspan><tspan class="cls-15" x="88.481" y="52.8">y</tspan><tspan x="97.699" y="52.8">oría de casos, ll</tspan><tspan class="cls-18" x="241.729" y="52.8">e</tspan><tspan x="252.597" y="52.8">va un </tspan><tspan x="0" y="79.2">estilo de vida </tspan><tspan class="cls-15" x="127.047" y="79.2">r</tspan><tspan x="133.779" y="79.2">egulado por medica</tspan><tspan x="317.871" y="79.2">-</tspan><tspan x="0" y="105.6">mentos.</tspan></text><text class="cls-14" transform="translate(595.088 378.176)">- E<tspan class="cls-15" x="22.967" y="0">x</tspan><tspan x="31.525" y="0">clusión por parte del entorno social.</tspan><tspan x="0" y="26.4">- Miedo por los </tspan><tspan class="cls-15" x="146.714" y="26.4">r</tspan><tspan x="153.446" y="26.4">ecur</tspan><tspan class="cls-15" x="193.419" y="26.4">r</tspan><tspan x="200.151" y="26.4">entes episodios y </tspan><tspan x="0" y="52.8">p</tspan><tspan class="cls-15" x="12.276" y="52.8">r</tspan><tspan x="19.008" y="52.8">eocupación por cuándo ocurrirá el </tspan><tspan x="0" y="79.2">siguient</tspan><tspan class="cls-16" x="69.607" y="79.2">e</tspan><tspan x="79.706" y="79.2">.</tspan><tspan x="0" y="105.6">- Ofuscado por tantos medicamentos y </tspan><tspan x="0" y="132">tratamientos.</tspan></text></svg>