<svg id="Layer_1" data-name="Layer 1" xmlns="http://www.w3.org/2000/svg" viewBox="0 0 1001 570"><defs><style>.cls-1{fill:#fff;}.cls-1,.cls-2,.cls-3{stroke:#3d4d6a;}.cls-1,.cls-3{stroke-linecap:round;stroke-linejoin:round;stroke-width:9px;}.cls-2{fill:none;stroke-miterlimit:10;stroke-width:8px;}.cls-3{fill:#e4e9f0;}.cls-4{font-size:27px;}.cls-25,.cls-4{font-family:Jost-Medium, "Jost*";font-weight:500;}.cls-5{letter-spacing:-0.07em;}.cls-6{fill:#d59f63;}.cls-7{fill:#cd915a;}.cls-8{fill:#fad7a5;}.cls-9{fill:#f0c891;}.cls-10{fill:#ffe1b4;}.cls-11{fill:#fad098;}.cls-12{fill:#ff507d;}.cls-13{fill:#d23c69;}.cls-14{fill:#b48764;}.cls-15{fill:#00aaf0;}.cls-16{fill:#0096dc;}.cls-17{fill:#966d50;}.cls-18{fill:#c39772;}.cls-19{fill:#64463c;}.cls-20{fill:#553732;}.cls-21{fill:#e6af78;}.cls-22{fill:#d29b6e;}.cls-23{fill:#f0c087;}.cls-24{fill:#ffdc64;}.cls-25{font-size:26px;}.cls-26{letter-spacing:-0.03em;}.cls-27{font-size:22px;font-family:Jost-Light, "Jost*";font-weight:300;}.cls-28{letter-spacing:-0.015em;}.cls-29{letter-spacing:-0.05em;}.cls-30{letter-spacing:-0.015em;}.cls-31{letter-spacing:-0.05em;}.cls-32{letter-spacing:-0.08em;}.cls-33{letter-spacing:-0.06em;}</style></defs><rect class="cls-1" x="4.5" y="4.5" width="992" height="561" rx="30"/><line class="cls-2" x1="2.5" y1="275.5" x2="420.5" y2="275.5"/><line class="cls-2" x1="490.5" y1="564" x2="490.5" y2="1.962"/><rect class="cls-3" x="418" y="211.5" width="155" height="141" rx="33.372"/><line class="cls-2" x1="572.5" y1="275.5" x2="990.5" y2="275.5"/><text class="cls-4" transform="translate(450.417 321.82) scale(1.011 1)"><tspan class="cls-5">F</tspan><tspan x="12.177" y="0">AMILIA</tspan></text><path class="cls-6" d="M537.5,198.4h0a22.52,22.52,0,0,1,22.52,22.52h0a232.3,232.3,0,0,0,2.047,28.661,72.33,72.33,0,0,1-24.567,8.19,72.33,72.33,0,0,1-24.568-8.19,232.186,232.186,0,0,0,2.048-28.661h0A22.519,22.519,0,0,1,537.5,198.4Z" transform="translate(-10.5 -9)"/><path class="cls-7" d="M529.315,218.869v-6.141a14.332,14.332,0,0,1,11.54-14.055,22.566,22.566,0,0,0-3.351-.276h0a22.519,22.519,0,0,0-22.52,22.52,232.213,232.213,0,0,1-2.048,28.662,72.317,72.317,0,0,0,24.568,8.189v-30.71Z" transform="translate(-10.5 -9)"/><path class="cls-8" d="M562.3,264.412,548.267,258.8a4.1,4.1,0,0,1-2.574-3.8v-7.464H529.315V255a4.1,4.1,0,0,1-2.574,3.8L512.7,264.412a6.142,6.142,0,0,0-3.861,5.7v8.126a2.047,2.047,0,0,0,2.047,2.047h0v18.426h53.229V280.287h2.048V270.114A6.145,6.145,0,0,0,562.3,264.412Z" transform="translate(-10.5 -9)"/><path class="cls-9" d="M537.5,257.767a24.475,24.475,0,0,0,8.4-1.5,4.071,4.071,0,0,1-.21-1.268v-7.464H529.314V255a4.042,4.042,0,0,1-.21,1.268A24.476,24.476,0,0,0,537.5,257.767Z" transform="translate(-10.5 -9)"/><path class="cls-9" d="M510.889,278.24v6.142h2.048a2.047,2.047,0,0,1,2.047,2.047v12.284h6.142V278.24Z" transform="translate(-10.5 -9)"/><path class="cls-10" d="M537.5,251.625h0c-10.176,0-16.378-8.249-16.378-18.425v-8.189c5.89,0,6.555-4.236,7.614-6.615a1.207,1.207,0,0,1,1.838-.477c8.673,6.543,25.351,1.647,25.351,15.281h0A18.425,18.425,0,0,1,537.5,251.625Z" transform="translate(-10.5 -9)"/><path class="cls-11" d="M529.315,233.2V217.828a1.179,1.179,0,0,0-.575.568c-1.059,2.379-1.724,6.615-7.614,6.615v7.536c0,8.463,3.4,16.191,11.566,18.425a18.116,18.116,0,0,0,9.93-.082A18.422,18.422,0,0,1,529.315,233.2Z" transform="translate(-10.5 -9)"/><path class="cls-12" d="M562.3,264.412l-8.733-3.493a16.373,16.373,0,0,1-32.136,0l-8.733,3.493a6.142,6.142,0,0,0-3.861,5.7v28.6h47.087V280.287h10.236V270.114A6.142,6.142,0,0,0,562.3,264.412Z" transform="translate(-10.5 -9)"/><path class="cls-13" d="M555.929,276.193l9.305-9.305a6.12,6.12,0,0,1,.931,3.227v10.173H555.929v-4.1Z" transform="translate(-10.5 -9)"/><path class="cls-13" d="M553.572,260.919a16.374,16.374,0,0,1-32.137,0l-5.758,2.3a22.491,22.491,0,0,0,43.653,0Z" transform="translate(-10.5 -9)"/><rect class="cls-14" x="438.972" y="267.193" width="12.283" height="22.52"/><path class="cls-15" d="M504.316,250.391l-17.994-4.907H469.944l-17.994,4.907a6.143,6.143,0,0,0-4.526,5.926v19.876h12.284v22.52h49.134v-42.4A6.143,6.143,0,0,0,504.316,250.391Z" transform="translate(-10.5 -9)"/><path class="cls-16" d="M496.334,248.214l-10.012-2.73H469.944l-10.012,2.73a18.4,18.4,0,0,0,36.4,0Z" transform="translate(-10.5 -9)"/><path class="cls-14" d="M467.9,238.318v7.166a10.236,10.236,0,0,0,20.472,0v-7.166Z" transform="translate(-10.5 -9)"/><path class="cls-17" d="M467.9,245.276a24.359,24.359,0,0,0,20.472,0v-6.958H467.9Z" transform="translate(-10.5 -9)"/><path class="cls-18" d="M496.558,214.775V202.491h-36.85v12.284a4.095,4.095,0,1,0,0,8.189,18.426,18.426,0,0,0,36.851,0,4.095,4.095,0,1,0,0-8.189Z" transform="translate(-10.5 -9)"/><path class="cls-14" d="M469.944,222.964V202.491H459.708v12.284a4.095,4.095,0,1,0,0,8.189,18.4,18.4,0,0,0,23.543,17.69A18.422,18.422,0,0,1,469.944,222.964Z" transform="translate(-10.5 -9)"/><path class="cls-19" d="M494.075,215.634a4,4,0,0,1,4.531-.291V202.491a8.152,8.152,0,0,0-4.192-7.106,6.127,6.127,0,0,0-6.045-5.177H471.991a14.331,14.331,0,0,0-14.331,14.33v10.8a4.054,4.054,0,0,1,2.048-.568,3.961,3.961,0,0,1,.768.074,3.783,3.783,0,0,0,4.489-2.679h0l.5-2.014a2.034,2.034,0,0,1,1.92-1.549c4.265-.115,16.361-.735,23.028-4.069l1.192,7.152A6.1,6.1,0,0,0,494.075,215.634Z" transform="translate(-10.5 -9)"/><path class="cls-20" d="M469.944,202.491a12.283,12.283,0,0,1,12.284-12.283H471.991a14.331,14.331,0,0,0-14.331,14.33v10.8a4.054,4.054,0,0,1,2.048-.568,3.944,3.944,0,0,1,1.771.417,2.181,2.181,0,0,0,3.116-1.541l.874-3.5a2.035,2.035,0,0,1,1.919-1.549c.672-.018,1.547-.05,2.556-.1v-6.014Z" transform="translate(-10.5 -9)"/><path class="cls-16" d="M447.424,256.317v19.876h12.284v-6.724a10.234,10.234,0,0,0-2.157-6.285l-8.531-10.968A6.117,6.117,0,0,0,447.424,256.317Z" transform="translate(-10.5 -9)"/><path class="cls-21" d="M523.068,287.077l-6.684-2.229a2.047,2.047,0,0,1-1.4-1.942V278.24H502.7v4.666a2.047,2.047,0,0,1-1.4,1.942l-6.684,2.229a6.141,6.141,0,0,0-4.2,5.826v5.81h36.85V292.9A6.14,6.14,0,0,0,523.068,287.077Z" transform="translate(-10.5 -9)"/><path class="cls-22" d="M508.842,286.429a20.4,20.4,0,0,0,7.725-1.519l-.183-.062a2.045,2.045,0,0,1-1.4-1.942V278.24H502.7v4.666a2.047,2.047,0,0,1-1.4,1.942l-.184.062A20.408,20.408,0,0,0,508.842,286.429Z" transform="translate(-10.5 -9)"/><path class="cls-19" d="M508.842,235.248h0a18.425,18.425,0,0,0-18.425,18.425v6.142h36.85v-6.142A18.425,18.425,0,0,0,508.842,235.248Z" transform="translate(-10.5 -9)"/><path class="cls-20" d="M514.984,236.318a18.386,18.386,0,0,0-24.567,17.355v6.142H502.7v-6.142A18.417,18.417,0,0,1,514.984,236.318Z" transform="translate(-10.5 -9)"/><path class="cls-23" d="M525.136,255.72H525a3.869,3.869,0,0,1-3.869-3.869h0a1.591,1.591,0,0,0-2.123-1.5c-15.135,5.367-24.492,5.367-24.492,5.367h-1.963a4.145,4.145,0,0,0-4.136,3.5,4.1,4.1,0,0,0,4.052,4.689h2.047v1.834a14.332,14.332,0,1,0,28.662.214v-2.048h2.047a4.1,4.1,0,0,0,4.053-4.689A4.147,4.147,0,0,0,525.136,255.72Z" transform="translate(-10.5 -9)"/><polygon class="cls-24" points="510.626 222.153 498.342 227.417 486.058 222.153 486.058 234.437 498.342 229.172 510.626 234.437 510.626 222.153"/><path class="cls-21" d="M502.7,265.956V254.864a53.756,53.756,0,0,1-8.189.856h-2.047a4.095,4.095,0,1,0,0,8.189h2.047v1.446c0,7.847,6.047,14.69,13.89,14.925a14.349,14.349,0,0,0,4.536-.594A14.332,14.332,0,0,1,502.7,265.956Z" transform="translate(-10.5 -9)"/><path class="cls-24" d="M523.068,287.077l-3.339-1.113a12.273,12.273,0,0,1-21.774,0l-3.339,1.113a6.141,6.141,0,0,0-4.2,5.826v5.81h36.85V292.9A6.14,6.14,0,0,0,523.068,287.077Z" transform="translate(-10.5 -9)"/><path d="M478.133,232.945a7.086,7.086,0,0,0,5.486-2.711,1.792,1.792,0,1,0-2.783-2.257,3.332,3.332,0,0,1-5.406,0,1.792,1.792,0,0,0-2.783,2.257A7.088,7.088,0,0,0,478.133,232.945Z" transform="translate(-10.5 -9)"/><path d="M469.944,222.709a1.792,1.792,0,0,0,1.792-1.792v-2.048a1.792,1.792,0,0,0-3.584,0v2.048A1.792,1.792,0,0,0,469.944,222.709Z" transform="translate(-10.5 -9)"/><path d="M486.322,222.709a1.792,1.792,0,0,0,1.792-1.792v-2.048a1.792,1.792,0,0,0-3.584,0v2.048A1.792,1.792,0,0,0,486.322,222.709Z" transform="translate(-10.5 -9)"/><path d="M537.5,243.181a7.09,7.09,0,0,0,5.486-2.71,1.792,1.792,0,1,0-2.783-2.258,3.332,3.332,0,0,1-5.406,0,1.792,1.792,0,1,0-2.783,2.258A7.087,7.087,0,0,0,537.5,243.181Z" transform="translate(-10.5 -9)"/><path d="M529.315,232.945a1.792,1.792,0,0,0,1.792-1.792v-2.047a1.792,1.792,0,1,0-3.584,0v2.047A1.792,1.792,0,0,0,529.315,232.945Z" transform="translate(-10.5 -9)"/><path d="M545.693,232.945a1.792,1.792,0,0,0,1.792-1.792v-2.047a1.792,1.792,0,1,0-3.584,0v2.047A1.792,1.792,0,0,0,545.693,232.945Z" transform="translate(-10.5 -9)"/><path d="M562.97,262.748l-14.038-5.615a2.293,2.293,0,0,1-.217-.106c9.7-2.206,14.288-5.9,14.491-6.063a1.79,1.79,0,0,0,.638-1.639,232.241,232.241,0,0,1-2.029-28.408,24.312,24.312,0,1,0-48.623,0c0,3.673-.167,8.166-.439,12.419l-3.911,1.956-11.483-5.741c-.033-.017-.067-.029-.1-.043a20.122,20.122,0,0,0,1.035-5.013,5.882,5.882,0,0,0,2.1-10.082V202.491A9.971,9.971,0,0,0,496,194.265a7.876,7.876,0,0,0-7.635-5.849H471.991a16.141,16.141,0,0,0-16.123,16.122v9.875a5.882,5.882,0,0,0,2.105,10.082,20.207,20.207,0,0,0,8.131,14.7v4.953L451.286,248.6a7.886,7.886,0,0,0-5.654,7.6v20a1.792,1.792,0,0,0,1.792,1.792h.255v20.728a1.792,1.792,0,1,0,3.584,0V277.985h6.653v20.728a1.792,1.792,0,1,0,3.584,0v-30.9a7.91,7.91,0,0,0-1.333-4.4l-3.063-4.594a1.792,1.792,0,1,0-2.981,1.988l3.062,4.594a4.336,4.336,0,0,1,.731,2.413V274.4h-8.7V256.2a4.322,4.322,0,0,1,3.1-4.166l6.151-1.846a20.221,20.221,0,0,0,29.248,13.1,5.881,5.881,0,0,0,4.749,2.414h.255v.255a16.133,16.133,0,0,0,8.189,14.028v2.922a.256.256,0,0,1-.174.243l-6.685,2.228a7.923,7.923,0,0,0-5.424,7.526v5.81a1.792,1.792,0,1,0,3.583,0V292.9a4.343,4.343,0,0,1,2.975-4.126l1.965-.656a14.076,14.076,0,0,0,23.388,0l1.965.655a4.343,4.343,0,0,1,2.974,4.126v5.81a1.792,1.792,0,1,0,3.584,0V292.9a7.922,7.922,0,0,0-5.425-7.526l-6.684-2.228a.255.255,0,0,1-.175-.242v-2.923a16.188,16.188,0,0,0,7.586-9.672A18.168,18.168,0,0,0,554.8,263.34l6.84,2.736a4.329,4.329,0,0,1,2.735,4.039V278.5H557.72v-2.3a1.792,1.792,0,0,0-3.584,0v22.52a1.792,1.792,0,1,0,3.584,0V282.079h4.605v16.634a1.792,1.792,0,0,0,3.584,0V282.079h.256a1.789,1.789,0,0,0,1.791-1.791V270.115A7.894,7.894,0,0,0,562.97,262.748Zm-46.194-41.831a20.728,20.728,0,1,1,41.456,0,235.217,235.217,0,0,0,1.92,27.828,38.338,38.338,0,0,1-12.667,4.885v-2.851A20.171,20.171,0,0,0,557.721,233.2c0-10.128-7.324-11.582-14.408-12.989-4.507-.894-9.167-1.82-12.879-4.789a1.792,1.792,0,0,0-2.911,1.4c0,.047-.078,4.762-6.832,6.45a1.792,1.792,0,1,0,.869,3.477c5.653-1.413,7.959-4.584,8.9-6.967,3.885,2.3,8.238,3.167,12.155,3.945,7.571,1.5,11.522,2.607,11.522,9.473a16.584,16.584,0,0,1-6.185,12.943,16.632,16.632,0,0,1-20.129.581,20.234,20.234,0,0,0-4.906-7.562v-8.01a1.791,1.791,0,0,0-2.593-1.6l-3.869,1.934C516.668,227.753,516.776,224.206,516.776,220.917Zm2.558,13.135v6.485l-6.485-3.242Zm-20.984,0,6.485,3.243-6.485,3.242Zm-3.584,5.111a20.264,20.264,0,0,0-4.618,6.819c.007-.165.013-.331.013-.5V239.2a20.351,20.351,0,0,0,4.605-4.761Zm-33.266-16.2a1.792,1.792,0,0,0-1.792-1.792,2.3,2.3,0,1,1,0-4.6H463.8a1.793,1.793,0,0,0,1.7-1.225l1.645-4.935c4.118-.092,16.883-.671,24.071-4.266a1.792,1.792,0,0,0-1.6-3.2c-7.712,3.856-23.606,3.905-23.766,3.905a1.794,1.794,0,0,0-1.7,1.226l-1.638,4.916h-2.8c-.086,0-.171,0-.256.007v-8.452A12.553,12.553,0,0,1,471.991,192h16.378a4.318,4.318,0,0,1,4.275,3.667,1.8,1.8,0,0,0,.89,1.28,6.4,6.4,0,0,1,3.28,5.545v10.5q-.128-.006-.255-.006h-2.048a1.792,1.792,0,1,0,0,3.583h2.048a2.3,2.3,0,0,1,0,4.606,1.792,1.792,0,0,0-1.792,1.792,16.634,16.634,0,0,1-33.267,0Zm16.633,20.217a20.1,20.1,0,0,0,8.445-1.851v4.153a8.445,8.445,0,0,1-16.889.023V241.33A20.077,20.077,0,0,0,478.133,243.181Zm-16.225,5.97,4.427-1.328a12.024,12.024,0,0,0,22.464,3.211,20.155,20.155,0,0,0-.174,2.639v1.7a5.885,5.885,0,0,0-2.048,4.439,16.634,16.634,0,0,1-24.669-10.663Zm53.909,37.4,1.143.381a10.483,10.483,0,0,1-16.235,0l1.142-.38a3.835,3.835,0,0,0,2.625-3.642v-1.429a16.043,16.043,0,0,0,8.7,0v1.429A3.834,3.834,0,0,0,515.817,286.548Zm-6.975-8.053A12.553,12.553,0,0,1,496.3,265.956v-2.047a1.792,1.792,0,0,0-1.792-1.792h-2.047a2.305,2.305,0,0,1-2.3-2.3,2.275,2.275,0,0,1,1.157-1.978,1.8,1.8,0,0,0,.424-.349c4.43-.128,18.788-.961,28.225-6.354a1.792,1.792,0,1,0-1.778-3.112c-8.267,4.724-21.257,5.67-25.98,5.859v-.208a16.653,16.653,0,0,1,2.837-9.281,1.789,1.789,0,0,0,2.314.647l11.482-5.741,11.483,5.741a1.781,1.781,0,0,0,2.313-.647,16.654,16.654,0,0,1,2.838,9.281v2.615a1.793,1.793,0,0,0,.89,1.549,2.273,2.273,0,0,1,1.157,1.978,2.305,2.305,0,0,1-2.3,2.3h-2.047a1.793,1.793,0,0,0-1.792,1.792v2.047A12.553,12.553,0,0,1,508.842,278.5Zm28.662-6.141a14.606,14.606,0,0,1-12.243-6.654,5.87,5.87,0,0,0,3.8-10.325v-1.7a20.2,20.2,0,0,0-.115-2.149,20.208,20.208,0,0,0,14.957.847V255a5.858,5.858,0,0,0,3.7,5.466l3.864,1.545A14.579,14.579,0,0,1,537.5,272.354Z" transform="translate(-10.5 -9)"/><path d="M514.065,268.659a1.791,1.791,0,0,0-2.52.263,3.332,3.332,0,0,1-5.406,0,1.792,1.792,0,1,0-2.783,2.258,6.908,6.908,0,0,0,10.972,0A1.792,1.792,0,0,0,514.065,268.659Z" transform="translate(-10.5 -9)"/><circle cx="492.233" cy="252.87" r="1.792"/><circle cx="504.418" cy="252.87" r="1.792"/><text class="cls-25" transform="translate(153.374 58.52)">¿QUÉ DESEA?</text><text class="cls-25" transform="translate(669.381 58.52)">¿QUÉ PIENSA?</text><text class="cls-25" transform="translate(168.172 347.333)">¿QUÉ H<tspan class="cls-26" x="95.523" y="0">A</tspan><tspan x="112.683" y="0">CE?</tspan></text><text class="cls-25" transform="translate(690.902 346.333)">¿QUÉ SIENTE?</text><text class="cls-27" transform="translate(63.139 101.16) scale(1.011 1)">- Que el paciente <tspan class="cls-28" x="162.84" y="0">r</tspan><tspan x="169.573" y="0">eciba un tratamiento </tspan><tspan x="0" y="26.4">efecti</tspan><tspan class="cls-28" x="49.146" y="26.4">v</tspan><tspan class="cls-29" x="58.32" y="26.4">o</tspan><tspan x="69.32" y="26.4">.</tspan><tspan x="0" y="52.8">- Que el paciente no dependa siemp</tspan><tspan class="cls-28" x="333.558" y="52.8">r</tspan><tspan x="340.29" y="52.8">e </tspan><tspan x="0" y="79.2">de ellos.</tspan><tspan x="0" y="105.6">- En el caso de un episodio enterarse </tspan><tspan x="0" y="132">rápidament</tspan><tspan class="cls-29" x="100.627" y="132">e</tspan><tspan x="110.724" y="132">.</tspan></text><text class="cls-27" transform="translate(552 102.454)">- En la p<tspan class="cls-30" x="74.335" y="0">r</tspan><tspan x="81.067" y="0">onta </tspan><tspan class="cls-30" x="125.88" y="0">r</tspan><tspan x="132.612" y="0">ecuperación del pacient</tspan><tspan class="cls-31" x="351.728" y="0">e</tspan><tspan x="361.826" y="0">.</tspan><tspan x="0" y="26.4">- En el estado anímico y la salud del pacient</tspan><tspan class="cls-31" x="397.441" y="26.4">e</tspan><tspan x="407.54" y="26.4">.</tspan><tspan x="0" y="52.8">- Si el paciente está sufriendo un episodio </tspan><tspan x="0" y="79.2">epiléptic</tspan><tspan class="cls-31" x="77.219" y="79.2">o</tspan><tspan x="88.219" y="79.2">.</tspan></text><text class="cls-27" transform="translate(76 393.602)">- Vigila y monito<tspan class="cls-30" x="146.846" y="0">r</tspan><tspan x="153.578" y="0">ea al pacient</tspan><tspan class="cls-31" x="268.216" y="0">e</tspan><tspan x="278.314" y="0">.</tspan><tspan x="0" y="26.4">- </tspan><tspan class="cls-32" x="11.219" y="26.4">V</tspan><tspan x="23.451" y="26.4">ela por el cumplimiento de la </tspan><tspan x="0" y="52.8">medicación.</tspan></text><text class="cls-27" transform="translate(595.088 390.176)">- Agobiado y deprimido por la situación <tspan x="0" y="26.4">de su familia</tspan><tspan class="cls-33" x="114.375" y="26.4">r</tspan><tspan x="120.118" y="26.4">.</tspan><tspan x="0" y="52.8">- Cansado debido a los constantes </tspan><tspan x="0" y="79.2">cuidados.</tspan></text></svg>