<svg id="Layer_1" data-name="Layer 1" xmlns="http://www.w3.org/2000/svg" viewBox="0 0 962 596"><defs><style>.cls-1{fill:#fff;}.cls-2{fill:#e4eaff;}.cls-3{fill:#b7c6ff;}.cls-4{fill:#3d4d6a;}.cls-5,.cls-66{fill:#d7d6cb;}.cls-6{fill:#594640;}.cls-7{fill:#d6a57c;}.cls-8{fill:#664e27;}.cls-9{fill:#231f20;}.cls-10{fill:#4d4d4d;}.cls-11{fill:#acb8bf;}.cls-12{fill:#89664c;}.cls-13{fill:#b4d7ee;}.cls-14{fill:#dae3ea;}.cls-15{fill:#94989b;}.cls-16{fill:#c8d0d6;}.cls-17{fill:#a37d64;}.cls-18{fill:#3e4347;}.cls-19{fill:#ffb300;}.cls-20{fill:#01579b;}.cls-21{fill:#c2185b;}.cls-22{fill:#ffdd67;}.cls-23{fill:#937237;}.cls-24{fill:#29b6f6;}.cls-25{fill:#dbb471;}.cls-26{fill:#fed0ac;}.cls-27{fill:#f5f5f5;}.cls-28{fill:#e0a372;}.cls-29{fill:#b2c1c0;}.cls-30{fill:#e5dec1;}.cls-31{fill:#d33b23;}.cls-32{fill:#d6eef0;}.cls-33{fill:#f15744;}.cls-34{fill:#f9f3d9;}.cls-35{fill:#42ade2;}.cls-36{fill:#666;}.cls-37{fill:#e8e8e8;}.cls-38{fill:#d0d0d0;}.cls-39{fill:#008dcd;}.cls-40{fill:#018ecd;}.cls-41{fill:#028ecd;}.cls-42{fill:#038fce;}.cls-43{fill:#0690ce;}.cls-44{fill:#0f94d0;}.cls-45{fill:#1998d2;}.cls-46{fill:#63b9e0;}.cls-47{fill:#38a6d8;}.cls-48{fill:#74c1e3;}.cls-49{fill:#53b2dd;}.cls-50{fill:#2da1d6;}.cls-51{fill:#2ca1d5;}.cls-52{fill:#35a5d7;}.cls-53{fill:#d9eef7;}.cls-54{fill:#c7e6f4;}.cls-55{fill:#fefefe;}.cls-56{fill:#fdfefe;}.cls-57{fill:#fcfdfe;}.cls-58{fill:#fbfcfd;}.cls-59{fill:#fafcfd;}.cls-60{fill:#0b92cf;}.cls-61{fill:#5ab5de;}.cls-62{fill:#f7fbfd;}.cls-63{fill:#1496d1;}.cls-64{fill:#f03;}.cls-65{fill:#62727a;}.cls-66{opacity:0.57;}.cls-67{fill:#eba352;}.cls-68{fill:#428bc1;}.cls-69{fill:#6adbc6;}</style></defs><rect class="cls-1" width="962" height="596"/><circle class="cls-2" cx="481" cy="298" r="294"/><circle class="cls-3" cx="481" cy="298" r="197.17"/><circle class="cls-4" cx="481.44" cy="298" r="87.05"/><rect class="cls-5" x="412.44" y="285.5" width="138" height="47" rx="5.37"/><path d="M426.71,301.24c3.67,0,6,2,6,5.24s-2.35,5.2-6,5.2h-2.23V318h-2.83v-16.8Zm-2.23,2.5v5.45h2.23c1.94,0,3.24-.91,3.24-2.71s-1.3-2.74-3.24-2.74Z"/><path d="M443.34,313.72h-6.19L435.23,318H432l8.21-17.73L448.46,318h-3.2Zm-5.37-2.4h4.56L440.25,306Z"/><path d="M457.53,315.57a6.64,6.64,0,0,0,5.25-2.4v3.39a7.65,7.65,0,0,1-5.35,1.77,8.69,8.69,0,1,1,0-17.37,7.65,7.65,0,0,1,5.35,1.77v3.39a6.64,6.64,0,0,0-5.25-2.41,5.93,5.93,0,0,0,0,11.86Z"/><path d="M469.12,301.24V318h-2.86v-16.8Z"/><path d="M483.09,301.24v2.5h-7.44v4.08h7v2.45h-7v5.28h7.44V318H472.86v-16.8Z"/><path d="M501.62,301.24v17.64l-12.27-12.12V318h-2.78V300.4l12.26,12.12V301.24Z"/><path d="M503.65,301.24h11.72v2.62h-4.44V318h-2.86V303.86h-4.42Z"/><path d="M527.63,301.24v2.5h-7.44v4.08h7v2.45h-7v5.28h7.44V318H517.41v-16.8Z"/><path d="M536.53,315.86c1.56,0,2.6-.89,2.6-2.23,0-1.85-1.47-2.45-3.58-3.24-1.68-.6-4.46-1.78-4.46-4.92,0-2.69,2.25-4.51,5.28-4.51a6.15,6.15,0,0,1,5.64,3.57l-2.31,1.3a3.87,3.87,0,0,0-3.38-2.36c-1.56,0-2.28.87-2.28,1.81,0,1.31,1.1,2.13,3.81,3.07,2,.69,4.28,2.11,4.28,5,0,3.12-2.74,5-5.6,5a7.25,7.25,0,0,1-6.43-4.29l2.11-1.49C533.29,314.56,534.64,315.86,536.53,315.86Z"/><path class="cls-6" d="M481.44,244.14c20.3,0,24.71,13.54,24.71,21.17,0,6.77-.88,9.71-.88,9.71H457.62s-.88-2.94-.88-9.71C456.74,257.68,461.15,244.14,481.44,244.14Z"/><path class="cls-7" d="M503.68,271.49a58.91,58.91,0,0,1-1.06-9c-.4-6.59-9.63-1.33-21.18-1.33s-20.78-5.26-21.18,1.33a58.91,58.91,0,0,1-1.06,9c-5.7,0-5.7,9.33.37,9.33,0,10.07,12.6,16.26,21.87,16.26s21.87-6.19,21.87-16.26C509.38,280.82,509.38,271.49,503.68,271.49Z"/><circle class="cls-1" cx="492.47" cy="273.7" r="5.74" transform="translate(130.58 705.52) rotate(-79.1)"/><circle class="cls-8" cx="492.47" cy="273.7" r="3.97" transform="translate(-70.34 299.78) rotate(-31.72)"/><circle class="cls-9" cx="492.47" cy="273.7" r="1.32"/><circle class="cls-1" cx="470.41" cy="273.7" r="5.74" transform="translate(112.69 683.86) rotate(-79.1)"/><circle class="cls-8" cx="470.41" cy="273.7" r="3.97" transform="translate(-73.64 288.19) rotate(-31.72)"/><circle class="cls-9" cx="470.41" cy="273.7" r="1.32"/><path class="cls-8" d="M488.58,284.84a11.91,11.91,0,0,1-14.28,0c-.55-.38-1,.28-.67.89a9.25,9.25,0,0,0,15.62,0C489.63,285.12,489.13,284.46,488.58,284.84Z"/><rect class="cls-5" x="515.17" y="400.93" width="157.36" height="38.39" rx="5.37"/><path d="M527.08,415v12.49H525V415Z"/><path d="M541.06,415v13.12l-9.12-9v8.39h-2.07V414.39l9.12,9V415Z"/><path d="M552.27,415h2.43l-6.1,13.19L542.49,415h2.43l3.68,8.78Z"/><path d="M563.76,415v1.85h-5.54v3h5.18v1.82h-5.18v3.93h5.54v1.85h-7.61V415Z"/><path d="M570.2,415c2.73,0,4.5,1.55,4.5,3.89a3.65,3.65,0,0,1-2.78,3.64l3.53,5H572.9l-3.14-4.73h-1.31v4.73h-2.1V415Zm-1.75,1.84V421h1.66c1.45,0,2.41-.75,2.41-2.09s-1-2.08-2.41-2.08Z"/><path d="M581,425.89a1.71,1.71,0,0,0,1.93-1.66c0-1.38-1.09-1.82-2.66-2.41-1.25-.45-3.32-1.32-3.32-3.66,0-2,1.67-3.36,3.92-3.36a4.57,4.57,0,0,1,4.2,2.66l-1.72,1a2.87,2.87,0,0,0-2.51-1.75c-1.16,0-1.7.64-1.7,1.34,0,1,.82,1.58,2.84,2.28,1.5.52,3.18,1.57,3.18,3.75a3.9,3.9,0,0,1-4.16,3.73,5.41,5.41,0,0,1-4.79-3.19l1.57-1.11C578.58,424.92,579.58,425.89,581,425.89Z"/><path d="M589.4,415v12.49h-2.13V415Z"/><path d="M598,414.8a6.49,6.49,0,1,1-6.48,6.47A6.3,6.3,0,0,1,598,414.8Zm0,10.91a4.45,4.45,0,1,0-4.25-4.44A4.2,4.2,0,0,0,598,425.71Z"/><path d="M617.7,415v13.12l-9.12-9v8.39H606.5V414.39l9.13,9V415Z"/><path d="M622.59,415v12.49h-2.12V415Z"/><path d="M629.41,425.89a1.71,1.71,0,0,0,1.93-1.66c0-1.38-1.09-1.82-2.66-2.41-1.25-.45-3.32-1.32-3.32-3.66,0-2,1.68-3.36,3.93-3.36a4.57,4.57,0,0,1,4.19,2.66l-1.71,1a2.89,2.89,0,0,0-2.52-1.75c-1.16,0-1.69.64-1.69,1.34,0,1,.82,1.58,2.83,2.28,1.5.52,3.18,1.57,3.18,3.75a3.89,3.89,0,0,1-4.16,3.73,5.39,5.39,0,0,1-4.78-3.19l1.57-1.11C627,424.92,628,425.89,629.41,425.89Z"/><path d="M634.45,415h8.71V417h-3.3v10.55h-2.13V417h-3.28Z"/><path d="M650,424.3h-4.6l-1.43,3.21h-2.37l6.1-13.19,6.11,13.19h-2.38Zm-4-1.79h3.4l-1.7-4Z"/><path d="M659.25,425.89a1.71,1.71,0,0,0,1.93-1.66c0-1.38-1.09-1.82-2.66-2.41-1.25-.45-3.32-1.32-3.32-3.66,0-2,1.68-3.36,3.93-3.36a4.57,4.57,0,0,1,4.19,2.66l-1.71,1a2.89,2.89,0,0,0-2.52-1.75c-1.16,0-1.7.64-1.7,1.34,0,1,.82,1.58,2.84,2.28,1.5.52,3.18,1.57,3.18,3.75a3.89,3.89,0,0,1-4.16,3.73,5.38,5.38,0,0,1-4.78-3.19l1.57-1.11C656.84,424.92,657.84,425.89,659.25,425.89Z"/><rect class="cls-10" x="577.77" y="384.08" width="32.17" height="17.79"/><rect class="cls-11" x="572.4" y="404.54" width="42.9" height="1.34"/><rect class="cls-11" x="577.77" y="401.86" width="32.17" height="1.34"/><rect class="cls-11" x="583.13" y="399.18" width="21.45" height="1.34"/><rect class="cls-12" x="600.29" y="387.94" width="5" height="8.58"/><rect class="cls-13" x="601" y="388.65" width="3.57" height="7.15"/><rect class="cls-12" x="602.43" y="388.29" width="0.71" height="7.86"/><rect class="cls-12" x="582.41" y="387.94" width="5" height="8.58"/><rect class="cls-13" x="583.13" y="388.65" width="3.57" height="7.15"/><rect class="cls-12" x="584.56" y="388.29" width="0.71" height="7.86"/><rect class="cls-14" x="575.08" y="403.2" width="37.53" height="1.34"/><rect class="cls-14" x="580.45" y="400.52" width="26.81" height="1.34"/><rect class="cls-15" x="574.41" y="381.41" width="38.88" height="1.34"/><rect class="cls-14" x="572.4" y="382.75" width="42.9" height="1.34"/><polygon class="cls-15" points="593.84 365.02 572.4 376.74 574.2 379.42 593.84 366.34 613.5 379.42 615.3 376.74 593.84 365.02"/><polygon class="cls-14" points="593.84 362.99 572.4 376.74 572.4 378.75 593.84 365 615.3 378.75 615.3 376.74 593.84 362.99"/><polygon class="cls-14" points="593.84 366.34 572.4 380.09 572.4 381.43 615.3 381.43 615.3 380.09 593.84 366.34"/><polygon class="cls-11" points="593.84 368.33 576.04 380.09 611.67 380.09 593.84 368.33"/><path class="cls-1" d="M593.85,374a1.13,1.13,0,1,1,0-2.25,1.21,1.21,0,0,1,1.28,1.12h1.28a2.32,2.32,0,0,0-1.92-2.16v-.65h-1.28v.65a2.31,2.31,0,0,0-1.91,2.16,2.41,2.41,0,0,0,2.55,2.25,1.13,1.13,0,1,1,0,2.25,1.22,1.22,0,0,1-1.28-1.13H591.3a2.31,2.31,0,0,0,1.91,2.17v.64h1.28v-.64a2.32,2.32,0,0,0,1.92-2.17A2.42,2.42,0,0,0,593.85,374Z"/><rect class="cls-14" x="575.62" y="385.49" width="4.29" height="16.26"/><rect class="cls-15" x="575.08" y="401.75" width="5.36" height="1.45"/><rect class="cls-15" x="575.08" y="384.08" width="5.36" height="1.41"/><rect class="cls-16" x="576.05" y="386.14" width="0.51" height="15"/><rect class="cls-16" x="578.98" y="386.14" width="0.51" height="15"/><rect class="cls-16" x="578" y="386.14" width="0.51" height="15"/><rect class="cls-16" x="577.02" y="386.14" width="0.51" height="15"/><rect class="cls-14" x="607.79" y="385.49" width="4.29" height="16.26"/><rect class="cls-15" x="607.26" y="401.75" width="5.36" height="1.45"/><rect class="cls-15" x="607.26" y="384.08" width="5.36" height="1.41"/><rect class="cls-16" x="608.22" y="386.14" width="0.51" height="15"/><rect class="cls-16" x="611.15" y="386.14" width="0.51" height="15"/><rect class="cls-16" x="610.17" y="386.14" width="0.51" height="15"/><rect class="cls-16" x="609.2" y="386.14" width="0.51" height="15"/><path class="cls-12" d="M590,391.77v7h7.68v-7C597.69,386.61,590,386.69,590,391.77Z"/><path class="cls-6" d="M590.57,392.07v6.71h6.56v-6.71A3.29,3.29,0,1,0,590.57,392.07Z"/><path class="cls-17" d="M590.68,392.12v6.66H597v-6.66C597,387.39,590.68,387.46,590.68,392.12Z"/><rect class="cls-15" x="589.62" y="398.78" width="8.47" height="0.4"/><path class="cls-6" d="M594.27,392h2.2a2.57,2.57,0,0,0-2.2-2.62Z"/><path class="cls-6" d="M593.53,392v-2.61a2.6,2.6,0,0,0-2.2,2.61Z"/><path class="cls-12" d="M594.21,391.92h2.2a2.57,2.57,0,0,0-2.2-2.61Z"/><path class="cls-12" d="M593.47,391.92v-2.61a2.61,2.61,0,0,0-2.2,2.61Z"/><rect class="cls-6" x="594.27" y="392.69" width="2.21" height="2.18"/><rect class="cls-6" x="591.32" y="392.69" width="2.21" height="2.18"/><rect class="cls-12" x="594.21" y="392.64" width="2.21" height="2.18"/><rect class="cls-12" x="591.26" y="392.64" width="2.21" height="2.18"/><rect class="cls-6" x="594.27" y="395.8" width="2.21" height="2.18"/><rect class="cls-6" x="591.32" y="395.8" width="2.21" height="2.18"/><rect class="cls-12" x="594.21" y="395.76" width="2.21" height="2.18"/><rect class="cls-12" x="591.26" y="395.76" width="2.21" height="2.18"/><rect class="cls-14" x="595.9" y="393.6" width="0.93" height="1.85"/><rect class="cls-11" x="595.96" y="393.67" width="0.79" height="1.72"/><path class="cls-18" d="M596.5,395.24l-.06-.36a.12.12,0,0,0,0-.1.13.13,0,1,0-.26,0,.12.12,0,0,0,0,.1l0,.36Z"/><path class="cls-15" d="M596.36,393.77a.38.38,0,1,1-.38.38A.38.38,0,0,1,596.36,393.77Z"/><path class="cls-14" d="M596.36,393.71a.38.38,0,1,1-.38.38A.38.38,0,0,1,596.36,393.71Z"/><rect class="cls-5" x="355.15" y="148.83" width="147.29" height="52.45" rx="5.37"/><path d="M395.29,159.33v1.9h-4.82v3.12h4.64v1.84h-4.64v5.64H388.4v-12.5Z"/><path d="M403.52,168.62h-4.6l-1.43,3.21h-2.38l6.11-13.19,6.11,13.19H405Zm-4-1.79h3.4l-1.7-4Z"/><path d="M410.24,171.83h-2.18l1.71-13.12,5.13,8.48,5.14-8.48,1.71,13.12h-2.17l-.86-7.6-3.82,6.44-3.8-6.44Z"/><path d="M425.93,159.33v12.5h-2.12v-12.5Z"/><path d="M430.83,159.33v10.61h5v1.89h-7.07v-12.5Z"/><path d="M439.43,159.33v12.5h-2.12v-12.5Z"/><path d="M449.29,168.62h-4.61l-1.43,3.21h-2.37l6.1-13.19,6.11,13.19h-2.37Zm-4-1.79h3.39l-1.7-4Z"/><path d="M465.66,159.12a6.49,6.49,0,1,1-6.48,6.46A6.3,6.3,0,0,1,465.66,159.12Zm0,10.91a4.45,4.45,0,1,0-4.25-4.45A4.21,4.21,0,0,0,465.66,170Z"/><path d="M381.53,191.42a4.93,4.93,0,0,0,3.91-1.79v2.52a5.67,5.67,0,0,1-4,1.32,6.46,6.46,0,1,1,0-12.92,5.67,5.67,0,0,1,4,1.32v2.52a4.93,4.93,0,0,0-3.91-1.79,4.41,4.41,0,0,0,0,8.82Z"/><path d="M390.05,180.76v8.3a2.45,2.45,0,1,0,4.89,0v-8.3h2.11v8.39a4.56,4.56,0,0,1-9.11,0v-8.39Z"/><path d="M401.87,180.76v12.5h-2.12v-12.5Z"/><path d="M404.66,193.26v-12.5h4c3.82,0,6.43,2.48,6.43,6.25s-2.61,6.25-6.43,6.25Zm2.16-10.52v8.54h1.82a4.27,4.27,0,1,0,0-8.54Z"/><path d="M423.71,190H419.1l-1.43,3.22H415.3l6.11-13.2,6.1,13.2h-2.37Zm-4-1.78h3.39l-1.69-4Z"/><path d="M429,193.26v-12.5h4c3.82,0,6.43,2.48,6.43,6.25s-2.61,6.25-6.43,6.25Zm2.16-10.52v8.54h1.82a4.27,4.27,0,1,0,0-8.54Z"/><path d="M447.24,180.55a6.49,6.49,0,1,1-6.48,6.46A6.3,6.3,0,0,1,447.24,180.55Zm0,10.91A4.45,4.45,0,1,0,443,187,4.2,4.2,0,0,0,447.24,191.46Z"/><path d="M459.65,180.76c2.73,0,4.5,1.55,4.5,3.89a3.66,3.66,0,0,1-2.78,3.65l3.53,5h-2.55l-3.14-4.73H457.9v4.73h-2.1v-12.5Zm-1.75,1.84v4.18h1.66c1.45,0,2.41-.75,2.41-2.09s-1-2.09-2.41-2.09Z"/><path d="M474,180.76v1.86h-5.54v3h5.18v1.82h-5.18v3.93H474v1.86H466.4v-12.5Z"/><path d="M480.63,191.63a1.71,1.71,0,0,0,1.93-1.66c0-1.37-1.09-1.82-2.66-2.41-1.25-.44-3.32-1.32-3.32-3.66,0-2,1.68-3.35,3.93-3.35a4.58,4.58,0,0,1,4.2,2.66l-1.72,1a2.89,2.89,0,0,0-2.52-1.75c-1.16,0-1.69.64-1.69,1.34,0,1,.82,1.59,2.84,2.29,1.5.51,3.17,1.57,3.17,3.74a3.9,3.9,0,0,1-4.16,3.74,5.4,5.4,0,0,1-4.78-3.2l1.57-1.11C478.22,190.67,479.22,191.63,480.63,191.63Z"/><path class="cls-19" d="M418.08,109.54c-6.94,0-10.73,4.52-10.73,10.48v13.24h21.46V120c0-8.86-5.81-8.69-5.81-8.69S422.56,109.54,418.08,109.54Z"/><path class="cls-20" d="M428.81,133v19.46h21.44V133C450.25,128.85,428.81,128.85,428.81,133Z"/><path class="cls-21" d="M407.35,133v19.46h21.46V133C428.81,128.85,407.35,128.85,407.35,133Z"/><path class="cls-22" d="M410.53,125s-1.6-.41-1.6-2.77c0-1.86,1.2-2.19,1.2-2.19,4.31,0,11.33-5.59,11.33-5.59s2.65,4.94,5.21,5.59c0,0,1.24.23,1.24,2.19,0,2.36-1.65,2.77-1.65,2.77,0,3.56-4.89,7.14-7.84,7.14S410.53,128.57,410.53,125Z"/><circle class="cls-23" cx="414.58" cy="122.63" r="1.61"/><path class="cls-23" d="M422.26,121a1.61,1.61,0,1,1-1.61,1.61A1.61,1.61,0,0,1,422.26,121Z"/><path class="cls-23" d="M421,127.52a3.91,3.91,0,0,1-5.14,0c-.2-.16-.38.11-.24.36a3.14,3.14,0,0,0,5.62,0C421.37,127.63,421.19,127.37,421,127.52Z"/><path class="cls-19" d="M428.72,120.49l1.08,2h18.75l.82-2.1c0-7.55-1.76-10.75-10.1-10.82S428.72,112.81,428.72,120.49Z"/><path class="cls-22" d="M448.59,120.36a4.06,4.06,0,0,1-.28,1.08,1.83,1.83,0,0,1-.67.65,12.74,12.74,0,0,0,.08-2c-.47-7-.88-3.62-8.54-3.62s-8.07-3.33-8.54,3.61a11.6,11.6,0,0,0,.08,2,1.82,1.82,0,0,1-.68-.65,3.74,3.74,0,0,1-.27-1.08c-.73-.19-1.66,0-1.66,2.06,0,1.3.47,2.36,2.08,2.48.56,4.35,6.38,7.25,9,7.25s8.42-2.9,9-7.25c1.6-.12,2.08-1.18,2.08-2.48C450.25,120.33,449.31,120.17,448.59,120.36Z"/><path class="cls-23" d="M435.25,121a1.61,1.61,0,1,1-1.61,1.61A1.61,1.61,0,0,1,435.25,121Z"/><path class="cls-23" d="M443.11,121a1.61,1.61,0,1,1-1.61,1.61A1.61,1.61,0,0,1,443.11,121Z"/><path class="cls-23" d="M441.75,127.52a3.91,3.91,0,0,1-5.14,0c-.2-.16-.38.11-.25.36a3.15,3.15,0,0,0,5.63,0C442.13,127.63,441.94,127.37,441.75,127.52Z"/><path class="cls-24" d="M437.76,152.43H419.84C419.84,146.4,437.76,146.4,437.76,152.43Z"/><path class="cls-19" d="M428.8,133.83c-4.82,0-7.8,2.71-7.8,6.07v2.25c0,2.66,2.1,2.66,2.1,2.66h11.7s1.8,0,1.8-2.66V139.9C436.6,136.54,433.47,133.83,428.8,133.83Z"/><path class="cls-22" d="M421.74,142.75l.29-3.2c0-2,3.21-.41,6.77-.41s6.77-1.63,6.77.41l.29,3.2a1.26,1.26,0,0,1,0,2.52c0,3.12-4.2,5-7.06,5s-7.06-1.89-7.06-5A1.26,1.26,0,0,1,421.74,142.75Z"/><circle class="cls-23" cx="425.38" cy="143.7" r="1.25"/><circle class="cls-23" cx="432.22" cy="143.7" r="1.25"/><path class="cls-23" d="M426.55,147a3.56,3.56,0,0,0,4.5,0c.17-.13.33.09.21.3a2.81,2.81,0,0,1-4.92,0C426.22,147.06,426.38,146.84,426.55,147Z"/><rect class="cls-5" x="589.14" y="253.26" width="119.9" height="39.28" rx="5.37"/><path d="M612.11,280.14h-2.18L611.7,267l5.09,8.5,5.17-8.46,1.66,13.13h-2.18l-.82-7.61L616.77,279,613,272.54Z"/><path d="M633.33,267.73v1.85l-5.54,0v3l5.18,0v1.82l-5.18,0v3.93l5.53,0v1.85l-7.6,0,.05-12.49Zm-4.49-1.36-1.09-.63,2.69-2.84,1.63.81Z"/><path d="M635.87,280.23l0-12.49h4c3.82,0,6.42,2.51,6.4,6.28s-2.63,6.24-6.45,6.22Zm2.21-10.5,0,8.53h1.82a4.27,4.27,0,1,0,0-8.53Z"/><path d="M650.57,267.8l-.05,12.49h-2.13l.05-12.49Z"/><path d="M659.15,278.49a4.93,4.93,0,0,0,3.91-1.77v2.52a5.66,5.66,0,0,1-4,1.3,6.46,6.46,0,1,1,0-12.92,5.69,5.69,0,0,1,4,1.33v2.52a5,5,0,0,0-3.91-1.8,4.41,4.41,0,0,0,0,8.82Z"/><path d="M671.46,267.67A6.49,6.49,0,1,1,665,274.1,6.29,6.29,0,0,1,671.46,267.67Zm-.05,10.9a4.45,4.45,0,1,0-4.23-4.46A4.19,4.19,0,0,0,671.41,278.57Z"/><path d="M684,278.8a1.71,1.71,0,0,0,1.94-1.65c0-1.37-1.08-1.83-2.65-2.42-1.25-.45-3.32-1.33-3.31-3.67,0-2,1.69-3.35,3.94-3.34a4.56,4.56,0,0,1,4.19,2.67l-1.72,1a2.89,2.89,0,0,0-2.51-1.76c-1.16,0-1.7.64-1.7,1.33,0,1,.81,1.59,2.83,2.3,1.49.52,3.17,1.58,3.16,3.76a3.9,3.9,0,0,1-4.18,3.71,5.4,5.4,0,0,1-4.77-3.21l1.58-1.1C681.6,277.83,682.59,278.8,684,278.8Z"/><path class="cls-25" d="M630.5,244.53h37.18c0-20-2.86-24.31-18.59-24.31S630.5,224.51,630.5,244.53Z"/><path class="cls-26" d="M666.11,240.16a6.51,6.51,0,0,1-.5,1.92,3.23,3.23,0,0,1-1.21,1.16,21.73,21.73,0,0,0,.14-3.6c-.85-12.38-1.59-9-15.45-9s-14.59-3.39-15.44,9a22,22,0,0,0,.14,3.62,3.16,3.16,0,0,1-1.21-1.16,6.47,6.47,0,0,1-.51-1.92c-1.31-.34-3,0-3,3.66,0,2.32.87,4.21,3.77,4.42,1,7.27,5.19,11,12.32,14.23a12.19,12.19,0,0,0,7.87,0c7.12-3.21,11.36-7,12.32-14.23,2.9-.21,3.76-2.1,3.76-4.42C669.11,240.11,667.42,239.82,666.11,240.16Z"/><path class="cls-8" d="M655.53,253.73c0,2.45-3.22,3.67-6.44,3.67s-6.43-1.22-6.43-3.67a.61.61,0,0,1,.64-.62h11.58A.62.62,0,0,1,655.53,253.73Z"/><path class="cls-27" d="M640.51,239.22c-3.57,0-5,1.29-5,2.58s0,3.14,4.72,3.14c4.57,0,5.29-.56,5.29-2.5C645.52,241.15,644.09,239.22,640.51,239.22Z"/><path class="cls-8" d="M640.87,238.19a3.22,3.22,0,1,1-3.22,3.22A3.22,3.22,0,0,1,640.87,238.19Z"/><path class="cls-9" d="M641.94,241.41a1.07,1.07,0,1,1-1.07-1.07A1.07,1.07,0,0,1,641.94,241.41Z"/><path class="cls-8" d="M635.51,241.77c0-5,10-5,10,.71C644.09,238.19,636.94,238.19,635.51,241.77Z"/><path class="cls-27" d="M657.67,239.22c3.58,0,5,1.29,5,2.58s0,3.14-4.73,3.14c-4.57,0-5.28-.56-5.28-2.5C652.67,241.15,654.1,239.22,657.67,239.22Z"/><path class="cls-8" d="M657.32,238.19a3.22,3.22,0,1,1-3.22,3.22A3.22,3.22,0,0,1,657.32,238.19Z"/><path class="cls-9" d="M656.24,241.41a1.08,1.08,0,1,0,1.08-1.07A1.08,1.08,0,0,0,656.24,241.41Z"/><path class="cls-8" d="M662.68,241.77c0-5-10-5-10,.71C654.1,238.19,661.25,238.19,662.68,241.77Z"/><path class="cls-28" d="M649.09,251c-3,0-4.48-2.15-3-2.15h6C653.57,248.82,652.08,251,649.09,251Z"/><rect class="cls-5" x="298.32" y="388.77" width="147.29" height="100.44" rx="5.37"/><path d="M321.87,402.62c2.73,0,4.48,1.5,4.48,3.89s-1.75,3.87-4.48,3.87h-1.66v4.74H318.1v-12.5Zm-1.66,1.86v4h1.66c1.45,0,2.41-.68,2.41-2s-1-2-2.41-2Z"/><path d="M332.28,402.62c2.73,0,4.5,1.55,4.5,3.89a3.65,3.65,0,0,1-2.78,3.64l3.53,5H335l-3.14-4.74h-1.31v4.74h-2.1v-12.5Zm-1.75,1.84v4.18h1.66c1.45,0,2.41-.75,2.41-2.09s-1-2.09-2.41-2.09Z"/><path d="M344.8,402.41a6.49,6.49,0,1,1-6.48,6.46A6.3,6.3,0,0,1,344.8,402.41Zm0,10.9a4.45,4.45,0,1,0-4.25-4.44A4.2,4.2,0,0,0,344.8,413.31Z"/><path d="M360.24,402.62v1.89h-4.82v3.13h4.64v1.83h-4.64v5.65h-2.07v-12.5Z"/><path d="M370.26,402.62v1.86h-5.53v3h5.17v1.82h-5.17v3.93h5.53v1.86h-7.6v-12.5Z"/><path d="M376.89,413.49a1.7,1.7,0,0,0,1.92-1.66c0-1.37-1.08-1.82-2.66-2.41-1.25-.45-3.32-1.32-3.32-3.66,0-2,1.68-3.35,3.93-3.35a4.57,4.57,0,0,1,4.2,2.66l-1.72,1a2.87,2.87,0,0,0-2.51-1.75c-1.17,0-1.7.64-1.7,1.34,0,1,.82,1.59,2.84,2.28,1.5.52,3.18,1.57,3.18,3.75a3.9,3.9,0,0,1-4.16,3.73,5.41,5.41,0,0,1-4.79-3.19l1.57-1.11C374.48,412.53,375.48,413.49,376.89,413.49Z"/><path d="M388.94,402.41a6.49,6.49,0,1,1-6.48,6.46A6.3,6.3,0,0,1,388.94,402.41Zm0,10.9a4.45,4.45,0,1,0-4.25-4.44A4.2,4.2,0,0,0,388.94,413.31Z"/><path d="M401.35,402.62c2.73,0,4.5,1.55,4.5,3.89a3.65,3.65,0,0,1-2.79,3.64l3.54,5H404l-3.14-4.74h-1.3v4.74h-2.11v-12.5Zm-1.75,1.84v4.18h1.66c1.45,0,2.41-.75,2.41-2.09s-1-2.09-2.41-2.09Z"/><path d="M415.7,402.62v1.86h-5.53v3h5.18v1.82h-5.18v3.93h5.53v1.86h-7.6v-12.5Z"/><path d="M422.33,413.49a1.71,1.71,0,0,0,1.93-1.66c0-1.37-1.09-1.82-2.66-2.41-1.25-.45-3.32-1.32-3.32-3.66,0-2,1.68-3.35,3.92-3.35a4.55,4.55,0,0,1,4.2,2.66l-1.71,1a2.89,2.89,0,0,0-2.52-1.75c-1.16,0-1.7.64-1.7,1.34,0,1,.82,1.59,2.84,2.28,1.5.52,3.18,1.57,3.18,3.75a3.9,3.9,0,0,1-4.16,3.73,5.41,5.41,0,0,1-4.79-3.19l1.58-1.11C419.92,412.53,420.92,413.49,422.33,413.49Z"/><path d="M311.35,436.54V424.05h4c3.82,0,6.43,2.48,6.43,6.25s-2.61,6.24-6.43,6.24ZM313.51,426v8.53h1.82a4.27,4.27,0,1,0,0-8.53Z"/><path d="M331.47,424.05v1.85h-5.54v3h5.18v1.82h-5.18v3.93h5.54v1.85h-7.61V424.05Z"/><path d="M336.17,424.05v10.6h5v1.89h-7.07V424.05Z"/><path d="M353.84,434.71a4.93,4.93,0,0,0,3.91-1.79v2.52a5.71,5.71,0,0,1-4,1.32,6.47,6.47,0,1,1,0-12.93,5.71,5.71,0,0,1,4,1.32v2.52a4.92,4.92,0,0,0-3.91-1.78,4.41,4.41,0,0,0,0,8.82Z"/><path d="M362.36,424.05v8.3a2.45,2.45,0,1,0,4.89,0v-8.3h2.11v8.39a4.56,4.56,0,0,1-9.11,0v-8.39Z"/><path d="M375.91,424.05c2.73,0,4.5,1.55,4.5,3.89a3.65,3.65,0,0,1-2.78,3.64l3.53,5h-2.55l-3.14-4.73h-1.31v4.73h-2.1V424.05Zm-1.75,1.84v4.17h1.66c1.45,0,2.41-.75,2.41-2.09s-1-2.08-2.41-2.08Z"/><path d="M386.7,434.92a1.71,1.71,0,0,0,1.93-1.66c0-1.38-1.09-1.82-2.66-2.41-1.25-.45-3.32-1.32-3.32-3.66,0-2,1.67-3.36,3.92-3.36a4.57,4.57,0,0,1,4.2,2.66l-1.72,1a2.87,2.87,0,0,0-2.51-1.75c-1.16,0-1.7.64-1.7,1.34,0,1,.82,1.58,2.84,2.28,1.5.52,3.18,1.57,3.18,3.75a3.9,3.9,0,0,1-4.16,3.73,5.41,5.41,0,0,1-4.79-3.19l1.57-1.11C384.29,434,385.29,434.92,386.7,434.92Z"/><path d="M398.75,423.83a6.49,6.49,0,1,1-6.48,6.47A6.3,6.3,0,0,1,398.75,423.83Zm0,10.91a4.45,4.45,0,1,0-4.25-4.44A4.2,4.2,0,0,0,398.75,434.74Z"/><path d="M412.66,436.54V424.05h4c3.82,0,6.42,2.48,6.42,6.25s-2.6,6.24-6.42,6.24ZM414.82,426v8.53h1.82a4.27,4.27,0,1,0,0-8.53Z"/><path d="M432.78,424.05v1.85h-5.53v3h5.18v1.82h-5.18v3.93h5.53v1.85h-7.6V424.05Z"/><path d="M327.05,445.47c2.73,0,4.48,1.5,4.48,3.9s-1.75,3.87-4.48,3.87h-1.66V458h-2.11v-12.5Zm-1.66,1.86v4.05h1.66c1.45,0,2.41-.67,2.41-2s-1-2-2.41-2Z"/><path d="M337.46,445.47c2.73,0,4.5,1.56,4.5,3.9a3.65,3.65,0,0,1-2.79,3.64l3.54,5h-2.55L337,453.24h-1.3V458H333.6v-12.5Zm-1.75,1.84v4.18h1.66c1.45,0,2.41-.75,2.41-2.09s-1-2.09-2.41-2.09Z"/><path d="M350,445.26a6.49,6.49,0,1,1-6.48,6.46A6.3,6.3,0,0,1,350,445.26Zm0,10.91a4.45,4.45,0,1,0-4.25-4.45A4.21,4.21,0,0,0,350,456.17Z"/><path d="M367.28,445.47l-4.23,7.23V458h-2.16v-5.25l-4.23-7.25h2.41l2.89,5.36,2.91-5.36Z"/><path d="M376.31,445.47v1.86h-5.53v3H376v1.82h-5.18v3.92h5.53V458h-7.6v-12.5Z"/><path d="M384.74,456.13a5,5,0,0,0,3.91-1.78v2.51a5.67,5.67,0,0,1-4,1.32,6.46,6.46,0,1,1,0-12.92,5.67,5.67,0,0,1,4,1.32v2.52a4.93,4.93,0,0,0-3.91-1.79,4.41,4.41,0,0,0,0,8.82Z"/><path d="M389.46,445.47h8.71v1.95h-3.3V458h-2.13V447.42h-3.28Z"/><path d="M404.56,445.26a6.49,6.49,0,1,1-6.48,6.46A6.3,6.3,0,0,1,404.56,445.26Zm0,10.91a4.45,4.45,0,1,0-4.25-4.45A4.21,4.21,0,0,0,404.56,456.17Z"/><path d="M417.15,456.35a1.71,1.71,0,0,0,1.93-1.66c0-1.38-1.09-1.82-2.66-2.41-1.25-.45-3.32-1.33-3.32-3.66,0-2,1.68-3.36,3.93-3.36a4.57,4.57,0,0,1,4.19,2.66l-1.71,1a2.89,2.89,0,0,0-2.52-1.75c-1.16,0-1.7.65-1.7,1.34,0,1,.83,1.59,2.84,2.29,1.5.52,3.18,1.57,3.18,3.75a3.89,3.89,0,0,1-4.16,3.73,5.4,5.4,0,0,1-4.78-3.2l1.57-1.1C414.74,455.38,415.74,456.35,417.15,456.35Z"/><path d="M311.24,479.4V466.9h4c3.82,0,6.43,2.48,6.43,6.25s-2.61,6.25-6.43,6.25Zm2.16-10.52v8.54h1.82a4.27,4.27,0,1,0,0-8.54Z"/><path d="M331.36,466.9v1.86h-5.53v3H331v1.82h-5.17v3.93h5.53v1.86h-7.6V466.9Z"/><path d="M343.29,479.4h-4V466.9h3.77c2.37,0,4,1,4,3.14a2.68,2.68,0,0,1-1.95,2.59,3.18,3.18,0,0,1,2.66,3.16C347.79,478.27,345.91,479.4,343.29,479.4Zm-1.87-10.77v3.29h1.51c1.16,0,2-.61,2-1.64s-.83-1.65-2-1.65Zm1.75,9c1.42,0,2.46-.7,2.46-2.09s-1-2-2.46-2h-1.75v4.11Z"/><path d="M352.15,466.9v12.5H350V466.9Z"/><path d="M360.7,466.69a6.49,6.49,0,1,1-6.48,6.46A6.3,6.3,0,0,1,360.7,466.69Zm0,10.91a4.45,4.45,0,1,0-4.25-4.45A4.21,4.21,0,0,0,360.7,477.6Z"/><path d="M369.25,479.4V466.9h4c3.82,0,6.42,2.48,6.42,6.25s-2.6,6.25-6.42,6.25Zm2.16-10.52v8.54h1.82a4.27,4.27,0,1,0,0-8.54Z"/><path d="M383.9,466.9v12.5h-2.13V466.9Z"/><path d="M390.72,477.77a1.7,1.7,0,0,0,1.92-1.66c0-1.37-1.09-1.82-2.66-2.41-1.25-.44-3.32-1.32-3.32-3.66,0-2,1.68-3.35,3.93-3.35a4.58,4.58,0,0,1,4.2,2.66l-1.72,1a2.89,2.89,0,0,0-2.51-1.75c-1.17,0-1.7.64-1.7,1.34,0,1,.82,1.59,2.84,2.29,1.5.51,3.18,1.57,3.18,3.74a3.9,3.9,0,0,1-4.16,3.74,5.4,5.4,0,0,1-4.79-3.2l1.57-1.11C388.31,476.81,389.31,477.77,390.72,477.77Z"/><path d="M404.61,466.9v1.86h-5.54v3h5.18v1.82h-5.18v3.93h5.54v1.86H397V466.9Z"/><path d="M418.39,466.9V480l-9.12-9v8.39H407.2V466.28l9.12,9V466.9Zm-7.09-3.5c1.16,0,1.32.88,2.31.88.37,0,.71-.32,1.07-.9l1,1a2.46,2.46,0,0,1-2.11,1.4c-1,0-1.45-.88-2.28-.88a.87.87,0,0,0-.88.91l-1.09-.84A2.06,2.06,0,0,1,411.3,463.4Z"/><path d="M426.93,466.69a6.49,6.49,0,1,1-6.48,6.46A6.3,6.3,0,0,1,426.93,466.69Zm0,10.91a4.45,4.45,0,1,0-4.25-4.45A4.21,4.21,0,0,0,426.93,477.6Z"/><path class="cls-29" d="M372.68,356.85a.72.72,0,1,1-1.43,0v-7.74a.72.72,0,1,1,1.43,0Z"/><rect class="cls-30" x="351.95" y="368.41" width="40.04" height="22.88"/><path class="cls-31" d="M392.36,362.54a2.61,2.61,0,0,0-2.12-1.28H353.69a2.63,2.63,0,0,0-2.12,1.28l-2.34,4.59a.81.81,0,0,0,.8,1.28H393.9c.8,0,1.17-.58.81-1.28Z"/><rect class="cls-32" x="354.09" y="376.99" width="5.72" height="4.29" rx="0.71"/><rect class="cls-32" x="354.09" y="369.84" width="5.72" height="4.29" rx="0.71"/><path class="cls-25" d="M354.81,370.2a.36.36,0,0,0-.36.35v2.86a.36.36,0,0,0,.36.36h4.29a.36.36,0,0,0,.35-.36v-2.86a.35.35,0,0,0-.35-.35Zm4.29,4.29h-4.29a1.07,1.07,0,0,1-1.07-1.08v-2.86a1.07,1.07,0,0,1,1.07-1.07h4.29a1.07,1.07,0,0,1,1.07,1.07v2.86A1.07,1.07,0,0,1,359.1,374.49Z"/><rect class="cls-25" x="356.59" y="369.84" width="0.71" height="4.29"/><path class="cls-25" d="M354.81,377.7a.36.36,0,0,0-.36.36v2.86a.36.36,0,0,0,.36.36h4.29a.36.36,0,0,0,.35-.36v-2.86a.36.36,0,0,0-.35-.36ZM359.1,382h-4.29a1.07,1.07,0,0,1-1.07-1.07v-2.86a1.07,1.07,0,0,1,1.07-1.07h4.29a1.07,1.07,0,0,1,1.07,1.07v2.86A1.07,1.07,0,0,1,359.1,382Z"/><rect class="cls-25" x="356.59" y="377.35" width="0.71" height="4.29"/><rect class="cls-32" x="354.09" y="384.14" width="5.72" height="4.29" rx="0.71"/><path class="cls-25" d="M354.81,384.85a.36.36,0,0,0-.36.36v2.86a.36.36,0,0,0,.36.36h4.29a.36.36,0,0,0,.35-.36v-2.86a.36.36,0,0,0-.35-.36Zm4.29,4.29h-4.29a1.07,1.07,0,0,1-1.07-1.07v-2.86a1.07,1.07,0,0,1,1.07-1.07h4.29a1.07,1.07,0,0,1,1.07,1.07v2.86A1.07,1.07,0,0,1,359.1,389.14Z"/><rect class="cls-25" x="356.59" y="384.5" width="0.71" height="4.29"/><rect class="cls-32" x="384.12" y="376.99" width="5.72" height="4.29" rx="0.71"/><rect class="cls-32" x="384.12" y="369.84" width="5.72" height="4.29" rx="0.71"/><path class="cls-25" d="M384.84,370.2a.36.36,0,0,0-.36.35v2.86a.36.36,0,0,0,.36.36h4.28a.36.36,0,0,0,.36-.36v-2.86a.36.36,0,0,0-.36-.35Zm4.28,4.29h-4.28a1.08,1.08,0,0,1-1.08-1.08v-2.86a1.07,1.07,0,0,1,1.08-1.07h4.28a1.07,1.07,0,0,1,1.08,1.07v2.86A1.08,1.08,0,0,1,389.12,374.49Z"/><rect class="cls-25" x="386.62" y="369.84" width="0.71" height="4.29"/><path class="cls-25" d="M384.84,377.7a.36.36,0,0,0-.36.36v2.86a.36.36,0,0,0,.36.36h4.28a.36.36,0,0,0,.36-.36v-2.86a.36.36,0,0,0-.36-.36Zm4.28,4.29h-4.28a1.07,1.07,0,0,1-1.08-1.07v-2.86a1.07,1.07,0,0,1,1.08-1.07h4.28a1.07,1.07,0,0,1,1.08,1.07v2.86A1.07,1.07,0,0,1,389.12,382Z"/><rect class="cls-25" x="386.62" y="377.35" width="0.71" height="4.29"/><rect class="cls-32" x="384.12" y="384.14" width="5.72" height="4.29" rx="0.71"/><path class="cls-25" d="M384.84,384.85a.36.36,0,0,0-.36.36v2.86a.36.36,0,0,0,.36.36h4.28a.36.36,0,0,0,.36-.36v-2.86a.36.36,0,0,0-.36-.36Zm4.28,4.29h-4.28a1.07,1.07,0,0,1-1.08-1.07v-2.86a1.07,1.07,0,0,1,1.08-1.07h4.28a1.07,1.07,0,0,1,1.08,1.07v2.86A1.07,1.07,0,0,1,389.12,389.14Z"/><rect class="cls-25" x="386.62" y="384.5" width="0.71" height="4.29"/><path class="cls-33" d="M372.52,356.71a.92.92,0,0,0-1.11,0L357.51,368c-.31.25-.24.45.16.45h28.6c.39,0,.46-.2.15-.45Z"/><path class="cls-34" d="M383.57,368l-11.05-9.09a.89.89,0,0,0-1.11,0L360.36,368c-.3.26-.23.46.17.46H362v22.88h20V368.41h1.43C383.8,368.41,383.87,368.21,383.57,368Z"/><rect class="cls-30" x="366.25" y="380.56" width="11.44" height="10.72"/><rect class="cls-35" x="367.68" y="380.56" width="8.58" height="10.72"/><path class="cls-12" d="M363.53,375.58a1.91,1.91,0,0,0,.78.18c.33,0,.5-.12.5-.3s-.15-.28-.52-.39c-.52-.17-.86-.42-.86-.82s.44-.84,1.18-.84a2.26,2.26,0,0,1,.8.14l-.16.51a1.56,1.56,0,0,0-.65-.13c-.31,0-.46.12-.46.26s.18.26.58.39.81.44.81.83-.4.86-1.26.86a2.13,2.13,0,0,1-.88-.17Z"/><path class="cls-12" d="M368.3,376.15a2.17,2.17,0,0,1-.8.12c-1.08,0-1.64-.6-1.64-1.39a1.52,1.52,0,0,1,1.71-1.47,2,2,0,0,1,.77.13l-.15.49a1.75,1.75,0,0,0-.59-.1.91.91,0,1,0,0,1.82,1.93,1.93,0,0,0,.59-.09Z"/><polygon class="cls-12" points="369.47 373.46 369.47 374.52 370.63 374.52 370.63 373.46 371.34 373.46 371.34 376.23 370.63 376.23 370.63 375.07 369.47 375.07 369.47 376.23 368.76 376.23 368.76 373.46 369.47 373.46"/><path class="cls-12" d="M372.56,374.85c0,.54.28.93.76.93s.75-.41.75-.94-.27-.93-.76-.93S372.56,374.31,372.56,374.85Zm2.25,0a1.4,1.4,0,0,1-1.53,1.45,1.37,1.37,0,0,1-1.47-1.41,1.42,1.42,0,0,1,1.52-1.45A1.37,1.37,0,0,1,374.81,374.82Z"/><path class="cls-12" d="M375.88,374.85c0,.54.28.93.76.93s.75-.41.75-.94-.27-.93-.76-.93S375.88,374.31,375.88,374.85Zm2.25,0a1.4,1.4,0,0,1-1.53,1.45,1.37,1.37,0,0,1-1.47-1.41,1.42,1.42,0,0,1,1.52-1.45A1.37,1.37,0,0,1,378.13,374.82Z"/><polygon class="cls-12" points="378.6 373.46 379.3 373.46 379.3 375.7 380.55 375.7 380.55 376.23 378.6 376.23 378.6 373.46"/><circle class="cls-25" cx="371.97" cy="366.98" r="5"/><circle class="cls-1" cx="371.97" cy="366.98" r="3.57" transform="matrix(0.16, -0.99, 0.99, 0.16, -49.86, 675.36)"/><rect class="cls-30" x="371.61" y="380.56" width="0.71" height="10.72"/><path class="cls-29" d="M372,364.12a.71.71,0,0,0-.72.71v2.86a.72.72,0,1,0,1.43,0v-2.86A.71.71,0,0,0,372,364.12Z"/><path class="cls-33" d="M372,367h-1.43a.72.72,0,1,0,0,1.43H372a.72.72,0,0,0,0-1.43Z"/><path class="cls-13" d="M372.68,349.82v5.27c2.86,2.28,5.72-4.92,8.58-2.64C378.4,348.42,375.54,353.86,372.68,349.82Z"/><path class="cls-33" d="M372.64,377.2a1.19,1.19,0,0,0-1.35,0c-1.56,1.11-6.47,4.07-6.47,4.07v1.44h14.3v-1.44S374.2,378.31,372.64,377.2Z"/><rect class="cls-36" x="349.09" y="391.29" width="45.76" height="2.86" rx="0.71"/><rect class="cls-37" x="363.39" y="392.72" width="17.16" height="1.43"/><rect class="cls-38" x="364.82" y="391.29" width="14.3" height="1.43"/><rect class="cls-36" x="369.87" y="386.64" width="1.03" height="0.52"/><rect class="cls-36" x="373.04" y="386.64" width="1.03" height="0.52"/><path d="M671.65,128.58a7,7,0,1,1-7,7A6.79,6.79,0,0,1,671.65,128.58Zm0,11.78a4.81,4.81,0,1,0-4.57-4.82A4.53,4.53,0,0,0,671.61,140.36Z"/><path d="M682.41,142.34h-2.35L682,128.17l5.51,9.17,5.58-9.13,1.8,14.17h-2.35l-.9-8.21-4.15,6.94-4.08-7Z"/><path d="M701.41,140.65a1.85,1.85,0,0,0,2.09-1.79c0-1.48-1.17-2-2.87-2.61-1.34-.48-3.57-1.44-3.57-4,0-2.16,1.83-3.62,4.26-3.61a4.91,4.91,0,0,1,4.51,2.89l-1.85,1a3.12,3.12,0,0,0-2.71-1.9c-1.25,0-1.83.69-1.84,1.44,0,1.06.89,1.72,3.06,2.48,1.62.56,3.43,1.71,3.42,4.06,0,2.5-2.21,4-4.51,4a5.81,5.81,0,0,1-5.15-3.47L698,138C698.81,139.6,699.89,140.64,701.41,140.65Z"/><path class="cls-39" d="M682.75,120.33c-.23-.15-.52-.07-.81-.18a14.51,14.51,0,0,1,4.26-3.34,6.28,6.28,0,0,0-1.71.14c-1.26.24-2.46.69-3.69,1a13.14,13.14,0,0,1-6.35.33,7.77,7.77,0,0,1-3.4-1.68s0,0-.09-.12c.41.11.75.26,1.11.34a9.32,9.32,0,0,0,3.72-.16c1.4-.28,2.77-.73,4.18-1a14.13,14.13,0,0,1,7.16.28,1.44,1.44,0,0,0,1,0,12.75,12.75,0,0,1,5.35-.52,38.29,38.29,0,0,1,5.4,1.1,11.61,11.61,0,0,0,3.22.4,6.41,6.41,0,0,0,1.9-.37c.07,0,.13,0,.13.06a7.93,7.93,0,0,1-4.46,1.83,15.31,15.31,0,0,1-6.47-.88,15.65,15.65,0,0,0-3.31-.79,4.15,4.15,0,0,0-.79,0,15.44,15.44,0,0,1,4.19,3.32c-.3.15-.62.05-.88.2H692a.56.56,0,0,1-.22-.24,7.19,7.19,0,0,0-3.38-2.83,2.12,2.12,0,0,0-1.81.1,7,7,0,0,0-3.15,2.7.6.6,0,0,1-.23.27Z"/><path class="cls-39" d="M662,98.68c.66,1.64,2,2.77,3.14,4a15.29,15.29,0,0,1,2.37,3.22c.07-.05,0-.11,0-.17a1.6,1.6,0,0,0,0-.21,9.21,9.21,0,0,1,.32-5,9.16,9.16,0,0,0,.53-2.09,6.89,6.89,0,0,1,.49,1.6,10.4,10.4,0,0,1,0,3.52,11.72,11.72,0,0,0,.21,4.92,17.8,17.8,0,0,0-3-2.22,9.22,9.22,0,0,1-3.33-3.88,9.55,9.55,0,0,1-.63-2.4c0-.07,0-.15-.07-.18Z"/><path class="cls-39" d="M691.47,91.58c0-.15.11-.18.2-.24s.22-.08.08-.22a.06.06,0,0,1,0-.08c.08-.13.59-.23.7-.11s.27.18.45,0c.53-.56,1.09-1.09,1.63-1.64.08-.08.25-.16.09-.31s0-.08,0-.11l.46-.88.28.49c.19-.21.36-.41.54-.58s0-.2,0-.29-.15-.17,0-.2.17-.13.07-.24a2,2,0,0,1-.63-1.54,3.56,3.56,0,0,0-.61-1.89c0-.07-.19-.2-.1-.24s.28-.28.45-.18a5.68,5.68,0,0,1,1.79,1.12,1.81,1.81,0,0,1,.35,1c0,.19.06.18.19.2s.4,0,.34.33c.12,0,.16-.1.22-.16l1.52-1.5c.11-.11.14-.17,0-.3a17,17,0,0,0-9.19-4.56l-.72-.1c-.12,0-.31,0-.22-.2s-.08-.44.3-.39a16.7,16.7,0,0,1,5.45,1.55,17.3,17.3,0,0,1,10,13.36,17.73,17.73,0,1,1-35.24,3.21A17.78,17.78,0,0,1,684.5,78.93c.37-.07.74-.11,1.11-.16s.21.27.28.42-.09.15-.18.16a17.11,17.11,0,0,0-8.81,3.7c-.36.3-.7.62-1.06.93-.11.09-.11.15,0,.26q.9.87,1.77,1.77c.13.13.2.1.32,0a13.36,13.36,0,0,1,2.45-1.85c.08-.05.15-.14.29-.1-.34.49-.52,1.06-1.1,1.37a6.57,6.57,0,0,0-1.23,1c-.13.11-.14.18,0,.3l1,1c-.47.27-.61.26-.94-.07-.16-.16-.34-.32-.49-.5s-.2-.13-.33,0A13.67,13.67,0,0,0,674,95.94c0,.2,0,.3.25.29.81,0,1.61,0,2.41,0,.2,0,.24-.07.24-.24a10.66,10.66,0,0,1,2.73-6.75c.09-.11.18-.18,0-.35s.06-.38.17-.52.18,0,.24.11.22.06.33,0a10.73,10.73,0,0,1,5.42-2.65c.11,0,.28-.15.29.1s.16.42-.2.49a10.19,10.19,0,0,0-5,2.37c-.32.28-.32.28,0,.58L682.55,91c.1.1.14.16,0,.3a4.27,4.27,0,0,0,1.54,6.22,2,2,0,0,1,1,.87c0,.07.12.27.24.1.26-.38.56-.23.89-.09a1.86,1.86,0,0,1-.4.44c-.12.11-.14.19,0,.26l.11.07c.44.27.44.27.4.84a2.72,2.72,0,0,1-.91-.47c-.15-.11-.23-.09-.36,0-.57.59-1.14,1.16-1.72,1.73-.15.14-.12.21,0,.32a6.42,6.42,0,0,0,1.09.72c.37.18,0,.37,0,.54s-.19,0-.26,0A6.06,6.06,0,0,1,683,102c-.14-.12-.22-.15-.36,0-.56.58-1.13,1.14-1.71,1.7-.14.14-.14.22,0,.35a10.21,10.21,0,0,0,5,2.38,1.36,1.36,0,0,0,.27,0c.29,0,.37.11.37.4s-.13.24-.31.21a11.17,11.17,0,0,1-2.72-.73,10.09,10.09,0,0,1-2.1-1.18c-.15-.1-.22-.1-.26.08s-.2.28-.4.25-.23,0-.34,0a.64.64,0,0,0-.7.28c-.14.22-.37.11-.56.09a1,1,0,0,0-.81.45c0,.13.08.17.15.23a13.74,13.74,0,0,0,3.8,2.45,13.44,13.44,0,0,0,4.09,1c.39,0,.17.32.2.48s-.16.12-.26.11a14,14,0,0,1-8.28-3.68c-.15-.13-.22-.11-.34,0-.56.57-1.13,1.14-1.71,1.7-.14.14-.14.21,0,.35a16.54,16.54,0,0,0,8.39,4.25A16.88,16.88,0,0,0,699.3,109c.19-.16.22-.25,0-.43-.57-.54-1.12-1.1-1.66-1.66-.14-.14-.21-.14-.36,0a14.17,14.17,0,0,1-6.7,3.47,16.6,16.6,0,0,1-1.72.26c-.09,0-.29.09-.24-.14s-.17-.43.2-.46a12.31,12.31,0,0,0,1.9-.3.75.75,0,0,0,.68-.8,3.85,3.85,0,0,0-2.24-4.06.63.63,0,0,1-.43-.73,3.85,3.85,0,0,0,0-.83c0-.23.09-.3.29-.36a10.05,10.05,0,0,0,1.51-.54,3.16,3.16,0,0,0,1.85-1.87,3.11,3.11,0,0,0-1-3.42A7.14,7.14,0,0,0,689.16,96c-.12,0-.24-.06-.24-.25,0-.94,0-1.89,0-2.82a.46.46,0,0,1,.39.1,1.42,1.42,0,0,0,.92.21s.09,0,.09,0,0-.15,0-.17a.37.37,0,0,1-.21-.38,2.73,2.73,0,0,1,.4-.56c0-.06.12,0,.16,0s0,.08,0,.12-.14.09-.14.2c.34,0,.66-.14,1-.12.1,0,.21-.18.31-.28a1.19,1.19,0,0,0,.19-.2c.07-.11.31-.17.2-.31s-.31,0-.46,0-.12.13-.22.14A.07.07,0,0,1,691.47,91.58Z"/><path class="cls-39" d="M686.34,97.75a6.92,6.92,0,0,1-3-1.58,3.77,3.77,0,0,1,.63-5.5,10.27,10.27,0,0,1,3.18-1.26,22.7,22.7,0,0,0,3.53-1,3,3,0,0,0,1.29-1,2.34,2.34,0,0,0-.45-3.1,3.79,3.79,0,0,0-2-.84c-.27,0-.41-.08-.37-.41a13.71,13.71,0,0,0,0-1.43c0-.15,0-.23.19-.21a6.75,6.75,0,0,1,4.12,1.77,4.32,4.32,0,0,1-.79,6.74,12.91,12.91,0,0,1-3.5,1.28c-.84.21-1.68.39-2.5.67a4.2,4.2,0,0,0-1.14.57,1.66,1.66,0,0,0-.06,2.73,2.59,2.59,0,0,0,.46.3.49.49,0,0,1,.34.53C686.33,96.55,686.34,97.13,686.34,97.75Z"/><path class="cls-39" d="M686.71,88.92c0-1.13,0-2.21,0-3.3,0-2-.07-4-.15-6a15.18,15.18,0,0,0-.29-1.77,4.74,4.74,0,0,1,0-1.76,1.37,1.37,0,0,1,1.64-1.06,1.25,1.25,0,0,1,1.17,1.26,5,5,0,0,1-.14,1.84,14.87,14.87,0,0,0-.3,3.32c0,2.27-.11,4.53-.16,6.79,0,.13,0,.2-.17.24Z"/><path class="cls-39" d="M672.69,108.43a13.64,13.64,0,0,1,3.26,3.95,9.38,9.38,0,0,1,.44,1,9.34,9.34,0,0,0,1.15,2.41,11.57,11.57,0,0,0-2.93-.08,9.27,9.27,0,0,1-5.14-1.07,8.5,8.5,0,0,1-3.07-3.31l.08,0a6.69,6.69,0,0,0,3.35,1.56c1.28.29,2.6.46,3.86.85a9,9,0,0,1,1.51.6c.06-.07,0-.1,0-.13a7.49,7.49,0,0,1-2.24-4.53,5.34,5.34,0,0,0-.32-1.17C672.59,108.44,672.63,108.42,672.69,108.43Z"/><path class="cls-39" d="M700.06,114.33c.53-.23,1-.43,1.49-.59,1.27-.39,2.59-.56,3.89-.85a7.32,7.32,0,0,0,2.88-1.16c.09-.07.18-.15.27-.21s.12-.18.3-.2a8.35,8.35,0,0,1-1,1.49,7.47,7.47,0,0,1-5.58,2.89,29,29,0,0,1-3,0,4.6,4.6,0,0,0-1.63.15l.15-.26a7.81,7.81,0,0,0,.88-1.9,10.74,10.74,0,0,1,2.58-4.08c.42-.43.85-.84,1.33-1.27a1.61,1.61,0,0,1-.17.56c-.15.52-.22,1-.32,1.58a7.13,7.13,0,0,1-1.93,3.56A.66.66,0,0,0,700.06,114.33Z"/><path class="cls-39" d="M712,105a1.47,1.47,0,0,1-.13.65,10,10,0,0,1-1.79,3.43,7.42,7.42,0,0,1-3.92,2.38c-.5.14-1,.26-1.5.38a8.44,8.44,0,0,0-2.21.78,7.43,7.43,0,0,0,.88-2c.22-.94.29-1.91.49-2.85a11.86,11.86,0,0,1,1.74-4l.09-.08a30,30,0,0,0,0,3.55,6.26,6.26,0,0,1-.67,2.82,1.11,1.11,0,0,0-.07.16s0,0,0,0a.08.08,0,0,0,.11,0,17.32,17.32,0,0,1,3.05-1.87,11.64,11.64,0,0,0,3.09-2.21A11.44,11.44,0,0,0,712,105Z"/><path class="cls-39" d="M670.31,110a7.91,7.91,0,0,1-.64-4.4,9.12,9.12,0,0,0,0-2,.5.5,0,0,1,.21.25A12,12,0,0,1,671.7,109a7.82,7.82,0,0,0,1.1,3.48.56.56,0,0,1,0,.13A15.43,15.43,0,0,0,669,111.4a7.59,7.59,0,0,1-5.25-4.81,11,11,0,0,1-.5-1.5c0-.07,0-.08.07-.07A8.57,8.57,0,0,0,666.7,108a32.47,32.47,0,0,1,2.92,1.68c.21.14.41.3.61.45S670.34,110.09,670.31,110Z"/><path class="cls-39" d="M707.81,105.81a18.72,18.72,0,0,1,3-3.78,12.39,12.39,0,0,0,2.17-2.67c.1-.2.19-.41.32-.69a9.27,9.27,0,0,1-.33,2.62,8.43,8.43,0,0,1-3.47,4.78c-.82.58-1.66,1.13-2.48,1.72-.24.17-.45.39-.73.63a9.65,9.65,0,0,0,.35-3.35c-.06-.86-.18-1.72-.26-2.58a9,9,0,0,1,.59-4.18c.17,1.67,1,3.09,1.05,4.7a11.09,11.09,0,0,1-.18,2.37c0,.1,0,.2,0,.3s0,.12,0,.18,0,0,0,0Z"/><path class="cls-39" d="M662.59,92.86a6.29,6.29,0,0,0,.91,2.69,24.2,24.2,0,0,1,1.9,3.77,7.82,7.82,0,0,0,.41,1.07c0-.36,0-.73,0-1.09a7,7,0,0,1,1.74-4.3,8.35,8.35,0,0,0,1-1.47,13.46,13.46,0,0,1,0,1.57,10.17,10.17,0,0,1-1,3.36,10.3,10.3,0,0,0-1.05,3,9,9,0,0,0-.08,1.37h-.06a8.19,8.19,0,0,0-1.61-2.13,9.15,9.15,0,0,1-1.86-2.51,7.39,7.39,0,0,1-.48-4.18A5.62,5.62,0,0,1,662.59,92.86Z"/><path class="cls-39" d="M712.76,93.07a9.7,9.7,0,0,1,.17,3.6,7,7,0,0,1-2,3.68l-.93,1a5.9,5.9,0,0,0-1,1.56c0-.37,0-.66-.05-1a9.12,9.12,0,0,0-1-3.38,10.81,10.81,0,0,1-1-3.07,9.92,9.92,0,0,1-.08-2c.51,1,1.2,1.69,1.74,2.53a6.88,6.88,0,0,1,1,3.62,5,5,0,0,0,0,.77l.16-.55a18.5,18.5,0,0,1,1.76-3.77,8.27,8.27,0,0,0,1.11-2.46c.05-.24.07-.48.11-.72C712.78,92.91,712.72,93,712.76,93.07Z"/><path class="cls-39" d="M665.41,94.64a8.51,8.51,0,0,1,2.92-4.56A11.64,11.64,0,0,0,670,88.49a.58.58,0,0,1-.07.4,13.69,13.69,0,0,1-2.64,4.69,9,9,0,0,0-2,3.59l-.06,0A15,15,0,0,0,664,94.36a7.18,7.18,0,0,1,.69-7.52.18.18,0,0,1,0-.07l.07,0c-.06.35-.13.68-.18,1a11.92,11.92,0,0,0,.21,3.42,24.39,24.39,0,0,1,.47,3.4.33.33,0,0,1,0,.13S665.38,94.66,665.41,94.64Z"/><path class="cls-39" d="M710,97.29c-.13-.39-.24-.71-.36-1A9.57,9.57,0,0,0,708,93.58a13.44,13.44,0,0,1-2.78-5.1c.18.09.25.26.37.39.48.48,1,.88,1.52,1.32a8.49,8.49,0,0,1,2.77,4.34c0,.07,0,.14.11.19,0-1.58.46-3.11.65-4.66a8.1,8.1,0,0,0-.16-3.33c.06,0,.09,0,.12.07A7.59,7.59,0,0,1,712,91.6a9.21,9.21,0,0,1-1.11,3.49A8.52,8.52,0,0,0,710,97.29Z"/><path class="cls-39" d="M685,103.35a1.6,1.6,0,0,1,.7-1.22,6.72,6.72,0,0,1,2.17-1,8.14,8.14,0,0,0,1.2-.43,1.72,1.72,0,0,0,.76-.6.79.79,0,0,0-.08-1,1.25,1.25,0,0,0-.52-.37c-.35-.1-.4-.32-.37-.63s0-.9,0-1.34c0-.15,0-.2.19-.14a8,8,0,0,1,1.65.78A2.57,2.57,0,0,1,692,99.72a2.42,2.42,0,0,1-1.57,2.13c-.82.39-1.71.58-2.55.91a8,8,0,0,0-1,.39.73.73,0,0,0-.44.76c0,.44,0,.87,0,1.31,0,.07,0,.2-.14.14A2.27,2.27,0,0,1,685,103.35Z"/><path class="cls-39" d="M665.69,92.06c0-.88-.12-1.74-.17-2.61a8.93,8.93,0,0,1,.81-4.83,6.73,6.73,0,0,1,1.72-2.07s.07-.08.16,0a6.72,6.72,0,0,0-.91,2.76c-.12.82-.23,1.65-.35,2.47-.06.37-.15.75-.21,1.13A9.45,9.45,0,0,1,668,87.3a12.76,12.76,0,0,1,2.48-1.86,9.06,9.06,0,0,0,2-1.39,6.23,6.23,0,0,1-2,3.1c-.65.54-1.36,1-2,1.52a8.91,8.91,0,0,0-2.53,3.09C665.83,91.86,665.81,92,665.69,92.06Z"/><path class="cls-39" d="M709.49,92a9.92,9.92,0,0,0-3.62-4A8.38,8.38,0,0,1,704,86.31,6.58,6.58,0,0,1,702.81,84a23.45,23.45,0,0,0,3.26,2.25,8.44,8.44,0,0,1,2.37,2.54c.1,0,.07-.09.06-.13-.28-1.13-.35-2.3-.54-3.45a6.5,6.5,0,0,0-.88-2.64s0,0,0-.08a2.9,2.9,0,0,1,.68.57,6.84,6.84,0,0,1,1.94,4.2,20,20,0,0,1-.13,4.1,2,2,0,0,0,0,.49S709.59,92,709.49,92Z"/><path class="cls-39" d="M679.22,88a1.66,1.66,0,0,0,1-1.27,6,6,0,0,1,1.88-3.43,2.78,2.78,0,0,1,1-.6,20.66,20.66,0,0,0,2.42-.9c.14-.06.3-.1.52-.17v2a.22.22,0,0,1-.16.22A3.63,3.63,0,0,0,684.45,85a2.79,2.79,0,0,1-.54.49,17.19,17.19,0,0,1-2.18,1.4,2.16,2.16,0,0,1-1.13.33c-.13,0-.2.08-.27.16a5.51,5.51,0,0,0-.79,1.23c0-.24.1-.41.09-.62l-.29.06C679.28,88.09,679.21,88.12,679.22,88Z"/><path class="cls-39" d="M687,100.82c0-1,0-1.95,0-2.9,0-1.73-.06-3.45-.11-5.18a.37.37,0,0,1,.33-.43c.42-.1.82-.23,1.2-.34,0,.85,0,1.67,0,2.49,0,1.65-.06,3.31-.09,5l0,.46c0,.54,0,.54-.55.71Z"/><path class="cls-39" d="M667.88,86.31c.91-4.11,4.19-6.49,6.49-6.85a6.86,6.86,0,0,0-1.7,2.15c-.07.14-.16.28-.23.42A6.62,6.62,0,0,1,670,84.68a11.14,11.14,0,0,0-2,1.58S667.94,86.28,667.88,86.31Z"/><path class="cls-39" d="M700.84,79.39a8.48,8.48,0,0,1,4.95,3.35,8.33,8.33,0,0,1,1.55,3.52,22.42,22.42,0,0,0-2.61-2,6.21,6.21,0,0,1-1.85-2.19,8.49,8.49,0,0,0-1.58-2.3Z"/><path class="cls-39" d="M688.17,104.58c0,2.39-.09,4.79-.14,7.18a2.11,2.11,0,0,1-.12.75c-.06.14-.12.29-.28.29s-.25-.16-.3-.3a2.11,2.11,0,0,1-.12-.75c0-1.56-.05-3.12-.08-4.69,0-1,0-2.11-.06-3.16a.31.31,0,0,1,.24-.36c.22-.06.42-.15.63-.23s.27-.06.25.17,0,.73,0,1.1Z"/><path class="cls-40" d="M690.81,108.64a3.73,3.73,0,0,0-1.95-2.12.22.22,0,0,1-.14-.21c0-.33,0-.66,0-1A3.14,3.14,0,0,1,690.81,108.64Z"/><path class="cls-40" d="M689.35,85.77a10.6,10.6,0,0,1,2.22.6c.23.08.16.22.1.36s-.07.3-.31.2a9.66,9.66,0,0,0-2-.57c-.36-.06-.13-.31-.17-.48S689.21,85.73,689.35,85.77Z"/><path class="cls-41" d="M686.26,94.91a1.29,1.29,0,0,1-.81-1.06,1.16,1.16,0,0,1,.63-1.07c.14-.09.21-.09.2.11s0,.51,0,.76,0,.34-.17.47a.23.23,0,0,0,0,.42C686.25,94.62,686.36,94.72,686.26,94.91Z"/><path class="cls-42" d="M691.24,80.7a.27.27,0,0,1-.26.16,10,10,0,0,1-1.55-.06s-.1,0-.11-.07,0-.07.08-.07c.46.07.89-.2,1.36-.12A1.14,1.14,0,0,1,691.24,80.7Z"/><path class="cls-42" d="M688.85,100.16v-.85q0-.18.15-.09c.17.09.37.15.4.37s-.12.35-.28.46A.47.47,0,0,1,688.85,100.16Z"/><path class="cls-43" d="M695.55,83.22a.34.34,0,0,1,.55-.13.47.47,0,0,1,.23.62A6.36,6.36,0,0,0,695.55,83.22Z"/><path class="cls-44" d="M691.47,91.58l0,.1c-.14.2-.36.12-.54.16,0,0-.08-.08-.1-.13s.07-.07.11-.09A.8.8,0,0,1,691.47,91.58Z"/><path class="cls-45" d="M679.33,88.57l-.24-.25c.1-.09.22-.11.28,0S679.36,88.43,679.33,88.57Z"/><path class="cls-46" d="M709.49,92c.12-.19,0-.42.1-.61v.75A.16.16,0,0,1,709.49,92Z"/><path class="cls-47" d="M679.22,88l.12.06a.34.34,0,0,1-.34,0C679,88,679.14,88,679.22,88Z"/><path class="cls-48" d="M665.41,94.64a.19.19,0,0,1-.09.2.46.46,0,0,1,0-.26Z"/><path class="cls-49" d="M712.76,93.07l-.1-.12V92.7A.63.63,0,0,1,712.76,93.07Z"/><path class="cls-50" d="M672.69,108.43l-.08.08-.17-.25C672.59,108.26,672.63,108.36,672.69,108.43Z"/><path class="cls-51" d="M704.17,116.67s-.08,0-.13-.06a.53.53,0,0,1,.3-.12A.24.24,0,0,1,704.17,116.67Z"/><path class="cls-52" d="M663.35,105l-.07.07-.11-.25C663.32,104.85,663.32,105,663.35,105Z"/><path class="cls-53" d="M670.31,110c.06.06.13.13.1.23a.3.3,0,0,1-.18-.15Z"/><path class="cls-54" d="M707.7,105.87c0-.07,0-.14.06-.19l0,.13,0,.12C707.71,106,707.68,105.93,707.7,105.87Z"/><path class="cls-55" d="M671.94,96.23c-.41,0-.81,0-1.22,0-.17,0-.23,0-.22-.22a17.23,17.23,0,0,1,4.62-11.31c.11-.12.18-.17.33,0,.57.59,1.15,1.17,1.74,1.75.14.12.1.19,0,.3a14.05,14.05,0,0,0-3,5,13.3,13.3,0,0,0-.77,4.14c0,.26-.06.38-.35.35S672.32,96.23,671.94,96.23Z"/><path class="cls-55" d="M704.78,97.33a17,17,0,0,1-4.21,10.34c-.2.23-.37.62-.63.61s-.43-.37-.64-.57c-.39-.39-.77-.79-1.17-1.16-.18-.17-.2-.27,0-.47a14,14,0,0,0,3.2-5.61,14.58,14.58,0,0,0,.58-3.41c0-.21.06-.27.27-.27.75,0,1.51,0,2.26,0,.33,0,.41.1.36.39A.76.76,0,0,0,704.78,97.33Z"/><path class="cls-55" d="M703.34,96.23c-.38,0-.75,0-1.13,0s-.31-.06-.31-.29a14,14,0,0,0-1.09-5c-.1-.25-.22-.5-.33-.75,0,0-.09-.13,0-.14.31,0,.14-.18.09-.27a6.55,6.55,0,0,0-1.64-2.13,8.65,8.65,0,0,1-.82-.89c-.09-.1,0-.16,0-.23L700,84.69c.17-.18.23,0,.3.08a16.66,16.66,0,0,1,2.62,3.72A17,17,0,0,1,704.8,96c0,.2-.07.23-.24.23C704.15,96.22,703.75,96.23,703.34,96.23Z"/><path class="cls-55" d="M673.94,100.57c-.27-.36-.67-.21-1-.29,0,.14.14.19.12.34l-.57-.14c0-.09.17-.16,0-.28s-.2,0-.3,0c-.49.2-.58.36-.52.88a6.25,6.25,0,0,0,.9,2.33c0,.08.08.18.23.13-.14-.36-.37-.67-.49-1-.07-.2.07-.37,0-.55s0-.06.08-.06a.25.25,0,0,1,.23.12l.42.62c.1-.18,0-.32.09-.51.2.38.43.64.88.36,0,.38.07.61.43.73.13,0,.19.27.29.42a2.54,2.54,0,0,1,.16.28.39.39,0,0,0,.39.25c.16,0,.08-.2.16-.29s.12.1.16.16a13.52,13.52,0,0,0,1.69,2.16c.14.14.11.21,0,.33-.56.55-1.12,1.09-1.65,1.66-.19.19-.28.17-.45,0A17,17,0,0,1,671,100.4a16.67,16.67,0,0,1-.46-3.37c0-.2,0-.24.22-.24h2.44c.13,0,.23,0,.24.18a13.72,13.72,0,0,0,.55,3.42A.15.15,0,0,1,673.94,100.57Z"/><path class="cls-55" d="M701.3,97.25a13.6,13.6,0,0,1-3.68,8.49c-.07.08-.15.19-.25,0s-.37-.17-.15-.4a.32.32,0,0,0,.07-.3,6,6,0,0,0-.28-1.18c0-.13-.24-.12-.37-.15s-.13.1-.14.17a5.58,5.58,0,0,0-.08.57c0,.08,0,.16-.09.19s-.1-.05-.15-.09l0,0c-.22-.23-.58-.44-.64-.71s.33-.47.52-.71a10.53,10.53,0,0,0,2.34-6c0-.3.09-.42.42-.4.71,0,1.42,0,2.13,0C701.35,96.8,701.3,96.71,701.3,97.25Z"/><path class="cls-55" d="M696.87,90.56c0-.16.16-.34,0-.43s-.11.21-.27.22a11.83,11.83,0,0,0-.9-1.14c-.09-.09-.07-.15,0-.23l.62-.59a.94.94,0,0,1,.82,0s.13.11.09.18c-.13.25.06.33.21.41s.52.42.89.43c.05,0,.1.09.15.15.3.35.62.69.91,1.06a.31.31,0,0,0,.44.11c.19-.11.28,0,.37.16a13.56,13.56,0,0,1,1.14,5c0,.22,0,.3-.27.29-.79,0-1.57,0-2.35,0-.19,0-.27,0-.28-.24a9.15,9.15,0,0,0-.23-1.81c0-.24.11-.41.16-.6a3.45,3.45,0,0,0,0-1.69,4.5,4.5,0,0,0-1.08-2.14c0-.07.17,0,.2-.12a.06.06,0,0,0,0,0l-.51-.35s-.07-.08-.12,0a.12.12,0,0,0,0,.14l.12.18a6.26,6.26,0,0,1,1.32,3.41c0,.07.08.15,0,.18A.15.15,0,0,1,698,93c-.09-.26-.4-.46-.2-.8,0,0-.06-.12-.09-.18s-.15-.17-.14-.3,0-.42-.36-.48-.16-.34-.12-.52S697.12,90.53,696.87,90.56Z"/><path class="cls-55" d="M680.4,93.42c.2,0,.37-.09.56,0,0,.13-.11.17-.17.18-.37,0-.6.51-1,.37-.1,0-.13.09-.16.16l-.45.83c0,.1-.13.2,0,.33s0,.18-.09.25a.58.58,0,0,0-.22.45c0,.23-.08.3-.3.28a4.45,4.45,0,0,0-.73,0c-.25,0-.29-.08-.27-.3a10.12,10.12,0,0,1,2.73-6.47l1.94,2c.1.09.06.14,0,.22a6.42,6.42,0,0,0-.9,1.3.33.33,0,0,1-.24.15C680.81,93.14,680.54,93.14,680.4,93.42Z"/><path class="cls-55" d="M694.62,101.78l-.48.71c-.25-.12-.28-.24-.11-.48s.35-.43.24-.76c0-.13.14-.28.14-.46a2.32,2.32,0,0,0-.06-.45c-.1-.33-.25-.36-.48-.12-.1,0,0-.11,0-.15s.22-.32.3-.49a1.16,1.16,0,0,1,.71-.69c.15-.06.15-.22,0-.45.65.38,1.13,0,1.65-.12.14,0,.14-.09.08-.19a.55.55,0,0,1-.08-.35l.26.1c.08,0,.16,0,.21,0a.24.24,0,0,0,0-.23c0-.11-.12,0-.18,0a1.23,1.23,0,0,1-.43.1c-.56,0-.53-.53-.78-.88h2.08c.2,0,.14.14.13.23a10.11,10.11,0,0,1-2.64,6.22s-.1.19-.21.09-.27-.15-.21-.3C694.94,102.62,694.68,102.26,694.62,101.78Z"/><path class="cls-55" d="M679.93,97.76c0-.31.21-.62,0-.94.43,0,.42,0,.47.35a7,7,0,0,0,1.77,4c.17.19.15.28,0,.45-.57.54-1.12,1.1-1.66,1.66-.14.14-.21.12-.34,0-.29-.29-.53-.58-.37-1a.36.36,0,0,0,0-.32,2.41,2.41,0,0,1-.3-1.29,1.45,1.45,0,0,0-.25-.83.9.9,0,0,1-.09-.49,1.27,1.27,0,0,0-.54-1c-.15-.11-.21-.17-.12-.33a.44.44,0,0,0,0-.4.34.34,0,0,1,.32-.51c.06,0,.15,0,.17,0,.13-.29.39-.19.6-.2s.29.11.27.3a1.17,1.17,0,0,1-.09.5.57.57,0,0,0,.09.59c.08,0,.12.15,0,.2-.32.19-.06.34,0,.51A7.23,7.23,0,0,1,679.93,97.76Z"/><path class="cls-55" d="M696.2,94.52c.25-.25.07-.65.38-.85,0,0,0,0,0-.06a2.38,2.38,0,0,0-.56-.49c-.24,0-.43.11-.46.39a.41.41,0,0,1-.29.36c-.1,0-.24-.13-.29-.27s-.06-.11,0-.17.09,0,.13,0,.12.06.14,0a.28.28,0,0,0,0-.2.1.1,0,0,0-.16-.05c-.18.2-.25,0-.34-.09a6.3,6.3,0,0,0-.48-.55c-.17-.14-.19-.23,0-.34-.15,0-.31-.17-.36.13,0,.07-.19.06-.27,0s-.33-.44-.51-.65,0-.16,0-.23c.61-.6,1.21-1.2,1.81-1.81.11-.11.16-.07.24,0a10,10,0,0,1,1,1.39c.06.09.12.15,0,.22s-.13.43,0,.55a.27.27,0,0,0,.1.06c.72.27.82.95,1,1.55.06.19-.08.29-.2.37a.41.41,0,0,0-.21.31C696.91,94.47,696.63,94.63,696.2,94.52Z"/><path class="cls-55" d="M675.46,96.8h1.22c.17,0,.24,0,.23.22a1.36,1.36,0,0,0,0,.4c0,.15,0,.25-.18.27s-.16,0-.17.1c0,.43-.38.68-.61,1a.78.78,0,0,0-.2.58,1.51,1.51,0,0,1,0,.3c0,.23.12.54-.06.66a1.61,1.61,0,0,1-.92.27c-.14,0-.19,0-.23-.18A13.53,13.53,0,0,1,674,97c0-.17,0-.21.21-.21Z"/><path class="cls-55" d="M684.19,98.06c.21.27.35.54.56.77s.09.16,0,.25l-1.81,1.81c-.07.07-.11.12-.21,0a6.46,6.46,0,0,1-1.66-3.65c.28.47.91.28,1.23.67.06.08.25,0,.35.1s.21.07.12.27.2.19.32.27,0,0,0-.06c0-.21,0-.46.2-.5s.25.21.36.35.06.18-.09.21-.21,0-.19.12.07.26.19.3a.26.26,0,0,0,.27-.15C684,98.59,684.21,98.39,684.19,98.06Z"/><path class="cls-55" d="M694.61,108.05c.07-.2.24-.36.12-.61s.11-.18.19-.25c.24-.23.25-.32,0-.51-.1-.07-.12-.12-.06-.24a5,5,0,0,1,.42-.7c.08-.09.26-.18.16-.32s-.23-.39-.49-.41c-.09,0-.2,0-.24-.08s-.25-.23,0-.34.24-.48.54-.16c.55.58,1.13,1.14,1.7,1.7.12.12.17.19,0,.33a13.9,13.9,0,0,1-2,1.54C694.79,108.05,694.72,108.11,694.61,108.05Z"/><path class="cls-56" d="M697.49,93.83c.18.49-.27.88-.2,1.39l.39-.47a8.73,8.73,0,0,1,.14,1.3c0,.13,0,.18-.17.18-.73,0-1.46,0-2.19,0-.08,0-.17,0-.2-.11a.16.16,0,0,1,.08-.2c.21-.15.31-.44.66-.43.12,0,.1-.16,0-.24s-.14-.15,0-.22a1.63,1.63,0,0,1,.47-.2c.53,0,.73-.44.94-.84C697.42,93.94,697.39,93.87,697.49,93.83Z"/><path class="cls-57" d="M680,96.22a.63.63,0,0,1-.61-.49.54.54,0,0,1,.31-.67,1,1,0,0,1,.67.08,1.67,1.67,0,0,1-.07,1.08A1.5,1.5,0,0,1,680,96.22Z"/><path class="cls-57" d="M678.35,96.8c-.06.21-.11.37-.16.53s-.06.19,0,.26c.25.17.11.33,0,.5s-.33.09-.5.1-.08-.08-.09-.14l-.12-1c0-.14,0-.22.18-.21Z"/><path class="cls-58" d="M692.63,93.27c0-.12-.3,0-.13-.2,0,0,0-.09,0-.1-.32-.15-.14-.41-.11-.61a.4.4,0,0,1,.29-.32c.11,0,.16.13.23.21s.14.2.22.29a.26.26,0,0,1,0,.36c-.1.14-.16,0-.24-.06s-.17,0-.23,0,0,.14.05.18a.14.14,0,0,1,0,.19S692.7,93.31,692.63,93.27Z"/><path class="cls-59" d="M693.44,102.75c-.29.08-.52-.14-.81-.1s-.4-.32-.74-.31a1.6,1.6,0,0,0,.21-.18c.19-.22.35-.18.56,0a4.86,4.86,0,0,0,.54.33A.46.46,0,0,1,693.44,102.75Z"/><path class="cls-59" d="M678.29,105.54a2.13,2.13,0,0,1-.38.35c-.1.06-.16-.1-.22-.16a1.93,1.93,0,0,1-.27-.3c0-.06-.21-.12-.1-.23s.21-.24.39-.1.31.18.47.28S678.29,105.43,678.29,105.54Z"/><path class="cls-60" d="M679.93,97.76a2.72,2.72,0,0,0,.11,1c0,.09,0,.23-.06.41a1.6,1.6,0,0,1-.4-.8c.11,0,.14.13.25.05s0-.14,0-.21S679.82,97.89,679.93,97.76Z"/><path class="cls-61" d="M707.7,105.87l.07.06-.09.14C707.61,106,707.65,105.93,707.7,105.87Z"/><path class="cls-62" d="M681.87,85.08l.44-.72c.17-.28.42,0,.64-.11C682.63,84.55,682.47,85,681.87,85.08Z"/><path class="cls-63" d="M673,104c.34,0,.51.29.55.8Z"/><path class="cls-43" d="M694.71,91.89a.07.07,0,0,1-.09-.06c0-.08,0-.17.09-.2.31-.08.28-.23.14-.47s.06-.38.16-.54a.65.65,0,0,1,.47-.25c.07,0,.25.15.14.25s-.07.2,0,.29,0,.06,0,.1-.07,0-.11,0a2.2,2.2,0,0,0-.25-.17c-.07,0-.13-.16-.22,0s-.12.16,0,.29.28.21.22.43S694.92,91.81,694.71,91.89Z"/><rect class="cls-5" x="239.51" y="75.25" width="119.9" height="39.28" rx="5.37"/><path d="M280.42,89.7l-.05,12.5h-2.13l.05-12.5Z"/><path d="M294.4,89.75l-.06,13.13-9.08-9.06,0,8.4h-2.07l.06-13.12,9.08,9,0-8.39Z"/><path d="M303,100.45a5,5,0,0,0,3.92-1.77v2.52a5.7,5.7,0,0,1-4,1.3,6.46,6.46,0,1,1,.05-12.92,5.65,5.65,0,0,1,4,1.33v2.52a5,5,0,0,0-3.9-1.8,4.41,4.41,0,0,0,0,8.82Z"/><path d="M320.7,89.86,320.65,103l-9.09-9,0,8.39h-2.08l.06-13.12,9.08,9,0-8.39Z"/><path class="cls-64" d="M303.06,40c1.14.18,2.29.34,3.41.56a22.29,22.29,0,0,1,17.86,18.11c1.9,11.92-6.2,23-18.4,25.2-12.6,2.25-24.77-6.06-26.7-18.24-.12-.75-.25-1.5-.38-2.24V60.91c.13-.75.26-1.5.38-2.25a22.3,22.3,0,0,1,17.86-18.1c1.13-.22,2.27-.38,3.41-.56Zm-1.24,2.24c-11.38,0-20.62,8.84-20.65,19.82s9.16,20,20.57,20,20.62-8.85,20.65-19.82S313.24,42.26,301.82,42.24Z"/><path class="cls-64" d="M293.54,47.84a15.66,15.66,0,0,1,5-1.72c8-1.41,16.61,3.68,18.91,11.14a12.12,12.12,0,0,1-2.12,11.58,31.77,31.77,0,0,1-4.64,4.48,2.28,2.28,0,0,0-1.05,2,6.72,6.72,0,0,1-.07.94l-14.15,1.55c.11-1.54.26-2.94.3-4.35.05-2-.48-2.63-2.44-3.18-.91-.25-1.83-.5-2.76-.67-.61-.12-.78-.35-.81-1a14.63,14.63,0,0,0-.54-3.74,11.33,11.33,0,0,0-1.63-2.5l3.54-4.18c.39.6.71,1.12,1.06,1.62a6.85,6.85,0,0,0,4.25,3,.92.92,0,0,1,.57.54c1.67,6.25,8.06,7.45,13,4.72,4.25-2.36,5.77-6.55,4-11-2.51-6.37-9.11-9.6-16.33-8l-.44.1C295,49.72,295,49.73,293.54,47.84Z"/><path class="cls-64" d="M298.83,60.86l-.57.1a4.28,4.28,0,0,1-4.64-1.54,4.14,4.14,0,0,1-.16-5,6,6,0,0,1,2.37-2.13,12.42,12.42,0,0,1,10.62-.17,9.16,9.16,0,0,1,4.44,12.57,4.87,4.87,0,0,1-4.05,2.54,6.83,6.83,0,0,1-7.9-5.7C298.9,61.34,298.87,61.14,298.83,60.86Z"/><rect class="cls-5" x="690.1" y="338.93" width="119.9" height="39.28" rx="5.37"/><path d="M724.61,365.86h-2.18l1.77-13.12,5.09,8.5,5.17-8.46,1.66,13.13H734l-.83-7.61-3.85,6.43-3.77-6.46Z"/><path d="M740.35,353.42l-.05,12.5h-2.12l.05-12.5Z"/><path d="M754.33,353.48l-.05,13.12-9.08-9.05,0,8.39h-2.07l0-13.12,9.09,9.05,0-8.39Z"/><path d="M761.09,364.38a1.71,1.71,0,0,0,1.94-1.66c0-1.37-1.08-1.82-2.65-2.42-1.25-.45-3.32-1.33-3.31-3.67,0-2,1.69-3.35,3.94-3.34A4.57,4.57,0,0,1,765.2,356l-1.72.95a2.86,2.86,0,0,0-2.51-1.75c-1.16,0-1.7.63-1.7,1.33,0,1,.81,1.59,2.83,2.29,1.5.53,3.17,1.59,3.16,3.76a3.89,3.89,0,0,1-4.17,3.72,5.39,5.39,0,0,1-4.77-3.21l1.57-1.11C758.69,363.4,759.68,364.37,761.09,364.38Z"/><path d="M774.46,362.84l-4.61,0L768.41,366H766l6.15-13.17,6.06,13.22h-2.38Zm-4-1.8h3.4l-1.68-4Z"/><path class="cls-37" d="M755.77,311.75H737.18a2.87,2.87,0,0,0-2.86,2.86v27.17h24.31V314.61A2.87,2.87,0,0,0,755.77,311.75Z"/><path class="cls-65" d="M770.07,324.62H745.76a1.44,1.44,0,0,0-1.43,1.43v15.73H771.5V326.05A1.44,1.44,0,0,0,770.07,324.62Z"/><path class="cls-65" d="M732.18,324.62a1.5,1.5,0,0,0-1.12.6l-2.06,3.1a2.75,2.75,0,0,0-.4,1.31v12.15h5.72V324.62Z"/><rect class="cls-13" x="735.75" y="336.78" width="7.15" height="5"/><rect class="cls-65" x="727.17" y="341.78" width="45.76" height="2.86" rx="0.71"/><rect class="cls-13" x="735.75" y="319.62" width="1.43" height="4.29" rx="0.36"/><rect class="cls-13" x="738.61" y="319.62" width="1.43" height="4.29" rx="0.36"/><rect class="cls-13" x="741.47" y="319.62" width="1.43" height="4.29" rx="0.36"/><rect class="cls-13" x="744.33" y="319.62" width="1.43" height="4.29" rx="0.36"/><rect class="cls-13" x="747.19" y="319.62" width="1.43" height="4.29" rx="0.36"/><rect class="cls-13" x="735.75" y="325.34" width="1.43" height="4.29" rx="0.36"/><rect class="cls-13" x="738.61" y="325.34" width="1.43" height="4.29" rx="0.36"/><rect class="cls-13" x="741.47" y="325.34" width="1.43" height="4.29" rx="0.36"/><rect class="cls-13" x="735.75" y="331.06" width="1.43" height="4.29" rx="0.36"/><rect class="cls-13" x="738.61" y="331.06" width="1.43" height="4.29" rx="0.36"/><rect class="cls-13" x="741.47" y="331.06" width="1.43" height="4.29" rx="0.36"/><rect class="cls-13" x="750.05" y="330.34" width="21.45" height="11.44"/><rect class="cls-13" x="730.75" y="328.2" width="1.43" height="4.29" rx="0.36"/><rect class="cls-13" x="730.75" y="334.63" width="1.43" height="4.29" rx="0.36"/><polygon class="cls-1" points="742.19 336.78 736.47 336.78 735.75 336.78 735.75 337.49 735.75 341.78 736.47 341.78 736.47 337.49 738.97 337.49 738.97 341.78 739.68 341.78 739.68 337.49 742.19 337.49 742.19 341.78 742.9 341.78 742.9 337.49 742.9 336.78 742.19 336.78"/><rect class="cls-1" x="738.61" y="338.92" width="1.43" height="1.43" rx="0.36"/><rect class="cls-29" x="736.47" y="341.78" width="5.72" height="1.43"/><rect class="cls-37" x="736.47" y="343.21" width="5.72" height="1.43"/><path class="cls-1" d="M750.77,330.34H771.5v-1.43H749.34a.72.72,0,0,0-.72.72v12.15h1.43v-2.14a.72.72,0,0,1,.72-.72H771.5v-1.43H750.77a.71.71,0,0,1-.72-.71v-1.43a.72.72,0,0,1,.72-.72H771.5V333.2H750.77a.71.71,0,0,1-.72-.71v-1.43A.72.72,0,0,1,750.77,330.34Z"/><rect class="cls-13" x="735.75" y="313.9" width="1.43" height="4.29" rx="0.36"/><rect class="cls-13" x="738.61" y="313.9" width="1.43" height="4.29" rx="0.36"/><rect class="cls-13" x="741.47" y="313.9" width="1.43" height="4.29" rx="0.36"/><rect class="cls-13" x="744.33" y="313.9" width="1.43" height="4.29" rx="0.36"/><rect class="cls-13" x="747.19" y="313.9" width="1.43" height="4.29" rx="0.36"/><rect class="cls-13" x="750.05" y="319.62" width="1.43" height="4.29" rx="0.36"/><rect class="cls-13" x="750.05" y="313.9" width="1.43" height="4.29" rx="0.36"/><rect class="cls-13" x="752.91" y="319.62" width="1.43" height="4.29" rx="0.36"/><rect class="cls-13" x="752.91" y="313.9" width="1.43" height="4.29" rx="0.36"/><path class="cls-13" d="M757.2,323.55a.36.36,0,0,1-.36.36h-.71a.36.36,0,0,1-.36-.36V320a.36.36,0,0,1,.36-.36h.71a.36.36,0,0,1,.36.36v3.57Z"/><path class="cls-13" d="M757.2,317.83a.36.36,0,0,1-.36.36h-.71a.36.36,0,0,1-.36-.36v-3.57a.36.36,0,0,1,.36-.36h.71a.36.36,0,0,1,.36.36v3.57Z"/><rect class="cls-29" x="740.76" y="304.6" width="11.44" height="7.15"/><circle class="cls-37" cx="746.48" cy="304.6" r="5.72" transform="translate(179.39 877.69) rotate(-67.5)"/><path class="cls-33" d="M750.05,303.17h-2.14V301a.72.72,0,0,0-.72-.71h-1.43a.71.71,0,0,0-.71.71v2.14H742.9a.72.72,0,0,0-.71.72v1.43a.71.71,0,0,0,.71.71h2.15v2.15a.71.71,0,0,0,.71.71h1.43a.72.72,0,0,0,.72-.71V306h2.14a.72.72,0,0,0,.72-.71v-1.43A.73.73,0,0,0,750.05,303.17Z"/><rect class="cls-66" x="546.95" y="519.55" width="147.29" height="52.45" rx="5.37"/><path d="M590.56,544.72c.54,0,1.2-.39,1.2-1.53V530.05h2.16v13.53c0,2.12-1.39,3-3.29,3a4.39,4.39,0,0,1-2.62-.94l1.12-1.55A1.82,1.82,0,0,0,590.56,544.72Z"/><path d="M604.29,530.05v1.85h-5.53v3h5.17v1.82h-5.17v3.93h5.53v1.85h-7.6V530.05Z"/><path d="M613.77,530.05v1.89H609v3.12h4.65v1.84H609v5.64h-2.07V530.05Z"/><path d="M623.79,530.05v1.85h-5.53v3h5.17v1.82h-5.17v3.93h5.53v1.85h-7.6V530.05Z"/><path d="M631.74,542.54V530.05h4c3.82,0,6.43,2.48,6.43,6.25s-2.61,6.24-6.43,6.24ZM633.9,532v8.53h1.82a4.27,4.27,0,1,0,0-8.53Z"/><path d="M651.86,530.05v1.85h-5.53v3h5.17v1.82h-5.17v3.93h5.53v1.85h-7.61V530.05Z"/><path d="M589.58,562.13a4.94,4.94,0,0,0,3.91-1.78v2.52a5.73,5.73,0,0,1-4,1.32,6.47,6.47,0,1,1,0-12.93,5.68,5.68,0,0,1,4,1.32v2.52a4.94,4.94,0,0,0-3.91-1.79,4.41,4.41,0,0,0,0,8.82Z"/><path d="M602.88,560.76h-4.6L596.85,564h-2.38l6.11-13.19,6.1,13.19h-2.37Zm-4-1.79h3.39l-1.69-4Z"/><path d="M612,551.47c2.73,0,4.5,1.56,4.5,3.9A3.66,3.66,0,0,1,613.7,559l3.54,5h-2.56l-3.14-4.73h-1.3V564h-2.11v-12.5Zm-1.75,1.84v4.18h1.66c1.45,0,2.41-.75,2.41-2.09s-1-2.09-2.41-2.09Z"/><path d="M622.6,551.47c2.73,0,4.49,1.56,4.49,3.9a3.65,3.65,0,0,1-2.78,3.64l3.53,5h-2.55l-3.14-4.73h-1.3V564h-2.11v-12.5Zm-1.75,1.84v4.18h1.66c1.44,0,2.41-.75,2.41-2.09s-1-2.09-2.41-2.09Z"/><path d="M637,551.47v1.86h-5.53v3h5.17v1.82h-5.17v3.93H637V564h-7.6v-12.5Z"/><path d="M643.4,551.47c2.73,0,4.5,1.56,4.5,3.9a3.66,3.66,0,0,1-2.79,3.64l3.54,5h-2.56L643,559.24h-1.3V564h-2.11v-12.5Zm-1.75,1.84v4.18h1.66c1.44,0,2.41-.75,2.41-2.09s-1-2.09-2.41-2.09Z"/><path d="M657.22,560.76h-4.61L651.18,564h-2.37l6.1-13.19L661,564h-2.37Zm-4-1.79h3.39l-1.7-4Z"/><path class="cls-19" d="M602,504.55h37.17c0-20-2.86-24.3-18.58-24.3S602,484.54,602,504.55Z"/><path class="cls-22" d="M637.62,500.18a6.47,6.47,0,0,1-.51,1.92,3.23,3.23,0,0,1-1.21,1.16,21.73,21.73,0,0,0,.14-3.6c-.85-12.38-1.59-9-15.44-9s-14.59-3.39-15.45,9a21.91,21.91,0,0,0,.14,3.61,3.23,3.23,0,0,1-1.21-1.16,6.51,6.51,0,0,1-.5-1.92c-1.31-.33-3-.05-3,3.66,0,2.32.86,4.22,3.76,4.42,1,7.27,5.2,11,12.32,14.23a12.19,12.19,0,0,0,7.87,0c7.13-3.21,11.36-7,12.32-14.23,2.9-.2,3.76-2.1,3.76-4.42C640.61,500.13,638.93,499.85,637.62,500.18Z"/><path class="cls-23" d="M627,513.75c0,2.45-3.22,3.67-6.43,3.67s-6.44-1.22-6.44-3.67a.61.61,0,0,1,.64-.62h11.59A.61.61,0,0,1,627,513.75Z"/><path class="cls-27" d="M612,499.24c-3.58,0-5,1.29-5,2.58s0,3.14,4.73,3.14c4.57,0,5.28-.56,5.28-2.5C617,501.17,615.59,499.24,612,499.24Z"/><path class="cls-8" d="M612.37,498.21a3.22,3.22,0,1,1-3.21,3.22A3.22,3.22,0,0,1,612.37,498.21Z"/><path class="cls-9" d="M613.45,501.43a1.08,1.08,0,1,1-1.08-1.07A1.07,1.07,0,0,1,613.45,501.43Z"/><path class="cls-8" d="M607,501.79c0-5,10-5,10,.71C615.59,498.21,608.44,498.21,607,501.79Z"/><path class="cls-27" d="M629.18,499.24c3.57,0,5,1.29,5,2.58s0,3.14-4.73,3.14c-4.56,0-5.28-.56-5.28-2.5C624.17,501.17,625.6,499.24,629.18,499.24Z"/><path class="cls-8" d="M628.82,498.21a3.22,3.22,0,1,1-3.22,3.22A3.23,3.23,0,0,1,628.82,498.21Z"/><path class="cls-9" d="M627.75,501.43a1.07,1.07,0,1,0,1.07-1.07A1.06,1.06,0,0,0,627.75,501.43Z"/><path class="cls-8" d="M634.18,501.79c0-5-10-5-10,.71C625.6,498.21,632.75,498.21,634.18,501.79Z"/><path class="cls-67" d="M620.6,511c-3,0-4.49-2.15-3-2.15h6C625.08,508.84,623.58,511,620.6,511Z"/><rect class="cls-5" x="119.71" y="306.99" width="147.29" height="52.45" rx="5.37"/><path d="M160.74,317.49v1.86H155.2v3h5.18v1.82H155.2v3.93h5.54V330h-7.61v-12.5Z"/><path d="M174.52,317.49v13.12l-9.12-9V330h-2.07V316.87l9.12,9v-8.39Z"/><path d="M176,317.49h8.71v1.95h-3.3V330h-2.12V319.44H176Z"/><path d="M191.15,317.28a6.49,6.49,0,1,1-6.48,6.46A6.3,6.3,0,0,1,191.15,317.28Zm0,10.91a4.45,4.45,0,1,0-4.25-4.45A4.21,4.21,0,0,0,191.15,328.19Z"/><path d="M203.56,317.49c2.73,0,4.5,1.55,4.5,3.89a3.66,3.66,0,0,1-2.79,3.65l3.54,5h-2.56l-3.14-4.73h-1.3V330H199.7v-12.5Zm-1.75,1.84v4.18h1.66c1.44,0,2.41-.75,2.41-2.09s-1-2.09-2.41-2.09Z"/><path d="M221.5,317.49v13.12l-9.12-9V330h-2.07V316.87l9.12,9v-8.39Z"/><path d="M230,317.28a6.49,6.49,0,1,1-6.48,6.46A6.3,6.3,0,0,1,230,317.28Zm0,10.91a4.45,4.45,0,1,0-4.25-4.45A4.21,4.21,0,0,0,230,328.19Z"/><path d="M168.5,349.79a1.71,1.71,0,0,0,1.93-1.66c0-1.37-1.09-1.82-2.66-2.41-1.25-.45-3.33-1.32-3.33-3.66,0-2,1.68-3.35,3.93-3.35a4.57,4.57,0,0,1,4.2,2.66l-1.72,1a2.87,2.87,0,0,0-2.51-1.75c-1.16,0-1.7.64-1.7,1.34,0,1,.82,1.59,2.84,2.28,1.5.52,3.18,1.57,3.18,3.75a3.9,3.9,0,0,1-4.16,3.73,5.41,5.41,0,0,1-4.79-3.19l1.57-1.11C166.09,348.83,167.09,349.79,168.5,349.79Z"/><path d="M180.55,338.71a6.49,6.49,0,1,1-6.48,6.46A6.3,6.3,0,0,1,180.55,338.71Zm0,10.9a4.45,4.45,0,1,0-4.25-4.44A4.2,4.2,0,0,0,180.55,349.61Z"/><path d="M194.94,349.58a4.94,4.94,0,0,0,3.91-1.79v2.52a5.67,5.67,0,0,1-4,1.32,6.46,6.46,0,1,1,0-12.92,5.67,5.67,0,0,1,4,1.32v2.51a5,5,0,0,0-3.91-1.78,4.41,4.41,0,0,0,0,8.82Z"/><path d="M203.57,338.92v12.5h-2.13v-12.5Z"/><path d="M213.42,348.2h-4.6l-1.43,3.22H205l6.11-13.2,6.1,13.2h-2.37Zm-4-1.78h3.4l-1.7-4Z"/><path d="M220.78,338.92v10.6h5v1.9h-7.07v-12.5Z"/><rect class="cls-22" x="179.81" y="285.22" width="4.14" height="3.17"/><path class="cls-9" d="M177.07,297.2v12.25h3.8c0-8.22.61-9.3.61-9.3h.81s.61,1.08.61,9.3h3.8V297.2Z"/><path class="cls-68" d="M182.89,309.11c.67-.79,3.14-.79,3.81,0v1.48h-3.81Z"/><path class="cls-68" d="M180.88,309.11c-.67-.79-3.14-.79-3.81,0v1.48h3.81Z"/><path class="cls-68" d="M187.17,286.85H184c0,.65-.93,1.18-2.07,1.18s-2.08-.53-2.08-1.18H176.6l.47,10.35h9.63Z"/><path class="cls-68" d="M191.71,297.47l-5.49-9c-.86-1.42,1-2.31,1.88-.9l5.48,9Z"/><path class="cls-22" d="M191.71,297.47c1,1.71,1.52,1.61,2,1.36s.88-.54-.16-2.25Z"/><path class="cls-68" d="M173.52,298l2-10.1a1.07,1.07,0,1,1,2.08.35l-2,10.1Z"/><path class="cls-22" d="M173.52,298c-.38,1.92.07,2.1.65,2.2s1.06.07,1.44-1.85Z"/><rect class="cls-22" x="202.75" y="285.22" width="4.14" height="3.17"/><path class="cls-9" d="M209.64,297.2v12.25h-3.8c0-8.22-.62-9.3-.62-9.3h-.8s-.61,1.08-.61,9.3H200V297.2Z"/><path class="cls-68" d="M203.82,309.11a3.37,3.37,0,0,0-3.82,0v1.48h3.82Z"/><path class="cls-68" d="M205.83,309.11c.67-.79,3.13-.79,3.81,0v1.48h-3.81Z"/><path class="cls-69" d="M199.54,286.85h3.21c0,.65.93,1.18,2.07,1.18s2.07-.53,2.07-1.18h3.21l-.46,10.35H200Z"/><path class="cls-69" d="M195,297.47l5.48-9c.86-1.42-1-2.31-1.87-.9l-5.48,9Z"/><path class="cls-22" d="M195,297.47c-1,1.71-1.52,1.61-2,1.36s-.87-.54.17-2.25Z"/><path class="cls-69" d="M213.18,298l-2-10.1a1.07,1.07,0,1,0-2.09.35l2,10.1Z"/><path class="cls-22" d="M213.18,298c.38,1.92-.07,2.1-.64,2.2s-1.06.07-1.44-1.85Z"/><path class="cls-19" d="M173.13,276.89l.91,1.65h15.69l.68-1.76c0-6.34-1.46-9-8.45-9.09S173.13,270.44,173.13,276.89Z"/><path class="cls-22" d="M189.76,276.78a3.23,3.23,0,0,1-.23.91,1.58,1.58,0,0,1-.56.54,10.28,10.28,0,0,0,.06-1.69c-.39-5.84-.73-3-7.14-3s-6.76-2.8-7.15,3a10.46,10.46,0,0,0,.06,1.7,1.5,1.5,0,0,1-.56-.54,3.23,3.23,0,0,1-.23-.91c-.61-.16-1.39,0-1.39,1.73,0,1.09.4,2,1.74,2.08.47,3.65,5.34,6.09,7.53,6.09s7.05-2.44,7.52-6.09c1.34-.1,1.74-1,1.74-2.08C191.15,276.76,190.37,276.62,189.76,276.78Z"/><circle class="cls-23" cx="178.59" cy="278.68" r="1.35"/><circle class="cls-23" cx="185.18" cy="278.68" r="1.35"/><path class="cls-23" d="M184,282.79a3.27,3.27,0,0,1-4.31,0c-.16-.13-.31.1-.2.3a2.63,2.63,0,0,0,4.71,0C184.35,282.89,184.2,282.66,184,282.79Z"/><path class="cls-19" d="M196.07,276.89l.9,1.65h15.7l.68-1.76c0-6.34-1.47-9-8.46-9.09S196.07,270.44,196.07,276.89Z"/><path class="cls-22" d="M212.7,276.78a3.61,3.61,0,0,1-.23.91,1.57,1.57,0,0,1-.57.54,9.55,9.55,0,0,0,.07-1.69c-.4-5.84-.73-3-7.15-3s-6.75-2.8-7.15,3a11.08,11.08,0,0,0,.07,1.7,1.5,1.5,0,0,1-.56-.54,3.19,3.19,0,0,1-.24-.91c-.6-.16-1.38,0-1.38,1.73,0,1.09.39,2,1.74,2.08.47,3.65,5.34,6.09,7.52,6.09s7.05-2.44,7.52-6.09c1.35-.1,1.75-1,1.75-2.08C214.09,276.76,213.3,276.62,212.7,276.78Z"/><path class="cls-23" d="M202.87,278.68a1.35,1.35,0,1,1-1.34-1.35A1.34,1.34,0,0,1,202.87,278.68Z"/><circle class="cls-23" cx="208.11" cy="278.68" r="1.35"/><path class="cls-23" d="M207,282.79a3.26,3.26,0,0,1-4.3,0c-.17-.13-.32.1-.2.3a2.62,2.62,0,0,0,4.7,0C207.29,282.89,207.14,282.66,207,282.79Z"/></svg>