<svg id="Layer_1" data-name="Layer 1" xmlns="http://www.w3.org/2000/svg" viewBox="0 0 1016 629.46"><defs><style>.cls-1{fill:#fff;}.cls-2{fill:#e4eaff;}.cls-3{fill:#b7c6ff;}.cls-4{fill:#3d4d6a;}.cls-5{fill:#594640;}.cls-6{fill:#d6a57c;}.cls-7{fill:#664e27;}.cls-8{fill:#231f20;}.cls-9{fill:#4d4d4d;}.cls-10{fill:#acb8bf;}.cls-11{fill:#89664c;}.cls-12{fill:#b4d7ee;}.cls-13{fill:#dae3ea;}.cls-14{fill:#94989b;}.cls-15{fill:#c8d0d6;}.cls-16{fill:#a37d64;}.cls-17{fill:#3e4347;}.cls-18{fill:#ffb300;}.cls-19{fill:#01579b;}.cls-20{fill:#c2185b;}.cls-21{fill:#ffdd67;}.cls-22{fill:#937237;}.cls-23{fill:#29b6f6;}.cls-24{fill:#dbb471;}.cls-25{fill:#fed0ac;}.cls-26{fill:#f5f5f5;}.cls-27{fill:#e0a372;}.cls-28{fill:#b2c1c0;}.cls-29{fill:#e5dec1;}.cls-30{fill:#d33b23;}.cls-31{fill:#d6eef0;}.cls-32{fill:#f15744;}.cls-33{fill:#f9f3d9;}.cls-34{fill:#42ade2;}.cls-35{fill:#666;}.cls-36{fill:#e8e8e8;}.cls-37{fill:#d0d0d0;}.cls-38{fill:#008dcd;}.cls-39{fill:#018ecd;}.cls-40{fill:#028ecd;}.cls-41{fill:#038fce;}.cls-42{fill:#0690ce;}.cls-43{fill:#0f94d0;}.cls-44{fill:#1998d2;}.cls-45{fill:#63b9e0;}.cls-46{fill:#38a6d8;}.cls-47{fill:#74c1e3;}.cls-48{fill:#53b2dd;}.cls-49{fill:#2da1d6;}.cls-50{fill:#2ca1d5;}.cls-51{fill:#35a5d7;}.cls-52{fill:#d9eef7;}.cls-53{fill:#c7e6f4;}.cls-54{fill:#fefefe;}.cls-55{fill:#fdfefe;}.cls-56{fill:#fcfdfe;}.cls-57{fill:#fbfcfd;}.cls-58{fill:#fafcfd;}.cls-59{fill:#0b92cf;}.cls-60{fill:#5ab5de;}.cls-61{fill:#f7fbfd;}.cls-62{fill:#1496d1;}.cls-63{fill:#f03;}.cls-64{fill:#62727a;}.cls-65{fill:#eba352;}.cls-66{fill:#428bc1;}.cls-67{fill:#6adbc6;}</style></defs><rect class="cls-1" width="1016" height="629.46"/><circle class="cls-2" cx="508" cy="314.73" r="310.5"/><circle class="cls-3" cx="508" cy="314.73" r="212.61"/><circle class="cls-4" cx="508.47" cy="314.73" r="91.94"/><rect class="cls-1" x="438.44" y="298.5" width="138" height="47" rx="5.37"/><path d="M452.71,314.24c3.67,0,6,2,6,5.24s-2.35,5.2-6,5.2h-2.23V331h-2.83v-16.8Zm-2.23,2.5v5.45h2.23c1.94,0,3.24-.91,3.24-2.71s-1.3-2.74-3.24-2.74Z"/><path d="M469.34,326.72h-6.19L461.23,331H458l8.21-17.73L474.46,331h-3.2Zm-5.37-2.4h4.56L466.25,319Z"/><path d="M483.53,328.57a6.64,6.64,0,0,0,5.25-2.4v3.39a7.65,7.65,0,0,1-5.35,1.77,8.69,8.69,0,1,1,0-17.37,7.65,7.65,0,0,1,5.35,1.77v3.39a6.64,6.64,0,0,0-5.25-2.41,5.93,5.93,0,0,0,0,11.86Z"/><path d="M495.12,314.24V331h-2.86v-16.8Z"/><path d="M509.09,314.24v2.5h-7.44v4.08h7v2.45h-7v5.28h7.44V331H498.86v-16.8Z"/><path d="M527.62,314.24v17.64l-12.27-12.12V331h-2.78V313.4l12.26,12.12V314.24Z"/><path d="M529.65,314.24h11.72v2.62h-4.44V331h-2.86V316.86h-4.42Z"/><path d="M553.63,314.24v2.5h-7.44v4.08h7v2.45h-7v5.28h7.44V331H543.41v-16.8Z"/><path d="M562.53,328.86c1.56,0,2.6-.89,2.6-2.23,0-1.85-1.47-2.45-3.58-3.24-1.68-.6-4.46-1.78-4.46-4.92,0-2.69,2.25-4.51,5.28-4.51a6.15,6.15,0,0,1,5.64,3.57l-2.31,1.3a3.87,3.87,0,0,0-3.38-2.36c-1.56,0-2.28.87-2.28,1.81,0,1.31,1.1,2.13,3.81,3.07,2,.69,4.28,2.11,4.28,5,0,3.12-2.74,5-5.6,5a7.25,7.25,0,0,1-6.43-4.29l2.11-1.49C559.29,327.56,560.64,328.86,562.53,328.86Z"/><path class="cls-5" d="M507.44,257.14c20.3,0,24.71,13.54,24.71,21.17,0,6.77-.88,9.71-.88,9.71H483.62s-.88-2.94-.88-9.71C482.74,270.68,487.15,257.14,507.44,257.14Z"/><path class="cls-6" d="M529.68,284.49a58.91,58.91,0,0,1-1.06-9c-.4-6.59-9.63-1.33-21.18-1.33s-20.78-5.26-21.18,1.33a58.91,58.91,0,0,1-1.06,9c-5.7,0-5.7,9.33.37,9.33,0,10.07,12.6,16.26,21.87,16.26s21.87-6.19,21.87-16.26C535.38,293.82,535.38,284.49,529.68,284.49Z"/><circle class="cls-1" cx="518.47" cy="286.7" r="5.74" transform="translate(152.43 752.55) rotate(-80.78)"/><circle class="cls-7" cx="518.47" cy="286.7" r="3.97"/><circle class="cls-8" cx="518.47" cy="286.7" r="1.32"/><circle class="cls-1" cx="496.41" cy="286.7" r="5.74" transform="translate(133.9 730.77) rotate(-80.78)"/><circle class="cls-7" cx="496.41" cy="286.7" r="3.97" transform="translate(-57.33 434.99) rotate(-45)"/><circle class="cls-8" cx="496.41" cy="286.7" r="1.32"/><path class="cls-7" d="M514.58,297.84a11.91,11.91,0,0,1-14.28,0c-.55-.38-1,.28-.67.89a9.25,9.25,0,0,0,15.62,0C515.63,298.12,515.13,297.46,514.58,297.84Z"/><path d="M445.89,472v12.49h-2.12V472Z"/><path d="M459.87,472v13.12l-9.12-9v8.39h-2.07V471.39l9.12,9V472Z"/><path d="M471.09,472h2.43l-6.11,13.19L461.31,472h2.42l3.68,8.78Z"/><path d="M482.57,472v1.85H477v3h5.17v1.82H477v3.93h5.53v1.85H475V472Z"/><path d="M489,472c2.73,0,4.5,1.55,4.5,3.89a3.66,3.66,0,0,1-2.79,3.64l3.54,5h-2.56l-3.14-4.73h-1.3v4.73h-2.11V472Zm-1.75,1.84V478h1.66c1.44,0,2.41-.75,2.41-2.09s-1-2.08-2.41-2.08Z"/><path d="M499.8,482.89a1.71,1.71,0,0,0,1.93-1.66c0-1.38-1.09-1.82-2.66-2.41-1.25-.45-3.32-1.32-3.32-3.66,0-2,1.68-3.36,3.93-3.36a4.57,4.57,0,0,1,4.19,2.66l-1.71,1a2.89,2.89,0,0,0-2.52-1.75c-1.16,0-1.69.64-1.69,1.34,0,1,.82,1.58,2.83,2.28,1.5.52,3.18,1.57,3.18,3.75a3.89,3.89,0,0,1-4.16,3.73,5.39,5.39,0,0,1-4.78-3.19l1.57-1.11C497.39,481.92,498.39,482.89,499.8,482.89Z"/><path d="M508.21,472v12.49h-2.12V472Z"/><path d="M516.76,471.8a6.49,6.49,0,1,1-6.48,6.47A6.29,6.29,0,0,1,516.76,471.8Zm0,10.91a4.45,4.45,0,1,0-4.24-4.44A4.19,4.19,0,0,0,516.76,482.71Z"/><path d="M536.51,472v13.12l-9.12-9v8.39h-2.07V471.39l9.12,9V472Z"/><path d="M541.41,472v12.49h-2.13V472Z"/><path d="M548.23,482.89a1.71,1.71,0,0,0,1.93-1.66c0-1.38-1.09-1.82-2.66-2.41-1.25-.45-3.33-1.32-3.33-3.66,0-2,1.68-3.36,3.93-3.36a4.58,4.58,0,0,1,4.2,2.66l-1.72,1a2.87,2.87,0,0,0-2.51-1.75c-1.16,0-1.7.64-1.7,1.34,0,1,.82,1.58,2.84,2.28,1.5.52,3.18,1.57,3.18,3.75a3.9,3.9,0,0,1-4.16,3.73,5.41,5.41,0,0,1-4.79-3.19l1.57-1.11C545.82,481.92,546.82,482.89,548.23,482.89Z"/><path d="M553.26,472H562V474h-3.31v10.55h-2.12V474h-3.29Z"/><path d="M568.78,481.3h-4.61l-1.43,3.21h-2.37l6.11-13.19,6.1,13.19h-2.37Zm-4-1.79h3.39l-1.69-4Z"/><path d="M578.06,482.89a1.7,1.7,0,0,0,1.93-1.66c0-1.38-1.09-1.82-2.66-2.41-1.25-.45-3.32-1.32-3.32-3.66,0-2,1.68-3.36,3.93-3.36a4.59,4.59,0,0,1,4.2,2.66l-1.72,1a2.89,2.89,0,0,0-2.52-1.75c-1.16,0-1.69.64-1.69,1.34,0,1,.82,1.58,2.84,2.28,1.5.52,3.17,1.57,3.17,3.75a3.89,3.89,0,0,1-4.16,3.73,5.39,5.39,0,0,1-4.78-3.19l1.57-1.11C575.66,481.92,576.65,482.89,578.06,482.89Z"/><rect class="cls-9" x="496.58" y="441.08" width="32.17" height="17.79"/><rect class="cls-10" x="491.22" y="461.54" width="42.9" height="1.34"/><rect class="cls-10" x="496.58" y="458.86" width="32.17" height="1.34"/><rect class="cls-10" x="501.94" y="456.18" width="21.45" height="1.34"/><rect class="cls-11" x="519.1" y="444.94" width="5" height="8.58"/><rect class="cls-12" x="519.82" y="445.65" width="3.57" height="7.15"/><rect class="cls-11" x="521.25" y="445.29" width="0.71" height="7.86"/><rect class="cls-11" x="501.23" y="444.94" width="5" height="8.58"/><rect class="cls-12" x="501.94" y="445.65" width="3.57" height="7.15"/><rect class="cls-11" x="503.37" y="445.29" width="0.71" height="7.86"/><rect class="cls-13" x="493.9" y="460.2" width="37.53" height="1.34"/><rect class="cls-13" x="499.26" y="457.52" width="26.81" height="1.34"/><rect class="cls-14" x="493.23" y="438.41" width="38.88" height="1.34"/><rect class="cls-13" x="491.22" y="439.75" width="42.9" height="1.34"/><polygon class="cls-14" points="512.66 422.02 491.22 433.74 493.01 436.42 512.66 423.34 532.32 436.42 534.12 433.74 512.66 422.02"/><polygon class="cls-13" points="512.66 419.99 491.22 433.74 491.22 435.75 512.66 422 534.12 435.75 534.12 433.74 512.66 419.99"/><polygon class="cls-13" points="512.66 423.34 491.22 437.09 491.22 438.43 534.12 438.43 534.12 437.09 512.66 423.34"/><polygon class="cls-10" points="512.66 425.33 494.85 437.09 530.48 437.09 512.66 425.33"/><path class="cls-1" d="M512.67,431a1.13,1.13,0,1,1,1.27-1.13h1.28a2.32,2.32,0,0,0-1.92-2.16v-.65H512v.65a2.32,2.32,0,0,0-1.92,2.16,2.42,2.42,0,0,0,2.56,2.25,1.13,1.13,0,1,1-1.28,1.12h-1.28a2.32,2.32,0,0,0,1.92,2.17v.64h1.27v-.64a2.32,2.32,0,0,0,1.92-2.17A2.41,2.41,0,0,0,512.67,431Z"/><rect class="cls-13" x="494.44" y="442.49" width="4.29" height="16.26"/><rect class="cls-14" x="493.9" y="458.75" width="5.36" height="1.45"/><rect class="cls-14" x="493.9" y="441.08" width="5.36" height="1.41"/><rect class="cls-15" x="494.86" y="443.14" width="0.51" height="15"/><rect class="cls-15" x="497.79" y="443.14" width="0.51" height="15"/><rect class="cls-15" x="496.81" y="443.14" width="0.51" height="15"/><rect class="cls-15" x="495.84" y="443.14" width="0.51" height="15"/><rect class="cls-13" x="526.61" y="442.49" width="4.29" height="16.26"/><rect class="cls-14" x="526.07" y="458.75" width="5.36" height="1.45"/><rect class="cls-14" x="526.07" y="441.08" width="5.36" height="1.41"/><rect class="cls-15" x="527.04" y="443.14" width="0.51" height="15"/><rect class="cls-15" x="529.96" y="443.14" width="0.51" height="15"/><rect class="cls-15" x="528.99" y="443.14" width="0.51" height="15"/><rect class="cls-15" x="528.01" y="443.14" width="0.51" height="15"/><path class="cls-11" d="M508.83,448.77v7h7.68v-7C516.51,443.61,508.83,443.69,508.83,448.77Z"/><path class="cls-5" d="M509.39,449.07v6.71h6.55v-6.71A3.29,3.29,0,1,0,509.39,449.07Z"/><path class="cls-16" d="M509.49,449.12v6.66h6.35v-6.66C515.84,444.39,509.49,444.46,509.49,449.12Z"/><rect class="cls-14" x="508.43" y="455.78" width="8.47" height="0.4"/><path class="cls-5" d="M513.09,449h2.2a2.59,2.59,0,0,0-2.2-2.62Z"/><path class="cls-5" d="M512.35,449v-2.61a2.6,2.6,0,0,0-2.21,2.61Z"/><path class="cls-11" d="M513,448.92h2.2a2.59,2.59,0,0,0-2.2-2.61Z"/><path class="cls-11" d="M512.29,448.92v-2.61a2.61,2.61,0,0,0-2.21,2.61Z"/><rect class="cls-5" x="513.09" y="449.69" width="2.21" height="2.18"/><rect class="cls-5" x="510.14" y="449.69" width="2.21" height="2.18"/><rect class="cls-11" x="513.03" y="449.64" width="2.21" height="2.18"/><rect class="cls-11" x="510.08" y="449.64" width="2.21" height="2.18"/><rect class="cls-5" x="513.09" y="452.8" width="2.21" height="2.18"/><rect class="cls-5" x="510.14" y="452.8" width="2.21" height="2.18"/><rect class="cls-11" x="513.03" y="452.76" width="2.21" height="2.18"/><rect class="cls-11" x="510.08" y="452.76" width="2.21" height="2.18"/><rect class="cls-13" x="514.71" y="450.6" width="0.93" height="1.85"/><rect class="cls-10" x="514.78" y="450.67" width="0.79" height="1.72"/><path class="cls-17" d="M515.31,452.24l-.06-.36a.11.11,0,0,0,.06-.1.13.13,0,0,0-.13-.14.14.14,0,0,0-.14.14.11.11,0,0,0,.06.1l-.06.36Z"/><path class="cls-14" d="M515.18,450.77a.38.38,0,1,1-.38.38A.38.38,0,0,1,515.18,450.77Z"/><path class="cls-13" d="M515.18,450.71a.38.38,0,1,1-.38.38A.38.38,0,0,1,515.18,450.71Z"/><path d="M498.16,172.33v1.9h-4.82v3.12H498v1.84h-4.64v5.64h-2.07v-12.5Z"/><path d="M506.39,181.62h-4.61l-1.42,3.21H498l6.11-13.19,6.1,13.19h-2.37Zm-4-1.79h3.39l-1.69-4Z"/><path d="M513.11,184.83h-2.18l1.71-13.12,5.12,8.48,5.15-8.48,1.71,13.12h-2.18l-.86-7.6-3.82,6.44-3.8-6.44Z"/><path d="M528.8,172.33v12.5h-2.12v-12.5Z"/><path d="M533.69,172.33v10.61h5v1.89h-7.07v-12.5Z"/><path d="M542.3,172.33v12.5h-2.13v-12.5Z"/><path d="M552.16,181.62h-4.61l-1.43,3.21h-2.37l6.1-13.19L556,184.83h-2.38Zm-4-1.79h3.39l-1.7-4Z"/><path d="M568.53,172.12a6.49,6.49,0,1,1-6.48,6.46A6.3,6.3,0,0,1,568.53,172.12Zm0,10.91a4.45,4.45,0,1,0-4.25-4.45A4.21,4.21,0,0,0,568.53,183Z"/><path d="M484.4,204.42a4.94,4.94,0,0,0,3.91-1.79v2.52a5.68,5.68,0,0,1-4,1.32,6.46,6.46,0,1,1,0-12.92,5.68,5.68,0,0,1,4,1.32v2.52a4.94,4.94,0,0,0-3.91-1.79,4.41,4.41,0,0,0,0,8.82Z"/><path d="M492.92,193.76v8.3a2.45,2.45,0,1,0,4.89,0v-8.3h2.11v8.39a4.56,4.56,0,0,1-9.11,0v-8.39Z"/><path d="M504.74,193.76v12.5h-2.12v-12.5Z"/><path d="M507.53,206.26v-12.5h4c3.82,0,6.43,2.48,6.43,6.25s-2.61,6.25-6.43,6.25Zm2.16-10.52v8.54h1.82a4.27,4.27,0,1,0,0-8.54Z"/><path d="M526.58,203H522l-1.43,3.22h-2.37l6.1-13.2,6.11,13.2H528Zm-4-1.78H526l-1.7-4Z"/><path d="M531.83,206.26v-12.5h4c3.82,0,6.43,2.48,6.43,6.25s-2.61,6.25-6.43,6.25ZM534,195.74v8.54h1.82a4.27,4.27,0,1,0,0-8.54Z"/><path d="M550.11,193.55a6.49,6.49,0,1,1-6.48,6.46A6.3,6.3,0,0,1,550.11,193.55Zm0,10.91a4.45,4.45,0,1,0-4.25-4.45A4.21,4.21,0,0,0,550.11,204.46Z"/><path d="M562.52,193.76c2.73,0,4.5,1.55,4.5,3.89a3.65,3.65,0,0,1-2.79,3.65l3.54,5h-2.55l-3.15-4.73h-1.3v4.73h-2.11v-12.5Zm-1.75,1.84v4.18h1.66c1.45,0,2.41-.75,2.41-2.09s-1-2.09-2.41-2.09Z"/><path d="M576.88,193.76v1.86h-5.54v3h5.18v1.82h-5.18v3.93h5.54v1.86h-7.61v-12.5Z"/><path d="M583.5,204.63a1.71,1.71,0,0,0,1.93-1.66c0-1.37-1.09-1.82-2.66-2.41-1.25-.44-3.32-1.32-3.32-3.66,0-2,1.68-3.35,3.93-3.35a4.55,4.55,0,0,1,4.19,2.66l-1.71,1a2.89,2.89,0,0,0-2.52-1.75c-1.16,0-1.7.64-1.7,1.34,0,1,.83,1.59,2.84,2.29,1.5.51,3.18,1.57,3.18,3.74a3.9,3.9,0,0,1-4.16,3.74,5.4,5.4,0,0,1-4.78-3.2l1.57-1.11C581.09,203.67,582.09,204.63,583.5,204.63Z"/><path class="cls-18" d="M521,122.54c-6.94,0-10.73,4.52-10.73,10.48v13.24h21.46V133c0-8.86-5.81-8.69-5.81-8.69S525.43,122.54,521,122.54Z"/><path class="cls-19" d="M531.68,146v19.46h21.43V146C553.11,141.85,531.68,141.85,531.68,146Z"/><path class="cls-20" d="M510.22,146v19.46h21.46V146C531.68,141.85,510.22,141.85,510.22,146Z"/><path class="cls-21" d="M513.39,138s-1.59-.41-1.59-2.77c0-1.86,1.2-2.19,1.2-2.19,4.31,0,11.33-5.59,11.33-5.59s2.65,4.94,5.21,5.59c0,0,1.24.23,1.24,2.19,0,2.36-1.66,2.77-1.66,2.77,0,3.56-4.88,7.14-7.83,7.14S513.39,141.57,513.39,138Z"/><path class="cls-22" d="M517.45,134a1.61,1.61,0,1,1-1.61,1.61A1.61,1.61,0,0,1,517.45,134Z"/><circle class="cls-22" cx="525.13" cy="135.63" r="1.61"/><path class="cls-22" d="M523.86,140.52a3.91,3.91,0,0,1-5.14,0c-.2-.16-.38.11-.24.36a3.14,3.14,0,0,0,5.62,0C524.24,140.63,524.06,140.37,523.86,140.52Z"/><path class="cls-18" d="M531.59,133.49l1.08,2h18.75l.82-2.1c0-7.55-1.76-10.75-10.11-10.82S531.59,125.81,531.59,133.49Z"/><path class="cls-21" d="M551.46,133.36a4.06,4.06,0,0,1-.28,1.08,1.83,1.83,0,0,1-.67.65,12.15,12.15,0,0,0,.07-2c-.46-7-.87-3.62-8.54-3.62s-8.06-3.33-8.54,3.61a12.93,12.93,0,0,0,.08,2,1.83,1.83,0,0,1-.67-.65,4.06,4.06,0,0,1-.28-1.08c-.72-.19-1.66,0-1.66,2.06,0,1.3.48,2.36,2.09,2.48.56,4.35,6.38,7.25,9,7.25s8.43-2.9,9-7.25c1.61-.12,2.08-1.18,2.08-2.48C553.11,133.33,552.18,133.17,551.46,133.36Z"/><path class="cls-22" d="M538.11,134a1.61,1.61,0,1,1-1.61,1.61A1.61,1.61,0,0,1,538.11,134Z"/><circle class="cls-22" cx="545.98" cy="135.63" r="1.61"/><path class="cls-22" d="M544.61,140.52a3.91,3.91,0,0,1-5.14,0c-.19-.16-.37.11-.24.36a3.15,3.15,0,0,0,5.63,0C545,140.63,544.81,140.37,544.61,140.52Z"/><path class="cls-23" d="M540.63,165.43H522.71C522.71,159.4,540.63,159.4,540.63,165.43Z"/><path class="cls-18" d="M531.67,146.83c-4.83,0-7.8,2.71-7.8,6.07v2.25c0,2.66,2.1,2.66,2.1,2.66h11.7s1.79,0,1.79-2.66V152.9C539.46,149.54,536.33,146.83,531.67,146.83Z"/><path class="cls-21" d="M524.61,155.75l.29-3.2c0-2,3.21-.41,6.77-.41s6.77-1.63,6.77.41l.28,3.2a1.26,1.26,0,0,1,0,2.52c0,3.12-4.19,5-7.05,5s-7.06-1.89-7.06-5A1.26,1.26,0,0,1,524.61,155.75Z"/><path class="cls-22" d="M528.25,155.45A1.25,1.25,0,1,1,527,156.7,1.25,1.25,0,0,1,528.25,155.45Z"/><circle class="cls-22" cx="535.09" cy="156.7" r="1.25"/><path class="cls-22" d="M529.42,160a3.56,3.56,0,0,0,4.5,0c.17-.13.33.09.21.3a2.81,2.81,0,0,1-4.92,0C529.09,160.06,529.24,159.84,529.42,160Z"/><path d="M621.08,334.13H618.9L620.67,321l5.09,8.5,5.17-8.46,1.67,13.13h-2.18l-.83-7.61L625.75,333,622,326.53Z"/><path d="M642.31,321.72v1.86l-5.53,0,0,3,5.18,0v1.82l-5.17,0,0,3.93,5.54,0v1.86l-7.61,0,.05-12.5Zm-4.5-1.36-1.08-.63,2.69-2.84,1.62.81Z"/><path d="M644.85,334.23l0-12.5,4,0c3.82,0,6.42,2.5,6.4,6.27s-2.63,6.24-6.45,6.22Zm2.2-10.51,0,8.54h1.82a4.27,4.27,0,1,0,0-8.53Z"/><path d="M659.54,321.79l0,12.5h-2.12l0-12.5Z"/><path d="M668.12,332.48a4.92,4.92,0,0,0,3.92-1.77v2.52a5.75,5.75,0,0,1-4,1.31,6.47,6.47,0,1,1,.05-12.93,5.72,5.72,0,0,1,4,1.34v2.51a5,5,0,0,0-3.9-1.8,4.41,4.41,0,0,0,0,8.82Z"/><path d="M680.43,321.66a6.49,6.49,0,1,1-6.51,6.44A6.29,6.29,0,0,1,680.43,321.66Zm0,10.91a4.45,4.45,0,1,0-4.23-4.46A4.2,4.2,0,0,0,680.39,332.57Z"/><path d="M693,332.8a1.71,1.71,0,0,0,1.93-1.66c0-1.37-1.08-1.82-2.65-2.42-1.25-.45-3.31-1.33-3.3-3.67,0-2,1.69-3.35,3.94-3.34a4.57,4.57,0,0,1,4.18,2.68l-1.72.95a2.89,2.89,0,0,0-2.51-1.76c-1.16,0-1.7.64-1.7,1.34,0,1,.82,1.59,2.83,2.29,1.5.53,3.17,1.59,3.16,3.76a3.9,3.9,0,0,1-4.17,3.72,5.38,5.38,0,0,1-4.77-3.22l1.57-1.1C690.57,331.82,691.57,332.79,693,332.8Z"/><path class="cls-24" d="M639.5,298.53h37.18c0-20-2.86-24.31-18.59-24.31S639.5,278.51,639.5,298.53Z"/><path class="cls-25" d="M675.11,294.16a6.51,6.51,0,0,1-.5,1.92,3.23,3.23,0,0,1-1.21,1.16,21.73,21.73,0,0,0,.14-3.6c-.85-12.38-1.59-9-15.45-9s-14.59-3.39-15.44,9a22,22,0,0,0,.14,3.62,3.16,3.16,0,0,1-1.21-1.16,6.47,6.47,0,0,1-.51-1.92c-1.31-.34-3-.05-3,3.66,0,2.32.87,4.21,3.77,4.42,1,7.27,5.19,11,12.32,14.22a12.06,12.06,0,0,0,7.87,0c7.12-3.2,11.36-6.95,12.32-14.22,2.9-.21,3.76-2.1,3.76-4.42C678.11,294.11,676.42,293.82,675.11,294.16Z"/><path class="cls-7" d="M664.53,307.72c0,2.46-3.22,3.68-6.44,3.68s-6.43-1.22-6.43-3.68a.61.61,0,0,1,.64-.61h11.58A.61.61,0,0,1,664.53,307.72Z"/><path class="cls-26" d="M649.51,293.22c-3.57,0-5,1.29-5,2.58s0,3.14,4.72,3.14c4.57,0,5.29-.56,5.29-2.5C654.52,295.15,653.09,293.22,649.51,293.22Z"/><path class="cls-7" d="M649.87,292.19a3.22,3.22,0,1,1-3.22,3.22A3.22,3.22,0,0,1,649.87,292.19Z"/><path class="cls-8" d="M650.94,295.41a1.07,1.07,0,1,1-1.07-1.07A1.07,1.07,0,0,1,650.94,295.41Z"/><path class="cls-7" d="M644.51,295.77c0-5,10-5,10,.71C653.09,292.19,645.94,292.19,644.51,295.77Z"/><path class="cls-26" d="M666.67,293.22c3.58,0,5,1.29,5,2.58s0,3.14-4.73,3.14c-4.57,0-5.28-.56-5.28-2.5C661.67,295.15,663.1,293.22,666.67,293.22Z"/><path class="cls-7" d="M666.32,292.19a3.22,3.22,0,1,1-3.22,3.22A3.22,3.22,0,0,1,666.32,292.19Z"/><path class="cls-8" d="M665.24,295.41a1.08,1.08,0,0,0,2.15,0,1.08,1.08,0,0,0-2.15,0Z"/><path class="cls-7" d="M671.68,295.77c0-5-10-5-10,.71C663.1,292.19,670.25,292.19,671.68,295.77Z"/><path class="cls-27" d="M658.09,305c-3,0-4.48-2.15-3-2.15h6C662.57,302.82,661.08,305,658.09,305Z"/><path d="M326.1,271.66c2.06,0,3.38,1.14,3.38,2.95s-1.32,2.93-3.38,2.93h-1.26v3.58h-1.59v-9.46Zm-1.26,1.41v3.06h1.26c1.09,0,1.82-.51,1.82-1.52s-.73-1.54-1.82-1.54Z"/><path d="M334,271.66c2.06,0,3.4,1.18,3.4,2.95a2.76,2.76,0,0,1-2.11,2.75l2.68,3.76H336l-2.37-3.58h-1v3.58h-1.59v-9.46Zm-1.33,1.39v3.16h1.26c1.09,0,1.82-.56,1.82-1.58s-.73-1.58-1.82-1.58Z"/><path d="M343.43,271.5a4.91,4.91,0,1,1-4.9,4.89A4.76,4.76,0,0,1,343.43,271.5Zm0,8.25a3.36,3.36,0,1,0-3.21-3.36A3.17,3.17,0,0,0,343.43,279.75Z"/><path d="M355.11,271.66v1.43h-3.65v2.37H355v1.39h-3.51v4.27h-1.57v-9.46Z"/><path d="M362.68,271.66v1.41h-4.19v2.29h3.92v1.38h-3.92v3h4.19v1.41h-5.75v-9.46Z"/><path d="M367.69,279.89a1.29,1.29,0,0,0,1.46-1.26c0-1-.83-1.38-2-1.82-.94-.34-2.51-1-2.51-2.77a2.68,2.68,0,0,1,3-2.54,3.47,3.47,0,0,1,3.18,2l-1.3.73a2.17,2.17,0,0,0-1.9-1.32c-.88,0-1.29.49-1.29,1,0,.74.62,1.2,2.15,1.73a3,3,0,0,1,2.4,2.84,2.94,2.94,0,0,1-3.14,2.82,4.09,4.09,0,0,1-3.62-2.42l1.19-.84A2.87,2.87,0,0,0,367.69,279.89Z"/><path d="M376.8,271.5a4.91,4.91,0,1,1-4.9,4.89A4.77,4.77,0,0,1,376.8,271.5Zm0,8.25a3.36,3.36,0,1,0-3.21-3.36A3.17,3.17,0,0,0,376.8,279.75Z"/><path d="M386.18,271.66c2.07,0,3.41,1.18,3.41,2.95a2.76,2.76,0,0,1-2.11,2.75l2.67,3.76h-1.93l-2.37-3.58h-1v3.58h-1.59v-9.46Zm-1.32,1.39v3.16h1.26c1.09,0,1.82-.56,1.82-1.58s-.73-1.58-1.82-1.58Z"/><path d="M397,271.66v1.41h-4.19v2.29h3.92v1.38h-3.92v3H397v1.41h-5.76v-9.46Z"/><path d="M402,279.89a1.29,1.29,0,0,0,1.46-1.26c0-1-.82-1.38-2-1.82-.94-.34-2.51-1-2.51-2.77a2.68,2.68,0,0,1,3-2.54,3.46,3.46,0,0,1,3.17,2l-1.29.73a2.18,2.18,0,0,0-1.91-1.32c-.87,0-1.28.49-1.28,1,0,.74.62,1.2,2.15,1.73a3.06,3.06,0,0,1,2.4,2.84,3,3,0,0,1-3.15,2.82,4.06,4.06,0,0,1-3.61-2.42l1.18-.84A2.89,2.89,0,0,0,402,279.89Z"/><path d="M318.14,297.32v-9.46h3.05a4.73,4.73,0,1,1,0,9.46Zm1.63-8v6.46h1.38a3.23,3.23,0,1,0,0-6.46Z"/><path d="M333.35,287.86v1.41h-4.18v2.29h3.91v1.38h-3.91v3h4.18v1.41H327.6v-9.46Z"/><path d="M336.9,287.86v8h3.76v1.44h-5.35v-9.46Z"/><path d="M350.27,295.93a3.75,3.75,0,0,0,3-1.35v1.9a4.28,4.28,0,0,1-3,1,4.89,4.89,0,1,1,0-9.78,4.28,4.28,0,0,1,3,1v1.9a3.72,3.72,0,0,0-3-1.35,3.34,3.34,0,0,0,0,6.68Z"/><path d="M356.71,287.86v6.28a1.85,1.85,0,1,0,3.7,0v-6.28H362v6.35a3.45,3.45,0,0,1-6.89,0v-6.35Z"/><path d="M367,287.86c2.07,0,3.41,1.18,3.41,2.95a2.76,2.76,0,0,1-2.11,2.75l2.67,3.76H369l-2.37-3.58h-1v3.58H364v-9.46Zm-1.32,1.39v3.16h1.26c1.09,0,1.82-.56,1.82-1.58s-.73-1.58-1.82-1.58Z"/><path d="M375.11,296.09a1.29,1.29,0,0,0,1.45-1.26c0-1-.82-1.38-2-1.82-.94-.34-2.51-1-2.51-2.77a2.68,2.68,0,0,1,3-2.54,3.47,3.47,0,0,1,3.18,2l-1.3.73a2.18,2.18,0,0,0-1.91-1.32c-.87,0-1.28.49-1.28,1,0,.75.62,1.2,2.15,1.73a3.06,3.06,0,0,1,2.4,2.84,3,3,0,0,1-3.14,2.82,4.08,4.08,0,0,1-3.62-2.42l1.19-.84A2.86,2.86,0,0,0,375.11,296.09Z"/><path d="M384.22,287.7a4.91,4.91,0,1,1-4.9,4.89A4.76,4.76,0,0,1,384.22,287.7Zm0,8.25a3.36,3.36,0,1,0-3.21-3.36A3.17,3.17,0,0,0,384.22,296Z"/><path d="M394.73,297.32v-9.46h3.06a4.73,4.73,0,1,1,0,9.46Zm1.64-8v6.46h1.38a3.23,3.23,0,1,0,0-6.46Z"/><path d="M410,287.86v1.41h-4.19v2.29h3.92v1.38h-3.92v3H410v1.41H404.2v-9.46Z"/><path d="M330,304.06c2.07,0,3.39,1.14,3.39,2.95s-1.32,2.93-3.39,2.93h-1.26v3.58h-1.59v-9.46Zm-1.26,1.41v3.06H330c1.09,0,1.82-.51,1.82-1.52s-.73-1.54-1.82-1.54Z"/><path d="M337.88,304.06c2.07,0,3.4,1.18,3.4,2.95a2.75,2.75,0,0,1-2.1,2.75l2.67,3.76h-1.93l-2.38-3.58h-1v3.58H335v-9.46Zm-1.32,1.4v3.15h1.25c1.1,0,1.83-.56,1.83-1.57s-.73-1.58-1.83-1.58Z"/><path d="M347.34,303.9a4.91,4.91,0,1,1-4.9,4.89A4.76,4.76,0,0,1,347.34,303.9Zm0,8.25a3.36,3.36,0,1,0-3.21-3.36A3.18,3.18,0,0,0,347.34,312.15Z"/><path d="M360.43,304.06l-3.2,5.47v4h-1.64v-4l-3.2-5.49h1.82l2.19,4.06,2.2-4.06Z"/><path d="M367.26,304.06v1.41h-4.19v2.29H367v1.38h-3.92v3h4.19v1.41H361.5v-9.46Z"/><path d="M373.63,312.13a3.77,3.77,0,0,0,3-1.35v1.9a4.33,4.33,0,0,1-3,1,4.89,4.89,0,1,1,0-9.78,4.33,4.33,0,0,1,3,1v1.9a3.77,3.77,0,0,0-3-1.34,3.34,3.34,0,0,0,0,6.67Z"/><path d="M377.19,304.06h6.59v1.48h-2.5v8h-1.6v-8h-2.49Z"/><path d="M388.61,303.9a4.91,4.91,0,1,1-4.9,4.89A4.76,4.76,0,0,1,388.61,303.9Zm0,8.25a3.36,3.36,0,1,0-3.21-3.36A3.18,3.18,0,0,0,388.61,312.15Z"/><path d="M398.13,312.29a1.29,1.29,0,0,0,1.46-1.26c0-1-.83-1.38-2-1.82-.95-.34-2.52-1-2.52-2.77,0-1.51,1.27-2.54,3-2.54a3.47,3.47,0,0,1,3.17,2l-1.3.73a2.17,2.17,0,0,0-1.9-1.32c-.88,0-1.28.49-1.28,1,0,.75.62,1.2,2.14,1.73a3.06,3.06,0,0,1,2.41,2.84,3,3,0,0,1-3.15,2.82,4.09,4.09,0,0,1-3.62-2.42l1.19-.84A2.87,2.87,0,0,0,398.13,312.29Z"/><path d="M318.06,329.72v-9.46h3.05a4.73,4.73,0,1,1,0,9.46Zm1.63-8v6.46h1.38a3.23,3.23,0,1,0,0-6.46Z"/><path d="M333.27,320.26v1.41h-4.19V324H333v1.38h-3.92v3h4.19v1.41h-5.75v-9.46Z"/><path d="M342.29,329.72h-3v-9.46h2.85c1.79,0,3,.77,3,2.38a2,2,0,0,1-1.47,2,2.4,2.4,0,0,1,2,2.39C345.69,328.87,344.27,329.72,342.29,329.72Zm-1.42-8.15v2.49H342c.88,0,1.5-.46,1.5-1.24s-.62-1.25-1.5-1.25Zm1.32,6.84c1.08,0,1.87-.53,1.87-1.58s-.79-1.53-1.87-1.53h-1.32v3.11Z"/><path d="M349,320.26v9.46h-1.6v-9.46Z"/><path d="M355.45,320.1a4.91,4.91,0,1,1-4.9,4.89A4.77,4.77,0,0,1,355.45,320.1Zm0,8.25a3.36,3.36,0,1,0-3.21-3.36A3.18,3.18,0,0,0,355.45,328.35Z"/><path d="M361.92,329.72v-9.46H365a4.73,4.73,0,1,1,0,9.46Zm1.63-8v6.46h1.38a3.23,3.23,0,1,0,0-6.46Z"/><path d="M373,320.26v9.46h-1.61v-9.46Z"/><path d="M378.14,328.49a1.29,1.29,0,0,0,1.46-1.26c0-1-.82-1.38-2-1.82-.94-.34-2.51-1-2.51-2.77a2.68,2.68,0,0,1,3-2.54,3.46,3.46,0,0,1,3.17,2l-1.29.73a2.19,2.19,0,0,0-1.91-1.32c-.88,0-1.28.48-1.28,1,0,.74.62,1.2,2.15,1.73a3.06,3.06,0,0,1,2.4,2.84,3,3,0,0,1-3.15,2.82,4.09,4.09,0,0,1-3.62-2.42l1.19-.84A2.89,2.89,0,0,0,378.14,328.49Z"/><path d="M388.65,320.26v1.41h-4.19V324h3.92v1.38h-3.92v3h4.19v1.41h-5.76v-9.46Z"/><path d="M399.07,320.26v9.93l-6.9-6.82v6.35H390.6v-9.93l6.9,6.82v-6.35Zm-5.36-2.64c.88,0,1,.66,1.74.66.28,0,.54-.24.81-.68l.76.76a1.85,1.85,0,0,1-1.6,1.05c-.74,0-1.09-.66-1.72-.66a.67.67,0,0,0-.67.69l-.82-.64A1.55,1.55,0,0,1,393.71,317.62Z"/><path d="M405.52,320.1a4.91,4.91,0,1,1-4.9,4.89A4.77,4.77,0,0,1,405.52,320.1Zm0,8.25a3.36,3.36,0,1,0-3.21-3.36A3.18,3.18,0,0,0,405.52,328.35Z"/><path class="cls-28" d="M364.68,222.85a.72.72,0,1,1-1.43,0v-7.74a.72.72,0,1,1,1.43,0Z"/><rect class="cls-29" x="343.95" y="234.41" width="40.04" height="22.88"/><path class="cls-30" d="M384.36,228.54a2.61,2.61,0,0,0-2.12-1.28H345.69a2.63,2.63,0,0,0-2.12,1.28l-2.34,4.59a.81.81,0,0,0,.8,1.28H385.9c.8,0,1.17-.58.81-1.28Z"/><rect class="cls-31" x="346.09" y="242.99" width="5.72" height="4.29" rx="0.71"/><rect class="cls-31" x="346.09" y="235.84" width="5.72" height="4.29" rx="0.71"/><path class="cls-24" d="M346.81,236.2a.36.36,0,0,0-.36.35v2.86a.36.36,0,0,0,.36.36h4.29a.36.36,0,0,0,.35-.36v-2.86a.35.35,0,0,0-.35-.35Zm4.29,4.29h-4.29a1.08,1.08,0,0,1-1.07-1.08v-2.86a1.07,1.07,0,0,1,1.07-1.07h4.29a1.07,1.07,0,0,1,1.07,1.07v2.86A1.08,1.08,0,0,1,351.1,240.49Z"/><rect class="cls-24" x="348.59" y="235.84" width="0.71" height="4.29"/><path class="cls-24" d="M346.81,243.7a.36.36,0,0,0-.36.36v2.86a.36.36,0,0,0,.36.36h4.29a.36.36,0,0,0,.35-.36v-2.86a.36.36,0,0,0-.35-.36ZM351.1,248h-4.29a1.07,1.07,0,0,1-1.07-1.07v-2.86a1.07,1.07,0,0,1,1.07-1.07h4.29a1.07,1.07,0,0,1,1.07,1.07v2.86A1.07,1.07,0,0,1,351.1,248Z"/><rect class="cls-24" x="348.59" y="243.35" width="0.71" height="4.29"/><rect class="cls-31" x="346.09" y="250.14" width="5.72" height="4.29" rx="0.71"/><path class="cls-24" d="M346.81,250.85a.36.36,0,0,0-.36.36v2.86a.36.36,0,0,0,.36.36h4.29a.36.36,0,0,0,.35-.36v-2.86a.36.36,0,0,0-.35-.36Zm4.29,4.29h-4.29a1.07,1.07,0,0,1-1.07-1.07v-2.86a1.07,1.07,0,0,1,1.07-1.07h4.29a1.07,1.07,0,0,1,1.07,1.07v2.86A1.07,1.07,0,0,1,351.1,255.14Z"/><rect class="cls-24" x="348.59" y="250.5" width="0.71" height="4.29"/><rect class="cls-31" x="376.12" y="242.99" width="5.72" height="4.29" rx="0.71"/><rect class="cls-31" x="376.12" y="235.84" width="5.72" height="4.29" rx="0.71"/><path class="cls-24" d="M376.84,236.2a.36.36,0,0,0-.36.35v2.86a.36.36,0,0,0,.36.36h4.28a.36.36,0,0,0,.36-.36v-2.86a.36.36,0,0,0-.36-.35Zm4.28,4.29h-4.28a1.08,1.08,0,0,1-1.08-1.08v-2.86a1.07,1.07,0,0,1,1.08-1.07h4.28a1.07,1.07,0,0,1,1.08,1.07v2.86A1.08,1.08,0,0,1,381.12,240.49Z"/><rect class="cls-24" x="378.62" y="235.84" width="0.71" height="4.29"/><path class="cls-24" d="M376.84,243.7a.36.36,0,0,0-.36.36v2.86a.36.36,0,0,0,.36.36h4.28a.36.36,0,0,0,.36-.36v-2.86a.36.36,0,0,0-.36-.36Zm4.28,4.29h-4.28a1.07,1.07,0,0,1-1.08-1.07v-2.86a1.07,1.07,0,0,1,1.08-1.07h4.28a1.07,1.07,0,0,1,1.08,1.07v2.86A1.07,1.07,0,0,1,381.12,248Z"/><rect class="cls-24" x="378.62" y="243.35" width="0.71" height="4.29"/><rect class="cls-31" x="376.12" y="250.14" width="5.72" height="4.29" rx="0.71"/><path class="cls-24" d="M376.84,250.85a.36.36,0,0,0-.36.36v2.86a.36.36,0,0,0,.36.36h4.28a.36.36,0,0,0,.36-.36v-2.86a.36.36,0,0,0-.36-.36Zm4.28,4.29h-4.28a1.07,1.07,0,0,1-1.08-1.07v-2.86a1.07,1.07,0,0,1,1.08-1.07h4.28a1.07,1.07,0,0,1,1.08,1.07v2.86A1.07,1.07,0,0,1,381.12,255.14Z"/><rect class="cls-24" x="378.62" y="250.5" width="0.71" height="4.29"/><path class="cls-32" d="M364.52,222.7a1,1,0,0,0-1.11,0L349.51,234c-.31.25-.24.45.16.45h28.6c.39,0,.46-.2.15-.45Z"/><path class="cls-33" d="M375.57,234l-11.05-9.1a.92.92,0,0,0-1.11,0L352.36,234c-.3.25-.23.46.17.46H354v22.88h20V234.41h1.43C375.8,234.41,375.87,234.2,375.57,234Z"/><rect class="cls-29" x="358.25" y="246.56" width="11.44" height="10.72"/><rect class="cls-34" x="359.68" y="246.56" width="8.58" height="10.72"/><path class="cls-11" d="M355.53,241.58a1.91,1.91,0,0,0,.78.18c.33,0,.5-.12.5-.3s-.15-.28-.52-.39c-.52-.17-.86-.42-.86-.82s.44-.84,1.18-.84a2.26,2.26,0,0,1,.8.14l-.16.51a1.56,1.56,0,0,0-.65-.13c-.31,0-.46.12-.46.26s.18.26.58.39.81.44.81.83-.4.86-1.26.86a2.13,2.13,0,0,1-.88-.17Z"/><path class="cls-11" d="M360.3,242.15a2.17,2.17,0,0,1-.8.12c-1.08,0-1.64-.6-1.64-1.39a1.52,1.52,0,0,1,1.71-1.47,2,2,0,0,1,.77.13l-.15.49a1.75,1.75,0,0,0-.59-.1.91.91,0,1,0,0,1.82,1.93,1.93,0,0,0,.59-.09Z"/><polygon class="cls-11" points="361.47 239.46 361.47 240.52 362.63 240.52 362.63 239.46 363.34 239.46 363.34 242.23 362.63 242.23 362.63 241.07 361.47 241.07 361.47 242.23 360.76 242.23 360.76 239.46 361.47 239.46 361.47 239.46"/><path class="cls-11" d="M364.56,240.85c0,.54.28.93.76.93s.75-.41.75-.94-.27-.93-.76-.93S364.56,240.31,364.56,240.85Zm2.25,0a1.4,1.4,0,0,1-1.53,1.45,1.37,1.37,0,0,1-1.47-1.41,1.42,1.42,0,0,1,1.52-1.45A1.37,1.37,0,0,1,366.81,240.82Z"/><path class="cls-11" d="M367.88,240.85c0,.54.28.93.76.93s.75-.41.75-.94-.27-.93-.76-.93S367.88,240.31,367.88,240.85Zm2.25,0a1.4,1.4,0,0,1-1.53,1.45,1.37,1.37,0,0,1-1.47-1.41,1.42,1.42,0,0,1,1.52-1.45A1.37,1.37,0,0,1,370.13,240.82Z"/><polygon class="cls-11" points="370.6 239.46 371.3 239.46 371.3 241.7 372.55 241.7 372.55 242.23 370.6 242.23 370.6 239.46"/><circle class="cls-24" cx="363.97" cy="232.98" r="5" transform="translate(35.51 513.81) rotate(-73.15)"/><circle class="cls-1" cx="363.97" cy="232.98" r="3.57" transform="translate(35.51 513.81) rotate(-73.15)"/><rect class="cls-29" x="363.61" y="246.56" width="0.71" height="10.72"/><path class="cls-28" d="M364,230.12a.71.71,0,0,0-.72.71v2.86a.72.72,0,1,0,1.43,0v-2.86A.71.71,0,0,0,364,230.12Z"/><path class="cls-32" d="M364,233h-1.43a.72.72,0,1,0,0,1.43H364a.72.72,0,0,0,0-1.43Z"/><path class="cls-12" d="M364.68,215.82v5.27c2.86,2.28,5.72-4.92,8.58-2.64C370.4,214.42,367.54,219.86,364.68,215.82Z"/><path class="cls-32" d="M364.64,243.2a1.19,1.19,0,0,0-1.35,0c-1.56,1.11-6.47,4.07-6.47,4.07v1.44h14.3v-1.44S366.2,244.31,364.64,243.2Z"/><rect class="cls-35" x="341.09" y="257.29" width="45.76" height="2.86" rx="0.71"/><rect class="cls-36" x="355.39" y="258.72" width="17.16" height="1.43"/><rect class="cls-37" x="356.82" y="257.29" width="14.3" height="1.43"/><rect class="cls-35" x="361.87" y="252.64" width="1.03" height="0.52"/><rect class="cls-35" x="365.04" y="252.64" width="1.03" height="0.52"/><path d="M287.77,493.35a7,7,0,1,1-7,7A6.81,6.81,0,0,1,287.77,493.35Zm0,11.78a4.8,4.8,0,1,0-4.57-4.82A4.54,4.54,0,0,0,287.73,505.13Z"/><path d="M298.53,507.11h-2.35l1.9-14.16,5.5,9.18,5.58-9.14,1.8,14.17h-2.35l-.9-8.21-4.14,6.94-4.08-7Z"/><path d="M317.53,505.42a1.84,1.84,0,0,0,2.09-1.79c0-1.48-1.17-2-2.86-2.61-1.35-.48-3.58-1.44-3.57-4,0-2.16,1.82-3.62,4.25-3.61a4.94,4.94,0,0,1,4.52,2.89l-1.86,1a3.12,3.12,0,0,0-2.71-1.9c-1.25,0-1.83.69-1.83,1.44,0,1.06.88,1.72,3.05,2.48,1.62.56,3.43,1.71,3.42,4.06a4.21,4.21,0,0,1-4.5,4,5.83,5.83,0,0,1-5.16-3.47l1.7-1.18C314.94,504.37,316,505.41,317.53,505.42Z"/><path class="cls-38" d="M296.54,485.12c-.24-.16-.53-.08-.82-.19a14.68,14.68,0,0,1,4.26-3.34,6.2,6.2,0,0,0-1.7.14c-1.26.25-2.46.7-3.69,1a13.06,13.06,0,0,1-6.36.33,7.83,7.83,0,0,1-3.4-1.68l-.09-.12c.41.11.75.26,1.12.34a9.28,9.28,0,0,0,3.71-.15c1.41-.29,2.77-.74,4.18-1a14.13,14.13,0,0,1,7.16.28,1.52,1.52,0,0,0,1,0,12.59,12.59,0,0,1,5.35-.53,37.87,37.87,0,0,1,5.39,1.1,11.7,11.7,0,0,0,3.22.4,6.54,6.54,0,0,0,1.91-.37c.07,0,.13-.05.12.07a8,8,0,0,1-4.46,1.83,15.49,15.49,0,0,1-6.47-.88,14.86,14.86,0,0,0-3.3-.8,5.28,5.28,0,0,0-.8,0,15.29,15.29,0,0,1,4.19,3.32c-.29.15-.61,0-.87.21h-.43a.75.75,0,0,1-.22-.25,7.1,7.1,0,0,0-3.38-2.83,2.12,2.12,0,0,0-1.81.1,7,7,0,0,0-3.14,2.7c-.07.1-.12.22-.24.28Z"/><path class="cls-38" d="M275.79,463.46a14.15,14.15,0,0,0,3.14,4,16,16,0,0,1,2.38,3.22c.06,0,0-.11,0-.17s0-.14,0-.21a9.08,9.08,0,0,1,.32-5,10,10,0,0,0,.53-2.1,7,7,0,0,1,.48,1.6,10.4,10.4,0,0,1,0,3.52,11.61,11.61,0,0,0,.22,4.93,17.4,17.4,0,0,0-3-2.23,9.13,9.13,0,0,1-3.32-3.88,9.46,9.46,0,0,1-.64-2.4c0-.07,0-.15-.07-.18Z"/><path class="cls-38" d="M305.25,456.36c0-.14.11-.18.2-.24s.22-.08.08-.22a0,0,0,0,1,0-.07c.08-.14.6-.23.7-.12s.28.18.45,0c.53-.56,1.09-1.09,1.63-1.64.08-.08.25-.15.09-.31a.17.17,0,0,1,0-.11l.46-.88.29.49c.19-.21.35-.4.53-.58s0-.19,0-.28-.14-.18,0-.2.18-.13.07-.25a2,2,0,0,1-.63-1.53,3.53,3.53,0,0,0-.61-1.89c0-.08-.18-.21-.1-.25s.28-.27.45-.18a5.75,5.75,0,0,1,1.79,1.12,1.84,1.84,0,0,1,.35,1c0,.19.06.18.19.2s.4,0,.35.33c.11,0,.16-.09.22-.15l1.51-1.51c.12-.11.14-.17,0-.3a16.9,16.9,0,0,0-9.18-4.55l-.73-.11c-.12,0-.31,0-.22-.2s-.08-.43.3-.39a17,17,0,0,1,5.46,1.55,17.34,17.34,0,0,1,10,13.36,17.73,17.73,0,0,1-33.33,10.79,17.78,17.78,0,0,1,12.65-25.53c.37-.07.75-.11,1.12-.16s.2.27.27.42-.09.15-.18.16a17,17,0,0,0-8.81,3.71c-.36.29-.7.61-1.05.92-.11.09-.12.15,0,.26q.88.87,1.77,1.77c.12.13.19.1.31,0a14.19,14.19,0,0,1,2.45-1.85c.09-.05.16-.14.3-.1-.35.49-.53,1.07-1.11,1.38a6.76,6.76,0,0,0-1.23,1c-.13.11-.14.18,0,.31.35.32.68.66,1,1-.46.27-.61.25-.93-.08-.17-.16-.35-.32-.5-.49s-.2-.13-.33,0a13.76,13.76,0,0,0-2.88,4.89,13.56,13.56,0,0,0-.71,3.88c0,.2,0,.3.26.29h2.41c.2,0,.23-.07.24-.24a10.62,10.62,0,0,1,2.72-6.75c.1-.11.18-.18,0-.35s.07-.38.17-.52.19.05.24.11.23.06.33,0a10.64,10.64,0,0,1,5.43-2.65c.1,0,.28-.16.28.09s.16.43-.2.49a10.08,10.08,0,0,0-5,2.38c-.32.27-.32.27,0,.57l1.62,1.62c.1.1.13.16,0,.3a4.26,4.26,0,0,0,1.53,6.22,2,2,0,0,1,1,.87c0,.07.12.27.24.1.27-.38.57-.23.89-.08a2,2,0,0,1-.4.43c-.11.11-.14.19,0,.27l.1.06c.44.27.44.27.4.84a2.89,2.89,0,0,1-.91-.46c-.14-.12-.23-.1-.35,0-.57.58-1.15,1.15-1.73,1.72-.15.14-.12.21,0,.32a6.42,6.42,0,0,0,1.09.72c.38.18,0,.38,0,.54s-.2,0-.27,0a5.72,5.72,0,0,1-1.24-.83c-.13-.12-.22-.15-.36,0-.56.58-1.13,1.15-1.7,1.7-.15.15-.15.22,0,.35a10.12,10.12,0,0,0,5,2.38.84.84,0,0,0,.27,0c.29,0,.37.11.36.4s-.13.24-.3.22a11.74,11.74,0,0,1-2.73-.74,10.45,10.45,0,0,1-2.09-1.17c-.15-.11-.23-.11-.26.07s-.2.28-.41.25-.22,0-.33,0a.63.63,0,0,0-.7.28c-.15.22-.38.11-.57.09a1,1,0,0,0-.8.46c-.05.12.08.17.14.23a13.71,13.71,0,0,0,3.8,2.44,13.16,13.16,0,0,0,4.09,1c.39,0,.18.32.2.48s-.16.12-.26.11a14.1,14.1,0,0,1-8.28-3.67c-.14-.13-.21-.12-.34,0l-1.7,1.7c-.15.14-.15.22,0,.35a16.67,16.67,0,0,0,8.39,4.26,16.94,16.94,0,0,0,14.91-4.25c.18-.17.21-.25,0-.44-.56-.54-1.11-1.1-1.66-1.66-.13-.14-.21-.14-.35,0a14,14,0,0,1-6.71,3.47,16.82,16.82,0,0,1-1.71.26c-.1,0-.29.09-.25-.13s-.17-.44.2-.47a12.12,12.12,0,0,0,1.9-.3.74.74,0,0,0,.68-.79,3.85,3.85,0,0,0-2.24-4.07.62.62,0,0,1-.42-.73,4.5,4.5,0,0,0,0-.82c0-.24.09-.31.29-.37a10.17,10.17,0,0,0,1.52-.54,3.19,3.19,0,0,0,1.85-1.87,3.12,3.12,0,0,0-1.06-3.42,7.61,7.61,0,0,0-2.22-1.12c-.12,0-.24-.06-.24-.25,0-.94,0-1.88,0-2.82a.42.42,0,0,1,.38.11,1.49,1.49,0,0,0,.92.2s.09,0,.09-.05,0-.15,0-.16a.39.39,0,0,1-.22-.38,2.49,2.49,0,0,1,.41-.57c.05-.06.11,0,.16,0s0,.08,0,.12-.13.09-.14.2c.34,0,.66-.13,1-.12.1,0,.2-.18.3-.28a1,1,0,0,0,.2-.2c.07-.1.3-.17.19-.31s-.31,0-.46,0-.12.13-.22.15A.09.09,0,0,1,305.25,456.36Z"/><path class="cls-38" d="M300.13,462.54a7,7,0,0,1-3-1.59,3.76,3.76,0,0,1,.64-5.5,10.42,10.42,0,0,1,3.18-1.26,21.55,21.55,0,0,0,3.52-1,3,3,0,0,0,1.29-1,2.34,2.34,0,0,0-.45-3.11,3.87,3.87,0,0,0-2-.84c-.27,0-.4-.08-.37-.41a13.65,13.65,0,0,0,0-1.43c0-.15,0-.23.2-.21a6.81,6.81,0,0,1,4.12,1.77,4.34,4.34,0,0,1-.8,6.75A12.88,12.88,0,0,1,303,456c-.84.21-1.68.39-2.5.67a4.86,4.86,0,0,0-1.14.57,1.66,1.66,0,0,0-.05,2.73,2,2,0,0,0,.46.3.48.48,0,0,1,.33.53C300.12,461.33,300.13,461.91,300.13,462.54Z"/><path class="cls-38" d="M300.49,453.7c0-1.12,0-2.21,0-3.29,0-2-.08-4-.16-6,0-.59-.2-1.18-.28-1.77a4.48,4.48,0,0,1,0-1.75,1.36,1.36,0,0,1,1.63-1.07,1.28,1.28,0,0,1,1.18,1.26,5.18,5.18,0,0,1-.14,1.84,14.35,14.35,0,0,0-.31,3.33c0,2.26-.11,4.52-.16,6.78,0,.13,0,.21-.16.24Z"/><path class="cls-38" d="M286.48,473.21a13.91,13.91,0,0,1,3.25,4,9.44,9.44,0,0,1,.45,1,9.64,9.64,0,0,0,1.14,2.41,11.11,11.11,0,0,0-2.93-.07,9.36,9.36,0,0,1-5.14-1.08,8.45,8.45,0,0,1-3.06-3.3l.07,0a6.68,6.68,0,0,0,3.35,1.55c1.29.29,2.6.46,3.86.85a10.44,10.44,0,0,1,1.52.6c.05-.07,0-.1,0-.13a7.49,7.49,0,0,1-2.24-4.52,5.4,5.4,0,0,0-.31-1.18C286.38,473.22,286.41,473.2,286.48,473.21Z"/><path class="cls-38" d="M313.85,479.11a13.26,13.26,0,0,1,1.48-.58c1.28-.39,2.6-.57,3.89-.86a7.37,7.37,0,0,0,2.89-1.16l.26-.21c.08-.06.13-.18.3-.2a8.78,8.78,0,0,1-1,1.5,7.58,7.58,0,0,1-5.59,2.89c-1,.07-2,0-2.95,0a4.52,4.52,0,0,0-1.62.14,2.63,2.63,0,0,1,.15-.26,7.28,7.28,0,0,0,.87-1.9,10.84,10.84,0,0,1,2.59-4.08c.41-.42.84-.84,1.32-1.27a1.43,1.43,0,0,1-.16.56c-.15.52-.23,1.05-.33,1.58a7.07,7.07,0,0,1-1.92,3.57A.52.52,0,0,0,313.85,479.11Z"/><path class="cls-38" d="M325.76,469.74a1.47,1.47,0,0,1-.13.65,10,10,0,0,1-1.79,3.43,7.47,7.47,0,0,1-3.91,2.39l-1.51.38a8.54,8.54,0,0,0-2.21.77,7.14,7.14,0,0,0,.88-2.05c.23-.94.29-1.9.49-2.85a11.83,11.83,0,0,1,1.75-4s0,0,.08-.08a29.83,29.83,0,0,0,0,3.54,6.13,6.13,0,0,1-.67,2.82s-.05.11-.07.17l0,0s.07,0,.1,0a16.87,16.87,0,0,1,3.06-1.88,11.59,11.59,0,0,0,3.08-2.21A11.44,11.44,0,0,0,325.76,469.74Z"/><path class="cls-38" d="M284.1,474.79a7.81,7.81,0,0,1-.65-4.39,9.2,9.2,0,0,0,0-2,.53.53,0,0,1,.2.25,11.77,11.77,0,0,1,1.85,5.14,7.82,7.82,0,0,0,1.1,3.48s0,.06,0,.13a15.59,15.59,0,0,0-3.79-1.19,7.59,7.59,0,0,1-5.25-4.81,9.74,9.74,0,0,1-.49-1.5c0-.07,0-.08.06-.07a8.64,8.64,0,0,0,3.35,2.94c1,.55,2,1,2.93,1.68l.61.45C284.11,474.91,284.12,474.87,284.1,474.79Z"/><path class="cls-38" d="M321.6,470.59a18,18,0,0,1,3-3.78,12.64,12.64,0,0,0,2.16-2.67c.11-.2.2-.41.33-.68a9.62,9.62,0,0,1-.33,2.61,8.49,8.49,0,0,1-3.48,4.78c-.82.59-1.66,1.14-2.48,1.72a9.25,9.25,0,0,0-.72.63,10.13,10.13,0,0,0,.35-3.35c-.06-.86-.18-1.72-.27-2.58a9,9,0,0,1,.59-4.18c.17,1.67,1,3.1,1.05,4.7a11,11,0,0,1-.17,2.37c0,.1,0,.2,0,.3s0,.12,0,.19,0,0,0,0A.24.24,0,0,1,321.6,470.59Z"/><path class="cls-38" d="M276.37,457.64a6.29,6.29,0,0,0,.91,2.69,23.45,23.45,0,0,1,1.9,3.78,6.67,6.67,0,0,0,.42,1.06c0-.36,0-.73,0-1.09a7,7,0,0,1,1.73-4.3,8.55,8.55,0,0,0,1-1.47,13.35,13.35,0,0,1,0,1.57,10.17,10.17,0,0,1-1,3.36,10.28,10.28,0,0,0-1,3,7.89,7.89,0,0,0-.09,1.37h-.06a8,8,0,0,0-1.61-2.13A9.36,9.36,0,0,1,276.6,463a7.38,7.38,0,0,1-.47-4.18A5,5,0,0,1,276.37,457.64Z"/><path class="cls-38" d="M326.55,457.85a9.69,9.69,0,0,1,.16,3.6,7.07,7.07,0,0,1-2,3.69c-.32.33-.63.66-.94,1a5.8,5.8,0,0,0-1,1.57c0-.38,0-.67-.05-1a9.17,9.17,0,0,0-1-3.38,10.79,10.79,0,0,1-1-3.07,8.63,8.63,0,0,1-.08-2c.5,1,1.2,1.69,1.74,2.53a6.83,6.83,0,0,1,1,3.62,6.91,6.91,0,0,0,0,.78c.06-.19.11-.38.17-.56a17.49,17.49,0,0,1,1.76-3.77,8.51,8.51,0,0,0,1.1-2.46c.05-.24.08-.48.11-.72C326.56,457.69,326.5,457.82,326.55,457.85Z"/><path class="cls-38" d="M279.2,459.42a8.44,8.44,0,0,1,2.91-4.56,10.65,10.65,0,0,0,1.71-1.59.63.63,0,0,1-.06.4,13.56,13.56,0,0,1-2.65,4.69,9.14,9.14,0,0,0-2,3.59s0,0-.06.05a15.25,15.25,0,0,0-1.28-2.86,7.2,7.2,0,0,1,.69-7.52l.06-.07.07,0c-.07.35-.14.68-.19,1a11.9,11.9,0,0,0,.21,3.42,26,26,0,0,1,.48,3.4.7.7,0,0,1,0,.14C279.18,459.49,279.17,459.44,279.2,459.42Z"/><path class="cls-38" d="M323.78,462.07c-.14-.38-.24-.71-.37-1a9.38,9.38,0,0,0-1.67-2.67,13.56,13.56,0,0,1-2.78-5.11c.18.09.26.27.38.39.47.48,1,.88,1.51,1.32a8.6,8.6,0,0,1,2.78,4.35c0,.06,0,.14.1.18,0-1.58.46-3.11.66-4.66a8.27,8.27,0,0,0-.17-3.33.11.11,0,0,1,.12.07,7.61,7.61,0,0,1,1.47,4.8,9,9,0,0,1-1.11,3.49A8.17,8.17,0,0,0,323.78,462.07Z"/><path class="cls-38" d="M298.8,468.14a1.68,1.68,0,0,1,.7-1.23,7,7,0,0,1,2.17-1,8.7,8.7,0,0,0,1.21-.43,1.74,1.74,0,0,0,.75-.59.8.8,0,0,0-.08-1,1.17,1.17,0,0,0-.52-.36c-.34-.1-.39-.33-.37-.64s0-.89,0-1.34c0-.14,0-.2.18-.14a7.56,7.56,0,0,1,1.65.78,2.58,2.58,0,0,1,1.25,2.36,2.43,2.43,0,0,1-1.58,2.13c-.82.39-1.71.58-2.55.91a8.77,8.77,0,0,0-1,.39.72.72,0,0,0-.43.76c0,.44,0,.88,0,1.31,0,.08,0,.2-.13.14A2.27,2.27,0,0,1,298.8,468.14Z"/><path class="cls-38" d="M279.47,456.84c0-.88-.12-1.74-.17-2.61a8.81,8.81,0,0,1,.82-4.82,6.62,6.62,0,0,1,1.71-2.08s.07-.08.16,0a6.77,6.77,0,0,0-.91,2.76c-.12.82-.22,1.65-.35,2.47-.06.38-.15.75-.2,1.13a9,9,0,0,1,1.22-1.59,12.18,12.18,0,0,1,2.48-1.86,8.73,8.73,0,0,0,2-1.38,6.13,6.13,0,0,1-2,3.09c-.65.55-1.36,1-2,1.52a8.88,8.88,0,0,0-2.52,3.09C279.61,456.64,279.59,456.77,279.47,456.84Z"/><path class="cls-38" d="M323.27,456.74a9.82,9.82,0,0,0-3.61-4,8.42,8.42,0,0,1-1.86-1.61,7.11,7.11,0,0,1-1.21-2.32,23.81,23.81,0,0,0,3.27,2.25,8.54,8.54,0,0,1,2.37,2.53c.09,0,.07-.09.06-.13-.28-1.13-.35-2.3-.54-3.45a6.71,6.71,0,0,0-.88-2.64s0,0,0-.08a3.22,3.22,0,0,1,.69.58,6.9,6.9,0,0,1,1.94,4.19,21.71,21.71,0,0,1-.13,4.11,1.91,1.91,0,0,0,0,.48C323.35,456.67,323.37,456.75,323.27,456.74Z"/><path class="cls-38" d="M293,452.79a1.66,1.66,0,0,0,1-1.27,6,6,0,0,1,1.88-3.43,2.86,2.86,0,0,1,1-.6,19,19,0,0,0,2.42-.9c.15-.06.3-.1.52-.17,0,.69,0,1.33,0,2a.22.22,0,0,1-.16.22,3.59,3.59,0,0,0-1.48,1.19,2.57,2.57,0,0,1-.54.5,15.48,15.48,0,0,1-2.18,1.39,2.12,2.12,0,0,1-1.12.33c-.14,0-.2.09-.28.17a5.82,5.82,0,0,0-.79,1.22c0-.24.1-.4.1-.61l-.29.05C293.06,452.87,293,452.9,293,452.79Z"/><path class="cls-38" d="M300.74,465.6c0-1,0-2,0-2.9,0-1.73-.07-3.45-.11-5.17a.36.36,0,0,1,.33-.44c.41-.09.81-.22,1.2-.33,0,.84,0,1.66,0,2.48,0,1.66-.06,3.31-.09,5,0,.15,0,.31,0,.46,0,.54,0,.54-.56.71Z"/><path class="cls-38" d="M281.66,451.09c.91-4.11,4.19-6.49,6.49-6.85a6.82,6.82,0,0,0-1.69,2.15c-.08.14-.17.28-.24.42a6.59,6.59,0,0,1-2.4,2.65,12,12,0,0,0-2.05,1.58S281.72,451.06,281.66,451.09Z"/><path class="cls-38" d="M314.62,444.18a8.86,8.86,0,0,1,6.5,6.86,22.42,22.42,0,0,0-2.61-2,6.21,6.21,0,0,1-1.85-2.19,8.38,8.38,0,0,0-1.57-2.3Z"/><path class="cls-38" d="M302,469.36q-.06,3.6-.14,7.18a2.11,2.11,0,0,1-.12.75c-.06.14-.12.29-.28.29s-.24-.15-.29-.3a2.1,2.1,0,0,1-.13-.74c0-1.57-.05-3.13-.07-4.69,0-1.06,0-2.11-.07-3.17a.31.31,0,0,1,.25-.35,6.62,6.62,0,0,0,.62-.24c.19-.08.27-.06.26.18s0,.73,0,1.09Z"/><path class="cls-39" d="M304.59,473.42a3.79,3.79,0,0,0-1.95-2.12.21.21,0,0,1-.14-.21c0-.33,0-.66,0-1A3.12,3.12,0,0,1,304.59,473.42Z"/><path class="cls-39" d="M303.14,450.55a10.68,10.68,0,0,1,2.21.6c.23.08.16.22.1.36s-.07.3-.31.2a9.66,9.66,0,0,0-2-.57c-.36-.06-.13-.31-.16-.48S303,450.51,303.14,450.55Z"/><path class="cls-40" d="M300,459.7a1.31,1.31,0,0,1-.8-1.06,1.14,1.14,0,0,1,.62-1.07c.14-.09.21-.1.21.1s0,.51,0,.76,0,.34-.16.47a.24.24,0,0,0,0,.42C300,459.4,300.14,459.51,300,459.7Z"/><path class="cls-41" d="M305,445.48a.29.29,0,0,1-.26.17,11.34,11.34,0,0,1-1.54-.07c-.05,0-.11,0-.12-.06a.07.07,0,0,1,.08-.08c.46.07.9-.2,1.36-.11A1.12,1.12,0,0,1,305,445.48Z"/><path class="cls-41" d="M302.64,464.94v-.85c0-.11,0-.15.14-.09s.37.15.41.37-.13.36-.29.46A.44.44,0,0,1,302.64,464.94Z"/><path class="cls-42" d="M309.33,448a.34.34,0,0,1,.55-.12.46.46,0,0,1,.24.61A6.48,6.48,0,0,0,309.33,448Z"/><path class="cls-43" d="M305.25,456.36l0,.11c-.13.19-.35.11-.53.15s-.09-.08-.1-.13.06-.07.1-.09A.81.81,0,0,1,305.25,456.36Z"/><path class="cls-44" d="M293.11,453.36l-.24-.26a.23.23,0,0,1,.29-.05C293.23,453.12,293.14,453.22,293.11,453.36Z"/><path class="cls-45" d="M323.27,456.74c.12-.19,0-.42.11-.6v.74C323.3,456.85,323.29,456.79,323.27,456.74Z"/><path class="cls-46" d="M293,452.79l.13.06a.36.36,0,0,1-.35,0C292.82,452.75,292.92,452.8,293,452.79Z"/><path class="cls-47" d="M279.2,459.42a.21.21,0,0,1-.1.2.46.46,0,0,1,0-.26Z"/><path class="cls-48" d="M326.55,457.85l-.11-.12v-.25A.65.65,0,0,1,326.55,457.85Z"/><path class="cls-49" d="M286.48,473.21l-.08.08-.17-.24C286.38,473,286.42,473.14,286.48,473.21Z"/><path class="cls-50" d="M318,481.46c0-.06-.07-.06-.12-.07a.47.47,0,0,1,.29-.11C318.1,481.38,318,481.42,318,481.46Z"/><path class="cls-51" d="M277.13,469.8l-.06.07-.11-.24C277.1,469.63,277.1,469.73,277.13,469.8Z"/><path class="cls-52" d="M284.1,474.79c.06.07.13.13.09.23a.28.28,0,0,1-.17-.15Z"/><path class="cls-53" d="M321.48,470.65a.33.33,0,0,1,.06-.19l.06.13-.05.12C321.49,470.73,321.47,470.71,321.48,470.65Z"/><path class="cls-54" d="M285.72,461H284.5c-.17,0-.23,0-.22-.22a17.16,17.16,0,0,1,4.62-11.3c.11-.13.18-.18.33,0,.57.59,1.16,1.17,1.75,1.75.13.13.09.19,0,.31a14,14,0,0,0-3,5,13.3,13.3,0,0,0-.77,4.14c0,.26-.06.38-.35.36S286.1,461,285.72,461Z"/><path class="cls-54" d="M318.56,462.11a17,17,0,0,1-4.21,10.35c-.19.22-.37.61-.63.6s-.43-.36-.64-.57c-.39-.39-.76-.79-1.16-1.16-.19-.17-.21-.27,0-.47a14.26,14.26,0,0,0,3.78-9c0-.21.06-.27.27-.27.76,0,1.51,0,2.26,0,.33,0,.41.1.36.39C318.56,462,318.57,462.06,318.56,462.11Z"/><path class="cls-54" d="M317.12,461c-.37,0-.75,0-1.13,0s-.3-.05-.31-.29a13.85,13.85,0,0,0-1.09-5c-.1-.25-.22-.5-.33-.75,0,0-.09-.13,0-.13.32,0,.14-.19.09-.28a6.66,6.66,0,0,0-1.63-2.13,8.74,8.74,0,0,1-.83-.89c-.09-.1,0-.15,0-.23l1.81-1.81c.17-.17.23,0,.3.08a17,17,0,0,1,4.56,11.23c0,.2-.08.24-.25.23Z"/><path class="cls-54" d="M287.72,465.35c-.26-.36-.66-.21-1-.29,0,.14.14.19.11.34l-.57-.14c0-.09.17-.16,0-.28s-.2,0-.31,0c-.48.2-.58.36-.52.88a6.37,6.37,0,0,0,.9,2.34c0,.07.08.17.23.12-.14-.36-.37-.67-.49-1-.07-.2.08-.36,0-.55s0-.06.08-.06a.24.24,0,0,1,.23.12l.42.62c.1-.18,0-.31.1-.51.19.39.43.64.87.36a.6.6,0,0,0,.44.73c.12,0,.19.27.28.42a2.75,2.75,0,0,1,.17.29.35.35,0,0,0,.38.24c.16,0,.09-.2.17-.29s.11.1.15.16a13.65,13.65,0,0,0,1.69,2.16c.14.14.11.21,0,.33-.56.55-1.12,1.1-1.66,1.66-.18.2-.28.18-.44,0a17.15,17.15,0,0,1-4.22-7.79,16.67,16.67,0,0,1-.46-3.37c0-.2,0-.24.22-.24H287c.13,0,.24,0,.24.18a13.72,13.72,0,0,0,.55,3.42A.15.15,0,0,1,287.72,465.35Z"/><path class="cls-54" d="M315.08,462a13.62,13.62,0,0,1-3.67,8.49c-.08.08-.16.2-.25,0s-.37-.17-.16-.4a.3.3,0,0,0,.07-.3,6.62,6.62,0,0,0-.27-1.17c-.05-.14-.24-.12-.37-.16s-.13.1-.15.18,0,.38-.08.57,0,.15-.08.18-.11,0-.15-.09l0,0c-.23-.23-.59-.43-.65-.7s.34-.48.53-.71a10.57,10.57,0,0,0,2.33-6c0-.29.09-.42.42-.4.71,0,1.42,0,2.13,0C315.13,461.58,315.09,461.49,315.08,462Z"/><path class="cls-54" d="M310.65,455.35c0-.17.16-.34,0-.44s-.1.21-.26.23a10.93,10.93,0,0,0-.91-1.15c-.09-.09-.07-.15,0-.22l.62-.6a1,1,0,0,1,.83,0c.05.05.12.11.08.18-.13.25.06.33.22.41s.52.42.88.43c.05,0,.1.09.15.15.31.35.62.69.92,1.06.13.16.25.21.43.11s.29,0,.38.16a14,14,0,0,1,1.14,5c0,.22,0,.3-.28.3-.78,0-1.57,0-2.35,0-.18,0-.27,0-.28-.24A9.14,9.14,0,0,0,312,459c-.06-.24.1-.4.15-.6a3.41,3.41,0,0,0,0-1.68,4.48,4.48,0,0,0-1.08-2.15c.06-.07.17,0,.2-.12a.06.06,0,0,0,0,0l-.5-.35s-.08-.08-.13,0a.11.11,0,0,0,0,.14,1,1,0,0,0,.11.17,6.38,6.38,0,0,1,1.33,3.42c0,.06.07.14,0,.18a.16.16,0,0,1-.22-.1c-.08-.26-.4-.46-.2-.8,0,0-.06-.12-.09-.18s-.14-.17-.14-.29,0-.43-.35-.49-.16-.34-.13-.52S310.9,455.31,310.65,455.35Z"/><path class="cls-54" d="M294.18,458.2c.2.05.37-.09.56,0,0,.13-.1.17-.17.18-.37.06-.59.51-1,.37-.1,0-.12.09-.16.16-.15.27-.3.55-.44.83-.06.1-.13.2,0,.33s0,.19-.09.25a.61.61,0,0,0-.22.45c0,.23-.07.3-.3.28a4.45,4.45,0,0,0-.73,0c-.25,0-.28-.08-.27-.29a10.11,10.11,0,0,1,1.52-4.89,9.48,9.48,0,0,1,1.22-1.59c.65.66,1.29,1.31,1.94,1.95.09.09.06.14,0,.22a6.42,6.42,0,0,0-.9,1.3.28.28,0,0,1-.23.15C294.59,457.92,294.32,457.92,294.18,458.2Z"/><path class="cls-54" d="M308.4,466.57l-.48.7c-.24-.11-.28-.23-.11-.47s.35-.44.24-.77c0-.13.14-.28.14-.45a1.63,1.63,0,0,0-.06-.45c-.1-.33-.24-.37-.48-.13-.1-.05,0-.1,0-.14a5.09,5.09,0,0,0,.3-.5,1.24,1.24,0,0,1,.71-.69c.16-.06.15-.21,0-.45.66.38,1.13,0,1.66-.12.13,0,.14-.09.08-.19a.5.5,0,0,1-.08-.35l.25.1c.08,0,.17,0,.21-.05a.27.27,0,0,0,0-.23c0-.1-.13,0-.19,0a1.43,1.43,0,0,1-.43.09c-.56,0-.53-.53-.78-.88h2.09c.19,0,.13.14.12.24A10.12,10.12,0,0,1,309,468c-.05.06-.1.19-.21.1s-.27-.16-.2-.3C308.72,467.4,308.47,467,308.4,466.57Z"/><path class="cls-54" d="M293.71,462.55c0-.32.21-.62,0-.95.42-.05.42-.05.46.35a7,7,0,0,0,1.77,4c.18.2.15.29,0,.45-.56.54-1.12,1.1-1.66,1.66-.14.14-.21.12-.33,0-.3-.29-.53-.58-.37-1a.43.43,0,0,0,0-.33,2.41,2.41,0,0,1-.3-1.29,1.54,1.54,0,0,0-.24-.83.82.82,0,0,1-.1-.49,1.28,1.28,0,0,0-.54-1.05c-.14-.11-.2-.17-.12-.32a.46.46,0,0,0,0-.41.35.35,0,0,1,.32-.51c.06,0,.15,0,.17,0,.13-.29.39-.18.61-.2s.29.11.27.3a1.71,1.71,0,0,1-.09.51.51.51,0,0,0,.09.58c.07,0,.12.15,0,.2-.32.19-.06.34,0,.51A7.1,7.1,0,0,1,293.71,462.55Z"/><path class="cls-54" d="M310,459.3c.25-.25.08-.65.38-.85,0,0,0,0,0-.05a2.42,2.42,0,0,0-.56-.5c-.23,0-.43.11-.46.39a.4.4,0,0,1-.28.36c-.11,0-.24-.13-.3-.27s0-.11,0-.17.09,0,.12,0,.12.07.15,0a.35.35,0,0,0,0-.2.1.1,0,0,0-.15-.05c-.19.2-.25,0-.34-.09a6.43,6.43,0,0,0-.49-.54c-.17-.15-.19-.24,0-.35-.14,0-.31-.17-.36.13,0,.08-.19.06-.27,0s-.33-.44-.5-.65,0-.16,0-.23c.6-.6,1.21-1.2,1.8-1.81.11-.11.16-.07.24,0a10.7,10.7,0,0,1,1,1.39c.05.09.11.15-.05.22s-.13.43,0,.55a.41.41,0,0,0,.11.07c.71.27.82.94,1,1.55.07.18-.07.28-.2.36a.41.41,0,0,0-.21.31C310.7,459.25,310.42,459.41,310,459.3Z"/><path class="cls-54" d="M289.25,461.58h1.21c.17,0,.24.05.23.23a2.58,2.58,0,0,0,0,.39c0,.15,0,.25-.17.28s-.16,0-.17.09c-.05.43-.39.68-.62,1a.73.73,0,0,0-.19.58,1.5,1.5,0,0,1,0,.3c0,.23.12.54-.06.67a1.58,1.58,0,0,1-.92.26.2.2,0,0,1-.23-.17,13.68,13.68,0,0,1-.58-3.41c0-.17.06-.21.21-.2Z"/><path class="cls-54" d="M298,462.84c.21.27.35.55.56.77s.08.16,0,.25c-.61.6-1.21,1.2-1.81,1.81-.07.07-.12.12-.22,0a6.43,6.43,0,0,1-1.66-3.65c.28.47.91.28,1.23.67.06.08.26,0,.35.1s.22.07.12.27.2.19.33.28a.26.26,0,0,0,0-.07c0-.21.05-.45.2-.5s.26.21.37.35.06.18-.09.21-.22,0-.19.12.06.26.18.3a.26.26,0,0,0,.28-.14C297.77,463.37,298,463.17,298,462.84Z"/><path class="cls-54" d="M308.4,472.83c.06-.19.24-.36.11-.61s.11-.17.19-.25c.24-.23.25-.32,0-.5-.11-.08-.13-.13-.07-.25a5.06,5.06,0,0,1,.43-.7c.07-.09.26-.18.15-.31s-.23-.4-.49-.42c-.09,0-.19,0-.24-.08s-.25-.23,0-.34.24-.47.54-.16c.56.58,1.13,1.14,1.7,1.71.12.11.18.18,0,.32a16,16,0,0,1-2,1.55C308.58,472.84,308.5,472.89,308.4,472.83Z"/><path class="cls-55" d="M311.27,458.61c.18.49-.27.88-.2,1.39l.39-.47a10.38,10.38,0,0,1,.15,1.3c0,.13,0,.18-.18.18h-2.19c-.08,0-.17,0-.19-.1a.17.17,0,0,1,.07-.21c.22-.15.32-.44.66-.43.13,0,.1-.16,0-.23s-.15-.15,0-.22a1.54,1.54,0,0,1,.47-.21c.52,0,.73-.44.93-.84C311.2,458.72,311.17,458.65,311.27,458.61Z"/><path class="cls-56" d="M293.79,461a.62.62,0,0,1-.61-.49.55.55,0,0,1,.31-.67,1.07,1.07,0,0,1,.68.08,1.81,1.81,0,0,1-.07,1.08A1.61,1.61,0,0,1,293.79,461Z"/><path class="cls-56" d="M292.14,461.58c-.07.21-.12.37-.17.54s-.06.18,0,.25c.25.17.1.34,0,.5s-.34.09-.51.1-.08-.08-.08-.14l-.12-1.05c0-.14,0-.21.17-.21S291.89,461.58,292.14,461.58Z"/><path class="cls-57" d="M306.41,458.05c0-.12-.3,0-.13-.2a.06.06,0,0,0,0-.1c-.32-.15-.14-.4-.11-.61a.45.45,0,0,1,.29-.32c.11,0,.16.13.23.21s.15.2.23.29a.26.26,0,0,1,0,.36c-.1.14-.16,0-.24-.06a.21.21,0,0,0-.23,0c-.06.07,0,.14.05.19a.13.13,0,0,1,0,.18S306.49,458.09,306.41,458.05Z"/><path class="cls-58" d="M307.22,467.53c-.29.08-.52-.13-.81-.09s-.4-.32-.74-.32l.22-.18c.18-.22.35-.18.55,0a4.86,4.86,0,0,0,.54.33A.46.46,0,0,1,307.22,467.53Z"/><path class="cls-58" d="M292.08,470.32a2.63,2.63,0,0,1-.39.35c-.1.06-.15-.1-.22-.16a3.71,3.71,0,0,1-.27-.29c0-.07-.21-.12-.09-.24s.2-.23.38-.1.32.19.47.28S292.08,470.21,292.08,470.32Z"/><path class="cls-59" d="M293.71,462.55a2.66,2.66,0,0,0,.11,1c0,.09,0,.23-.05.41a1.54,1.54,0,0,1-.41-.8c.11,0,.15.13.25.05s0-.14,0-.21S293.6,462.67,293.71,462.55Z"/><path class="cls-60" d="M321.48,470.65l.07.06-.09.14C321.4,470.78,321.43,470.71,321.48,470.65Z"/><path class="cls-61" d="M295.66,449.86l.43-.72c.17-.28.43-.05.64-.11C296.41,449.34,296.25,449.83,295.66,449.86Z"/><path class="cls-62" d="M286.81,468.77c.33.05.5.3.54.81Z"/><path class="cls-42" d="M308.49,456.67a.07.07,0,0,1-.09-.06c0-.08,0-.17.09-.19.31-.09.28-.24.15-.47s.05-.39.16-.55a.68.68,0,0,1,.46-.25c.07,0,.25.15.15.25s-.08.2,0,.29.06.06,0,.1-.07,0-.11,0a2.2,2.2,0,0,0-.25-.17c-.06,0-.13-.15-.22,0s-.12.16,0,.29.28.21.22.43S308.7,456.6,308.49,456.67Z"/><path d="M284.54,156.69l-.05,12.5h-2.12l.05-12.5Z"/><path d="M298.52,156.75l0,13.12-9.09-9.05,0,8.39h-2.07l.05-13.12,9.09,9,0-8.39Z"/><path d="M307.09,167.44a4.91,4.91,0,0,0,3.91-1.77v2.52a5.68,5.68,0,0,1-4,1.3,6.46,6.46,0,1,1,.05-12.92,5.65,5.65,0,0,1,4,1.34v2.51a4.94,4.94,0,0,0-3.9-1.8,4.41,4.41,0,0,0,0,8.82Z"/><path d="M324.82,156.85,324.77,170l-9.09-9.06,0,8.39h-2.07l.05-13.12,9.09,9.05,0-8.39Z"/><path class="cls-63" d="M307.21,107c1.14.18,2.28.34,3.41.56a22.3,22.3,0,0,1,17.86,18.11c1.9,11.92-6.2,23-18.4,25.2-12.6,2.25-24.77-6.06-26.7-18.24-.12-.75-.25-1.5-.38-2.24v-2.48c.13-.75.26-1.5.38-2.25a22.3,22.3,0,0,1,17.86-18.1c1.13-.22,2.27-.38,3.41-.56ZM306,109.24c-11.38,0-20.62,8.84-20.65,19.82s9.16,20,20.57,20,20.62-8.85,20.65-19.82S317.39,109.26,306,109.24Z"/><path class="cls-63" d="M297.69,114.84a15.66,15.66,0,0,1,5.05-1.72c7.95-1.41,16.6,3.68,18.91,11.14a12.12,12.12,0,0,1-2.12,11.58,32.28,32.28,0,0,1-4.64,4.48,2.28,2.28,0,0,0-1.05,2,6.72,6.72,0,0,1-.07.94l-14.15,1.55c.11-1.54.26-2.94.3-4.35.05-2-.48-2.63-2.45-3.18-.9-.25-1.82-.5-2.75-.67-.61-.12-.78-.35-.81-1a14.63,14.63,0,0,0-.54-3.74,11,11,0,0,0-1.64-2.5l3.55-4.18c.39.6.71,1.12,1.06,1.62a6.85,6.85,0,0,0,4.25,3,.92.92,0,0,1,.57.54c1.67,6.25,8.06,7.45,13,4.72,4.25-2.36,5.77-6.55,4-11-2.51-6.37-9.11-9.6-16.33-8l-.44.1C299.14,116.72,299.14,116.73,297.69,114.84Z"/><path class="cls-63" d="M303,127.86l-.57.1a4.28,4.28,0,0,1-4.64-1.54,4.14,4.14,0,0,1-.16-5A5.93,5.93,0,0,1,300,119.3a12.42,12.42,0,0,1,10.62-.17A9.16,9.16,0,0,1,315,131.7a4.87,4.87,0,0,1-4.05,2.54,6.82,6.82,0,0,1-7.9-5.7C303.05,128.34,303,128.14,303,127.86Z"/><path d="M682.58,168.13h-2.17L682.17,155l5.09,8.5,5.18-8.46,1.66,13.13h-2.18l-.83-7.61L687.25,167l-3.78-6.46Z"/><path d="M698.33,155.7l-.05,12.49h-2.13l.05-12.5Z"/><path d="M712.31,155.75l-.06,13.13-9.08-9.06,0,8.39h-2.08l.06-13.13,9.08,9.06,0-8.39Z"/><path d="M719.07,166.65A1.69,1.69,0,0,0,721,165c0-1.37-1.08-1.82-2.65-2.42-1.25-.45-3.31-1.33-3.3-3.67,0-2,1.69-3.35,3.94-3.34a4.56,4.56,0,0,1,4.18,2.67l-1.71,1a2.92,2.92,0,0,0-2.52-1.76c-1.16,0-1.69.64-1.7,1.33,0,1,.82,1.6,2.83,2.3,1.5.52,3.17,1.58,3.17,3.76a3.9,3.9,0,0,1-4.18,3.72,5.4,5.4,0,0,1-4.77-3.22l1.57-1.1C716.66,165.68,717.66,166.65,719.07,166.65Z"/><path d="M732.43,165.12l-4.6,0-1.45,3.21H724l6.16-13.17,6.05,13.22h-2.37Zm-4-1.8h3.39l-1.68-4Z"/><path class="cls-36" d="M713.77,114H695.18a2.87,2.87,0,0,0-2.86,2.86v27.16h24.31V116.9A2.87,2.87,0,0,0,713.77,114Z"/><path class="cls-64" d="M728.07,126.9H703.76a1.44,1.44,0,0,0-1.43,1.43v15.73H729.5V128.33A1.44,1.44,0,0,0,728.07,126.9Z"/><path class="cls-64" d="M690.18,126.9a1.5,1.5,0,0,0-1.12.6L687,130.6a2.79,2.79,0,0,0-.4,1.31v12.15h5.72V126.9Z"/><rect class="cls-12" x="693.75" y="139.06" width="7.15" height="5"/><rect class="cls-64" x="685.17" y="144.06" width="45.76" height="2.86" rx="0.71"/><rect class="cls-12" x="693.75" y="121.9" width="1.43" height="4.29" rx="0.36"/><rect class="cls-12" x="696.61" y="121.9" width="1.43" height="4.29" rx="0.36"/><rect class="cls-12" x="699.47" y="121.9" width="1.43" height="4.29" rx="0.36"/><rect class="cls-12" x="702.33" y="121.9" width="1.43" height="4.29" rx="0.36"/><rect class="cls-12" x="705.19" y="121.9" width="1.43" height="4.29" rx="0.36"/><rect class="cls-12" x="693.75" y="127.62" width="1.43" height="4.29" rx="0.36"/><rect class="cls-12" x="696.61" y="127.62" width="1.43" height="4.29" rx="0.36"/><rect class="cls-12" x="699.47" y="127.62" width="1.43" height="4.29" rx="0.36"/><rect class="cls-12" x="693.75" y="133.34" width="1.43" height="4.29" rx="0.36"/><rect class="cls-12" x="696.61" y="133.34" width="1.43" height="4.29" rx="0.36"/><rect class="cls-12" x="699.47" y="133.34" width="1.43" height="4.29" rx="0.36"/><rect class="cls-12" x="708.05" y="132.62" width="21.45" height="11.44"/><rect class="cls-12" x="688.75" y="130.48" width="1.43" height="4.29" rx="0.36"/><rect class="cls-12" x="688.75" y="136.91" width="1.43" height="4.29" rx="0.36"/><polygon class="cls-1" points="700.19 139.06 694.47 139.06 693.75 139.06 693.75 139.77 693.75 144.06 694.47 144.06 694.47 139.77 696.97 139.77 696.97 144.06 697.68 144.06 697.68 139.77 700.19 139.77 700.19 144.06 700.9 144.06 700.9 139.77 700.9 139.06 700.19 139.06"/><rect class="cls-1" x="696.61" y="141.2" width="1.43" height="1.43" rx="0.36"/><rect class="cls-28" x="694.47" y="144.06" width="5.72" height="1.43"/><rect class="cls-36" x="694.47" y="145.49" width="5.72" height="1.43"/><path class="cls-1" d="M708.77,132.62H729.5v-1.43H707.34a.72.72,0,0,0-.72.72v12.15h1.43v-2.14a.72.72,0,0,1,.72-.72H729.5v-1.43H708.77a.71.71,0,0,1-.72-.71v-1.43a.72.72,0,0,1,.72-.72H729.5v-1.43H708.77a.71.71,0,0,1-.72-.71v-1.43A.72.72,0,0,1,708.77,132.62Z"/><rect class="cls-12" x="693.75" y="116.18" width="1.43" height="4.29" rx="0.36"/><rect class="cls-12" x="696.61" y="116.18" width="1.43" height="4.29" rx="0.36"/><rect class="cls-12" x="699.47" y="116.18" width="1.43" height="4.29" rx="0.36"/><rect class="cls-12" x="702.33" y="116.18" width="1.43" height="4.29" rx="0.36"/><rect class="cls-12" x="705.19" y="116.18" width="1.43" height="4.29" rx="0.36"/><rect class="cls-12" x="708.05" y="121.9" width="1.43" height="4.29" rx="0.36"/><rect class="cls-12" x="708.05" y="116.18" width="1.43" height="4.29" rx="0.36"/><rect class="cls-12" x="710.91" y="121.9" width="1.43" height="4.29" rx="0.36"/><rect class="cls-12" x="710.91" y="116.18" width="1.43" height="4.29" rx="0.36"/><rect class="cls-12" x="713.77" y="121.9" width="1.43" height="4.29" rx="0.36"/><rect class="cls-12" x="713.77" y="116.18" width="1.43" height="4.29" rx="0.36"/><rect class="cls-28" x="698.76" y="106.89" width="11.44" height="7.15"/><circle class="cls-36" cx="704.48" cy="106.89" r="5.72" transform="translate(384.97 743.78) rotate(-71.99)"/><path class="cls-32" d="M708.05,105.46h-2.14v-2.15a.72.72,0,0,0-.72-.71h-1.43a.71.71,0,0,0-.71.71v2.15H700.9a.71.71,0,0,0-.71.71v1.43a.72.72,0,0,0,.71.72h2.15v2.14a.72.72,0,0,0,.71.72h1.43a.73.73,0,0,0,.72-.72v-2.14h2.14a.73.73,0,0,0,.72-.72v-1.43A.72.72,0,0,0,708.05,105.46Z"/><path d="M479.45,594.46c.52,0,1.16-.38,1.16-1.49v-12.8h2.1v13.18c0,2.07-1.35,2.95-3.2,2.95a4.25,4.25,0,0,1-2.55-.92l1.09-1.51A1.76,1.76,0,0,0,479.45,594.46Z"/><path d="M492.81,580.17V582h-5.39v3h5v1.77h-5v3.82h5.39v1.81H485.4V580.17Z"/><path d="M502,580.17V582h-4.69v3h4.52v1.79h-4.52v5.49h-2V580.17Z"/><path d="M511.78,580.17V582h-5.39v3h5v1.77h-5v3.82h5.39v1.81h-7.4V580.17Z"/><path d="M519.51,592.34V580.17h3.93c3.72,0,6.25,2.42,6.25,6.09s-2.53,6.08-6.25,6.08Zm2.1-10.24v8.31h1.77a4.16,4.16,0,1,0,0-8.31Z"/><path d="M539.09,580.17V582H533.7v3h5v1.77h-5v3.82h5.39v1.81h-7.4V580.17Z"/><path d="M478.49,611.4a4.84,4.84,0,0,0,3.81-1.74v2.45a5.52,5.52,0,0,1-3.88,1.29,6.3,6.3,0,1,1,0-12.59,5.56,5.56,0,0,1,3.88,1.29v2.45a4.84,4.84,0,0,0-3.81-1.74,4.3,4.3,0,0,0,0,8.59Z"/><path d="M491.44,610.06H487l-1.39,3.13h-2.31l5.94-12.85,5.95,12.85h-2.31Zm-3.9-1.74h3.3l-1.65-3.86Z"/><path d="M500.29,601c2.66,0,4.38,1.52,4.38,3.79a3.56,3.56,0,0,1-2.71,3.55l3.44,4.83h-2.48l-3.06-4.61h-1.27v4.61h-2V601Zm-1.7,1.79v4.07h1.62c1.41,0,2.34-.73,2.34-2s-.93-2-2.34-2Z"/><path d="M510.62,601c2.65,0,4.38,1.52,4.38,3.79a3.57,3.57,0,0,1-2.72,3.55l3.44,4.83h-2.48l-3.06-4.61h-1.27v4.61h-2.05V601Zm-1.71,1.79v4.07h1.62c1.41,0,2.34-.73,2.34-2s-.93-2-2.34-2Z"/><path d="M524.58,601v1.81H519.2v3h5v1.77h-5v3.82h5.38v1.81h-7.4V601Z"/><path d="M530.86,601c2.65,0,4.38,1.52,4.38,3.79a3.57,3.57,0,0,1-2.72,3.55l3.45,4.83h-2.49l-3.06-4.61h-1.27v4.61h-2V601Zm-1.71,1.79v4.07h1.62c1.41,0,2.35-.73,2.35-2s-.94-2-2.35-2Z"/><path d="M544.3,610.06h-4.48l-1.39,3.13h-2.31l5.94-12.85L548,613.19h-2.31Zm-3.89-1.74h3.3l-1.65-3.86Z"/><path class="cls-18" d="M490.58,555.38h36.17c0-19.48-2.78-23.65-18.08-23.65S490.58,535.9,490.58,555.38Z"/><path class="cls-21" d="M525.23,551.12a6.91,6.91,0,0,1-.49,1.87,3.16,3.16,0,0,1-1.18,1.13,21.32,21.32,0,0,0,.13-3.5c-.83-12-1.54-8.74-15-8.74s-14.2-3.3-15,8.72a20.81,20.81,0,0,0,.14,3.52,3.15,3.15,0,0,1-1.19-1.13,6.6,6.6,0,0,1-.48-1.87c-1.28-.32-2.92,0-2.92,3.57,0,2.25.84,4.09,3.66,4.29.93,7.08,5,10.73,12,13.84a11.72,11.72,0,0,0,7.67,0c6.93-3.11,11-6.76,12-13.84,2.83-.2,3.66-2,3.66-4.29C528.14,551.07,526.5,550.8,525.23,551.12Z"/><path class="cls-22" d="M514.93,564.32c0,2.39-3.13,3.58-6.26,3.58s-6.27-1.19-6.27-3.58a.6.6,0,0,1,.63-.6H514.3A.6.6,0,0,1,514.93,564.32Z"/><path class="cls-26" d="M500.32,550.21c-3.48,0-4.87,1.25-4.87,2.5s0,3.06,4.6,3.06c4.44,0,5.14-.55,5.14-2.43C505.19,552.09,503.8,550.21,500.32,550.21Z"/><path class="cls-7" d="M500.67,549.21a3.13,3.13,0,1,1-3.13,3.13A3.13,3.13,0,0,1,500.67,549.21Z"/><path class="cls-8" d="M501.71,552.34a1,1,0,1,1-1-1A1,1,0,0,1,501.71,552.34Z"/><path class="cls-7" d="M495.45,552.69c0-4.87,9.74-4.87,9.74.69C503.8,549.21,496.84,549.21,495.45,552.69Z"/><path class="cls-26" d="M517,550.21c3.48,0,4.87,1.25,4.87,2.5s0,3.06-4.6,3.06c-4.44,0-5.14-.55-5.14-2.43C512.14,552.09,513.53,550.21,517,550.21Z"/><path class="cls-7" d="M516.67,549.21a3.13,3.13,0,1,1-3.14,3.13A3.13,3.13,0,0,1,516.67,549.21Z"/><path class="cls-8" d="M515.62,552.34a1,1,0,1,0,1-1A1,1,0,0,0,515.62,552.34Z"/><path class="cls-7" d="M521.88,552.69c0-4.87-9.74-4.87-9.74.69C513.53,549.21,520.49,549.21,521.88,552.69Z"/><path class="cls-65" d="M508.67,561.64c-2.91,0-4.37-2.09-2.91-2.09h5.81C513,559.55,511.57,561.64,508.67,561.64Z"/><path d="M708.39,422.14v1.8H703v2.94h5v1.76h-5v3.8h5.35v1.79H701V422.14Z"/><path d="M721.72,422.14v12.7l-8.82-8.72v8.11h-2V421.54l8.83,8.72v-8.12Z"/><path d="M723.19,422.14h8.43V424h-3.2v10.2h-2V424h-3.18Z"/><path d="M737.8,421.94a6.28,6.28,0,1,1-6.27,6.25A6.09,6.09,0,0,1,737.8,421.94Zm0,10.55a4.3,4.3,0,1,0-4.11-4.3A4.06,4.06,0,0,0,737.8,432.49Z"/><path d="M749.8,422.14c2.65,0,4.36,1.51,4.36,3.77a3.53,3.53,0,0,1-2.7,3.52l3.42,4.8h-2.47l-3-4.57h-1.26v4.57h-2V422.14Zm-1.69,1.78v4h1.61c1.4,0,2.33-.72,2.33-2s-.93-2-2.33-2Z"/><path d="M767.16,422.14v12.7l-8.83-8.72v8.11h-2V421.54l8.83,8.72v-8.12Z"/><path d="M775.41,421.94a6.28,6.28,0,1,1-6.27,6.25A6.09,6.09,0,0,1,775.41,421.94Zm0,10.55a4.3,4.3,0,1,0-4.11-4.3A4.06,4.06,0,0,0,775.41,432.49Z"/><path d="M715.89,453.38c1.13,0,1.87-.63,1.87-1.6,0-1.33-1-1.76-2.57-2.33C714,449,712,448.17,712,445.91c0-1.94,1.63-3.25,3.8-3.25a4.41,4.41,0,0,1,4.06,2.57l-1.66.94a2.77,2.77,0,0,0-2.43-1.7c-1.12,0-1.64.62-1.64,1.3,0,1,.79,1.53,2.75,2.21,1.45.5,3.07,1.52,3.07,3.63a3.78,3.78,0,0,1-4,3.61,5.21,5.21,0,0,1-4.62-3.1l1.52-1.07C713.56,452.45,714.53,453.38,715.89,453.38Z"/><path d="M727.55,442.66a6.28,6.28,0,1,1-6.27,6.25A6.09,6.09,0,0,1,727.55,442.66Zm0,10.55a4.3,4.3,0,1,0-4.11-4.3A4.06,4.06,0,0,0,727.55,453.21Z"/><path d="M741.47,453.18a4.77,4.77,0,0,0,3.78-1.73v2.44a5.54,5.54,0,0,1-3.85,1.27,6.25,6.25,0,1,1,0-12.5,5.5,5.5,0,0,1,3.85,1.28v2.43a4.79,4.79,0,0,0-3.78-1.72,4.27,4.27,0,0,0,0,8.53Z"/><path d="M749.81,442.87V455h-2.06V442.87Z"/><path d="M759.34,451.85h-4.45L753.51,455h-2.3l5.91-12.77L763,455h-2.29Zm-3.87-1.73h3.29l-1.64-3.83Z"/><path d="M766.46,442.87v10.26h4.8V455h-6.84V442.87Z"/><rect class="cls-21" x="726.84" y="390.94" width="4.01" height="3.07"/><path class="cls-8" d="M724.18,402.52v11.85h3.68c0-7.95.59-9,.59-9h.78s.59,1,.59,9h3.68V402.52Z"/><path class="cls-66" d="M729.81,414a3.27,3.27,0,0,1,3.69,0v1.43h-3.69Z"/><path class="cls-66" d="M727.87,414a3.27,3.27,0,0,0-3.69,0v1.43h3.69Z"/><path class="cls-66" d="M734,392.51h-3.11c0,.63-.89,1.15-2,1.15s-2-.52-2-1.15h-3.11l.45,10h9.32Z"/><path class="cls-66" d="M738.34,402.79l-5.3-8.7c-.84-1.37,1-2.24,1.81-.87l5.3,8.7Z"/><path class="cls-21" d="M738.34,402.79c1,1.65,1.47,1.55,2,1.31s.85-.53-.16-2.18Z"/><path class="cls-66" d="M720.75,403.28l1.92-9.77c.31-1.54,2.33-1.2,2,.34l-1.92,9.77Z"/><path class="cls-21" d="M720.75,403.28c-.36,1.85.07,2,.62,2.13s1,.06,1.4-1.79Z"/><rect class="cls-21" x="749.02" y="390.94" width="4.01" height="3.07"/><path class="cls-8" d="M755.68,402.52v11.85H752c0-7.95-.59-9-.59-9h-.78s-.59,1-.59,9h-3.68V402.52Z"/><path class="cls-66" d="M750.05,414a3.27,3.27,0,0,0-3.69,0v1.43h3.69Z"/><path class="cls-66" d="M752,414a3.27,3.27,0,0,1,3.69,0v1.43H752Z"/><path class="cls-67" d="M745.91,392.51H749c0,.63.9,1.15,2,1.15s2-.52,2-1.15h3.1l-.45,10h-9.32Z"/><path class="cls-67" d="M741.52,402.79l5.31-8.7c.83-1.37-1-2.24-1.82-.87l-5.3,8.7Z"/><path class="cls-21" d="M741.52,402.79c-1,1.65-1.47,1.55-2,1.31s-.84-.53.16-2.18Z"/><path class="cls-67" d="M759.11,403.28l-1.92-9.77a1,1,0,1,0-2,.34l1.92,9.77Z"/><path class="cls-21" d="M759.11,403.28c.37,1.85-.07,2-.62,2.13s-1,.06-1.4-1.79Z"/><path class="cls-18" d="M720.38,382.88l.87,1.6h15.18l.66-1.71c0-6.12-1.42-8.72-8.18-8.78S720.38,376.64,720.38,382.88Z"/><path class="cls-21" d="M736.46,382.78a3.41,3.41,0,0,1-.22.87,1.44,1.44,0,0,1-.55.53,9.69,9.69,0,0,0,.06-1.64c-.38-5.65-.71-2.93-6.91-2.93s-6.53-2.71-6.91,2.92a9.86,9.86,0,0,0,.06,1.65,1.45,1.45,0,0,1-.54-.53,3,3,0,0,1-.23-.87c-.58-.16-1.34,0-1.34,1.67,0,1.05.39,1.92,1.68,2,.46,3.53,5.17,5.89,7.28,5.89s6.82-2.36,7.28-5.89c1.3-.09,1.68-1,1.68-2C737.8,382.75,737.05,382.62,736.46,382.78Z"/><circle class="cls-22" cx="725.66" cy="384.62" r="1.3"/><circle class="cls-22" cx="732.02" cy="384.62" r="1.3"/><path class="cls-22" d="M730.92,388.59a3.15,3.15,0,0,1-4.16,0c-.16-.13-.31.09-.2.29a2.55,2.55,0,0,0,4.56,0C731.23,388.68,731.08,388.46,730.92,388.59Z"/><path class="cls-18" d="M742.56,382.88l.87,1.6h15.18l.66-1.71c0-6.12-1.42-8.72-8.18-8.78S742.56,376.64,742.56,382.88Z"/><path class="cls-21" d="M758.64,382.78a3.41,3.41,0,0,1-.22.87,1.44,1.44,0,0,1-.55.53,10.26,10.26,0,0,0,.07-1.64c-.39-5.65-.71-2.93-6.92-2.93s-6.53-2.71-6.91,2.92a9.86,9.86,0,0,0,.06,1.65,1.45,1.45,0,0,1-.54-.53,3.36,3.36,0,0,1-.23-.87c-.58-.16-1.34,0-1.34,1.67,0,1.05.39,1.92,1.69,2,.45,3.53,5.16,5.89,7.27,5.89s6.82-2.36,7.28-5.89c1.3-.09,1.68-1,1.68-2C760,382.75,759.23,382.62,758.64,382.78Z"/><path class="cls-22" d="M749.14,384.62a1.3,1.3,0,1,1-1.3-1.31A1.3,1.3,0,0,1,749.14,384.62Z"/><circle class="cls-22" cx="754.21" cy="384.62" r="1.3"/><path class="cls-22" d="M753.1,388.59a3.15,3.15,0,0,1-4.16,0c-.16-.13-.3.09-.2.29a2.55,2.55,0,0,0,4.56,0C753.41,388.68,753.26,388.46,753.1,388.59Z"/></svg>