<svg id="Layer_1" data-name="Layer 1" xmlns="http://www.w3.org/2000/svg" viewBox="0 0 1016 629.455"><defs><style>.cls-1{fill:#fff;}.cls-2{fill:#e4eaff;}.cls-3{fill:#b7c6ff;}.cls-4{fill:#3d4d6a;}.cls-5{font-size:28px;fill:#d4f2ff;font-family:Jost-Medium, "Jost*";font-weight:500;}.cls-6{letter-spacing:-0.07em;}.cls-7{letter-spacing:-0.03em;}.cls-8{fill:#594640;}.cls-9{fill:#d6a57c;}.cls-10{fill:#664e27;}.cls-11{fill:#231f20;}.cls-12{font-size:17.856px;}.cls-12,.cls-36,.cls-50,.cls-76,.cls-79{font-family:Jost-Light, "Jost*";font-weight:300;}.cls-13{letter-spacing:-0.1em;}.cls-14{fill:#4d4d4d;}.cls-15{fill:#acb8bf;}.cls-16{fill:#89664c;}.cls-17{fill:#b4d7ee;}.cls-18{fill:#dae3ea;}.cls-19{fill:#94989b;}.cls-20{fill:#c8d0d6;}.cls-21{fill:#a37d64;}.cls-22{fill:#3e4347;}.cls-23{letter-spacing:-0.07em;}.cls-24{letter-spacing:0em;}.cls-25{letter-spacing:-0.03em;}.cls-26{fill:#ffb300;}.cls-27{fill:#01579b;}.cls-28{fill:#c2185b;}.cls-29{fill:#ffdd67;}.cls-30{fill:#937237;}.cls-31{fill:#29b6f6;}.cls-32{fill:#dbb471;}.cls-33{fill:#fed0ac;}.cls-34{fill:#f5f5f5;}.cls-35{fill:#e0a372;}.cls-36{font-size:13.5px;}.cls-37{letter-spacing:-0.03em;}.cls-38{letter-spacing:-0.03em;}.cls-39{letter-spacing:-0.05em;}.cls-40{fill:#b2c1c0;}.cls-41{fill:#e5dec1;}.cls-42{fill:#d33b23;}.cls-43{fill:#d6eef0;}.cls-44{fill:#f15744;}.cls-45{fill:#f9f3d9;}.cls-46{fill:#42ade2;}.cls-47{fill:#666;}.cls-48{fill:#e8e8e8;}.cls-49{fill:#d0d0d0;}.cls-50{font-size:20.786px;}.cls-51{fill:#008dcd;}.cls-52{fill:#018ecd;}.cls-53{fill:#028ecd;}.cls-54{fill:#038fce;}.cls-55{fill:#0690ce;}.cls-56{fill:#0f94d0;}.cls-57{fill:#1998d2;}.cls-58{fill:#63b9e0;}.cls-59{fill:#38a6d8;}.cls-60{fill:#74c1e3;}.cls-61{fill:#53b2dd;}.cls-62{fill:#2da1d6;}.cls-63{fill:#2ca1d5;}.cls-64{fill:#35a5d7;}.cls-65{fill:#d9eef7;}.cls-66{fill:#c7e6f4;}.cls-67{fill:#fefefe;}.cls-68{fill:#fdfefe;}.cls-69{fill:#fcfdfe;}.cls-70{fill:#fbfcfd;}.cls-71{fill:#fafcfd;}.cls-72{fill:#0b92cf;}.cls-73{fill:#5ab5de;}.cls-74{fill:#f7fbfd;}.cls-75{fill:#1496d1;}.cls-76{font-size:18.342px;}.cls-77{fill:#f03;}.cls-78{fill:#62727a;}.cls-79{font-size:18.2px;}.cls-80{letter-spacing:-0.015em;}.cls-81{letter-spacing:0em;}.cls-82{fill:#eba352;}.cls-83{letter-spacing:-0.05em;}.cls-84{fill:#428bc1;}.cls-85{fill:#6adbc6;}</style></defs><rect class="cls-1" width="1016" height="629.455"/><circle class="cls-2" cx="508" cy="314.728" r="310.503"/><circle class="cls-3" cx="508" cy="314.728" r="212.605"/><circle class="cls-4" cx="508" cy="314.728" r="89.97"/><text class="cls-5" transform="translate(444.146 342.655)"><tspan class="cls-6">P</tspan><tspan class="cls-7" x="14.224" y="0">A</tspan><tspan x="32.704" y="0">CIENTE</tspan></text><path class="cls-8" d="M508,259.138c20.295,0,24.707,13.539,24.707,21.177,0,6.764-.883,9.706-.883,9.706H484.176s-.882-2.942-.882-9.706C483.294,272.677,487.706,259.137,508,259.138Z"/><path class="cls-9" d="M530.237,286.491a59.609,59.609,0,0,1-1.06-9.036c-.4-6.587-9.625-1.33-21.177-1.33s-20.777-5.257-21.176,1.33a59.215,59.215,0,0,1-1.062,9.036c-5.7,0-5.7,9.325.371,9.325,0,10.079,12.593,16.264,21.867,16.264s21.867-6.185,21.867-16.264C535.943,295.816,535.943,286.491,530.237,286.491Z"/><circle class="cls-1" cx="519.03" cy="288.697" r="5.735"/><circle class="cls-10" cx="519.03" cy="288.697" r="3.971"/><circle class="cls-11" cx="519.03" cy="288.697" r="1.324"/><circle class="cls-1" cx="496.97" cy="288.697" r="5.735" transform="translate(132.395 733.006) rotate(-80.783)"/><circle class="cls-10" cx="496.97" cy="288.697" r="3.971" transform="translate(-58.581 435.968) rotate(-45)"/><circle class="cls-11" cx="496.97" cy="288.697" r="1.324"/><path class="cls-10" d="M515.139,299.839a11.918,11.918,0,0,1-14.278,0c-.549-.381-1.045.277-.673.888a9.252,9.252,0,0,0,15.623,0C516.186,300.116,515.69,299.458,515.139,299.839Z"/><text class="cls-12" transform="translate(453.369 477.514)">INVERSIONIS<tspan class="cls-13" x="101.618" y="0">T</tspan><tspan x="107.886" y="0">AS</tspan></text><rect class="cls-14" x="507.119" y="439.714" width="21.094" height="11.661"/><rect class="cls-15" x="503.604" y="453.133" width="28.125" height="0.879"/><rect class="cls-15" x="507.119" y="451.375" width="21.094" height="0.879"/><rect class="cls-15" x="510.635" y="449.617" width="14.063" height="0.879"/><rect class="cls-16" x="521.885" y="442.246" width="3.281" height="5.625"/><rect class="cls-17" x="522.354" y="442.715" width="2.344" height="4.688"/><rect class="cls-16" x="523.291" y="442.48" width="0.469" height="5.156"/><rect class="cls-16" x="510.166" y="442.246" width="3.281" height="5.625"/><rect class="cls-17" x="510.635" y="442.715" width="2.344" height="4.688"/><rect class="cls-16" x="511.572" y="442.48" width="0.469" height="5.156"/><rect class="cls-18" x="505.361" y="452.254" width="24.609" height="0.879"/><rect class="cls-18" x="508.877" y="450.496" width="17.578" height="0.879"/><rect class="cls-19" x="504.922" y="437.966" width="25.488" height="0.88"/><rect class="cls-18" x="503.604" y="438.846" width="28.125" height="0.88"/><polygon class="cls-19" points="517.661 427.218 503.604 434.903 504.781 436.663 517.661 428.086 530.551 436.663 531.729 434.903 517.661 427.218"/><polygon class="cls-18" points="517.661 425.887 503.604 434.903 503.604 436.223 517.661 427.206 531.729 436.223 531.729 434.903 517.661 425.887"/><polygon class="cls-18" points="517.661 428.086 503.604 437.103 503.604 437.982 531.729 437.982 531.729 437.103 517.661 428.086"/><polygon class="cls-15" points="517.661 429.394 505.986 437.103 529.346 437.103 517.661 429.394"/><path class="cls-1" d="M517.666,433.106a.743.743,0,1,1,.838-.736h.837a1.521,1.521,0,0,0-1.256-1.421v-.421h-.838v.421a1.521,1.521,0,0,0-1.257,1.421,1.586,1.586,0,0,0,1.676,1.472.743.743,0,1,1-.838.737h-.838A1.521,1.521,0,0,0,517.247,436v.42h.838V436a1.522,1.522,0,0,0,1.256-1.421A1.585,1.585,0,0,0,517.666,433.106Z"/><rect class="cls-18" x="505.713" y="440.64" width="2.813" height="10.66"/><rect class="cls-19" x="505.361" y="451.3" width="3.516" height="0.954"/><rect class="cls-19" x="505.361" y="439.714" width="3.516" height="0.925"/><rect class="cls-20" x="505.994" y="441.067" width="0.332" height="9.834"/><rect class="cls-20" x="507.912" y="441.067" width="0.332" height="9.834"/><rect class="cls-20" x="507.273" y="441.067" width="0.331" height="9.834"/><rect class="cls-20" x="506.634" y="441.067" width="0.331" height="9.834"/><rect class="cls-18" x="526.807" y="440.64" width="2.813" height="10.66"/><rect class="cls-19" x="526.455" y="451.3" width="3.516" height="0.954"/><rect class="cls-19" x="526.455" y="439.714" width="3.516" height="0.925"/><rect class="cls-20" x="527.087" y="441.067" width="0.332" height="9.834"/><rect class="cls-20" x="529.006" y="441.067" width="0.332" height="9.834"/><rect class="cls-20" x="528.367" y="441.067" width="0.331" height="9.834"/><rect class="cls-20" x="527.727" y="441.067" width="0.331" height="9.834"/><path class="cls-16" d="M515.149,444.76v4.6h5.034v-4.6C520.183,441.378,515.149,441.43,515.149,444.76Z"/><path class="cls-8" d="M515.517,444.955v4.4h4.3v-4.4A2.157,2.157,0,1,0,515.517,444.955Z"/><path class="cls-21" d="M515.586,444.99v4.367h4.159V444.99A2.091,2.091,0,1,0,515.586,444.99Z"/><rect class="cls-19" x="514.888" y="449.357" width="5.556" height="0.26"/><path class="cls-8" d="M517.941,444.888h1.444a1.694,1.694,0,0,0-1.444-1.715Z"/><path class="cls-8" d="M517.457,444.888v-1.711a1.71,1.71,0,0,0-1.444,1.711Z"/><path class="cls-16" d="M517.9,444.86h1.445a1.694,1.694,0,0,0-1.445-1.715Z"/><path class="cls-16" d="M517.417,444.86v-1.713a1.711,1.711,0,0,0-1.444,1.713Z"/><rect class="cls-8" x="517.941" y="445.36" width="1.449" height="1.428"/><rect class="cls-8" x="516.009" y="445.36" width="1.449" height="1.428"/><rect class="cls-16" x="517.901" y="445.331" width="1.449" height="1.428"/><rect class="cls-16" x="515.969" y="445.331" width="1.448" height="1.428"/><rect class="cls-8" x="517.941" y="447.403" width="1.449" height="1.428"/><rect class="cls-8" x="516.009" y="447.403" width="1.449" height="1.428"/><rect class="cls-16" x="517.901" y="447.375" width="1.449" height="1.429"/><rect class="cls-16" x="515.969" y="447.375" width="1.448" height="1.429"/><rect class="cls-18" x="519.008" y="445.961" width="0.607" height="1.215"/><rect class="cls-15" x="519.051" y="446.004" width="0.521" height="1.128"/><path class="cls-22" d="M519.4,447.032l-.036-.232a.086.086,0,0,0,.035-.069.087.087,0,1,0-.173,0,.085.085,0,0,0,.034.069l-.036.232Z"/><path class="cls-19" d="M519.311,446.073a.249.249,0,1,1-.249.249A.249.249,0,0,1,519.311,446.073Z"/><path class="cls-18" d="M519.311,446.028a.25.25,0,1,1-.249.25A.25.25,0,0,1,519.311,446.028Z"/><text class="cls-12" transform="translate(497.937 180.831)"><tspan class="cls-23">F<tspan class="cls-24" x="7.321" y="0">AMILIA O</tspan></tspan><tspan x="-11.973" y="21.427">CUI</tspan><tspan class="cls-25" x="14.99" y="21.427">D</tspan><tspan class="cls-24" x="26.275" y="21.427">ADORES</tspan></text><path class="cls-26" d="M529.639,131.437c-4.551,0-7.035,2.967-7.035,6.877v8.675h14.07v-8.675c0-5.812-3.81-5.7-3.81-5.7S532.578,131.437,529.639,131.437Z"/><path class="cls-27" d="M536.674,146.8v12.762h14.055V146.8C550.729,144.1,536.674,144.1,536.674,146.8Z"/><path class="cls-28" d="M522.6,146.8v12.762h14.07V146.8C536.674,144.1,522.6,144.1,522.6,146.8Z"/><path class="cls-29" d="M524.685,141.582s-1.045-.267-1.045-1.813c0-1.225.789-1.436.789-1.436,2.823,0,7.424-3.671,7.424-3.671s1.738,3.24,3.417,3.671c0,0,.813.149.813,1.436A1.683,1.683,0,0,1,535,141.582c-.014,2.334-3.2,4.68-5.137,4.68S524.685,143.916,524.685,141.582Z"/><circle class="cls-30" cx="527.344" cy="140.019" r="1.055"/><circle class="cls-30" cx="532.378" cy="140.019" r="1.055"/><path class="cls-30" d="M531.546,143.227a2.565,2.565,0,0,1-3.369,0c-.131-.1-.248.074-.159.236a2.061,2.061,0,0,0,3.688,0C531.794,143.3,531.677,143.126,531.546,143.227Z"/><path class="cls-26" d="M536.616,138.618l.707,1.292h12.293l.536-1.379c0-4.947-1.15-7.043-6.624-7.094C538,131.386,536.616,133.582,536.616,138.618Z"/><path class="cls-29" d="M549.642,138.534a2.563,2.563,0,0,1-.183.706,1.181,1.181,0,0,1-.441.427,8.157,8.157,0,0,0,.052-1.325c-.308-4.559-.576-2.369-5.6-2.369s-5.289-2.189-5.6,2.363a8.318,8.318,0,0,0,.051,1.331,1.174,1.174,0,0,1-.44-.427,2.5,2.5,0,0,1-.182-.706c-.475-.124-1.087-.02-1.087,1.349,0,.851.312,1.55,1.364,1.626.37,2.85,4.183,4.754,5.893,4.754s5.524-1.9,5.894-4.754c1.052-.076,1.365-.774,1.365-1.626C550.729,138.514,550.116,138.41,549.642,138.534Z"/><circle class="cls-30" cx="540.892" cy="140.019" r="1.055"/><circle class="cls-30" cx="546.049" cy="140.019" r="1.055"/><path class="cls-30" d="M545.155,143.227a2.566,2.566,0,0,1-3.37,0c-.13-.1-.247.074-.159.236a2.061,2.061,0,0,0,3.688,0C545.4,143.3,545.285,143.126,545.155,143.227Z"/><path class="cls-31" d="M542.541,159.562H530.792C530.792,155.607,542.541,155.607,542.541,159.562Z"/><path class="cls-26" d="M536.667,147.366c-3.164,0-5.112,1.774-5.112,3.976v1.479c0,1.74,1.377,1.741,1.376,1.74H540.6s1.18,0,1.18-1.74v-1.479C541.778,149.14,539.726,147.366,536.667,147.366Z"/><path class="cls-29" d="M532.039,153.215l.19-2.1c0-1.34,2.1-.27,4.438-.27s4.437-1.07,4.437.27l.19,2.1a.827.827,0,0,1,0,1.65c0,2.049-2.753,3.287-4.628,3.287s-4.628-1.238-4.628-3.287A.828.828,0,0,1,532.039,153.215Z"/><circle class="cls-30" cx="534.424" cy="153.838" r="0.82"/><circle class="cls-30" cx="538.91" cy="153.838" r="0.82"/><path class="cls-30" d="M535.192,155.98a2.331,2.331,0,0,0,2.949,0c.115-.084.217.062.139.2a1.845,1.845,0,0,1-3.227,0C534.976,156.042,535.078,155.9,535.192,155.98Z"/><text class="cls-12" transform="matrix(1, 0.004, -0.004, 1, 619.668, 329.154)">MÉDICOS</text><path class="cls-32" d="M645.25,298.087h24.375c0-13.125-1.875-15.938-12.187-15.938S645.25,284.962,645.25,298.087Z"/><path class="cls-33" d="M668.6,295.221a4.447,4.447,0,0,1-.329,1.256,2.128,2.128,0,0,1-.8.761,14.277,14.277,0,0,0,.092-2.359c-.557-8.118-1.04-5.886-10.125-5.886s-9.566-2.227-10.126,5.875a14.414,14.414,0,0,0,.092,2.37,2.114,2.114,0,0,1-.8-.76,4.425,4.425,0,0,1-.328-1.257c-.859-.221-1.967-.037-1.967,2.4,0,1.517.565,2.761,2.468,2.9.628,4.767,3.406,7.228,8.076,9.327a7.955,7.955,0,0,0,5.163,0c4.67-2.1,7.448-4.561,8.077-9.327,1.9-.135,2.466-1.379,2.466-2.9C670.562,295.184,669.455,295,668.6,295.221Z"/><path class="cls-10" d="M661.656,304.114c0,1.607-2.109,2.41-4.218,2.41s-4.219-.8-4.219-2.41a.4.4,0,0,1,.422-.4h7.593A.4.4,0,0,1,661.656,304.114Z"/><path class="cls-34" d="M651.812,294.6c-2.343,0-3.281.846-3.281,1.691s0,2.06,3.1,2.06c3,0,3.465-.369,3.465-1.637C655.094,295.871,654.156,294.6,651.812,294.6Z"/><circle class="cls-10" cx="652.047" cy="296.039" r="2.109"/><path class="cls-11" d="M652.75,296.038a.7.7,0,1,1-.7-.7A.7.7,0,0,1,652.75,296.038Z"/><path class="cls-10" d="M648.531,296.274c0-3.281,6.563-3.281,6.563.468C654.156,293.93,649.469,293.93,648.531,296.274Z"/><path class="cls-34" d="M663.062,294.6c2.344,0,3.282.846,3.282,1.691s0,2.06-3.1,2.06c-3,0-3.465-.369-3.465-1.637C659.781,295.871,660.719,294.6,663.062,294.6Z"/><circle class="cls-10" cx="662.828" cy="296.039" r="2.109"/><path class="cls-11" d="M662.125,296.038a.7.7,0,1,0,.7-.7A.7.7,0,0,0,662.125,296.038Z"/><path class="cls-10" d="M666.344,296.274c0-3.281-6.563-3.281-6.563.468C660.719,293.93,665.406,293.93,666.344,296.274Z"/><path class="cls-35" d="M657.438,302.306c-1.96,0-2.94-1.407-1.96-1.407H659.4C660.376,300.9,659.4,302.305,657.438,302.306Z"/><text class="cls-36" transform="translate(322.51 286.329)">PROFESORES<tspan x="-5.582" y="16.2">DEL CURSO DE</tspan><tspan x="3.348" y="32.4">PR</tspan><tspan class="cls-37" x="17.428" y="32.4">O</tspan><tspan x="27.594" y="32.4">YE</tspan><tspan class="cls-38" x="42.079" y="32.4">C</tspan><tspan class="cls-39" x="50.921" y="32.4">T</tspan><tspan x="56.335" y="32.4">OS</tspan><tspan x="-5.096" y="48.6">DE BIODISEÑO</tspan></text><path class="cls-40" d="M361.641,238.544a.469.469,0,1,1-.937,0v-5.078a.469.469,0,1,1,.937,0Z"/><rect class="cls-41" x="348.047" y="246.122" width="26.25" height="15"/><path class="cls-42" d="M374.542,242.273a1.707,1.707,0,0,0-1.387-.838H349.19a1.707,1.707,0,0,0-1.387.838l-1.539,3.01c-.236.462,0,.839.529.839h28.759c.527,0,.765-.377.529-.839Z"/><rect class="cls-43" x="349.454" y="251.747" width="3.75" height="2.813" rx="0.469"/><rect class="cls-43" x="349.454" y="247.06" width="3.75" height="2.813" rx="0.469"/><path class="cls-32" d="M349.922,247.294a.234.234,0,0,0-.234.234V249.4a.235.235,0,0,0,.234.235h2.813a.235.235,0,0,0,.234-.235v-1.875a.234.234,0,0,0-.234-.234Zm2.813,2.812h-2.813a.7.7,0,0,1-.7-.7v-1.875a.7.7,0,0,1,.7-.7h2.813a.7.7,0,0,1,.7.7V249.4A.7.7,0,0,1,352.735,250.106Z"/><rect class="cls-32" x="351.094" y="247.06" width="0.469" height="2.813"/><path class="cls-32" d="M349.922,252.216a.234.234,0,0,0-.234.234v1.875a.235.235,0,0,0,.234.235h2.813a.235.235,0,0,0,.234-.235V252.45a.234.234,0,0,0-.234-.234Zm2.813,2.812h-2.813a.7.7,0,0,1-.7-.7V252.45a.7.7,0,0,1,.7-.7h2.813a.7.7,0,0,1,.7.7v1.875A.7.7,0,0,1,352.735,255.028Z"/><rect class="cls-32" x="351.094" y="251.981" width="0.469" height="2.813"/><rect class="cls-43" x="349.454" y="256.435" width="3.75" height="2.813" rx="0.469"/><path class="cls-32" d="M349.922,256.9a.235.235,0,0,0-.234.235v1.875a.234.234,0,0,0,.234.234h2.813a.234.234,0,0,0,.234-.234v-1.875a.235.235,0,0,0-.234-.235Zm2.813,2.813h-2.813a.7.7,0,0,1-.7-.7v-1.875a.7.7,0,0,1,.7-.7h2.813a.7.7,0,0,1,.7.7v1.875A.7.7,0,0,1,352.735,259.716Z"/><rect class="cls-32" x="351.094" y="256.669" width="0.469" height="2.813"/><rect class="cls-43" x="369.141" y="251.747" width="3.75" height="2.813" rx="0.469"/><rect class="cls-43" x="369.141" y="247.06" width="3.75" height="2.813" rx="0.469"/><path class="cls-32" d="M369.61,247.294a.235.235,0,0,0-.235.234V249.4a.236.236,0,0,0,.235.235h2.812a.236.236,0,0,0,.235-.235v-1.875a.235.235,0,0,0-.235-.234Zm2.812,2.812H369.61a.7.7,0,0,1-.7-.7v-1.875a.7.7,0,0,1,.7-.7h2.812a.7.7,0,0,1,.7.7V249.4A.7.7,0,0,1,372.422,250.106Z"/><rect class="cls-32" x="370.782" y="247.06" width="0.469" height="2.813"/><path class="cls-32" d="M369.61,252.216a.235.235,0,0,0-.235.234v1.875a.236.236,0,0,0,.235.235h2.812a.236.236,0,0,0,.235-.235V252.45a.235.235,0,0,0-.235-.234Zm2.812,2.812H369.61a.7.7,0,0,1-.7-.7V252.45a.7.7,0,0,1,.7-.7h2.812a.7.7,0,0,1,.7.7v1.875A.7.7,0,0,1,372.422,255.028Z"/><rect class="cls-32" x="370.782" y="251.981" width="0.469" height="2.813"/><rect class="cls-43" x="369.141" y="256.435" width="3.75" height="2.813" rx="0.469"/><path class="cls-32" d="M369.61,256.9a.236.236,0,0,0-.235.235v1.875a.235.235,0,0,0,.235.234h2.812a.235.235,0,0,0,.235-.234v-1.875a.236.236,0,0,0-.235-.235Zm2.812,2.813H369.61a.7.7,0,0,1-.7-.7v-1.875a.7.7,0,0,1,.7-.7h2.812a.7.7,0,0,1,.7.7v1.875A.7.7,0,0,1,372.422,259.716Z"/><rect class="cls-32" x="370.782" y="256.669" width="0.469" height="2.813"/><path class="cls-44" d="M361.537,238.448a.607.607,0,0,0-.729,0l-9.115,7.379c-.2.162-.153.3.1.3h18.75c.258,0,.3-.133.1-.3Z"/><path class="cls-45" d="M368.78,245.824l-7.246-5.966a.594.594,0,0,0-.724,0l-7.245,5.966c-.2.164-.15.3.107.3h.938v15h13.125v-15h.937C368.93,246.122,368.978,245.988,368.78,245.824Z"/><rect class="cls-41" x="357.422" y="254.091" width="7.5" height="7.031"/><rect class="cls-46" x="358.36" y="254.091" width="5.625" height="7.031"/><path class="cls-16" d="M355.642,250.826a1.311,1.311,0,0,0,.512.112c.213,0,.325-.077.325-.2s-.1-.178-.342-.256c-.341-.1-.562-.272-.562-.536,0-.31.291-.547.774-.547a1.4,1.4,0,0,1,.522.091l-.1.332a1.056,1.056,0,0,0-.428-.087c-.2,0-.3.081-.3.175,0,.116.116.167.38.256.361.119.531.286.531.542,0,.3-.264.563-.826.563a1.476,1.476,0,0,1-.58-.111Z"/><path class="cls-16" d="M358.769,251.2a1.455,1.455,0,0,1-.525.079c-.708,0-1.072-.391-1.072-.908a1,1,0,0,1,1.118-.965,1.327,1.327,0,0,1,.5.081l-.094.326a1.108,1.108,0,0,0-.388-.068.6.6,0,1,0,0,1.194,1.285,1.285,0,0,0,.385-.06Z"/><polygon class="cls-16" points="359.537 249.433 359.537 250.13 360.3 250.13 360.3 249.433 360.761 249.433 360.761 251.248 360.3 251.248 360.3 250.488 359.537 250.488 359.537 251.248 359.073 251.248 359.073 249.433 359.537 249.433"/><path class="cls-16" d="M361.56,250.346c0,.356.188.607.5.607s.492-.264.492-.617c0-.326-.177-.606-.5-.606S361.56,249.993,361.56,250.346Zm1.478-.024a.919.919,0,0,1-1,.956.9.9,0,0,1-.963-.924.931.931,0,0,1,1-.951A.9.9,0,0,1,363.038,250.322Z"/><path class="cls-16" d="M363.737,250.346c0,.356.188.607.5.607s.492-.264.492-.617c0-.326-.176-.606-.495-.606S363.737,249.993,363.737,250.346Zm1.478-.024a.918.918,0,0,1-1,.956.9.9,0,0,1-.962-.924.931.931,0,0,1,1-.951A.9.9,0,0,1,365.215,250.322Z"/><polygon class="cls-16" points="365.519 249.433 365.983 249.433 365.983 250.904 366.797 250.904 366.797 251.248 365.519 251.248 365.519 249.433"/><circle class="cls-32" cx="361.172" cy="245.185" r="3.281"/><circle class="cls-1" cx="361.172" cy="245.185" r="2.344"/><rect class="cls-41" x="360.938" y="254.091" width="0.469" height="7.031"/><path class="cls-40" d="M361.172,243.31a.47.47,0,0,0-.468.468v1.875a.469.469,0,1,0,.937,0v-1.875A.47.47,0,0,0,361.172,243.31Z"/><path class="cls-44" d="M361.172,245.185h-.937a.469.469,0,1,0,0,.937h.937a.469.469,0,1,0,0-.937Z"/><path class="cls-17" d="M361.641,233.935v3.452c1.875,1.5,3.75-3.223,5.625-1.726C365.391,233.014,363.516,236.581,361.641,233.935Z"/><path class="cls-44" d="M361.616,251.883a.794.794,0,0,0-.888,0c-1.021.728-4.243,2.674-4.243,2.674v.94h9.375v-.94S362.638,252.611,361.616,251.883Z"/><rect class="cls-47" x="346.172" y="261.122" width="30" height="1.875" rx="0.469"/><rect class="cls-48" x="355.547" y="262.06" width="11.25" height="0.938"/><rect class="cls-49" x="356.485" y="261.122" width="9.375" height="0.938"/><rect class="cls-47" x="359.796" y="258.075" width="0.674" height="0.34"/><rect class="cls-47" x="361.875" y="258.075" width="0.674" height="0.34"/><text class="cls-50" transform="translate(416.342 87.963) rotate(0.189)">OMS</text><path class="cls-51" d="M435.923,62.936c-.151-.1-.339-.051-.527-.119a9.524,9.524,0,0,1,2.756-2.161,4.042,4.042,0,0,0-1.1.095c-.814.155-1.59.447-2.384.672a8.477,8.477,0,0,1-4.106.212,5.026,5.026,0,0,1-2.2-1.088.923.923,0,0,1-.058-.076c.267.069.487.169.723.217a5.96,5.96,0,0,0,2.4-.1c.906-.183,1.787-.472,2.7-.631a9.12,9.12,0,0,1,4.627.183.965.965,0,0,0,.676-.005,8.181,8.181,0,0,1,3.459-.337,24.292,24.292,0,0,1,3.485.708,7.619,7.619,0,0,0,2.083.261,4.193,4.193,0,0,0,1.23-.239c.045-.022.084-.033.081.041a5.164,5.164,0,0,1-2.884,1.183,9.925,9.925,0,0,1-4.179-.569,9.684,9.684,0,0,0-2.137-.515,3.626,3.626,0,0,0-.513-.014,9.975,9.975,0,0,1,2.706,2.15c-.189.094-.4.03-.564.13h-.276a.4.4,0,0,1-.141-.16,4.653,4.653,0,0,0-2.182-1.829,1.392,1.392,0,0,0-1.173.066,4.516,4.516,0,0,0-2.031,1.746.44.44,0,0,1-.151.177Z"/><path class="cls-51" d="M422.516,48.94a9.1,9.1,0,0,0,2.029,2.6,10.118,10.118,0,0,1,1.537,2.084c.04-.03.024-.072.018-.111s-.021-.089-.031-.134a5.889,5.889,0,0,1,.207-3.255,6.142,6.142,0,0,0,.341-1.353,4.352,4.352,0,0,1,.314,1.033,6.775,6.775,0,0,1-.011,2.273,7.549,7.549,0,0,0,.137,3.184,11.367,11.367,0,0,0-1.935-1.437,5.927,5.927,0,0,1-2.15-2.506,6.154,6.154,0,0,1-.41-1.555c-.006-.041.014-.1-.046-.117Z"/><path class="cls-51" d="M441.555,44.351c0-.092.071-.114.13-.154s.141-.053.053-.139a.036.036,0,0,1-.006-.051c.052-.086.382-.149.451-.073.106.118.177.115.291,0,.343-.362.7-.709,1.055-1.064.052-.052.16-.1.055-.2-.008-.008.007-.048.019-.069.1-.185.195-.37.3-.57l.183.318c.122-.135.228-.261.344-.375.082-.079.012-.125-.02-.183s-.093-.112.016-.129c.155-.025.113-.084.041-.159a1.308,1.308,0,0,1-.4-.992,2.313,2.313,0,0,0-.4-1.222c-.03-.05-.118-.134-.062-.158.1-.04.181-.178.288-.115a3.613,3.613,0,0,1,1.156.724,1.16,1.16,0,0,1,.229.653c.01.121.038.115.123.126.122.015.26.028.223.216.075,0,.1-.062.142-.1.327-.324.649-.652.978-.974.074-.072.092-.11,0-.194a10.979,10.979,0,0,0-5.938-2.943c-.155-.025-.311-.046-.467-.069-.077-.011-.2.016-.144-.127.039-.1-.049-.282.2-.253a10.853,10.853,0,0,1,3.524,1,11.194,11.194,0,0,1,6.5,8.638,11.461,11.461,0,0,1-21.539,6.973,11.5,11.5,0,0,1,8.178-16.5c.238-.045.48-.068.721-.1s.131.175.177.269c.062.126-.06.1-.118.1a11.033,11.033,0,0,0-5.691,2.4c-.235.189-.454.4-.683.595-.071.061-.075.1-.005.17q.576.567,1.143,1.143c.082.084.126.067.2-.005a8.914,8.914,0,0,1,1.585-1.2c.053-.031.1-.091.19-.063-.221.314-.341.686-.716.887a4.536,4.536,0,0,0-.794.643c-.084.073-.089.118,0,.2.224.209.44.428.663.648-.3.174-.391.164-.6-.047-.107-.107-.22-.209-.319-.323-.083-.1-.13-.083-.212.007a8.844,8.844,0,0,0-2.321,5.673c0,.126.013.19.165.188.519-.009,1.038-.008,1.557,0,.128,0,.149-.046.155-.158a6.88,6.88,0,0,1,1.762-4.363c.06-.068.117-.112.026-.224s.041-.243.107-.337.121.032.154.074c.1.12.149.036.216-.024a6.869,6.869,0,0,1,3.506-1.713c.067-.012.181-.1.185.063,0,.118.1.272-.131.313a6.551,6.551,0,0,0-3.208,1.537c-.207.179-.207.178-.012.373.348.349.7.7,1.047,1.045.064.063.087.105.025.193a2.754,2.754,0,0,0,.992,4.019,1.314,1.314,0,0,1,.647.563c.023.048.078.173.152.067.173-.249.368-.148.576-.056a1.137,1.137,0,0,1-.257.28c-.075.074-.089.123.016.172a.574.574,0,0,1,.066.043c.284.176.284.176.26.543a1.879,1.879,0,0,1-.589-.3c-.093-.072-.148-.063-.229.02-.367.376-.738.749-1.115,1.114-.1.093-.079.137.014.208a4.18,4.18,0,0,0,.706.465c.241.117.024.243,0,.351-.031.152-.127.016-.172-.006a3.71,3.71,0,0,1-.8-.534c-.089-.078-.142-.1-.236,0-.36.373-.728.74-1.1,1.1-.1.092-.092.142,0,.225a6.571,6.571,0,0,0,3.208,1.536.822.822,0,0,0,.174.029c.188-.009.239.07.234.256,0,.17-.084.156-.195.14a7.223,7.223,0,0,1-1.761-.478,6.536,6.536,0,0,1-1.354-.757c-.1-.07-.145-.067-.169.051-.029.149-.129.177-.261.161-.071-.009-.145,0-.216-.013a.407.407,0,0,0-.454.181c-.094.142-.24.067-.363.057a.636.636,0,0,0-.522.293c-.03.083.052.11.1.149a8.847,8.847,0,0,0,2.456,1.579,8.685,8.685,0,0,0,2.64.669c.256.024.115.2.131.309.022.144-.1.078-.166.072a9.093,9.093,0,0,1-5.354-2.377c-.092-.084-.137-.075-.218.009-.363.371-.73.739-1.1,1.1-.092.09-.094.138,0,.228a10.752,10.752,0,0,0,5.424,2.747,10.922,10.922,0,0,0,9.63-2.746c.119-.106.137-.162.012-.281-.367-.348-.722-.709-1.074-1.072-.088-.09-.135-.093-.229-.006a9.137,9.137,0,0,1-4.334,2.242,10.118,10.118,0,0,1-1.109.164c-.06.007-.187.063-.156-.085.022-.1-.111-.279.13-.3a8.469,8.469,0,0,0,1.224-.193.48.48,0,0,0,.439-.516,2.477,2.477,0,0,0-1.445-2.625.411.411,0,0,1-.275-.476,2.763,2.763,0,0,0,.014-.53c-.013-.154.06-.2.187-.236a6.946,6.946,0,0,0,.982-.349,2.061,2.061,0,0,0,1.2-1.21,2.017,2.017,0,0,0-.683-2.209,4.8,4.8,0,0,0-1.433-.725c-.078-.027-.157-.038-.156-.161.007-.609,0-1.218,0-1.822a.281.281,0,0,1,.248.068.933.933,0,0,0,.593.131c.027,0,.058,0,.059-.029s0-.1-.021-.108a.245.245,0,0,1-.139-.246,1.63,1.63,0,0,1,.26-.366c.033-.04.077,0,.105.021s0,.053-.017.077-.088.06-.091.127c.221,0,.428-.085.65-.077.065,0,.133-.116.2-.18a.819.819,0,0,0,.124-.126c.046-.07.2-.115.126-.2s-.2-.025-.3.018c-.052.024-.08.089-.145.1A.058.058,0,0,1,441.555,44.351Z"/><path class="cls-51" d="M438.243,48.344a4.5,4.5,0,0,1-1.934-1.023,2.436,2.436,0,0,1,.409-3.556,6.728,6.728,0,0,1,2.056-.815,14.119,14.119,0,0,0,2.279-.672,1.98,1.98,0,0,0,.833-.642,1.509,1.509,0,0,0-.291-2.006,2.468,2.468,0,0,0-1.268-.543c-.175-.026-.261-.054-.238-.267a8.644,8.644,0,0,0,.019-.925c0-.1.011-.145.127-.134A4.379,4.379,0,0,1,442.9,38.9a2.8,2.8,0,0,1-.512,4.362,8.462,8.462,0,0,1-2.264.825c-.541.135-1.087.25-1.614.433a2.81,2.81,0,0,0-.738.366,1.073,1.073,0,0,0-.035,1.765,1.253,1.253,0,0,0,.3.191.316.316,0,0,1,.214.347C438.238,47.566,438.243,47.94,438.243,48.344Z"/><path class="cls-51" d="M438.48,42.635c0-.728.011-1.429,0-2.13-.024-1.286-.049-2.571-.1-3.856-.015-.383-.13-.761-.184-1.144a2.906,2.906,0,0,1,.02-1.134.879.879,0,0,1,1.056-.687.819.819,0,0,1,.76.813,3.352,3.352,0,0,1-.093,1.19,9.587,9.587,0,0,0-.2,2.149c-.03,1.462-.069,2.924-.1,4.387,0,.082-.015.131-.107.152C439.2,42.452,438.871,42.538,438.48,42.635Z"/><path class="cls-51" d="M429.424,55.244a8.87,8.87,0,0,1,2.1,2.551,6.231,6.231,0,0,1,.287.667,6.144,6.144,0,0,0,.74,1.557,7.356,7.356,0,0,0-1.893-.05,6.034,6.034,0,0,1-3.323-.694,5.44,5.44,0,0,1-1.979-2.136l.049-.019a4.33,4.33,0,0,0,2.163,1.005c.832.186,1.679.3,2.5.547a6.187,6.187,0,0,1,.979.391c.034-.049,0-.068-.024-.087a4.805,4.805,0,0,1-1.444-2.923,3.508,3.508,0,0,0-.206-.757C429.358,55.248,429.381,55.236,429.424,55.244Z"/><path class="cls-51" d="M447.111,59.055a8.956,8.956,0,0,1,.96-.377c.823-.252,1.677-.366,2.514-.553a4.728,4.728,0,0,0,1.864-.751c.058-.043.111-.092.169-.136s.083-.115.194-.128a5.722,5.722,0,0,1-.628.967,4.873,4.873,0,0,1-3.61,1.867c-.638.05-1.272,0-1.908-.007a2.925,2.925,0,0,0-1.048.095c.043-.075.067-.123.1-.167a5.009,5.009,0,0,0,.568-1.227A6.9,6.9,0,0,1,447.951,56c.268-.278.544-.544.855-.824a.993.993,0,0,1-.1.363c-.1.334-.145.679-.212,1.019a4.573,4.573,0,0,1-1.243,2.3A.39.39,0,0,0,447.111,59.055Z"/><path class="cls-51" d="M454.81,53a.931.931,0,0,1-.082.418,6.475,6.475,0,0,1-1.158,2.219,4.828,4.828,0,0,1-2.531,1.541c-.323.087-.648.163-.972.245a5.563,5.563,0,0,0-1.426.5,4.7,4.7,0,0,0,.565-1.324c.147-.606.191-1.231.321-1.841a7.634,7.634,0,0,1,1.124-2.6.507.507,0,0,1,.057-.051,18.84,18.84,0,0,0,.012,2.293,4.012,4.012,0,0,1-.431,1.82c-.018.034-.033.071-.048.107l.01.015c.026.021.048.009.069-.008a11.323,11.323,0,0,1,1.973-1.215,7.43,7.43,0,0,0,1.992-1.424A6.906,6.906,0,0,0,454.81,53Z"/><path class="cls-51" d="M427.884,56.265a5.121,5.121,0,0,1-.416-2.842,6.04,6.04,0,0,0-.016-1.309c.074.038.1.107.134.162A7.676,7.676,0,0,1,428.78,55.6a5.028,5.028,0,0,0,.712,2.249c.009.014,0,.036.01.083a10.153,10.153,0,0,0-2.45-.767,4.909,4.909,0,0,1-3.389-3.109,6.185,6.185,0,0,1-.322-.969c-.015-.043,0-.052.043-.044a5.609,5.609,0,0,0,2.163,1.9c.633.356,1.294.666,1.892,1.084.134.094.263.2.394.293C427.892,56.341,427.9,56.315,427.884,56.265Z"/><path class="cls-51" d="M452.119,53.548a11.936,11.936,0,0,1,1.912-2.444,7.988,7.988,0,0,0,1.4-1.721c.07-.131.128-.267.212-.444a6.105,6.105,0,0,1-.214,1.691,5.465,5.465,0,0,1-2.244,3.088c-.529.377-1.073.734-1.6,1.109a6.067,6.067,0,0,0-.469.411,6.362,6.362,0,0,0,.226-2.169c-.038-.556-.116-1.109-.169-1.664a5.736,5.736,0,0,1,.38-2.7c.108,1.078.644,2,.677,3.038a7.232,7.232,0,0,1-.113,1.527c-.011.065-.019.13-.029.2-.019.039-.005.081-.011.12,0,.007-.016.013,0,.021A.246.246,0,0,1,452.119,53.548Z"/><path class="cls-51" d="M422.891,45.179a4.058,4.058,0,0,0,.592,1.74,15.545,15.545,0,0,1,1.226,2.439,5.112,5.112,0,0,0,.267.689c0-.235-.007-.47,0-.7a4.5,4.5,0,0,1,1.118-2.776,5.732,5.732,0,0,0,.638-.952,7.777,7.777,0,0,1-.018,1.013,6.52,6.52,0,0,1-.662,2.171,6.706,6.706,0,0,0-.678,1.942,5.323,5.323,0,0,0-.054.883c-.018,0-.037,0-.039,0a5.254,5.254,0,0,0-1.041-1.374,6.069,6.069,0,0,1-1.2-1.622,4.779,4.779,0,0,1-.305-2.7A3.628,3.628,0,0,1,422.891,45.179Z"/><path class="cls-51" d="M455.319,45.315a6.236,6.236,0,0,1,.1,2.326,4.522,4.522,0,0,1-1.295,2.384q-.3.321-.6.65a3.7,3.7,0,0,0-.674,1.01c-.012-.24-.019-.428-.031-.616a5.967,5.967,0,0,0-.674-2.185,6.939,6.939,0,0,1-.669-1.986,5.986,5.986,0,0,1-.051-1.285c.326.619.776,1.092,1.125,1.635a4.433,4.433,0,0,1,.641,2.342,4.016,4.016,0,0,0,.026.5c.036-.12.071-.24.107-.36a11.766,11.766,0,0,1,1.138-2.435,5.5,5.5,0,0,0,.714-1.59c.033-.153.048-.31.07-.466C455.327,45.215,455.289,45.3,455.319,45.315Z"/><path class="cls-51" d="M424.717,46.331a5.5,5.5,0,0,1,1.885-2.948,7.12,7.12,0,0,0,1.106-1.026.391.391,0,0,1-.042.258,8.74,8.74,0,0,1-1.713,3.029,5.931,5.931,0,0,0-1.285,2.321c0,.01-.018.018-.037.036a9.773,9.773,0,0,0-.825-1.85,4.64,4.64,0,0,1,.443-4.861.233.233,0,0,1,.037-.046c.008-.008.022-.009.044-.017-.041.222-.089.438-.118.656a7.634,7.634,0,0,0,.136,2.211,15.969,15.969,0,0,1,.305,2.2.347.347,0,0,1,.025.085C424.705,46.375,424.7,46.343,424.717,46.331Z"/><path class="cls-51" d="M453.528,48.043c-.087-.249-.155-.46-.234-.667a6.127,6.127,0,0,0-1.083-1.726,8.715,8.715,0,0,1-1.794-3.3c.116.06.165.171.242.25.3.31.651.572.98.853a5.517,5.517,0,0,1,1.791,2.81c.012.042.013.09.068.12.03-1.024.3-2.009.423-3.014a5.308,5.308,0,0,0-.105-2.151c.039-.007.061.02.079.047a4.932,4.932,0,0,1,.948,3.1,5.9,5.9,0,0,1-.715,2.252A5.413,5.413,0,0,0,453.528,48.043Z"/><path class="cls-51" d="M437.388,51.963a1.069,1.069,0,0,1,.453-.794,4.373,4.373,0,0,1,1.4-.648,6.655,6.655,0,0,0,.777-.279,1.137,1.137,0,0,0,.488-.385.515.515,0,0,0-.051-.669.745.745,0,0,0-.334-.236c-.226-.065-.258-.209-.244-.412.02-.288.021-.577.024-.865,0-.094.012-.131.121-.091a4.98,4.98,0,0,1,1.064.5,1.666,1.666,0,0,1,.807,1.525,1.554,1.554,0,0,1-1.021,1.376c-.527.256-1.1.379-1.647.588a5.268,5.268,0,0,0-.617.255.471.471,0,0,0-.283.492c.023.28.018.563.021.845,0,.049.029.132-.086.093A1.475,1.475,0,0,1,437.388,51.963Z"/><path class="cls-51" d="M424.9,44.666c.019-.571-.077-1.127-.112-1.688a5.774,5.774,0,0,1,.528-3.12,4.3,4.3,0,0,1,1.11-1.34c.024-.02.045-.051.1-.014a4.365,4.365,0,0,0-.587,1.783c-.076.533-.146,1.066-.227,1.6-.037.243-.094.483-.132.731a5.976,5.976,0,0,1,.789-1.027,7.926,7.926,0,0,1,1.6-1.2,5.728,5.728,0,0,0,1.278-.9,4.021,4.021,0,0,1-1.289,2c-.418.352-.876.648-1.305.984a5.756,5.756,0,0,0-1.631,1.995C424.988,44.537,424.972,44.617,424.9,44.666Z"/><path class="cls-51" d="M453.2,44.6a6.338,6.338,0,0,0-2.336-2.6,5.484,5.484,0,0,1-1.2-1.046,4.353,4.353,0,0,1-.781-1.5A15.385,15.385,0,0,0,451,40.906a5.5,5.5,0,0,1,1.531,1.637c.06-.017.045-.056.039-.081-.18-.735-.226-1.49-.348-2.234a4.317,4.317,0,0,0-.569-1.7c-.005-.008,0-.024.007-.054a2.065,2.065,0,0,1,.445.372,4.442,4.442,0,0,1,1.253,2.713,13.127,13.127,0,0,1-.085,2.651,1.405,1.405,0,0,0-.015.311C453.25,44.553,453.266,44.6,453.2,44.6Z"/><path class="cls-51" d="M433.638,42.045a1.07,1.07,0,0,0,.659-.822,3.92,3.92,0,0,1,1.217-2.215,1.8,1.8,0,0,1,.659-.386,12.384,12.384,0,0,0,1.563-.584c.1-.039.2-.064.339-.109,0,.446,0,.859,0,1.272a.142.142,0,0,1-.1.145,2.35,2.35,0,0,0-.955.77,1.786,1.786,0,0,1-.347.318,10.707,10.707,0,0,1-1.408.9,1.391,1.391,0,0,1-.728.213c-.088,0-.128.056-.176.107a3.88,3.88,0,0,0-.514.79c-.016-.151.065-.26.064-.4l-.188.035C433.68,42.1,433.636,42.119,433.638,42.045Z"/><path class="cls-51" d="M438.64,50.326c0-.645.008-1.261,0-1.877q-.026-1.671-.071-3.343a.234.234,0,0,1,.214-.28c.266-.062.527-.147.775-.217,0,.545.006,1.075,0,1.606-.016,1.068-.039,2.137-.06,3.206,0,.1-.012.2-.015.294-.01.352-.01.352-.358.46Z"/><path class="cls-51" d="M426.311,40.946a5.677,5.677,0,0,1,4.2-4.423,4.4,4.4,0,0,0-1.1,1.385c-.05.092-.106.181-.152.276a4.285,4.285,0,0,1-1.555,1.71,7.545,7.545,0,0,0-1.32,1.021C426.372,40.927,426.351,40.93,426.311,40.946Z"/><path class="cls-51" d="M447.611,36.479a5.734,5.734,0,0,1,4.2,4.437,14.638,14.638,0,0,0-1.686-1.26,4.034,4.034,0,0,1-1.194-1.416,5.51,5.51,0,0,0-1.02-1.487C447.827,36.673,447.738,36.6,447.611,36.479Z"/><path class="cls-51" d="M439.424,52.754c-.03,1.548-.057,3.1-.089,4.643a1.373,1.373,0,0,1-.082.482c-.034.088-.075.185-.177.189-.118.005-.159-.1-.193-.194a1.445,1.445,0,0,1-.081-.483q-.024-1.515-.046-3.03c-.012-.682-.024-1.364-.042-2.046a.2.2,0,0,1,.157-.229,3.711,3.711,0,0,0,.4-.154c.124-.054.174-.037.166.114-.012.236,0,.472,0,.708Z"/><path class="cls-52" d="M441.132,55.379a2.453,2.453,0,0,0-1.263-1.37.133.133,0,0,1-.089-.134c0-.215,0-.429,0-.652A2.031,2.031,0,0,1,441.132,55.379Z"/><path class="cls-52" d="M440.189,40.6a7.312,7.312,0,0,1,1.433.388c.147.055.1.142.062.232s-.044.2-.2.131a6.029,6.029,0,0,0-1.32-.367c-.233-.039-.082-.2-.105-.309C440.041,40.587,440.1,40.575,440.189,40.6Z"/><path class="cls-53" d="M438.191,46.508a.841.841,0,0,1-.522-.684.743.743,0,0,1,.4-.691c.091-.059.137-.062.134.069,0,.163,0,.326,0,.49,0,.111.019.217-.108.3a.152.152,0,0,0,.01.272A.172.172,0,0,1,438.191,46.508Z"/><path class="cls-54" d="M441.407,37.324a.187.187,0,0,1-.166.105,7.086,7.086,0,0,1-1-.04c-.032-.005-.071,0-.075-.044a.041.041,0,0,1,.049-.046c.3.041.58-.133.883-.077A.733.733,0,0,1,441.407,37.324Z"/><path class="cls-54" d="M439.866,49.9c0-.186,0-.367,0-.548,0-.074.029-.1.1-.06.108.058.239.1.261.243s-.079.227-.186.3A.282.282,0,0,1,439.866,49.9Z"/><path class="cls-55" d="M444.194,38.953a.219.219,0,0,1,.353-.084.308.308,0,0,1,.154.4A3.763,3.763,0,0,0,444.194,38.953Z"/><path class="cls-56" d="M441.555,44.351l.012.07c-.085.127-.226.077-.343.1-.016,0-.058-.053-.065-.087s.04-.042.066-.057A.549.549,0,0,1,441.555,44.351Z"/><path class="cls-57" d="M433.712,42.411l-.156-.164a.138.138,0,0,1,.184-.031C433.788,42.258,433.731,42.321,433.712,42.411Z"/><path class="cls-58" d="M453.2,44.6c.077-.121-.011-.27.067-.39v.484A.113.113,0,0,1,453.2,44.6Z"/><path class="cls-59" d="M433.638,42.045l.082.039a.23.23,0,0,1-.224.015C433.525,42.022,433.589,42.05,433.638,42.045Z"/><path class="cls-60" d="M424.717,46.331a.13.13,0,0,1-.059.131.292.292,0,0,1,0-.168Z"/><path class="cls-61" d="M455.319,45.315l-.07-.078v-.158A.413.413,0,0,1,455.319,45.315Z"/><path class="cls-62" d="M429.424,55.244l-.053.052-.109-.16C429.357,55.135,429.383,55.2,429.424,55.244Z"/><path class="cls-63" d="M449.764,60.571c-.017-.034-.05-.035-.081-.041a.328.328,0,0,1,.19-.075C449.862,60.524,449.812,60.547,449.764,60.571Z"/><path class="cls-64" d="M423.384,53.04l-.043.044-.07-.158C423.364,52.931,423.366,52.993,423.384,53.04Z"/><path class="cls-65" d="M427.884,56.265c.039.041.084.08.063.149a.2.2,0,0,1-.114-.1Z"/><path class="cls-66" d="M452.044,53.59c.007-.044,0-.091.039-.126l.036.084-.031.081C452.051,53.641,452.035,53.629,452.044,53.59Z"/><path class="cls-67" d="M428.935,47.357c-.262,0-.525,0-.788,0-.11,0-.148-.028-.144-.144a11.225,11.225,0,0,1,1.217-4.782,11.444,11.444,0,0,1,1.768-2.523c.072-.079.118-.115.214-.016.37.383.747.758,1.128,1.129.087.083.064.124,0,.2a9.147,9.147,0,0,0-1.938,3.233,8.732,8.732,0,0,0-.494,2.677c0,.169-.04.245-.229.23C429.422,47.343,429.178,47.357,428.935,47.357Z"/><path class="cls-67" d="M450.159,48.069a11.006,11.006,0,0,1-2.72,6.686c-.127.147-.241.4-.41.39-.142-.006-.276-.235-.411-.368-.252-.25-.5-.508-.755-.749-.121-.112-.133-.176-.011-.307a9.136,9.136,0,0,0,2.442-5.825c.007-.138.042-.177.179-.174.486.007.972.016,1.457,0,.214-.008.265.067.235.253A.793.793,0,0,0,450.159,48.069Z"/><path class="cls-67" d="M449.227,47.357c-.242,0-.486-.009-.728,0-.153.008-.2-.038-.2-.192a9.031,9.031,0,0,0-.7-3.248c-.068-.163-.145-.322-.216-.484-.013-.029-.056-.088.006-.089.2,0,.09-.117.058-.176a4.229,4.229,0,0,0-1.056-1.379,4.961,4.961,0,0,1-.533-.576c-.057-.061-.033-.1.014-.146.391-.389.784-.777,1.17-1.171.11-.113.146,0,.193.053a10.866,10.866,0,0,1,1.7,2.4,11.007,11.007,0,0,1,1.248,4.85c0,.132-.047.153-.159.151C449.753,47.353,449.49,47.357,449.227,47.357Z"/><path class="cls-67" d="M430.227,50.161c-.171-.229-.429-.136-.656-.186-.009.091.091.125.075.22l-.37-.088c-.015-.062.112-.1.018-.183-.075-.064-.13-.029-.2,0-.315.131-.375.235-.337.572A4.075,4.075,0,0,0,429.342,52c.027.048.052.114.147.079-.091-.229-.238-.429-.315-.664-.043-.13.048-.235.014-.355-.01-.033.024-.038.052-.039a.156.156,0,0,1,.148.077c.082.128.171.253.271.4.062-.112.024-.2.062-.325.125.247.278.411.566.231a.386.386,0,0,0,.279.471c.082.027.124.176.183.27a1.519,1.519,0,0,1,.109.187.24.24,0,0,0,.248.158c.105-.009.054-.131.107-.188.065,0,.074.064.1.1a8.7,8.7,0,0,0,1.092,1.392c.093.095.07.138-.01.216-.361.354-.723.708-1.071,1.074-.117.124-.178.111-.286,0a11.09,11.09,0,0,1-2.725-5.031,10.9,10.9,0,0,1-.3-2.18c0-.128.029-.152.146-.151.526.006,1.052,0,1.577,0,.084,0,.151,0,.154.118a8.9,8.9,0,0,0,.354,2.209A.092.092,0,0,1,430.227,50.161Z"/><path class="cls-67" d="M447.909,48.017a8.791,8.791,0,0,1-2.376,5.487c-.05.054-.1.127-.161.024-.047-.078-.24-.109-.1-.256a.207.207,0,0,0,.046-.2,4.144,4.144,0,0,0-.177-.757c-.031-.09-.156-.079-.24-.1s-.084.068-.094.115c-.025.121-.036.246-.051.369,0,.046,0,.1-.054.117s-.069-.028-.1-.054l-.013-.014c-.147-.15-.377-.282-.415-.457s.216-.3.337-.459a6.828,6.828,0,0,0,1.51-3.856c.012-.189.058-.267.27-.258.459.019.919,0,1.379.007C447.942,47.728,447.911,47.671,447.909,48.017Z"/><path class="cls-67" d="M445.046,43.7c-.029-.1.105-.22-.027-.28s-.067.133-.169.144a7.517,7.517,0,0,0-.587-.742c-.056-.059-.045-.095.008-.144.135-.126.263-.257.4-.382a.62.62,0,0,1,.535.016c.032.032.079.07.054.118-.085.161.039.21.141.263.187.1.334.275.57.281.033,0,.066.059.1.093.2.228.4.451.592.686.085.105.162.137.281.07s.185-.025.242.106a8.934,8.934,0,0,1,.737,3.243c.006.142-.023.194-.179.191-.506-.01-1.012-.007-1.518,0-.119,0-.174-.022-.179-.157a5.984,5.984,0,0,0-.147-1.17c-.037-.154.067-.261.1-.387a2.269,2.269,0,0,0-.02-1.09,2.915,2.915,0,0,0-.7-1.385c.037-.048.112-.007.131-.077,0-.006,0-.022-.008-.027-.108-.076-.215-.151-.324-.224-.023-.015-.049-.055-.081-.017a.072.072,0,0,0-.011.09c.025.038.048.078.076.114a4.085,4.085,0,0,1,.855,2.2c0,.041.047.093-.021.117a.1.1,0,0,1-.144-.061c-.054-.168-.259-.3-.131-.516.012-.02-.036-.078-.058-.117-.034-.062-.093-.11-.089-.192.007-.163-.019-.274-.229-.312-.163-.03-.1-.22-.081-.34C445.19,43.671,445.205,43.674,445.046,43.7Z"/><path class="cls-67" d="M434.4,45.541c.128.035.239-.054.36-.024.01.085-.068.107-.108.113-.241.038-.387.333-.675.242-.065-.02-.079.06-.1.1-.1.177-.193.357-.288.537-.037.068-.083.132-.021.214s-.019.119-.059.162a.377.377,0,0,0-.143.29c.012.148-.049.2-.194.183a2.767,2.767,0,0,0-.473,0c-.159.015-.182-.052-.175-.192a6.53,6.53,0,0,1,.981-3.156,6.407,6.407,0,0,1,.788-1.029c.421.424.835.844,1.254,1.26.06.059.039.093,0,.143a4.289,4.289,0,0,0-.58.84.193.193,0,0,1-.152.1C434.666,45.361,434.494,45.361,434.4,45.541Z"/><path class="cls-67" d="M443.593,50.948l-.311.455c-.159-.073-.18-.151-.072-.306.1-.137.228-.28.154-.5-.028-.081.093-.182.091-.292a1.058,1.058,0,0,0-.039-.291c-.065-.213-.157-.239-.309-.081-.063-.034-.01-.067,0-.094a3.259,3.259,0,0,0,.193-.319.783.783,0,0,1,.461-.449c.1-.038.1-.136.007-.287.423.243.731-.026,1.069-.081.087-.014.091-.058.052-.123a.335.335,0,0,1-.051-.223c.06.024.11.046.162.064s.109.026.139-.032a.173.173,0,0,0-.017-.151c-.033-.066-.08-.017-.119-.008a.88.88,0,0,1-.281.062c-.358-.022-.343-.341-.5-.571.473,0,.91,0,1.346,0,.129,0,.087.1.082.155a6.581,6.581,0,0,1-.7,2.561,6.5,6.5,0,0,1-1,1.452c-.035.039-.067.126-.136.065s-.176-.1-.134-.194C443.8,51.487,443.633,51.257,443.593,50.948Z"/><path class="cls-67" d="M434.1,48.351c.021-.2.136-.4.022-.609.274-.035.271-.034.3.226a4.552,4.552,0,0,0,1.146,2.6c.112.127.1.185-.015.292-.365.35-.721.709-1.073,1.072-.088.091-.132.078-.216,0-.188-.189-.341-.378-.238-.67a.254.254,0,0,0-.017-.211,1.6,1.6,0,0,1-.194-.831.955.955,0,0,0-.157-.537.543.543,0,0,1-.062-.318.824.824,0,0,0-.351-.68c-.092-.068-.131-.11-.077-.209a.286.286,0,0,0-.01-.262.219.219,0,0,1,.2-.329c.038,0,.1,0,.109-.024.085-.189.252-.121.393-.134s.187.073.175.2a.968.968,0,0,1-.059.327.345.345,0,0,0,.058.377c.048.036.078.1.029.13-.206.125-.04.222.022.328A4.808,4.808,0,0,1,434.1,48.351Z"/><path class="cls-67" d="M444.611,46.252c.162-.161.051-.417.246-.551.007,0,.008-.022.007-.033a1.464,1.464,0,0,0-.362-.318c-.15.021-.277.069-.3.25a.261.261,0,0,1-.185.232c-.066.012-.154-.084-.19-.176-.015-.036-.036-.071,0-.106s.059-.006.081.018.078.042.095,0a.215.215,0,0,0-.013-.131.064.064,0,0,0-.1-.029c-.119.13-.161,0-.219-.061a3.645,3.645,0,0,0-.315-.351c-.109-.093-.122-.149.03-.221-.1.009-.2-.11-.235.08-.008.051-.125.041-.176-.025-.11-.139-.213-.283-.325-.42-.056-.067-.019-.1.025-.146.391-.389.782-.778,1.169-1.171.068-.069.1-.044.152.014a6.653,6.653,0,0,1,.67.9c.036.056.075.1-.033.141s-.083.279.006.356a.231.231,0,0,0,.066.042c.462.175.529.612.664,1,.04.118-.049.184-.132.236a.26.26,0,0,0-.137.2C445.074,46.221,444.894,46.326,444.611,46.252Z"/><path class="cls-67" d="M431.213,47.725c.262,0,.524,0,.786,0,.11,0,.154.03.148.143a1.152,1.152,0,0,0,.025.254c.018.1,0,.164-.112.179-.042.006-.105,0-.111.062-.029.278-.248.438-.4.639a.5.5,0,0,0-.123.375,1.166,1.166,0,0,1,0,.2c-.009.147.079.346-.038.428a1.039,1.039,0,0,1-.593.174.135.135,0,0,1-.15-.116,8.838,8.838,0,0,1-.374-2.2c0-.111.035-.134.132-.133C430.675,47.727,430.944,47.725,431.213,47.725Z"/><path class="cls-67" d="M436.856,48.543c.134.175.225.35.36.494.058.062.054.1-.006.163-.391.387-.78.778-1.169,1.168-.046.045-.075.078-.138.009a4.177,4.177,0,0,1-1.076-2.359c.183.3.588.178.8.434.04.049.164-.021.227.061.038.05.137.048.074.175-.036.073.13.124.213.18.012-.023.023-.034.022-.044-.022-.137.032-.293.131-.322s.163.135.234.225.039.119-.059.136c-.048.008-.139-.009-.121.079.016.073.043.17.116.194a.168.168,0,0,0,.18-.094C436.72,48.881,436.869,48.752,436.856,48.543Z"/><path class="cls-67" d="M443.588,55c.042-.127.156-.236.077-.4-.038-.076.07-.114.119-.16.159-.149.162-.206-.014-.328-.068-.048-.08-.083-.042-.157a2.9,2.9,0,0,1,.275-.452c.046-.06.168-.119.1-.206-.083-.107-.147-.256-.317-.265-.058,0-.126.014-.156-.053s-.16-.151-.017-.221c.107-.051.152-.307.349-.1.359.373.729.736,1.1,1.1.077.076.112.12.01.212a9.76,9.76,0,0,1-1.313,1C443.705,55,443.656,55.034,443.588,55Z"/><path class="cls-68" d="M445.449,45.806c.113.318-.176.569-.132.9l.253-.3a5.833,5.833,0,0,1,.094.841c0,.084-.025.116-.112.116-.473,0-.946,0-1.419,0-.052,0-.106.005-.124-.066a.112.112,0,0,1,.05-.135c.137-.095.2-.285.423-.278.083,0,.068-.1-.014-.15s-.094-.1.006-.142a.935.935,0,0,1,.3-.13c.337-.029.47-.288.6-.544C445.4,45.88,445.381,45.831,445.449,45.806Z"/><path class="cls-69" d="M434.151,47.353a.408.408,0,0,1-.4-.317.356.356,0,0,1,.2-.436.665.665,0,0,1,.436.054,1.139,1.139,0,0,1-.047.7A.745.745,0,0,1,434.151,47.353Z"/><path class="cls-69" d="M433.081,47.725c-.042.135-.075.241-.105.347-.016.056-.04.12.021.163.16.114.066.218-.008.326-.087.127-.213.057-.323.063-.049,0-.053-.049-.057-.088-.026-.228-.051-.455-.078-.683-.01-.086.009-.136.113-.13C432.781,47.73,432.918,47.725,433.081,47.725Z"/><path class="cls-70" d="M442.308,45.446c.03-.076-.195.012-.085-.132a.042.042,0,0,0-.018-.065c-.209-.094-.091-.259-.075-.39a.272.272,0,0,1,.19-.207c.07-.022.1.083.149.134s.091.128.144.186a.173.173,0,0,1,.01.233c-.065.09-.106-.019-.157-.038a.133.133,0,0,0-.147.016c-.04.041,0,.088.031.117a.086.086,0,0,1,.025.12C442.364,45.438,442.354,45.471,442.308,45.446Z"/><path class="cls-71" d="M442.83,51.573c-.19.052-.339-.089-.523-.063-.165.023-.258-.206-.479-.2a1.274,1.274,0,0,0,.138-.118c.118-.143.227-.119.359-.009a2.756,2.756,0,0,0,.35.215A.323.323,0,0,1,442.83,51.573Z"/><path class="cls-71" d="M433.042,53.376a1.551,1.551,0,0,1-.249.224c-.064.039-.1-.061-.143-.1a1.536,1.536,0,0,1-.172-.189c-.032-.045-.138-.079-.063-.151s.133-.154.251-.068c.1.068.2.12.3.182C433,53.29,433.042,53.3,433.042,53.376Z"/><path class="cls-72" d="M434.1,48.351a1.722,1.722,0,0,0,.07.632c.027.057-.018.147-.036.263a1.02,1.02,0,0,1-.259-.516c.069-.029.091.085.161.033s-.006-.094,0-.14C434.112,48.545,434.026,48.43,434.1,48.351Z"/><path class="cls-73" d="M452.044,53.59l.044.039-.058.087C451.99,53.669,452.011,53.629,452.044,53.59Z"/><path class="cls-74" d="M435.356,40.151l.282-.466c.11-.18.272-.028.412-.067C435.842,39.813,435.739,40.13,435.356,40.151Z"/><path class="cls-75" d="M429.636,52.375c.216.028.327.189.352.518Z"/><path class="cls-55" d="M443.649,44.555a.044.044,0,0,1-.056-.038c-.01-.056,0-.112.059-.129.2-.053.178-.152.092-.3-.077-.133.033-.25.1-.353a.426.426,0,0,1,.3-.16c.043-.006.161.1.092.161-.091.085-.048.127,0,.188.017.02.038.036.013.064s-.046.016-.069,0c-.053-.037-.105-.078-.161-.111s-.086-.1-.144-.014c-.041.061-.076.107-.017.188s.181.138.141.279C443.952,44.512,443.784,44.505,443.649,44.555Z"/><text class="cls-76" transform="matrix(1, 0.004, -0.004, 1, 229.223, 338.066)">INCN</text><path class="cls-77" d="M252.039,283c.894.144,1.793.264,2.681.437a17.253,17.253,0,0,1-.429,34.053c-9.9,1.773-19.475-4.764-20.992-14.337-.094-.589-.2-1.177-.3-1.765v-1.95c.1-.588.206-1.176.3-1.765a17.55,17.55,0,0,1,14.04-14.236c.888-.174,1.787-.293,2.68-.437Zm-.975,1.761c-8.955-.013-16.213,6.952-16.238,15.581a15.913,15.913,0,0,0,16.168,15.719c8.955.012,16.214-6.954,16.237-15.582A15.909,15.909,0,0,0,251.064,284.761Z"/><path class="cls-77" d="M244.546,289.162a12.444,12.444,0,0,1,3.976-1.353c6.247-1.109,13.055,2.894,14.871,8.765a9.532,9.532,0,0,1-1.672,9.1,25.027,25.027,0,0,1-3.647,3.528,1.772,1.772,0,0,0-.822,1.552,5.541,5.541,0,0,1-.057.742L246.07,312.71c.085-1.209.2-2.31.231-3.414.039-1.555-.377-2.069-1.92-2.5-.714-.2-1.434-.392-2.163-.531-.485-.092-.618-.272-.641-.776a11.363,11.363,0,0,0-.426-2.939,9,9,0,0,0-1.283-1.971l2.789-3.279c.3.467.553.88.833,1.273a5.393,5.393,0,0,0,3.339,2.373.708.708,0,0,1,.447.424c1.313,4.916,6.337,5.861,10.218,3.708a6.6,6.6,0,0,0,3.153-8.662c-1.975-5.012-7.167-7.55-12.838-6.276-.117.026-.233.055-.35.083C245.692,290.646,245.692,290.646,244.546,289.162Z"/><path class="cls-77" d="M248.706,299.4c-.211.034-.328.051-.445.073a3.354,3.354,0,0,1-3.648-1.209,3.257,3.257,0,0,1-.126-3.926,4.683,4.683,0,0,1,1.861-1.667,9.735,9.735,0,0,1,8.352-.136,7.2,7.2,0,0,1,3.494,9.883,3.834,3.834,0,0,1-3.189,1.994,5.36,5.36,0,0,1-6.211-4.483C248.766,299.778,248.742,299.622,248.706,299.4Z"/><text class="cls-76" transform="matrix(1, 0.004, -0.004, 1, 724.043, 419.884)">MINSA</text><path class="cls-48" d="M755.215,371.184h-13.15a2.028,2.028,0,0,0-2.023,2.023v19.219h17.2V373.207A2.028,2.028,0,0,0,755.215,371.184Z"/><path class="cls-78" d="M765.33,380.288h-17.2a1.013,1.013,0,0,0-1.011,1.011v11.127h19.219V381.3A1.014,1.014,0,0,0,765.33,380.288Z"/><path class="cls-78" d="M738.525,380.288a1.063,1.063,0,0,0-.787.42l-1.462,2.193a1.975,1.975,0,0,0-.28.927v8.6h4.046V380.288Z"/><rect class="cls-17" x="741.054" y="388.886" width="5.058" height="3.54"/><rect class="cls-78" x="734.984" y="392.426" width="32.369" height="2.023" rx="0.506"/><rect class="cls-17" x="741.054" y="376.747" width="1.012" height="3.035" rx="0.253"/><rect class="cls-17" x="743.077" y="376.747" width="1.012" height="3.035" rx="0.253"/><rect class="cls-17" x="745.1" y="376.747" width="1.012" height="3.035" rx="0.253"/><rect class="cls-17" x="747.123" y="376.747" width="1.012" height="3.035" rx="0.253"/><rect class="cls-17" x="749.146" y="376.747" width="1.012" height="3.035" rx="0.253"/><rect class="cls-17" x="741.054" y="380.793" width="1.012" height="3.035" rx="0.253"/><rect class="cls-17" x="743.077" y="380.793" width="1.012" height="3.035" rx="0.253"/><rect class="cls-17" x="745.1" y="380.793" width="1.012" height="3.035" rx="0.253"/><rect class="cls-17" x="741.054" y="384.84" width="1.012" height="3.035" rx="0.253"/><rect class="cls-17" x="743.077" y="384.84" width="1.012" height="3.035" rx="0.253"/><rect class="cls-17" x="745.1" y="384.84" width="1.012" height="3.035" rx="0.253"/><rect class="cls-17" x="751.169" y="384.334" width="15.173" height="8.092"/><rect class="cls-17" x="737.513" y="382.816" width="1.012" height="3.035" rx="0.253"/><rect class="cls-17" x="737.513" y="387.368" width="1.012" height="3.035" rx="0.253"/><polygon class="cls-1" points="745.605 388.886 741.559 388.886 741.054 388.886 741.054 389.391 741.054 392.426 741.559 392.426 741.559 389.391 743.33 389.391 743.33 392.426 743.835 392.426 743.835 389.391 745.605 389.391 745.605 392.426 746.111 392.426 746.111 389.391 746.111 388.886 745.605 388.886"/><rect class="cls-1" x="743.077" y="390.403" width="1.012" height="1.012" rx="0.253"/><rect class="cls-40" x="741.559" y="392.426" width="4.046" height="1.012"/><rect class="cls-48" x="741.559" y="393.438" width="4.046" height="1.012"/><path class="cls-1" d="M751.675,384.334h14.667v-1.012H750.663a.508.508,0,0,0-.506.506v8.6h1.012v-1.517a.508.508,0,0,1,.506-.506h14.667v-1.012H751.675a.507.507,0,0,1-.506-.5v-1.012a.508.508,0,0,1,.506-.506h14.667v-1.011H751.675a.508.508,0,0,1-.506-.506V384.84A.507.507,0,0,1,751.675,384.334Z"/><rect class="cls-17" x="741.054" y="372.701" width="1.012" height="3.035" rx="0.253"/><rect class="cls-17" x="743.077" y="372.701" width="1.012" height="3.035" rx="0.253"/><rect class="cls-17" x="745.1" y="372.701" width="1.012" height="3.035" rx="0.253"/><rect class="cls-17" x="747.123" y="372.701" width="1.012" height="3.035" rx="0.253"/><rect class="cls-17" x="749.146" y="372.701" width="1.012" height="3.035" rx="0.253"/><rect class="cls-17" x="751.169" y="376.747" width="1.012" height="3.035" rx="0.253"/><rect class="cls-17" x="751.169" y="372.701" width="1.012" height="3.035" rx="0.253"/><rect class="cls-17" x="753.192" y="376.747" width="1.012" height="3.035" rx="0.253"/><rect class="cls-17" x="753.192" y="372.701" width="1.012" height="3.035" rx="0.253"/><rect class="cls-17" x="755.215" y="376.747" width="1.012" height="3.035" rx="0.253"/><rect class="cls-17" x="755.215" y="372.701" width="1.012" height="3.035" rx="0.253"/><rect class="cls-40" x="744.594" y="366.126" width="8.092" height="5.058"/><circle class="cls-48" cx="748.64" cy="366.126" r="4.046"/><path class="cls-44" d="M751.169,365.115h-1.517V363.6a.507.507,0,0,0-.506-.5h-1.012a.506.506,0,0,0-.5.5v1.518h-1.518a.507.507,0,0,0-.506.5v1.012a.508.508,0,0,0,.506.506h1.518v1.517a.507.507,0,0,0,.5.506h1.012a.508.508,0,0,0,.506-.506v-1.517h1.517a.508.508,0,0,0,.506-.506V365.62A.507.507,0,0,0,751.169,365.115Z"/><text class="cls-79" transform="translate(472.621 588.164)">JEFE DE<tspan class="cls-80"><tspan x="-7.089" y="21.84">C</tspan><tspan class="cls-81" x="5.105" y="21.84">ARRERA</tspan></tspan></text><path class="cls-26" d="M488.019,552.787h26.3c0-14.162-2.023-17.2-13.15-17.2S488.019,538.625,488.019,552.787Z"/><path class="cls-29" d="M513.21,549.694a4.766,4.766,0,0,1-.356,1.356,2.293,2.293,0,0,1-.859.821,15.491,15.491,0,0,0,.1-2.544c-.6-8.76-1.123-6.352-10.925-6.352s-10.322-2.4-10.926,6.339a15.6,15.6,0,0,0,.1,2.557,2.286,2.286,0,0,1-.859-.821,4.736,4.736,0,0,1-.355-1.356c-.926-.239-2.122-.039-2.122,2.59,0,1.637.61,2.979,2.663,3.125.678,5.143,3.675,7.8,8.714,10.063a8.576,8.576,0,0,0,5.571,0c5.038-2.265,8.036-4.921,8.714-10.063,2.053-.146,2.661-1.488,2.661-3.125C515.33,549.655,514.135,549.455,513.21,549.694Z"/><path class="cls-30" d="M505.721,559.289c0,1.735-2.276,2.6-4.552,2.6s-4.552-.866-4.552-2.6a.431.431,0,0,1,.455-.433h8.193A.432.432,0,0,1,505.721,559.289Z"/><path class="cls-34" d="M495.1,549.026c-2.529,0-3.541.913-3.541,1.825s0,2.222,3.342,2.222c3.233,0,3.739-.4,3.739-1.766C498.64,550.4,497.629,549.026,495.1,549.026Z"/><circle class="cls-10" cx="495.353" cy="550.577" r="2.276" transform="translate(-127.462 951.341) rotate(-80.783)"/><path class="cls-11" d="M496.111,550.577a.759.759,0,1,1-.758-.758A.759.759,0,0,1,496.111,550.577Z"/><path class="cls-10" d="M491.559,550.83c0-3.54,7.081-3.54,7.081.506C497.629,548.3,492.571,548.3,491.559,550.83Z"/><path class="cls-34" d="M507.238,549.026c2.529,0,3.541.913,3.541,1.825s0,2.222-3.343,2.222c-3.232,0-3.738-.4-3.738-1.766C503.7,550.4,504.709,549.026,507.238,549.026Z"/><circle class="cls-10" cx="506.985" cy="550.577" r="2.276" transform="translate(-117.693 962.824) rotate(-80.783)"/><path class="cls-11" d="M506.227,550.577a.759.759,0,1,0,.758-.758A.76.76,0,0,0,506.227,550.577Z"/><path class="cls-10" d="M510.779,550.83c0-3.54-7.081-3.54-7.081.506C504.709,548.3,509.767,548.3,510.779,550.83Z"/><path class="cls-82" d="M501.169,557.339c-2.114,0-3.171-1.518-2.114-1.518h4.228C504.339,555.821,503.283,557.338,501.169,557.339Z"/><text class="cls-79" transform="translate(657.075 143.263)">EN<tspan class="cls-83" x="23.459" y="0">T</tspan><tspan x="30.758" y="0">ORNO</tspan><tspan x="11.33" y="21.84">SOCIAL</tspan></text><rect class="cls-29" x="687.591" y="103.246" width="2.93" height="2.243"/><path class="cls-11" d="M685.648,111.721v8.669h2.69c0-5.817.434-6.578.434-6.578h.569s.433.761.433,6.578h2.69v-8.669Z"/><path class="cls-84" d="M689.768,120.148a2.368,2.368,0,0,1,2.7,0V121.2h-2.7Z"/><path class="cls-84" d="M688.346,120.148a2.369,2.369,0,0,0-2.7,0V121.2h2.7Z"/><path class="cls-84" d="M692.794,104.4h-2.273c0,.461-.654.837-1.464.837s-1.466-.376-1.466-.837h-2.272l.329,7.32h6.817Z"/><path class="cls-84" d="M696.006,111.916l-3.881-6.364c-.61-1,.715-1.636,1.327-.635l3.877,6.365Z"/><path class="cls-29" d="M696.006,111.916c.735,1.207,1.073,1.135,1.44.96s.62-.385-.117-1.594Z"/><path class="cls-84" d="M683.14,112.275l1.406-7.146a.755.755,0,1,1,1.475.249l-1.407,7.145Z"/><path class="cls-29" d="M683.14,112.275c-.267,1.354.048,1.487.455,1.554s.753.051,1.019-1.306Z"/><rect class="cls-29" x="703.817" y="103.246" width="2.93" height="2.243"/><path class="cls-11" d="M708.69,111.721v8.669H706c0-5.817-.433-6.578-.433-6.578H705s-.435.761-.435,6.578h-2.688v-8.669Z"/><path class="cls-84" d="M704.571,120.148a2.368,2.368,0,0,0-2.7,0V121.2h2.7Z"/><path class="cls-84" d="M705.992,120.148a2.369,2.369,0,0,1,2.7,0V121.2h-2.7Z"/><path class="cls-85" d="M701.544,104.4h2.273c0,.461.655.837,1.464.837s1.466-.376,1.466-.837h2.271l-.328,7.32h-6.816Z"/><path class="cls-85" d="M698.333,111.916l3.88-6.364c.609-1-.714-1.636-1.327-.635l-3.877,6.365Z"/><path class="cls-29" d="M698.333,111.916c-.735,1.207-1.074,1.135-1.441.96s-.62-.385.117-1.594Z"/><path class="cls-85" d="M711.2,112.275l-1.406-7.146a.755.755,0,1,0-1.475.249l1.407,7.145Z"/><path class="cls-29" d="M711.2,112.275c.267,1.354-.049,1.487-.454,1.554s-.754.051-1.02-1.306Z"/><path class="cls-26" d="M682.866,97.354l.639,1.17h11.1l.484-1.249c0-4.481-1.039-6.38-5.982-6.426C684.115,90.8,682.866,92.792,682.866,97.354Z"/><path class="cls-29" d="M694.629,97.278a2.3,2.3,0,0,1-.164.639,1.073,1.073,0,0,1-.4.387,7.446,7.446,0,0,0,.047-1.2c-.279-4.13-.52-2.146-5.058-2.146S684.278,92.975,684,97.1a7.6,7.6,0,0,0,.046,1.206,1.057,1.057,0,0,1-.4-.387,2.232,2.232,0,0,1-.165-.639c-.428-.113-.981-.018-.981,1.222,0,.77.281,1.4,1.232,1.472.334,2.582,3.777,4.307,5.322,4.307s4.988-1.724,5.323-4.307c.95-.069,1.233-.7,1.233-1.472C695.611,97.26,695.058,97.165,694.629,97.278Z"/><path class="cls-30" d="M686.728,97.671a.953.953,0,1,1-.953.953A.953.953,0,0,1,686.728,97.671Z"/><circle class="cls-30" cx="691.384" cy="98.624" r="0.953"/><path class="cls-30" d="M690.577,101.53a2.312,2.312,0,0,1-3.043,0c-.117-.092-.224.067-.144.214a1.86,1.86,0,0,0,3.331,0C690.8,101.6,690.7,101.438,690.577,101.53Z"/><path class="cls-26" d="M699.091,97.354l.639,1.17h11.1l.483-1.249c0-4.481-1.04-6.38-5.981-6.426C700.34,90.8,699.091,92.792,699.091,97.354Z"/><path class="cls-29" d="M710.854,97.278a2.34,2.34,0,0,1-.164.639,1.081,1.081,0,0,1-.4.387,7.387,7.387,0,0,0,.046-1.2c-.279-4.13-.518-2.146-5.057-2.146s-4.778-1.983-5.056,2.14a7.537,7.537,0,0,0,.045,1.206,1.065,1.065,0,0,1-.4-.387,2.266,2.266,0,0,1-.165-.639c-.429-.113-.98-.018-.98,1.222,0,.77.281,1.4,1.232,1.472.334,2.582,3.777,4.306,5.322,4.306s4.987-1.723,5.322-4.306c.949-.068,1.232-.7,1.232-1.472C711.836,97.26,711.283,97.165,710.854,97.278Z"/><path class="cls-30" d="M703.905,98.624a.953.953,0,1,1-.952-.956A.954.954,0,0,1,703.905,98.624Z"/><circle class="cls-30" cx="707.61" cy="98.624" r="0.953"/><path class="cls-30" d="M706.8,101.53a2.312,2.312,0,0,1-3.043,0c-.117-.092-.223.067-.144.214a1.86,1.86,0,0,0,3.331,0C707.025,101.6,706.92,101.438,706.8,101.53Z"/></svg>